<?xml version="1.0" encoding="UTF-8" standalone="no"?>
<!DOCTYPE svg PUBLIC "-//W3C//DTD SVG 1.1//EN"
 "http://www.w3.org/Graphics/SVG/1.1/DTD/svg11.dtd">
<!-- Generated by graphviz version 7.0.5 (20221223.1930)
 -->
<!-- Title: MainWindow Pages: 1 -->
<svg width="553pt" height="347pt"
 viewBox="0.00 0.00 553.00 347.00" xmlns="http://www.w3.org/2000/svg" xmlns:xlink="http://www.w3.org/1999/xlink">
<g id="graph0" class="graph" transform="scale(1 1) rotate(0) translate(4 343)">
<title>MainWindow</title>
<!-- Node1 -->
<g id="node1" class="node">
<title>Node1</title>
<g id="a_node1"><a xlink:title="Main window for the application linescaleGUI.">
<polygon fill="#999999" stroke="#666666" points="330,-19 258,-19 258,0 330,0 330,-19"/>
<text text-anchor="middle" x="294" y="-7" font-family="Helvetica,sans-Serif" font-size="10.00">MainWindow</text>
</a>
</g>
</g>
<!-- Node2 -->
<g id="node2" class="node">
<title>Node2</title>
<g id="a_node2"><a xlink:title=" ">
<polygon fill="white" stroke="#666666" points="80,-85 0,-85 0,-66 80,-66 80,-85"/>
<text text-anchor="middle" x="40" y="-73" font-family="Helvetica,sans-Serif" font-size="10.00">QMainWindow</text>
</a>
</g>
</g>
<!-- Node2&#45;&gt;Node1 -->
<g id="edge1" class="edge">
<title>Node2&#45;&gt;Node1</title>
<path fill="none" stroke="#63b8ff" d="M60.36,-59.27C71.98,-51.36 87.14,-42.26 102,-37 154.02,-18.57 218.18,-12.88 257.59,-11.17"/>
<polygon fill="#63b8ff" stroke="#63b8ff" points="58.53,-56.28 52.4,-64.92 62.58,-61.99 58.53,-56.28"/>
</g>
<!-- Node3 -->
<g id="node3" class="node">
<title>Node3</title>
<g id="a_node3"><a xlink:href="classcomm_1_1_comm_master.html" target="_top" xlink:title="Class to handle all connections to the connected LineScales.">
<polygon fill="white" stroke="#666666" points="266.5,-151 159.5,-151 159.5,-132 266.5,-132 266.5,-151"/>
<text text-anchor="middle" x="213" y="-139" font-family="Helvetica,sans-Serif" font-size="10.00">comm::CommMaster</text>
</a>
</g>
</g>
<!-- Node3&#45;&gt;Node1 -->
<g id="edge2" class="edge">
<title>Node3&#45;&gt;Node1</title>
<path fill="none" stroke="#9a32cd" stroke-dasharray="5,2" d="M176.11,-127.4C144.38,-114.03 106.44,-91.64 125,-66 155.16,-24.35 217.58,-13.4 257.53,-10.84"/>
<polygon fill="#9a32cd" stroke="#9a32cd" points="174.55,-130.55 185.13,-131.02 177.15,-124.05 174.55,-130.55"/>
<text text-anchor="middle" x="140" y="-73" font-family="Helvetica,sans-Serif" font-size="10.00"> comm</text>
</g>
<!-- Node10 -->
<g id="node10" class="node">
<title>Node10</title>
<g id="a_node10"><a xlink:href="class_dialog_debug.html" target="_top" xlink:title="Dialog to send predefined snippets to the linescale.">
<polygon fill="white" stroke="#666666" points="235.5,-85 164.5,-85 164.5,-66 235.5,-66 235.5,-85"/>
<text text-anchor="middle" x="200" y="-73" font-family="Helvetica,sans-Serif" font-size="10.00">DialogDebug</text>
</a>
</g>
</g>
<!-- Node3&#45;&gt;Node10 -->
<g id="edge13" class="edge">
<title>Node3&#45;&gt;Node10</title>
<path fill="none" stroke="#9a32cd" stroke-dasharray="5,2" d="M203.4,-121.71C202.43,-119.17 201.59,-116.56 201,-114 198.78,-104.35 198.85,-92.94 199.26,-85.26"/>
<polygon fill="#9a32cd" stroke="#9a32cd" points="200.12,-122.95 207.46,-130.6 206.49,-120.05 200.12,-122.95"/>
<text text-anchor="middle" x="216" y="-106" font-family="Helvetica,sans-Serif" font-size="10.00"> comm</text>
</g>
<!-- Node11 -->
<g id="node11" class="node">
<title>Node11</title>
<g id="a_node11"><a xlink:href="class_dialog_connect.html" target="_top" xlink:title="Dialog to handle the connection with a device.">
<polygon fill="white" stroke="#666666" points="334,-85 254,-85 254,-66 334,-66 334,-85"/>
<text text-anchor="middle" x="294" y="-73" font-family="Helvetica,sans-Serif" font-size="10.00">DialogConnect</text>
</a>
</g>
</g>
<!-- Node3&#45;&gt;Node11 -->
<g id="edge16" class="edge">
<title>Node3&#45;&gt;Node11</title>
<path fill="none" stroke="#9a32cd" stroke-dasharray="5,2" d="M233.2,-124.54C248.89,-112.14 270.06,-95.42 282.83,-85.32"/>
<polygon fill="#9a32cd" stroke="#9a32cd" points="231.13,-121.72 225.45,-130.66 235.47,-127.21 231.13,-121.72"/>
<text text-anchor="middle" x="274" y="-106" font-family="Helvetica,sans-Serif" font-size="10.00"> comm</text>
</g>
<!-- Node4 -->
<g id="node4" class="node">
<title>Node4</title>
<g id="a_node4"><a xlink:title=" ">
<polygon fill="white" stroke="#666666" points="333.5,-339 280.5,-339 280.5,-320 333.5,-320 333.5,-339"/>
<text text-anchor="middle" x="307" y="-327" font-family="Helvetica,sans-Serif" font-size="10.00">QObject</text>
</a>
</g>
</g>
<!-- Node4&#45;&gt;Node3 -->
<g id="edge3" class="edge">
<title>Node4&#45;&gt;Node3</title>
<path fill="none" stroke="#63b8ff" d="M311.6,-308.68C311.91,-306.11 312.07,-303.5 312,-301 310.36,-240.09 316.97,-213.17 275,-169 267.5,-161.11 257.27,-155.45 247.28,-151.45"/>
<polygon fill="#63b8ff" stroke="#63b8ff" points="308.18,-307.94 309.78,-318.41 315.06,-309.23 308.18,-307.94"/>
</g>
<!-- Node5 -->
<g id="node5" class="node">
<title>Node5</title>
<g id="a_node5"><a xlink:href="classcomm_1_1_comm_device.html" target="_top" xlink:title="Base class for every connection.">
<polygon fill="white" stroke="#666666" points="266.5,-217 159.5,-217 159.5,-198 266.5,-198 266.5,-217"/>
<text text-anchor="middle" x="213" y="-205" font-family="Helvetica,sans-Serif" font-size="10.00">comm::CommDevice</text>
</a>
</g>
</g>
<!-- Node4&#45;&gt;Node5 -->
<g id="edge5" class="edge">
<title>Node4&#45;&gt;Node5</title>
<path fill="none" stroke="#63b8ff" d="M304.63,-308.31C301.21,-287.55 293.05,-255.44 274,-235 266.68,-227.14 256.63,-221.5 246.79,-217.49"/>
<polygon fill="#63b8ff" stroke="#63b8ff" points="301.14,-308.65 305.99,-318.07 308.07,-307.68 301.14,-308.65"/>
</g>
<!-- Node6 -->
<g id="node6" class="node">
<title>Node6</title>
<g id="a_node6"><a xlink:href="class_parser.html" target="_top" xlink:title="Class to parse the received messages.">
<polygon fill="white" stroke="#666666" points="173.5,-283 128.5,-283 128.5,-264 173.5,-264 173.5,-283"/>
<text text-anchor="middle" x="151" y="-271" font-family="Helvetica,sans-Serif" font-size="10.00">Parser</text>
</a>
</g>
</g>
<!-- Node4&#45;&gt;Node6 -->
<g id="edge7" class="edge">
<title>Node4&#45;&gt;Node6</title>
<path fill="none" stroke="#63b8ff" d="M270.39,-315.83C240.47,-305.47 199.11,-291.15 173.75,-282.38"/>
<polygon fill="#63b8ff" stroke="#63b8ff" points="269.21,-319.12 279.81,-319.09 271.5,-312.51 269.21,-319.12"/>
</g>
<!-- Node12 -->
<g id="node12" class="node">
<title>Node12</title>
<g id="a_node12"><a xlink:href="class_notification.html" target="_top" xlink:title="Class to handle all notifications.">
<polygon fill="white" stroke="#666666" points="516.5,-151 451.5,-151 451.5,-132 516.5,-132 516.5,-151"/>
<text text-anchor="middle" x="484" y="-139" font-family="Helvetica,sans-Serif" font-size="10.00">Notification</text>
</a>
</g>
</g>
<!-- Node4&#45;&gt;Node12 -->
<g id="edge18" class="edge">
<title>Node4&#45;&gt;Node12</title>
<path fill="none" stroke="#63b8ff" d="M323.31,-311.36C359.99,-272.81 447.93,-180.41 475.55,-151.38"/>
<polygon fill="#63b8ff" stroke="#63b8ff" points="320.94,-308.78 316.58,-318.43 326.01,-313.6 320.94,-308.78"/>
</g>
<!-- Node5&#45;&gt;Node3 -->
<g id="edge4" class="edge">
<title>Node5&#45;&gt;Node3</title>
<path fill="none" stroke="#9a32cd" stroke-dasharray="5,2" d="M213,-186.18C213,-174.44 213,-160.27 213,-151.32"/>
<polygon fill="#9a32cd" stroke="#9a32cd" points="209.5,-186.09 213,-196.09 216.5,-186.09 209.5,-186.09"/>
<text text-anchor="middle" x="242" y="-172" font-family="Helvetica,sans-Serif" font-size="10.00"> singleDevice</text>
</g>
<!-- Node6&#45;&gt;Node5 -->
<g id="edge6" class="edge">
<title>Node6&#45;&gt;Node5</title>
<path fill="none" stroke="#9a32cd" stroke-dasharray="5,2" d="M163.61,-254.44C168.43,-248.03 174.17,-240.93 180,-235 186.28,-228.6 194.07,-222.29 200.5,-217.42"/>
<polygon fill="#9a32cd" stroke="#9a32cd" points="160.83,-252.31 157.8,-262.47 166.5,-256.41 160.83,-252.31"/>
<text text-anchor="middle" x="195" y="-238" font-family="Helvetica,sans-Serif" font-size="10.00"> parser</text>
</g>
<!-- Node7 -->
<g id="node7" class="node">
<title>Node7</title>
<g id="a_node7"><a xlink:href="struct_sample.html" target="_top" xlink:title="A sample received from a LineScale.">
<polygon fill="white" stroke="#666666" points="242,-283 192,-283 192,-264 242,-264 242,-283"/>
<text text-anchor="middle" x="217" y="-271" font-family="Helvetica,sans-Serif" font-size="10.00">Sample</text>
</a>
</g>
</g>
<!-- Node7&#45;&gt;Node5 -->
<g id="edge8" class="edge">
<title>Node7&#45;&gt;Node5</title>
<path fill="none" stroke="#9a32cd" stroke-dasharray="5,2" d="M214.53,-252.26C214.32,-250.15 214.14,-248.03 214,-246 213.32,-236.25 213.09,-225.06 213.02,-217.45"/>
<polygon fill="#9a32cd" stroke="#9a32cd" points="211.05,-252.63 215.64,-262.18 218,-251.85 211.05,-252.63"/>
<text text-anchor="middle" x="244" y="-238" font-family="Helvetica,sans-Serif" font-size="10.00"> receivedData</text>
</g>
<!-- Node8 -->
<g id="node8" class="node">
<title>Node8</title>
<g id="a_node8"><a xlink:href="class_dialog_about.html" target="_top" xlink:title="Dialog to show basic informations about the linescaleGUI.">
<polygon fill="white" stroke="#666666" points="421.5,-85 352.5,-85 352.5,-66 421.5,-66 421.5,-85"/>
<text text-anchor="middle" x="387" y="-73" font-family="Helvetica,sans-Serif" font-size="10.00">DialogAbout</text>
</a>
</g>
</g>
<!-- Node8&#45;&gt;Node1 -->
<g id="edge9" class="edge">
<title>Node8&#45;&gt;Node1</title>
<path fill="none" stroke="#9a32cd" stroke-dasharray="5,2" d="M368.95,-58.11C360.96,-51.22 351.29,-43.35 342,-37 332.41,-30.45 321.06,-24.12 311.81,-19.29"/>
<polygon fill="#9a32cd" stroke="#9a32cd" points="366.47,-60.59 376.28,-64.59 371.11,-55.35 366.47,-60.59"/>
<text text-anchor="middle" x="374" y="-40" font-family="Helvetica,sans-Serif" font-size="10.00"> dAbout</text>
</g>
<!-- Node9 -->
<g id="node9" class="node">
<title>Node9</title>
<g id="a_node9"><a xlink:title=" ">
<polygon fill="white" stroke="#666666" points="348.5,-151 297.5,-151 297.5,-132 348.5,-132 348.5,-151"/>
<text text-anchor="middle" x="323" y="-139" font-family="Helvetica,sans-Serif" font-size="10.00">QDialog</text>
</a>
</g>
</g>
<!-- Node9&#45;&gt;Node8 -->
<g id="edge10" class="edge">
<title>Node9&#45;&gt;Node8</title>
<path fill="none" stroke="#63b8ff" d="M340.02,-123.48C352.3,-111.2 368.37,-95.13 378.18,-85.32"/>
<polygon fill="#63b8ff" stroke="#63b8ff" points="337.57,-120.98 332.97,-130.53 342.52,-125.93 337.57,-120.98"/>
</g>
<!-- Node9&#45;&gt;Node10 -->
<g id="edge12" class="edge">
<title>Node9&#45;&gt;Node10</title>
<path fill="none" stroke="#63b8ff" d="M288.11,-127.34C278.52,-123.37 268.23,-118.8 259,-114 242.2,-105.27 223.97,-93.25 212.28,-85.2"/>
<polygon fill="#63b8ff" stroke="#63b8ff" points="286.55,-130.48 297.14,-130.96 289.16,-123.99 286.55,-130.48"/>
</g>
<!-- Node9&#45;&gt;Node11 -->
<g id="edge15" class="edge">
<title>Node9&#45;&gt;Node11</title>
<path fill="none" stroke="#63b8ff" d="M316.33,-120.84C314.17,-115.02 311.65,-108.68 309,-103 306.14,-96.87 302.39,-90.24 299.36,-85.15"/>
<polygon fill="#63b8ff" stroke="#63b8ff" points="313.02,-122.01 319.65,-130.27 319.63,-119.68 313.02,-122.01"/>
</g>
<!-- Node10&#45;&gt;Node1 -->
<g id="edge11" class="edge">
<title>Node10&#45;&gt;Node1</title>
<path fill="none" stroke="#9a32cd" stroke-dasharray="5,2" d="M221.78,-59.21C231.59,-52.37 243.34,-44.23 254,-37 262.82,-31.01 272.82,-24.39 280.62,-19.26"/>
<polygon fill="#9a32cd" stroke="#9a32cd" points="219.82,-56.32 213.63,-64.92 223.83,-62.05 219.82,-56.32"/>
<text text-anchor="middle" x="272" y="-40" font-family="Helvetica,sans-Serif" font-size="10.00"> dDebug</text>
</g>
<!-- Node11&#45;&gt;Node1 -->
<g id="edge14" class="edge">
<title>Node11&#45;&gt;Node1</title>
<path fill="none" stroke="#9a32cd" stroke-dasharray="5,2" d="M294,-54.18C294,-42.44 294,-28.27 294,-19.32"/>
<polygon fill="#9a32cd" stroke="#9a32cd" points="290.5,-54.09 294,-64.09 297.5,-54.09 290.5,-54.09"/>
<text text-anchor="middle" x="316" y="-40" font-family="Helvetica,sans-Serif" font-size="10.00"> dConnect</text>
</g>
<!-- Node12&#45;&gt;Node1 -->
<g id="edge17" class="edge">
<title>Node12&#45;&gt;Node1</title>
<path fill="none" stroke="#9a32cd" stroke-dasharray="5,2" d="M498.27,-122.44C499.79,-119.74 501.11,-116.88 502,-114 503.44,-109.33 503.15,-107.75 502,-103 492.54,-63.88 477.28,-52.17 440,-37 404.33,-22.48 360.53,-15.88 330.26,-12.91"/>
<polygon fill="#9a32cd" stroke="#9a32cd" points="495.41,-120.41 492.66,-130.64 501.19,-124.36 495.41,-120.41"/>
<text text-anchor="middle" x="520.5" y="-73" font-family="Helvetica,sans-Serif" font-size="10.00"> notification</text>
</g>
<!-- Node13 -->
<g id="node13" class="node">
<title>Node13</title>
<g id="a_node13"><a xlink:href="class_plot.html" target="_top" xlink:title="Widget to display a dynamic line graph chart.">
<polygon fill="white" stroke="#666666" points="474,-85 440,-85 440,-66 474,-66 474,-85"/>
<text text-anchor="middle" x="457" y="-73" font-family="Helvetica,sans-Serif" font-size="10.00">Plot</text>
</a>
</g>
</g>
<!-- Node12&#45;&gt;Node13 -->
<g id="edge21" class="edge">
<title>Node12&#45;&gt;Node13</title>
<path fill="none" stroke="#9a32cd" stroke-dasharray="5,2" d="M460.1,-124.12C457.23,-121.1 454.71,-117.71 453,-114 448.78,-104.84 451.09,-93.13 453.59,-85.25"/>
<polygon fill="#9a32cd" stroke="#9a32cd" points="457.76,-126.73 467.61,-130.62 462.34,-121.43 457.76,-126.73"/>
<text text-anchor="middle" x="477.5" y="-106" font-family="Helvetica,sans-Serif" font-size="10.00"> notification</text>
</g>
<!-- Node13&#45;&gt;Node1 -->
<g id="edge19" class="edge">
<title>Node13&#45;&gt;Node1</title>
<path fill="none" stroke="#9a32cd" stroke-dasharray="5,2" d="M435.5,-59.39C423.93,-51.81 409.16,-42.99 395,-37 374.3,-28.24 349.95,-21.75 330.35,-17.38"/>
<polygon fill="#9a32cd" stroke="#9a32cd" points="433.24,-62.09 443.49,-64.78 437.16,-56.29 433.24,-62.09"/>
<text text-anchor="middle" x="426.5" y="-40" font-family="Helvetica,sans-Serif" font-size="10.00"> plot</text>
</g>
<!-- Node14 -->
<g id="node14" class="node">
<title>Node14</title>
<g id="a_node14"><a xlink:title=" ">
<polygon fill="white" stroke="#666666" points="433,-151 379,-151 379,-132 433,-132 433,-151"/>
<text text-anchor="middle" x="406" y="-139" font-family="Helvetica,sans-Serif" font-size="10.00">QWidget</text>
</a>
</g>
</g>
<!-- Node14&#45;&gt;Node13 -->
<g id="edge20" class="edge">
<title>Node14&#45;&gt;Node13</title>
<path fill="none" stroke="#63b8ff" d="M420.14,-122.76C429.84,-110.58 442.31,-94.94 449.97,-85.32"/>
<polygon fill="#63b8ff" stroke="#63b8ff" points="417.53,-120.42 414.03,-130.42 423,-124.78 417.53,-120.42"/>
</g>
</g>
</svg>
