<?xml version="1.0" encoding="UTF-8" standalone="no"?>
<!DOCTYPE svg PUBLIC "-//W3C//DTD SVG 1.1//EN"
 "http://www.w3.org/Graphics/SVG/1.1/DTD/svg11.dtd">
<!-- Generated by graphviz version 7.0.5 (20221223.1930)
 -->
<!-- Title: comm::CommMaster::setNewFreq Pages: 1 -->
<svg width="525pt" height="38pt"
 viewBox="0.00 0.00 525.00 38.00" xmlns="http://www.w3.org/2000/svg" xmlns:xlink="http://www.w3.org/1999/xlink">
<g id="graph0" class="graph" transform="scale(1 1) rotate(0) translate(4 34)">
<title>comm::CommMaster::setNewFreq</title>
<!-- Node1 -->
<g id="node1" class="node">
<title>Node1</title>
<g id="a_node1"><a xlink:title="Set a new frequency on the device.">
<polygon fill="#999999" stroke="#666666" points="517,-24.5 353,-24.5 353,-5.5 517,-5.5 517,-24.5"/>
<text text-anchor="middle" x="435" y="-12.5" font-family="Helvetica,sans-Serif" font-size="10.00">comm::CommMaster::setNewFreq</text>
</a>
</g>
</g>
<!-- Node2 -->
<g id="node2" class="node">
<title>Node2</title>
<g id="a_node2"><a xlink:href="class_connection_widget.html#abae7db7f76bb5ef89d3be9d3e253c737" target="_top" xlink:title="Request new frequency from the connected device.">
<polygon fill="white" stroke="#666666" points="317,-30 185,-30 185,0 317,0 317,-30"/>
<text text-anchor="start" x="193" y="-18" font-family="Helvetica,sans-Serif" font-size="10.00">ConnectionWidget::request</text>
<text text-anchor="middle" x="251" y="-7" font-family="Helvetica,sans-Serif" font-size="10.00">NewFreq</text>
</a>
</g>
</g>
<!-- Node1&#45;&gt;Node2 -->
<g id="edge1" class="edge">
<title>Node1&#45;&gt;Node2</title>
<path fill="none" stroke="#63b8ff" d="M341.17,-15C333.09,-15 325.03,-15 317.25,-15"/>
<polygon fill="#63b8ff" stroke="#63b8ff" points="341.07,-18.5 351.07,-15 341.07,-11.5 341.07,-18.5"/>
</g>
<!-- Node3 -->
<g id="node3" class="node">
<title>Node3</title>
<g id="a_node3"><a xlink:href="class_connection_widget.html#a832811b8c579f99b44e45d0b30cef1fd" target="_top" xlink:title="Constructor of the class.">
<polygon fill="white" stroke="#666666" points="149,-30 0,-30 0,0 149,0 149,-30"/>
<text text-anchor="start" x="8" y="-18" font-family="Helvetica,sans-Serif" font-size="10.00">ConnectionWidget::Connection</text>
<text text-anchor="middle" x="74.5" y="-7" font-family="Helvetica,sans-Serif" font-size="10.00">Widget</text>
</a>
</g>
</g>
<!-- Node2&#45;&gt;Node3 -->
<g id="edge2" class="edge">
<title>Node2&#45;&gt;Node3</title>
<path fill="none" stroke="#63b8ff" d="M173.05,-15C165.15,-15 157.13,-15 149.25,-15"/>
<polygon fill="#63b8ff" stroke="#63b8ff" points="173.01,-18.5 183.01,-15 173.01,-11.5 173.01,-18.5"/>
</g>
</g>
</svg>
