<?xml version="1.0" encoding="UTF-8" standalone="no"?>
<!DOCTYPE svg PUBLIC "-//W3C//DTD SVG 1.1//EN"
 "http://www.w3.org/Graphics/SVG/1.1/DTD/svg11.dtd">
<!-- Generated by graphviz version 7.0.5 (20221223.1930)
 -->
<!-- Title: Notification::push Pages: 1 -->
<svg width="447pt" height="101pt"
 viewBox="0.00 0.00 447.00 101.00" xmlns="http://www.w3.org/2000/svg" xmlns:xlink="http://www.w3.org/1999/xlink">
<g id="graph0" class="graph" transform="scale(1 1) rotate(0) translate(4 97)">
<title>Notification::push</title>
<!-- Node1 -->
<g id="node1" class="node">
<title>Node1</title>
<g id="a_node1"><a xlink:title="Method to write a notification to the already specified text browser.">
<polygon fill="#999999" stroke="#666666" points="439,-56 348,-56 348,-37 439,-37 439,-56"/>
<text text-anchor="middle" x="393.5" y="-44" font-family="Helvetica,sans-Serif" font-size="10.00">Notification::push</text>
</a>
</g>
</g>
<!-- Node2 -->
<g id="node2" class="node">
<title>Node2</title>
<g id="a_node2"><a xlink:href="class_plot.html#a1bffd40999f0ff50b720bca97e4242c5" target="_top" xlink:title="Save the current plot window as png to the local machine.">
<polygon fill="white" stroke="#666666" points="283,-19 197,-19 197,0 283,0 283,-19"/>
<text text-anchor="middle" x="240" y="-7" font-family="Helvetica,sans-Serif" font-size="10.00">Plot::saveImage</text>
</a>
</g>
</g>
<!-- Node1&#45;&gt;Node2 -->
<g id="edge1" class="edge">
<title>Node1&#45;&gt;Node2</title>
<path fill="none" stroke="#63b8ff" d="M340.85,-33.88C321.54,-29.17 299.9,-23.88 281.71,-19.44"/>
<polygon fill="#63b8ff" stroke="#63b8ff" points="339.89,-37.25 350.43,-36.23 341.55,-30.45 339.89,-37.25"/>
</g>
<!-- Node5 -->
<g id="node5" class="node">
<title>Node5</title>
<g id="a_node5"><a xlink:href="class_notification.html#a55ba3de37658a449ffc4687e7f984776" target="_top" xlink:title="Method to save the current context of the text browser to a file. A system file dialog will open wher...">
<polygon fill="white" stroke="#666666" points="293.5,-93 186.5,-93 186.5,-74 293.5,-74 293.5,-93"/>
<text text-anchor="middle" x="240" y="-81" font-family="Helvetica,sans-Serif" font-size="10.00">Notification::saveLog</text>
</a>
</g>
</g>
<!-- Node1&#45;&gt;Node5 -->
<g id="edge4" class="edge">
<title>Node1&#45;&gt;Node5</title>
<path fill="none" stroke="#63b8ff" d="M340.85,-59.12C321.54,-63.83 299.9,-69.12 281.71,-73.56"/>
<polygon fill="#63b8ff" stroke="#63b8ff" points="341.55,-62.55 350.43,-56.77 339.89,-55.75 341.55,-62.55"/>
</g>
<!-- Node6 -->
<g id="node6" class="node">
<title>Node6</title>
<g id="a_node6"><a xlink:href="class_main_window.html#a55493aa4ef69fc35e7fa5177f65fe415" target="_top" xlink:title="Start or stop the readings.">
<polygon fill="white" stroke="#666666" points="312,-56 168,-56 168,-37 312,-37 312,-56"/>
<text text-anchor="middle" x="240" y="-44" font-family="Helvetica,sans-Serif" font-size="10.00">MainWindow::triggerReadings</text>
</a>
</g>
</g>
<!-- Node1&#45;&gt;Node6 -->
<g id="edge6" class="edge">
<title>Node1&#45;&gt;Node6</title>
<path fill="none" stroke="#63b8ff" d="M336.56,-46.5C328.66,-46.5 320.45,-46.5 312.31,-46.5"/>
<polygon fill="#63b8ff" stroke="#63b8ff" points="336.35,-50 346.35,-46.5 336.35,-43 336.35,-50"/>
</g>
<!-- Node3 -->
<g id="node3" class="node">
<title>Node3</title>
<g id="a_node3"><a xlink:href="class_main_window.html#a996c5a2b6f77944776856f08ec30858d" target="_top" xlink:title=" ">
<polygon fill="white" stroke="#666666" points="132,-56 0,-56 0,-37 132,-37 132,-56"/>
<text text-anchor="middle" x="66" y="-44" font-family="Helvetica,sans-Serif" font-size="10.00">MainWindow::MainWindow</text>
</a>
</g>
</g>
<!-- Node2&#45;&gt;Node3 -->
<g id="edge2" class="edge">
<title>Node2&#45;&gt;Node3</title>
<path fill="none" stroke="#63b8ff" d="M185.89,-20.92C162.74,-25.91 135.83,-31.69 113.48,-36.5"/>
<polygon fill="#63b8ff" stroke="#63b8ff" points="186.4,-24.39 195.44,-18.87 184.93,-17.55 186.4,-24.39"/>
</g>
<!-- Node4 -->
<g id="node4" class="node">
<title>Node4</title>
<g id="a_node4"><a xlink:href="class_plot.html#a83d9454de4b05fc361c318317658c734" target="_top" xlink:title="Create a new Plot widget.">
<polygon fill="white" stroke="#666666" points="94,-19 38,-19 38,0 94,0 94,-19"/>
<text text-anchor="middle" x="66" y="-7" font-family="Helvetica,sans-Serif" font-size="10.00">Plot::Plot</text>
</a>
</g>
</g>
<!-- Node2&#45;&gt;Node4 -->
<g id="edge3" class="edge">
<title>Node2&#45;&gt;Node4</title>
<path fill="none" stroke="#63b8ff" d="M185.69,-9.5C155.46,-9.5 118.91,-9.5 94.42,-9.5"/>
<polygon fill="#63b8ff" stroke="#63b8ff" points="185.41,-13 195.41,-9.5 185.41,-6 185.41,-13"/>
</g>
<!-- Node5&#45;&gt;Node3 -->
<g id="edge5" class="edge">
<title>Node5&#45;&gt;Node3</title>
<path fill="none" stroke="#63b8ff" d="M181.89,-71.21C159.58,-66.42 134.35,-60.99 113.22,-56.44"/>
<polygon fill="#63b8ff" stroke="#63b8ff" points="180.92,-74.58 191.43,-73.27 182.39,-67.74 180.92,-74.58"/>
</g>
<!-- Node6&#45;&gt;Node3 -->
<g id="edge7" class="edge">
<title>Node6&#45;&gt;Node3</title>
<path fill="none" stroke="#63b8ff" d="M156.29,-46.5C148.29,-46.5 140.25,-46.5 132.45,-46.5"/>
<polygon fill="#63b8ff" stroke="#63b8ff" points="156.04,-50 166.04,-46.5 156.04,-43 156.04,-50"/>
</g>
</g>
</svg>
