<?xml version="1.0" encoding="UTF-8" standalone="no"?>
<!DOCTYPE svg PUBLIC "-//W3C//DTD SVG 1.1//EN"
 "http://www.w3.org/Graphics/SVG/1.1/DTD/svg11.dtd">
<!-- Generated by graphviz version 7.0.4 (20221203.1631)
 -->
<!-- Title: Plot::updatePlot Pages: 1 -->
<svg width="380pt" height="64pt"
 viewBox="0.00 0.00 380.00 64.00" xmlns="http://www.w3.org/2000/svg" xmlns:xlink="http://www.w3.org/1999/xlink">
<g id="graph0" class="graph" transform="scale(1 1) rotate(0) translate(4 60)">
<title>Plot::updatePlot</title>
<!-- Node1 -->
<g id="node1" class="node">
<title>Node1</title>
<g id="a_node1"><a xlink:title="Replot the graph possibly changing the axis ranges.">
<polygon fill="#999999" stroke="#666666" points="372,-37 287,-37 287,-18 372,-18 372,-37"/>
<text text-anchor="middle" x="329.5" y="-25" font-family="Helvetica,sans-Serif" font-size="10.00">Plot::updatePlot</text>
</a>
</g>
</g>
<!-- Node2 -->
<g id="node2" class="node">
<title>Node2</title>
<g id="a_node2"><a xlink:href="class_plot.html#a20f1b9ce5da6e9baa3a86b7d8359a4f4" target="_top" xlink:title="Add a single data point.">
<polygon fill="white" stroke="#666666" points="251,-56 177,-56 177,-37 251,-37 251,-56"/>
<text text-anchor="middle" x="214" y="-44" font-family="Helvetica,sans-Serif" font-size="10.00">Plot::addData</text>
</a>
</g>
</g>
<!-- Node1&#45;&gt;Node2 -->
<g id="edge1" class="edge">
<title>Node1&#45;&gt;Node2</title>
<path fill="none" stroke="#63b8ff" d="M275.47,-36.38C267.24,-37.75 258.91,-39.15 251.17,-40.45"/>
<polygon fill="#63b8ff" stroke="#63b8ff" points="275.78,-39.87 285.07,-34.77 274.63,-32.97 275.78,-39.87"/>
</g>
<!-- Node4 -->
<g id="node4" class="node">
<title>Node4</title>
<g id="a_node4"><a xlink:href="class_plot.html#a83d9454de4b05fc361c318317658c734" target="_top" xlink:title="Create a new Plot widget.">
<polygon fill="white" stroke="#666666" points="242,-19 186,-19 186,0 242,0 242,-19"/>
<text text-anchor="middle" x="214" y="-7" font-family="Helvetica,sans-Serif" font-size="10.00">Plot::Plot</text>
</a>
</g>
</g>
<!-- Node1&#45;&gt;Node4 -->
<g id="edge3" class="edge">
<title>Node1&#45;&gt;Node4</title>
<path fill="none" stroke="#63b8ff" d="M275.28,-19.06C263.86,-17.25 252.25,-15.41 242.31,-13.83"/>
<polygon fill="#63b8ff" stroke="#63b8ff" points="274.64,-22.5 285.06,-20.61 275.74,-15.59 274.64,-22.5"/>
</g>
<!-- Node3 -->
<g id="node3" class="node">
<title>Node3</title>
<g id="a_node3"><a xlink:href="class_plot.html#ac5af8584145b5c1bd664b43088387433" target="_top" xlink:title="Add a single sample to the data.">
<polygon fill="white" stroke="#666666" points="141,-56 0,-56 0,-37 141,-37 141,-56"/>
<text text-anchor="middle" x="70.5" y="-44" font-family="Helvetica,sans-Serif" font-size="10.00">Plot::addConsecutiveSample</text>
</a>
</g>
</g>
<!-- Node2&#45;&gt;Node3 -->
<g id="edge2" class="edge">
<title>Node2&#45;&gt;Node3</title>
<path fill="none" stroke="#63b8ff" d="M165.24,-46.5C157.55,-46.5 149.44,-46.5 141.35,-46.5"/>
<polygon fill="#63b8ff" stroke="#63b8ff" points="165.05,-50 175.05,-46.5 165.05,-43 165.05,-50"/>
</g>
</g>
</svg>
