<?xml version="1.0" encoding="UTF-8" standalone="no"?>
<!DOCTYPE svg PUBLIC "-//W3C//DTD SVG 1.1//EN"
 "http://www.w3.org/Graphics/SVG/1.1/DTD/svg11.dtd">
<!-- Generated by graphviz version 7.0.4 (20221203.1631)
 -->
<!-- Title: Plot::clearSelection Pages: 1 -->
<svg width="366pt" height="46pt"
 viewBox="0.00 0.00 366.00 46.00" xmlns="http://www.w3.org/2000/svg" xmlns:xlink="http://www.w3.org/1999/xlink">
<g id="graph0" class="graph" transform="scale(1 1) rotate(0) translate(4 42)">
<title>Plot::clearSelection</title>
<!-- Node1 -->
<g id="node1" class="node">
<title>Node1</title>
<g id="a_node1"><a xlink:title="Clear the current selection inside the plot.">
<polygon fill="#999999" stroke="#666666" points="358,-19 258,-19 258,0 358,0 358,-19"/>
<text text-anchor="middle" x="308" y="-7" font-family="Helvetica,sans-Serif" font-size="10.00">Plot::clearSelection</text>
</a>
</g>
</g>
<!-- Node2 -->
<g id="node2" class="node">
<title>Node2</title>
<g id="a_node2"><a xlink:href="class_plot.html#aa300b9b299eeff78f428777b8e2f6085" target="_top" xlink:title="Show a context menu for the plot.">
<polygon fill="white" stroke="#666666" points="222,-38 92,-38 92,-19 222,-19 222,-38"/>
<text text-anchor="middle" x="157" y="-26" font-family="Helvetica,sans-Serif" font-size="10.00">Plot::contextMenuRequest</text>
</a>
</g>
</g>
<!-- Node1&#45;&gt;Node2 -->
<g id="edge1" class="edge">
<title>Node1&#45;&gt;Node2</title>
<path fill="none" stroke="#63b8ff" d="M246.65,-17.2C238.63,-18.22 230.38,-19.27 222.3,-20.3"/>
<polygon fill="#63b8ff" stroke="#63b8ff" points="246.82,-20.7 256.3,-15.97 245.94,-13.76 246.82,-20.7"/>
</g>
<!-- Node3 -->
<g id="node3" class="node">
<title>Node3</title>
<g id="a_node3"><a xlink:href="class_plot.html#a83d9454de4b05fc361c318317658c734" target="_top" xlink:title="Create a new Plot widget.">
<polygon fill="white" stroke="#666666" points="56,-19 0,-19 0,0 56,0 56,-19"/>
<text text-anchor="middle" x="28" y="-7" font-family="Helvetica,sans-Serif" font-size="10.00">Plot::Plot</text>
</a>
</g>
</g>
<!-- Node1&#45;&gt;Node3 -->
<g id="edge3" class="edge">
<title>Node1&#45;&gt;Node3</title>
<path fill="none" stroke="#63b8ff" d="M246.21,-9.5C187.17,-9.5 100.23,-9.5 56.4,-9.5"/>
<polygon fill="#63b8ff" stroke="#63b8ff" points="246.11,-13 256.11,-9.5 246.11,-6 246.11,-13"/>
</g>
<!-- Node2&#45;&gt;Node3 -->
<g id="edge2" class="edge">
<title>Node2&#45;&gt;Node3</title>
<path fill="none" stroke="#63b8ff" d="M80.46,-17.2C71.96,-15.93 63.76,-14.7 56.49,-13.61"/>
<polygon fill="#63b8ff" stroke="#63b8ff" points="79.85,-20.65 90.26,-18.66 80.89,-13.72 79.85,-20.65"/>
</g>
</g>
</svg>
