<?xml version="1.0" encoding="UTF-8" standalone="no"?>
<!DOCTYPE svg PUBLIC "-//W3C//DTD SVG 1.1//EN"
 "http://www.w3.org/Graphics/SVG/1.1/DTD/svg11.dtd">
<!-- Generated by graphviz version 7.0.5 (20221223.1930)
 -->
<!-- Title: Plot::stopHardware Pages: 1 -->
<svg width="397pt" height="64pt"
 viewBox="0.00 0.00 397.00 64.00" xmlns="http://www.w3.org/2000/svg" xmlns:xlink="http://www.w3.org/1999/xlink">
<g id="graph0" class="graph" transform="scale(1 1) rotate(0) translate(4 60)">
<title>Plot::stopHardware</title>
<!-- Node1 -->
<g id="node1" class="node">
<title>Node1</title>
<g id="a_node1"><a xlink:title="Emit before saving a plot. Prevent simultaneous export and new data acquisition.">
<polygon fill="#999999" stroke="#666666" points="389,-38 290,-38 290,-19 389,-19 389,-38"/>
<text text-anchor="middle" x="339.5" y="-26" font-family="Helvetica,sans-Serif" font-size="10.00">Plot::stopHardware</text>
</a>
</g>
</g>
<!-- Node2 -->
<g id="node2" class="node">
<title>Node2</title>
<g id="a_node2"><a xlink:href="class_main_window.html#a996c5a2b6f77944776856f08ec30858d" target="_top" xlink:title=" ">
<polygon fill="white" stroke="#666666" points="132,-56 0,-56 0,-37 132,-37 132,-56"/>
<text text-anchor="middle" x="66" y="-44" font-family="Helvetica,sans-Serif" font-size="10.00">MainWindow::MainWindow</text>
</a>
</g>
</g>
<!-- Node1&#45;&gt;Node2 -->
<g id="edge1" class="edge">
<title>Node1&#45;&gt;Node2</title>
<path fill="none" stroke="#63b8ff" d="M278.42,-32.48C235.13,-35.35 176.76,-39.22 132.31,-42.17"/>
<polygon fill="#63b8ff" stroke="#63b8ff" points="278.39,-35.99 288.14,-31.84 277.93,-29.01 278.39,-35.99"/>
</g>
<!-- Node3 -->
<g id="node3" class="node">
<title>Node3</title>
<g id="a_node3"><a xlink:href="class_plot.html#a1bffd40999f0ff50b720bca97e4242c5" target="_top" xlink:title="Save the current plot window as png to the local machine.">
<polygon fill="white" stroke="#666666" points="254,-19 168,-19 168,0 254,0 254,-19"/>
<text text-anchor="middle" x="211" y="-7" font-family="Helvetica,sans-Serif" font-size="10.00">Plot::saveImage</text>
</a>
</g>
</g>
<!-- Node1&#45;&gt;Node3 -->
<g id="edge2" class="edge">
<title>Node1&#45;&gt;Node3</title>
<path fill="none" stroke="#63b8ff" d="M278.21,-19.44C270.09,-18.23 261.91,-17 254.19,-15.84"/>
<polygon fill="#63b8ff" stroke="#63b8ff" points="277.69,-22.91 288.1,-20.93 278.73,-15.98 277.69,-22.91"/>
</g>
<!-- Node3&#45;&gt;Node2 -->
<g id="edge3" class="edge">
<title>Node3&#45;&gt;Node2</title>
<path fill="none" stroke="#63b8ff" d="M160.73,-22.25C142.64,-26.93 122.43,-32.16 105.43,-36.56"/>
<polygon fill="#63b8ff" stroke="#63b8ff" points="161.41,-25.69 170.21,-19.79 159.66,-18.91 161.41,-25.69"/>
</g>
<!-- Node4 -->
<g id="node4" class="node">
<title>Node4</title>
<g id="a_node4"><a xlink:href="class_plot.html#a83d9454de4b05fc361c318317658c734" target="_top" xlink:title="Create a new Plot widget.">
<polygon fill="white" stroke="#666666" points="94,-19 38,-19 38,0 94,0 94,-19"/>
<text text-anchor="middle" x="66" y="-7" font-family="Helvetica,sans-Serif" font-size="10.00">Plot::Plot</text>
</a>
</g>
</g>
<!-- Node3&#45;&gt;Node4 -->
<g id="edge4" class="edge">
<title>Node3&#45;&gt;Node4</title>
<path fill="none" stroke="#63b8ff" d="M156.42,-9.5C135.29,-9.5 111.94,-9.5 94.4,-9.5"/>
<polygon fill="#63b8ff" stroke="#63b8ff" points="156.36,-13 166.36,-9.5 156.36,-6 156.36,-13"/>
</g>
</g>
</svg>
