<?xml version="1.0" encoding="UTF-8" standalone="no"?>
<!DOCTYPE svg PUBLIC "-//W3C//DTD SVG 1.1//EN"
 "http://www.w3.org/Graphics/SVG/1.1/DTD/svg11.dtd">
<!-- Generated by graphviz version 7.0.5 (20221223.1930)
 -->
<!-- Title: DialogDebug::appendText Pages: 1 -->
<svg width="659pt" height="64pt"
 viewBox="0.00 0.00 659.00 64.00" xmlns="http://www.w3.org/2000/svg" xmlns:xlink="http://www.w3.org/1999/xlink">
<g id="graph0" class="graph" transform="scale(1 1) rotate(0) translate(4 60)">
<title>DialogDebug::appendText</title>
<!-- Node1 -->
<g id="node1" class="node">
<title>Node1</title>
<g id="a_node1"><a xlink:title="Append text into the logWindow with a predefined color.">
<polygon fill="#999999" stroke="#666666" points="651,-37 525,-37 525,-18 651,-18 651,-37"/>
<text text-anchor="middle" x="588" y="-25" font-family="Helvetica,sans-Serif" font-size="10.00">DialogDebug::appendText</text>
</a>
</g>
</g>
<!-- Node2 -->
<g id="node2" class="node">
<title>Node2</title>
<g id="a_node2"><a xlink:href="class_dialog_debug.html#a500e48ba27077941b1f3d479790947de" target="_top" xlink:title="Insert the current selected item from treeCmd into inputPayload.">
<polygon fill="white" stroke="#666666" points="489,-56 349,-56 349,-37 489,-37 489,-56"/>
<text text-anchor="middle" x="419" y="-44" font-family="Helvetica,sans-Serif" font-size="10.00">DialogDebug::insertTreeCmd</text>
</a>
</g>
</g>
<!-- Node1&#45;&gt;Node2 -->
<g id="edge1" class="edge">
<title>Node1&#45;&gt;Node2</title>
<path fill="none" stroke="#63b8ff" d="M513.53,-35.86C505.46,-36.78 497.27,-37.71 489.26,-38.62"/>
<polygon fill="#63b8ff" stroke="#63b8ff" points="513.77,-39.35 523.31,-34.75 512.98,-32.4 513.77,-39.35"/>
</g>
<!-- Node5 -->
<g id="node5" class="node">
<title>Node5</title>
<g id="a_node5"><a xlink:href="class_dialog_debug.html#aaf8cb281c2472853996a680b59bb42f2" target="_top" xlink:title="Send msg to connected device.">
<polygon fill="white" stroke="#666666" points="477,-19 361,-19 361,0 477,0 477,-19"/>
<text text-anchor="middle" x="419" y="-7" font-family="Helvetica,sans-Serif" font-size="10.00">DialogDebug::sendMsg</text>
</a>
</g>
</g>
<!-- Node1&#45;&gt;Node5 -->
<g id="edge5" class="edge">
<title>Node1&#45;&gt;Node5</title>
<path fill="none" stroke="#63b8ff" d="M513.72,-19.6C501.51,-18.29 489,-16.94 477.27,-15.67"/>
<polygon fill="#63b8ff" stroke="#63b8ff" points="512.99,-23.04 523.31,-20.64 513.74,-16.08 512.99,-23.04"/>
</g>
<!-- Node3 -->
<g id="node3" class="node">
<title>Node3</title>
<g id="a_node3"><a xlink:href="class_dialog_debug.html#aadec9f268b3fa279ea58855176ed104c" target="_top" xlink:title="Insert the double clicked item from treeCmd into inputPayload.">
<polygon fill="white" stroke="#666666" points="313,-38 167,-38 167,-19 313,-19 313,-38"/>
<text text-anchor="middle" x="240" y="-26" font-family="Helvetica,sans-Serif" font-size="10.00">DialogDebug::clickedTreeCmd</text>
</a>
</g>
</g>
<!-- Node2&#45;&gt;Node3 -->
<g id="edge2" class="edge">
<title>Node2&#45;&gt;Node3</title>
<path fill="none" stroke="#63b8ff" d="M337.37,-38.3C329.39,-37.49 321.34,-36.67 313.45,-35.87"/>
<polygon fill="#63b8ff" stroke="#63b8ff" points="336.74,-41.75 347.05,-39.28 337.45,-34.79 336.74,-41.75"/>
</g>
<!-- Node4 -->
<g id="node4" class="node">
<title>Node4</title>
<g id="a_node4"><a xlink:href="class_dialog_debug.html#a9525c71924319348ccb3b70da4028fef" target="_top" xlink:title="Construct a new DialogDebug object.">
<polygon fill="white" stroke="#666666" points="131,-38 0,-38 0,-19 131,-19 131,-38"/>
<text text-anchor="middle" x="65.5" y="-26" font-family="Helvetica,sans-Serif" font-size="10.00">DialogDebug::DialogDebug</text>
</a>
</g>
</g>
<!-- Node2&#45;&gt;Node4 -->
<g id="edge4" class="edge">
<title>Node2&#45;&gt;Node4</title>
<path fill="none" stroke="#63b8ff" d="M337.35,-50.8C288.04,-52.44 223.75,-52.82 167,-47.5 147.91,-45.71 127.04,-42.05 109.29,-38.41"/>
<polygon fill="#63b8ff" stroke="#63b8ff" points="337.21,-54.31 347.08,-50.45 336.96,-47.31 337.21,-54.31"/>
</g>
<!-- Node3&#45;&gt;Node4 -->
<g id="edge3" class="edge">
<title>Node3&#45;&gt;Node4</title>
<path fill="none" stroke="#63b8ff" d="M155.5,-28.5C147.43,-28.5 139.34,-28.5 131.5,-28.5"/>
<polygon fill="#63b8ff" stroke="#63b8ff" points="155.33,-32 165.33,-28.5 155.33,-25 155.33,-32"/>
</g>
<!-- Node5&#45;&gt;Node3 -->
<g id="edge6" class="edge">
<title>Node5&#45;&gt;Node3</title>
<path fill="none" stroke="#63b8ff" d="M349.39,-16.86C337.59,-18.13 325.28,-19.45 313.37,-20.73"/>
<polygon fill="#63b8ff" stroke="#63b8ff" points="349.46,-20.38 359.03,-15.83 348.71,-13.42 349.46,-20.38"/>
</g>
<!-- Node5&#45;&gt;Node4 -->
<g id="edge7" class="edge">
<title>Node5&#45;&gt;Node4</title>
<path fill="none" stroke="#63b8ff" d="M349.1,-6.05C298.58,-4.35 228.38,-3.75 167,-9.5 147.91,-11.29 127.04,-14.95 109.29,-18.59"/>
<polygon fill="#63b8ff" stroke="#63b8ff" points="348.9,-9.54 359.02,-6.41 349.16,-2.55 348.9,-9.54"/>
</g>
</g>
</svg>
