<?xml version="1.0" encoding="UTF-8" standalone="no"?>
<!DOCTYPE svg PUBLIC "-//W3C//DTD SVG 1.1//EN"
 "http://www.w3.org/Graphics/SVG/1.1/DTD/svg11.dtd">
<!-- Generated by graphviz version 7.0.4 (20221203.1631)
 -->
<!-- Title: ConnectionWidget Pages: 1 -->
<svg width="300pt" height="281pt"
 viewBox="0.00 0.00 299.50 281.00" xmlns="http://www.w3.org/2000/svg" xmlns:xlink="http://www.w3.org/1999/xlink">
<g id="graph0" class="graph" transform="scale(1 1) rotate(0) translate(4 277)">
<title>ConnectionWidget</title>
<!-- Node1 -->
<g id="node1" class="node">
<title>Node1</title>
<g id="a_node1"><a xlink:title="Widget to display informations about a single connection.">
<polygon fill="#999999" stroke="#666666" points="95,-19 0,-19 0,0 95,0 95,-19"/>
<text text-anchor="middle" x="47.5" y="-7" font-family="Helvetica,sans-Serif" font-size="10.00">ConnectionWidget</text>
</a>
</g>
</g>
<!-- Node2 -->
<g id="node2" class="node">
<title>Node2</title>
<g id="a_node2"><a xlink:title=" ">
<polygon fill="white" stroke="#666666" points="58.5,-85 4.5,-85 4.5,-66 58.5,-66 58.5,-85"/>
<text text-anchor="middle" x="31.5" y="-73" font-family="Helvetica,sans-Serif" font-size="10.00">QWidget</text>
</a>
</g>
</g>
<!-- Node2&#45;&gt;Node1 -->
<g id="edge1" class="edge">
<title>Node2&#45;&gt;Node1</title>
<path fill="none" stroke="#63b8ff" d="M36.49,-54.55C39.44,-42.74 43.03,-28.37 45.29,-19.32"/>
<polygon fill="#63b8ff" stroke="#63b8ff" points="33.12,-53.58 34.09,-64.13 39.91,-55.28 33.12,-53.58"/>
</g>
<!-- Node3 -->
<g id="node3" class="node">
<title>Node3</title>
<g id="a_node3"><a xlink:href="classcomm_1_1_comm_master.html" target="_top" xlink:title="Class to handle all connections to the connected LineScales.">
<polygon fill="white" stroke="#666666" points="184,-85 77,-85 77,-66 184,-66 184,-85"/>
<text text-anchor="middle" x="130.5" y="-73" font-family="Helvetica,sans-Serif" font-size="10.00">comm::CommMaster</text>
</a>
</g>
</g>
<!-- Node3&#45;&gt;Node1 -->
<g id="edge2" class="edge">
<title>Node3&#45;&gt;Node1</title>
<path fill="none" stroke="#9a32cd" stroke-dasharray="5,2" d="M110.26,-58.89C94.14,-46.46 72.16,-29.51 58.94,-19.32"/>
<polygon fill="#9a32cd" stroke="#9a32cd" points="107.7,-61.34 117.76,-64.68 111.98,-55.8 107.7,-61.34"/>
<text text-anchor="middle" x="129" y="-40" font-family="Helvetica,sans-Serif" font-size="10.00"> communication</text>
</g>
<!-- Node4 -->
<g id="node4" class="node">
<title>Node4</title>
<g id="a_node4"><a xlink:title=" ">
<polygon fill="white" stroke="#666666" points="165,-273 112,-273 112,-254 165,-254 165,-273"/>
<text text-anchor="middle" x="138.5" y="-261" font-family="Helvetica,sans-Serif" font-size="10.00">QObject</text>
</a>
</g>
</g>
<!-- Node4&#45;&gt;Node3 -->
<g id="edge3" class="edge">
<title>Node4&#45;&gt;Node3</title>
<path fill="none" stroke="#63b8ff" d="M133.28,-242.58C127.19,-217.04 118.33,-171.35 121.5,-132 122.83,-115.46 126.36,-96.41 128.59,-85.48"/>
<polygon fill="#63b8ff" stroke="#63b8ff" points="129.86,-243.35 135.69,-252.2 136.65,-241.65 129.86,-243.35"/>
</g>
<!-- Node5 -->
<g id="node5" class="node">
<title>Node5</title>
<g id="a_node5"><a xlink:href="classcomm_1_1_comm_device.html" target="_top" xlink:title="Base class for every connection.">
<polygon fill="white" stroke="#666666" points="238,-151 131,-151 131,-132 238,-132 238,-151"/>
<text text-anchor="middle" x="184.5" y="-139" font-family="Helvetica,sans-Serif" font-size="10.00">comm::CommDevice</text>
</a>
</g>
</g>
<!-- Node4&#45;&gt;Node5 -->
<g id="edge5" class="edge">
<title>Node4&#45;&gt;Node5</title>
<path fill="none" stroke="#63b8ff" d="M143.41,-242.71C146.84,-229.8 151.81,-212.68 157.5,-198 164.08,-181.01 173.83,-162.11 179.63,-151.33"/>
<polygon fill="#63b8ff" stroke="#63b8ff" points="140.1,-241.56 141,-252.12 146.88,-243.3 140.1,-241.56"/>
</g>
<!-- Node6 -->
<g id="node6" class="node">
<title>Node6</title>
<g id="a_node6"><a xlink:href="class_parser.html" target="_top" xlink:title="Class to parse the received messages.">
<polygon fill="white" stroke="#666666" points="212,-217 167,-217 167,-198 212,-198 212,-217"/>
<text text-anchor="middle" x="189.5" y="-205" font-family="Helvetica,sans-Serif" font-size="10.00">Parser</text>
</a>
</g>
</g>
<!-- Node4&#45;&gt;Node6 -->
<g id="edge7" class="edge">
<title>Node4&#45;&gt;Node6</title>
<path fill="none" stroke="#63b8ff" d="M154.69,-245.36C163.52,-236 174.08,-224.83 181.24,-217.25"/>
<polygon fill="#63b8ff" stroke="#63b8ff" points="152.28,-242.81 147.96,-252.48 157.37,-247.62 152.28,-242.81"/>
</g>
<!-- Node5&#45;&gt;Node3 -->
<g id="edge4" class="edge">
<title>Node5&#45;&gt;Node3</title>
<path fill="none" stroke="#9a32cd" stroke-dasharray="5,2" d="M169.83,-123.12C159.52,-110.89 146.14,-95.04 137.94,-85.32"/>
<polygon fill="#9a32cd" stroke="#9a32cd" points="166.89,-125.06 176.02,-130.44 172.24,-120.54 166.89,-125.06"/>
<text text-anchor="middle" x="190.5" y="-106" font-family="Helvetica,sans-Serif" font-size="10.00"> singleDevice</text>
</g>
<!-- Node6&#45;&gt;Node5 -->
<g id="edge6" class="edge">
<title>Node6&#45;&gt;Node5</title>
<path fill="none" stroke="#9a32cd" stroke-dasharray="5,2" d="M187.91,-186.18C187,-174.44 185.89,-160.27 185.19,-151.32"/>
<polygon fill="#9a32cd" stroke="#9a32cd" points="184.42,-186.4 188.69,-196.09 191.4,-185.85 184.42,-186.4"/>
<text text-anchor="middle" x="202.5" y="-172" font-family="Helvetica,sans-Serif" font-size="10.00"> parser</text>
</g>
<!-- Node7 -->
<g id="node7" class="node">
<title>Node7</title>
<g id="a_node7"><a xlink:href="struct_sample.html" target="_top" xlink:title="A sample received from a LineScale.">
<polygon fill="white" stroke="#666666" points="280.5,-217 230.5,-217 230.5,-198 280.5,-198 280.5,-217"/>
<text text-anchor="middle" x="255.5" y="-205" font-family="Helvetica,sans-Serif" font-size="10.00">Sample</text>
</a>
</g>
</g>
<!-- Node7&#45;&gt;Node5 -->
<g id="edge8" class="edge">
<title>Node7&#45;&gt;Node5</title>
<path fill="none" stroke="#9a32cd" stroke-dasharray="5,2" d="M241.3,-189.32C235.46,-182.67 228.45,-175.19 221.5,-169 214.3,-162.59 205.56,-156.27 198.38,-151.41"/>
<polygon fill="#9a32cd" stroke="#9a32cd" points="238.29,-191.18 247.44,-196.52 243.61,-186.64 238.29,-191.18"/>
<text text-anchor="middle" x="261.5" y="-172" font-family="Helvetica,sans-Serif" font-size="10.00"> receivedData</text>
</g>
</g>
</svg>
