<?xml version="1.0" encoding="UTF-8" standalone="no"?>
<!DOCTYPE svg PUBLIC "-//W3C//DTD SVG 1.1//EN"
 "http://www.w3.org/Graphics/SVG/1.1/DTD/svg11.dtd">
<!-- Generated by graphviz version 7.0.4 (20221203.1631)
 -->
<!-- Title: comm::CommDevice Pages: 1 -->
<svg width="178pt" height="149pt"
 viewBox="0.00 0.00 177.50 149.00" xmlns="http://www.w3.org/2000/svg" xmlns:xlink="http://www.w3.org/1999/xlink">
<g id="graph0" class="graph" transform="scale(1 1) rotate(0) translate(4 145)">
<title>comm::CommDevice</title>
<!-- Node1 -->
<g id="node1" class="node">
<title>Node1</title>
<g id="a_node1"><a xlink:title="Base class for every connection.">
<polygon fill="#999999" stroke="#666666" points="119,-19 12,-19 12,0 119,0 119,-19"/>
<text text-anchor="middle" x="65.5" y="-7" font-family="Helvetica,sans-Serif" font-size="10.00">comm::CommDevice</text>
</a>
</g>
</g>
<!-- Node2 -->
<g id="node2" class="node">
<title>Node2</title>
<g id="a_node2"><a xlink:title=" ">
<polygon fill="white" stroke="#666666" points="53,-141 0,-141 0,-122 53,-122 53,-141"/>
<text text-anchor="middle" x="26.5" y="-129" font-family="Helvetica,sans-Serif" font-size="10.00">QObject</text>
</a>
</g>
</g>
<!-- Node2&#45;&gt;Node1 -->
<g id="edge1" class="edge">
<title>Node2&#45;&gt;Node1</title>
<path fill="none" stroke="#63b8ff" d="M26.55,-110.58C27.09,-97.6 28.78,-80.46 33.5,-66 39.3,-48.24 51.27,-29.89 58.81,-19.37"/>
<polygon fill="#63b8ff" stroke="#63b8ff" points="23.05,-110.34 26.35,-120.4 30.05,-110.48 23.05,-110.34"/>
</g>
<!-- Node3 -->
<g id="node3" class="node">
<title>Node3</title>
<g id="a_node3"><a xlink:href="class_parser.html" target="_top" xlink:title="Class to parse the received messages.">
<polygon fill="white" stroke="#666666" points="88,-85 43,-85 43,-66 88,-66 88,-85"/>
<text text-anchor="middle" x="65.5" y="-73" font-family="Helvetica,sans-Serif" font-size="10.00">Parser</text>
</a>
</g>
</g>
<!-- Node2&#45;&gt;Node3 -->
<g id="edge3" class="edge">
<title>Node2&#45;&gt;Node3</title>
<path fill="none" stroke="#63b8ff" d="M39.51,-112.48C46.13,-103.32 53.88,-92.59 59.18,-85.25"/>
<polygon fill="#63b8ff" stroke="#63b8ff" points="36.84,-110.2 33.83,-120.36 42.52,-114.3 36.84,-110.2"/>
</g>
<!-- Node3&#45;&gt;Node1 -->
<g id="edge2" class="edge">
<title>Node3&#45;&gt;Node1</title>
<path fill="none" stroke="#9a32cd" stroke-dasharray="5,2" d="M65.5,-54.18C65.5,-42.44 65.5,-28.27 65.5,-19.32"/>
<polygon fill="#9a32cd" stroke="#9a32cd" points="62,-54.09 65.5,-64.09 69,-54.09 62,-54.09"/>
<text text-anchor="middle" x="80.5" y="-40" font-family="Helvetica,sans-Serif" font-size="10.00"> parser</text>
</g>
<!-- Node4 -->
<g id="node4" class="node">
<title>Node4</title>
<g id="a_node4"><a xlink:href="struct_sample.html" target="_top" xlink:title="A sample received from a LineScale.">
<polygon fill="white" stroke="#666666" points="156.5,-85 106.5,-85 106.5,-66 156.5,-66 156.5,-85"/>
<text text-anchor="middle" x="131.5" y="-73" font-family="Helvetica,sans-Serif" font-size="10.00">Sample</text>
</a>
</g>
</g>
<!-- Node4&#45;&gt;Node1 -->
<g id="edge4" class="edge">
<title>Node4&#45;&gt;Node1</title>
<path fill="none" stroke="#9a32cd" stroke-dasharray="5,2" d="M117.77,-56.95C112.35,-50.42 105.9,-43.12 99.5,-37 92.9,-30.69 84.87,-24.37 78.27,-19.49"/>
<polygon fill="#9a32cd" stroke="#9a32cd" points="114.9,-58.95 123.89,-64.54 120.35,-54.56 114.9,-58.95"/>
<text text-anchor="middle" x="139.5" y="-40" font-family="Helvetica,sans-Serif" font-size="10.00"> receivedData</text>
</g>
</g>
</svg>
