<?xml version="1.0" encoding="UTF-8" standalone="no"?>
<!DOCTYPE svg PUBLIC "-//W3C//DTD SVG 1.1//EN"
 "http://www.w3.org/Graphics/SVG/1.1/DTD/svg11.dtd">
<!-- Generated by graphviz version 7.0.5 (20221223.1930)
 -->
<!-- Title: comm::CommUSB::disconnectDevice Pages: 1 -->
<svg width="360pt" height="64pt"
 viewBox="0.00 0.00 360.00 64.00" xmlns="http://www.w3.org/2000/svg" xmlns:xlink="http://www.w3.org/1999/xlink">
<g id="graph0" class="graph" transform="scale(1 1) rotate(0) translate(4 60)">
<title>comm::CommUSB::disconnectDevice</title>
<!-- Node1 -->
<g id="node1" class="node">
<title>Node1</title>
<g id="a_node1"><a xlink:title="Disconnect from USB device.">
<polygon fill="#999999" stroke="#666666" points="352,-42.5 203,-42.5 203,-12.5 352,-12.5 352,-42.5"/>
<text text-anchor="start" x="211" y="-30.5" font-family="Helvetica,sans-Serif" font-size="10.00">comm::CommUSB::disconnect</text>
<text text-anchor="middle" x="277.5" y="-19.5" font-family="Helvetica,sans-Serif" font-size="10.00">Device</text>
</a>
</g>
</g>
<!-- Node2 -->
<g id="node2" class="node">
<title>Node2</title>
<g id="a_node2"><a xlink:href="classcomm_1_1_comm_u_s_b.html#a044f3b6d1aa9b36dc9cd21fe92a9c65c" target="_top" xlink:title="Implementation for USB, connect to device as set in the Ctor.">
<polygon fill="white" stroke="#666666" points="167,-56 0,-56 0,-37 167,-37 167,-56"/>
<text text-anchor="middle" x="83.5" y="-44" font-family="Helvetica,sans-Serif" font-size="10.00">comm::CommUSB::connectDevice</text>
</a>
</g>
</g>
<!-- Node1&#45;&gt;Node2 -->
<g id="edge1" class="edge">
<title>Node1&#45;&gt;Node2</title>
<path fill="none" stroke="#63b8ff" d="M191.09,-35.95C183.21,-36.73 175.23,-37.52 167.37,-38.3"/>
<polygon fill="#63b8ff" stroke="#63b8ff" points="191.43,-39.44 201.04,-34.97 190.74,-32.47 191.43,-39.44"/>
</g>
<!-- Node3 -->
<g id="node3" class="node">
<title>Node3</title>
<g id="a_node3"><a xlink:href="classcomm_1_1_comm_u_s_b.html#a680fd2b00288a6225b250cd7f4aeb132" target="_top" xlink:title="Disconnect from device and destroy the Comm USB object.">
<polygon fill="white" stroke="#666666" points="162,-19 5,-19 5,0 162,0 162,-19"/>
<text text-anchor="middle" x="83.5" y="-7" font-family="Helvetica,sans-Serif" font-size="10.00">comm::CommUSB::~CommUSB</text>
</a>
</g>
</g>
<!-- Node1&#45;&gt;Node3 -->
<g id="edge2" class="edge">
<title>Node1&#45;&gt;Node3</title>
<path fill="none" stroke="#63b8ff" d="M191.29,-19.51C181.62,-18.6 171.8,-17.68 162.24,-16.79"/>
<polygon fill="#63b8ff" stroke="#63b8ff" points="190.75,-22.98 201.04,-20.43 191.41,-16.01 190.75,-22.98"/>
</g>
</g>
</svg>
