<?xml version="1.0" encoding="UTF-8" standalone="no"?>
<!DOCTYPE svg PUBLIC "-//W3C//DTD SVG 1.1//EN"
 "http://www.w3.org/Graphics/SVG/1.1/DTD/svg11.dtd">
<!-- Generated by graphviz version 7.0.4 (20221203.1631)
 -->
<!-- Title: DialogDebug Pages: 1 -->
<svg width="292pt" height="281pt"
 viewBox="0.00 0.00 291.50 281.00" xmlns="http://www.w3.org/2000/svg" xmlns:xlink="http://www.w3.org/1999/xlink">
<g id="graph0" class="graph" transform="scale(1 1) rotate(0) translate(4 277)">
<title>DialogDebug</title>
<!-- Node1 -->
<g id="node1" class="node">
<title>Node1</title>
<g id="a_node1"><a xlink:title="Dialog to send predefined snippets to the linescale.">
<polygon fill="#999999" stroke="#666666" points="77,-19 6,-19 6,0 77,0 77,-19"/>
<text text-anchor="middle" x="41.5" y="-7" font-family="Helvetica,sans-Serif" font-size="10.00">DialogDebug</text>
</a>
</g>
</g>
<!-- Node2 -->
<g id="node2" class="node">
<title>Node2</title>
<g id="a_node2"><a xlink:title=" ">
<polygon fill="white" stroke="#666666" points="51,-85 0,-85 0,-66 51,-66 51,-85"/>
<text text-anchor="middle" x="25.5" y="-73" font-family="Helvetica,sans-Serif" font-size="10.00">QDialog</text>
</a>
</g>
</g>
<!-- Node2&#45;&gt;Node1 -->
<g id="edge1" class="edge">
<title>Node2&#45;&gt;Node1</title>
<path fill="none" stroke="#63b8ff" d="M30.49,-54.55C33.44,-42.74 37.03,-28.37 39.29,-19.32"/>
<polygon fill="#63b8ff" stroke="#63b8ff" points="27.12,-53.58 28.09,-64.13 33.91,-55.28 27.12,-53.58"/>
</g>
<!-- Node3 -->
<g id="node3" class="node">
<title>Node3</title>
<g id="a_node3"><a xlink:href="classcomm_1_1_comm_master.html" target="_top" xlink:title="Class to handle all connections to the connected LineScales.">
<polygon fill="white" stroke="#666666" points="176,-85 69,-85 69,-66 176,-66 176,-85"/>
<text text-anchor="middle" x="122.5" y="-73" font-family="Helvetica,sans-Serif" font-size="10.00">comm::CommMaster</text>
</a>
</g>
</g>
<!-- Node3&#45;&gt;Node1 -->
<g id="edge2" class="edge">
<title>Node3&#45;&gt;Node1</title>
<path fill="none" stroke="#9a32cd" stroke-dasharray="5,2" d="M102.3,-58.54C86.61,-46.14 65.44,-29.42 52.67,-19.32"/>
<polygon fill="#9a32cd" stroke="#9a32cd" points="100.03,-61.21 110.05,-64.66 104.37,-55.72 100.03,-61.21"/>
<text text-anchor="middle" x="102.5" y="-40" font-family="Helvetica,sans-Serif" font-size="10.00"> comm</text>
</g>
<!-- Node4 -->
<g id="node4" class="node">
<title>Node4</title>
<g id="a_node4"><a xlink:title=" ">
<polygon fill="white" stroke="#666666" points="157,-273 104,-273 104,-254 157,-254 157,-273"/>
<text text-anchor="middle" x="130.5" y="-261" font-family="Helvetica,sans-Serif" font-size="10.00">QObject</text>
</a>
</g>
</g>
<!-- Node4&#45;&gt;Node3 -->
<g id="edge3" class="edge">
<title>Node4&#45;&gt;Node3</title>
<path fill="none" stroke="#63b8ff" d="M125.28,-242.58C119.19,-217.04 110.33,-171.35 113.5,-132 114.83,-115.46 118.36,-96.41 120.59,-85.48"/>
<polygon fill="#63b8ff" stroke="#63b8ff" points="121.86,-243.35 127.69,-252.2 128.65,-241.65 121.86,-243.35"/>
</g>
<!-- Node5 -->
<g id="node5" class="node">
<title>Node5</title>
<g id="a_node5"><a xlink:href="classcomm_1_1_comm_device.html" target="_top" xlink:title="Base class for every connection.">
<polygon fill="white" stroke="#666666" points="230,-151 123,-151 123,-132 230,-132 230,-151"/>
<text text-anchor="middle" x="176.5" y="-139" font-family="Helvetica,sans-Serif" font-size="10.00">comm::CommDevice</text>
</a>
</g>
</g>
<!-- Node4&#45;&gt;Node5 -->
<g id="edge5" class="edge">
<title>Node4&#45;&gt;Node5</title>
<path fill="none" stroke="#63b8ff" d="M135.41,-242.71C138.84,-229.8 143.81,-212.68 149.5,-198 156.08,-181.01 165.83,-162.11 171.63,-151.33"/>
<polygon fill="#63b8ff" stroke="#63b8ff" points="132.1,-241.56 133,-252.12 138.88,-243.3 132.1,-241.56"/>
</g>
<!-- Node6 -->
<g id="node6" class="node">
<title>Node6</title>
<g id="a_node6"><a xlink:href="class_parser.html" target="_top" xlink:title="Class to parse the received messages.">
<polygon fill="white" stroke="#666666" points="204,-217 159,-217 159,-198 204,-198 204,-217"/>
<text text-anchor="middle" x="181.5" y="-205" font-family="Helvetica,sans-Serif" font-size="10.00">Parser</text>
</a>
</g>
</g>
<!-- Node4&#45;&gt;Node6 -->
<g id="edge7" class="edge">
<title>Node4&#45;&gt;Node6</title>
<path fill="none" stroke="#63b8ff" d="M146.69,-245.36C155.52,-236 166.08,-224.83 173.24,-217.25"/>
<polygon fill="#63b8ff" stroke="#63b8ff" points="144.28,-242.81 139.96,-252.48 149.37,-247.62 144.28,-242.81"/>
</g>
<!-- Node5&#45;&gt;Node3 -->
<g id="edge4" class="edge">
<title>Node5&#45;&gt;Node3</title>
<path fill="none" stroke="#9a32cd" stroke-dasharray="5,2" d="M161.83,-123.12C151.52,-110.89 138.14,-95.04 129.94,-85.32"/>
<polygon fill="#9a32cd" stroke="#9a32cd" points="158.89,-125.06 168.02,-130.44 164.24,-120.54 158.89,-125.06"/>
<text text-anchor="middle" x="182.5" y="-106" font-family="Helvetica,sans-Serif" font-size="10.00"> singleDevice</text>
</g>
<!-- Node6&#45;&gt;Node5 -->
<g id="edge6" class="edge">
<title>Node6&#45;&gt;Node5</title>
<path fill="none" stroke="#9a32cd" stroke-dasharray="5,2" d="M179.91,-186.18C179,-174.44 177.89,-160.27 177.19,-151.32"/>
<polygon fill="#9a32cd" stroke="#9a32cd" points="176.42,-186.4 180.69,-196.09 183.4,-185.85 176.42,-186.4"/>
<text text-anchor="middle" x="194.5" y="-172" font-family="Helvetica,sans-Serif" font-size="10.00"> parser</text>
</g>
<!-- Node7 -->
<g id="node7" class="node">
<title>Node7</title>
<g id="a_node7"><a xlink:href="struct_sample.html" target="_top" xlink:title="A sample received from a LineScale.">
<polygon fill="white" stroke="#666666" points="272.5,-217 222.5,-217 222.5,-198 272.5,-198 272.5,-217"/>
<text text-anchor="middle" x="247.5" y="-205" font-family="Helvetica,sans-Serif" font-size="10.00">Sample</text>
</a>
</g>
</g>
<!-- Node7&#45;&gt;Node5 -->
<g id="edge8" class="edge">
<title>Node7&#45;&gt;Node5</title>
<path fill="none" stroke="#9a32cd" stroke-dasharray="5,2" d="M233.3,-189.32C227.46,-182.67 220.45,-175.19 213.5,-169 206.3,-162.59 197.56,-156.27 190.38,-151.41"/>
<polygon fill="#9a32cd" stroke="#9a32cd" points="230.29,-191.18 239.44,-196.52 235.61,-186.64 230.29,-191.18"/>
<text text-anchor="middle" x="253.5" y="-172" font-family="Helvetica,sans-Serif" font-size="10.00"> receivedData</text>
</g>
</g>
</svg>
