<?xml version="1.0" encoding="UTF-8" standalone="no"?>
<!DOCTYPE svg PUBLIC "-//W3C//DTD SVG 1.1//EN"
 "http://www.w3.org/Graphics/SVG/1.1/DTD/svg11.dtd">
<!-- Generated by graphviz version 7.0.4 (20221203.1631)
 -->
<!-- Title: comm::CommMaster::changedStateMaster Pages: 1 -->
<svg width="567pt" height="76pt"
 viewBox="0.00 0.00 567.00 75.50" xmlns="http://www.w3.org/2000/svg" xmlns:xlink="http://www.w3.org/1999/xlink">
<g id="graph0" class="graph" transform="scale(1 1) rotate(0) translate(4 71.5)">
<title>comm::CommMaster::changedStateMaster</title>
<!-- Node1 -->
<g id="node1" class="node">
<title>Node1</title>
<g id="a_node1"><a xlink:title="Emit after status change.">
<polygon fill="#999999" stroke="#666666" points="559,-45.5 411,-45.5 411,-15.5 559,-15.5 559,-45.5"/>
<text text-anchor="start" x="419" y="-33.5" font-family="Helvetica,sans-Serif" font-size="10.00">comm::CommMaster::changed</text>
<text text-anchor="middle" x="485" y="-22.5" font-family="Helvetica,sans-Serif" font-size="10.00">StateMaster</text>
</a>
</g>
</g>
<!-- Node2 -->
<g id="node2" class="node">
<title>Node2</title>
<g id="a_node2"><a xlink:href="classcomm_1_1_comm_master.html#a56d99ac78908f87663c07b401c4d50cf" target="_top" xlink:title="Slot to receive the updated state from a deviceClass.">
<polygon fill="white" stroke="#666666" points="375,-67.5 212,-67.5 212,-37.5 375,-37.5 375,-67.5"/>
<text text-anchor="start" x="220" y="-55.5" font-family="Helvetica,sans-Serif" font-size="10.00">comm::CommMaster::getChanged</text>
<text text-anchor="middle" x="293.5" y="-44.5" font-family="Helvetica,sans-Serif" font-size="10.00">State</text>
</a>
</g>
</g>
<!-- Node1&#45;&gt;Node2 -->
<g id="edge1" class="edge">
<title>Node1&#45;&gt;Node2</title>
<path fill="none" stroke="#63b8ff" d="M399.51,-40.31C391.51,-41.24 383.41,-42.18 375.44,-43.1"/>
<polygon fill="#63b8ff" stroke="#63b8ff" points="399.7,-43.81 409.23,-39.18 398.89,-36.86 399.7,-43.81"/>
</g>
<!-- Node4 -->
<g id="node4" class="node">
<title>Node4</title>
<g id="a_node4"><a xlink:href="class_main_window.html#a996c5a2b6f77944776856f08ec30858d" target="_top" xlink:title=" ">
<polygon fill="white" stroke="#666666" points="359.5,-19 227.5,-19 227.5,0 359.5,0 359.5,-19"/>
<text text-anchor="middle" x="293.5" y="-7" font-family="Helvetica,sans-Serif" font-size="10.00">MainWindow::MainWindow</text>
</a>
</g>
</g>
<!-- Node1&#45;&gt;Node4 -->
<g id="edge3" class="edge">
<title>Node1&#45;&gt;Node4</title>
<path fill="none" stroke="#63b8ff" d="M399.62,-21.15C386.28,-19.67 372.66,-18.16 359.84,-16.74"/>
<polygon fill="#63b8ff" stroke="#63b8ff" points="398.91,-24.59 409.23,-22.21 399.68,-17.63 398.91,-24.59"/>
</g>
<!-- Node3 -->
<g id="node3" class="node">
<title>Node3</title>
<g id="a_node3"><a xlink:href="classcomm_1_1_comm_master.html#a20313a06785b1817ed883e29d72a8282" target="_top" xlink:title="Create connection.">
<polygon fill="white" stroke="#666666" points="176,-62 0,-62 0,-43 176,-43 176,-62"/>
<text text-anchor="middle" x="88" y="-50" font-family="Helvetica,sans-Serif" font-size="10.00">comm::CommMaster::addConnection</text>
</a>
</g>
</g>
<!-- Node2&#45;&gt;Node3 -->
<g id="edge2" class="edge">
<title>Node2&#45;&gt;Node3</title>
<path fill="none" stroke="#63b8ff" d="M200.49,-52.5C192.44,-52.5 184.32,-52.5 176.32,-52.5"/>
<polygon fill="#63b8ff" stroke="#63b8ff" points="200.27,-56 210.27,-52.5 200.27,-49 200.27,-56"/>
</g>
</g>
</svg>
