<?xml version="1.0" encoding="UTF-8" standalone="no"?>
<!DOCTYPE svg PUBLIC "-//W3C//DTD SVG 1.1//EN"
 "http://www.w3.org/Graphics/SVG/1.1/DTD/svg11.dtd">
<!-- Generated by graphviz version 7.0.5 (20221223.1930)
 -->
<!-- Title: comm::CommMaster Pages: 1 -->
<svg width="238pt" height="215pt"
 viewBox="0.00 0.00 237.50 215.00" xmlns="http://www.w3.org/2000/svg" xmlns:xlink="http://www.w3.org/1999/xlink">
<g id="graph0" class="graph" transform="scale(1 1) rotate(0) translate(4 211)">
<title>comm::CommMaster</title>
<!-- Node1 -->
<g id="node1" class="node">
<title>Node1</title>
<g id="a_node1"><a xlink:title="Class to handle all connections to the connected LineScales.">
<polygon fill="#999999" stroke="#666666" points="107,-19 0,-19 0,0 107,0 107,-19"/>
<text text-anchor="middle" x="53.5" y="-7" font-family="Helvetica,sans-Serif" font-size="10.00">comm::CommMaster</text>
</a>
</g>
</g>
<!-- Node2 -->
<g id="node2" class="node">
<title>Node2</title>
<g id="a_node2"><a xlink:title=" ">
<polygon fill="white" stroke="#666666" points="102,-207 49,-207 49,-188 102,-188 102,-207"/>
<text text-anchor="middle" x="75.5" y="-195" font-family="Helvetica,sans-Serif" font-size="10.00">QObject</text>
</a>
</g>
</g>
<!-- Node2&#45;&gt;Node1 -->
<g id="edge1" class="edge">
<title>Node2&#45;&gt;Node1</title>
<path fill="none" stroke="#63b8ff" d="M72.21,-176.28C68.68,-153.97 63.08,-117 59.5,-85 56.84,-61.27 54.91,-33.17 54.03,-19.23"/>
<polygon fill="#63b8ff" stroke="#63b8ff" points="68.74,-176.75 73.78,-186.07 75.65,-175.64 68.74,-176.75"/>
</g>
<!-- Node3 -->
<g id="node3" class="node">
<title>Node3</title>
<g id="a_node3"><a xlink:href="classcomm_1_1_comm_device.html" target="_top" xlink:title="Base class for every connection.">
<polygon fill="white" stroke="#666666" points="176,-85 69,-85 69,-66 176,-66 176,-85"/>
<text text-anchor="middle" x="122.5" y="-73" font-family="Helvetica,sans-Serif" font-size="10.00">comm::CommDevice</text>
</a>
</g>
</g>
<!-- Node2&#45;&gt;Node3 -->
<g id="edge3" class="edge">
<title>Node2&#45;&gt;Node3</title>
<path fill="none" stroke="#63b8ff" d="M80.34,-176.68C83.74,-163.76 88.71,-146.64 94.5,-132 101.25,-114.94 111.38,-96.06 117.43,-85.31"/>
<polygon fill="#63b8ff" stroke="#63b8ff" points="77.02,-175.55 77.96,-186.1 83.81,-177.26 77.02,-175.55"/>
</g>
<!-- Node4 -->
<g id="node4" class="node">
<title>Node4</title>
<g id="a_node4"><a xlink:href="class_parser.html" target="_top" xlink:title="Class to parse the received messages.">
<polygon fill="white" stroke="#666666" points="149,-151 104,-151 104,-132 149,-132 149,-151"/>
<text text-anchor="middle" x="126.5" y="-139" font-family="Helvetica,sans-Serif" font-size="10.00">Parser</text>
</a>
</g>
</g>
<!-- Node2&#45;&gt;Node4 -->
<g id="edge5" class="edge">
<title>Node2&#45;&gt;Node4</title>
<path fill="none" stroke="#63b8ff" d="M91.69,-179.36C100.52,-170 111.08,-158.83 118.24,-151.25"/>
<polygon fill="#63b8ff" stroke="#63b8ff" points="89.28,-176.81 84.96,-186.48 94.37,-181.62 89.28,-176.81"/>
</g>
<!-- Node3&#45;&gt;Node1 -->
<g id="edge2" class="edge">
<title>Node3&#45;&gt;Node1</title>
<path fill="none" stroke="#9a32cd" stroke-dasharray="5,2" d="M104.53,-57.83C91.25,-45.52 73.69,-29.23 63.01,-19.32"/>
<polygon fill="#9a32cd" stroke="#9a32cd" points="102.08,-60.34 111.8,-64.57 106.84,-55.21 102.08,-60.34"/>
<text text-anchor="middle" x="121.5" y="-40" font-family="Helvetica,sans-Serif" font-size="10.00"> singleDevice</text>
</g>
<!-- Node4&#45;&gt;Node3 -->
<g id="edge4" class="edge">
<title>Node4&#45;&gt;Node3</title>
<path fill="none" stroke="#9a32cd" stroke-dasharray="5,2" d="M125.23,-120.18C124.5,-108.44 123.61,-94.27 123.05,-85.32"/>
<polygon fill="#9a32cd" stroke="#9a32cd" points="121.73,-120.33 125.85,-130.09 128.72,-119.89 121.73,-120.33"/>
<text text-anchor="middle" x="140.5" y="-106" font-family="Helvetica,sans-Serif" font-size="10.00"> parser</text>
</g>
<!-- Node5 -->
<g id="node5" class="node">
<title>Node5</title>
<g id="a_node5"><a xlink:href="struct_sample.html" target="_top" xlink:title="A sample received from a LineScale.">
<polygon fill="white" stroke="#666666" points="217.5,-151 167.5,-151 167.5,-132 217.5,-132 217.5,-151"/>
<text text-anchor="middle" x="192.5" y="-139" font-family="Helvetica,sans-Serif" font-size="10.00">Sample</text>
</a>
</g>
</g>
<!-- Node5&#45;&gt;Node3 -->
<g id="edge6" class="edge">
<title>Node5&#45;&gt;Node3</title>
<path fill="none" stroke="#9a32cd" stroke-dasharray="5,2" d="M178.4,-122.84C172.82,-116.3 166.15,-109.02 159.5,-103 152.35,-96.53 143.61,-90.21 136.42,-85.37"/>
<polygon fill="#9a32cd" stroke="#9a32cd" points="175.65,-125 184.71,-130.48 181.05,-120.54 175.65,-125"/>
<text text-anchor="middle" x="199.5" y="-106" font-family="Helvetica,sans-Serif" font-size="10.00"> receivedData</text>
</g>
</g>
</svg>
