<?xml version="1.0" encoding="UTF-8" standalone="no"?>
<!DOCTYPE svg PUBLIC "-//W3C//DTD SVG 1.1//EN"
 "http://www.w3.org/Graphics/SVG/1.1/DTD/svg11.dtd">
<!-- Generated by graphviz version 7.0.5 (20221223.1930)
 -->
<!-- Title: comm::CommDevice::changedStateDevice Pages: 1 -->
<svg width="571pt" height="114pt"
 viewBox="0.00 0.00 571.00 113.50" xmlns="http://www.w3.org/2000/svg" xmlns:xlink="http://www.w3.org/1999/xlink">
<g id="graph0" class="graph" transform="scale(1 1) rotate(0) translate(4 109.5)">
<title>comm::CommDevice::changedStateDevice</title>
<!-- Node1 -->
<g id="node1" class="node">
<title>Node1</title>
<g id="a_node1"><a xlink:title="Emit after connection / disconnection to trigger UI changes.">
<polygon fill="#999999" stroke="#666666" points="563,-73 415,-73 415,-43 563,-43 563,-73"/>
<text text-anchor="start" x="423" y="-61" font-family="Helvetica,sans-Serif" font-size="10.00">comm::CommDevice::changed</text>
<text text-anchor="middle" x="489" y="-50" font-family="Helvetica,sans-Serif" font-size="10.00">StateDevice</text>
</a>
</g>
</g>
<!-- Node2 -->
<g id="node2" class="node">
<title>Node2</title>
<g id="a_node2"><a xlink:href="classcomm_1_1_comm_master.html#a20313a06785b1817ed883e29d72a8282" target="_top" xlink:title="Create connection.">
<polygon fill="white" stroke="#666666" points="379,-105.5 203,-105.5 203,-86.5 379,-86.5 379,-105.5"/>
<text text-anchor="middle" x="291" y="-93.5" font-family="Helvetica,sans-Serif" font-size="10.00">comm::CommMaster::addConnection</text>
</a>
</g>
</g>
<!-- Node1&#45;&gt;Node2 -->
<g id="edge1" class="edge">
<title>Node1&#45;&gt;Node2</title>
<path fill="none" stroke="#63b8ff" d="M403.5,-74.38C383.08,-78.34 361.86,-82.46 343.49,-86.02"/>
<polygon fill="#63b8ff" stroke="#63b8ff" points="404.1,-77.83 413.25,-72.49 402.77,-70.96 404.1,-77.83"/>
</g>
<!-- Node3 -->
<g id="node3" class="node">
<title>Node3</title>
<g id="a_node3"><a xlink:href="classcomm_1_1_comm_u_s_b.html#a044f3b6d1aa9b36dc9cd21fe92a9c65c" target="_top" xlink:title="Implementation for USB, connect to device as set in the Ctor.">
<polygon fill="white" stroke="#666666" points="167,-64.5 0,-64.5 0,-45.5 167,-45.5 167,-64.5"/>
<text text-anchor="middle" x="83.5" y="-52.5" font-family="Helvetica,sans-Serif" font-size="10.00">comm::CommUSB::connectDevice</text>
</a>
</g>
</g>
<!-- Node1&#45;&gt;Node3 -->
<g id="edge2" class="edge">
<title>Node1&#45;&gt;Node3</title>
<path fill="none" stroke="#63b8ff" d="M403.62,-57.37C334.23,-56.86 236.46,-56.13 167.47,-55.62"/>
<polygon fill="#63b8ff" stroke="#63b8ff" points="403.39,-60.87 413.42,-57.45 403.44,-53.87 403.39,-60.87"/>
</g>
<!-- Node4 -->
<g id="node4" class="node">
<title>Node4</title>
<g id="a_node4"><a xlink:href="classcomm_1_1_comm_u_s_b.html#ace10e3932efc3dbac63663869fd25b08" target="_top" xlink:title="Disconnect from USB device.">
<polygon fill="white" stroke="#666666" points="365.5,-30 216.5,-30 216.5,0 365.5,0 365.5,-30"/>
<text text-anchor="start" x="224.5" y="-18" font-family="Helvetica,sans-Serif" font-size="10.00">comm::CommUSB::disconnect</text>
<text text-anchor="middle" x="291" y="-7" font-family="Helvetica,sans-Serif" font-size="10.00">Device</text>
</a>
</g>
</g>
<!-- Node1&#45;&gt;Node4 -->
<g id="edge3" class="edge">
<title>Node1&#45;&gt;Node4</title>
<path fill="none" stroke="#63b8ff" d="M406.47,-40.11C391.87,-36.91 376.77,-33.6 362.52,-30.47"/>
<polygon fill="#63b8ff" stroke="#63b8ff" points="405.52,-43.49 416.04,-42.21 407.02,-36.65 405.52,-43.49"/>
</g>
<!-- Node4&#45;&gt;Node3 -->
<g id="edge4" class="edge">
<title>Node4&#45;&gt;Node3</title>
<path fill="none" stroke="#63b8ff" d="M205.01,-31.54C181.43,-36.13 156.56,-40.97 135.57,-45.06"/>
<polygon fill="#63b8ff" stroke="#63b8ff" points="205.47,-35.02 214.61,-29.67 204.13,-28.15 205.47,-35.02"/>
</g>
<!-- Node5 -->
<g id="node5" class="node">
<title>Node5</title>
<g id="a_node5"><a xlink:href="classcomm_1_1_comm_u_s_b.html#a680fd2b00288a6225b250cd7f4aeb132" target="_top" xlink:title="Disconnect from device and destroy the Comm USB object.">
<polygon fill="white" stroke="#666666" points="162,-24.5 5,-24.5 5,-5.5 162,-5.5 162,-24.5"/>
<text text-anchor="middle" x="83.5" y="-12.5" font-family="Helvetica,sans-Serif" font-size="10.00">comm::CommUSB::~CommUSB</text>
</a>
</g>
</g>
<!-- Node4&#45;&gt;Node5 -->
<g id="edge5" class="edge">
<title>Node4&#45;&gt;Node5</title>
<path fill="none" stroke="#63b8ff" d="M204.89,-15C190.77,-15 176.18,-15 162.25,-15"/>
<polygon fill="#63b8ff" stroke="#63b8ff" points="204.59,-18.5 214.59,-15 204.59,-11.5 204.59,-18.5"/>
</g>
</g>
</svg>
