<?xml version="1.0" encoding="UTF-8" standalone="no"?>
<!DOCTYPE svg PUBLIC "-//W3C//DTD SVG 1.1//EN"
 "http://www.w3.org/Graphics/SVG/1.1/DTD/svg11.dtd">
<!-- Generated by graphviz version 7.0.5 (20221223.1930)
 -->
<!-- Title: Plot Pages: 1 -->
<svg width="146pt" height="149pt"
 viewBox="0.00 0.00 145.50 149.00" xmlns="http://www.w3.org/2000/svg" xmlns:xlink="http://www.w3.org/1999/xlink">
<g id="graph0" class="graph" transform="scale(1 1) rotate(0) translate(4 145)">
<title>Plot</title>
<!-- Node1 -->
<g id="node1" class="node">
<title>Node1</title>
<g id="a_node1"><a xlink:title="Widget to display a dynamic line graph chart.">
<polygon fill="#999999" stroke="#666666" points="60,-19 26,-19 26,0 60,0 60,-19"/>
<text text-anchor="middle" x="43" y="-7" font-family="Helvetica,sans-Serif" font-size="10.00">Plot</text>
</a>
</g>
</g>
<!-- Node2 -->
<g id="node2" class="node">
<title>Node2</title>
<g id="a_node2"><a xlink:title=" ">
<polygon fill="white" stroke="#666666" points="54,-85 0,-85 0,-66 54,-66 54,-85"/>
<text text-anchor="middle" x="27" y="-73" font-family="Helvetica,sans-Serif" font-size="10.00">QWidget</text>
</a>
</g>
</g>
<!-- Node2&#45;&gt;Node1 -->
<g id="edge1" class="edge">
<title>Node2&#45;&gt;Node1</title>
<path fill="none" stroke="#63b8ff" d="M31.99,-54.55C34.94,-42.74 38.53,-28.37 40.79,-19.32"/>
<polygon fill="#63b8ff" stroke="#63b8ff" points="28.62,-53.58 29.59,-64.13 35.41,-55.28 28.62,-53.58"/>
</g>
<!-- Node3 -->
<g id="node3" class="node">
<title>Node3</title>
<g id="a_node3"><a xlink:href="class_notification.html" target="_top" xlink:title="Class to handle all notifications.">
<polygon fill="white" stroke="#666666" points="137.5,-85 72.5,-85 72.5,-66 137.5,-66 137.5,-85"/>
<text text-anchor="middle" x="105" y="-73" font-family="Helvetica,sans-Serif" font-size="10.00">Notification</text>
</a>
</g>
</g>
<!-- Node3&#45;&gt;Node1 -->
<g id="edge2" class="edge">
<title>Node3&#45;&gt;Node1</title>
<path fill="none" stroke="#9a32cd" stroke-dasharray="5,2" d="M88.51,-57.48C76.62,-45.2 61.05,-29.13 51.55,-19.32"/>
<polygon fill="#9a32cd" stroke="#9a32cd" points="85.85,-59.77 95.33,-64.51 90.88,-54.9 85.85,-59.77"/>
<text text-anchor="middle" x="101.5" y="-40" font-family="Helvetica,sans-Serif" font-size="10.00"> notification</text>
</g>
<!-- Node4 -->
<g id="node4" class="node">
<title>Node4</title>
<g id="a_node4"><a xlink:title=" ">
<polygon fill="white" stroke="#666666" points="131.5,-141 78.5,-141 78.5,-122 131.5,-122 131.5,-141"/>
<text text-anchor="middle" x="105" y="-129" font-family="Helvetica,sans-Serif" font-size="10.00">QObject</text>
</a>
</g>
</g>
<!-- Node4&#45;&gt;Node3 -->
<g id="edge3" class="edge">
<title>Node4&#45;&gt;Node3</title>
<path fill="none" stroke="#63b8ff" d="M105,-110.11C105,-101.52 105,-91.97 105,-85.25"/>
<polygon fill="#63b8ff" stroke="#63b8ff" points="101.5,-110.07 105,-120.07 108.5,-110.07 101.5,-110.07"/>
</g>
</g>
</svg>
