<?xml version="1.0" encoding="UTF-8" standalone="no"?>
<!DOCTYPE svg PUBLIC "-//W3C//DTD SVG 1.1//EN"
 "http://www.w3.org/Graphics/SVG/1.1/DTD/svg11.dtd">
<!-- Generated by graphviz version 7.0.5 (20221223.1930)
 -->
<!-- Title: DialogConnect::reloadConnections Pages: 1 -->
<svg width="355pt" height="64pt"
 viewBox="0.00 0.00 355.00 64.00" xmlns="http://www.w3.org/2000/svg" xmlns:xlink="http://www.w3.org/1999/xlink">
<g id="graph0" class="graph" transform="scale(1 1) rotate(0) translate(4 60)">
<title>DialogConnect::reloadConnections</title>
<!-- Node1 -->
<g id="node1" class="node">
<title>Node1</title>
<g id="a_node1"><a xlink:title="Reload comboBox with all available connections.">
<polygon fill="#999999" stroke="#666666" points="347,-37 183,-37 183,-18 347,-18 347,-37"/>
<text text-anchor="middle" x="265" y="-25" font-family="Helvetica,sans-Serif" font-size="10.00">DialogConnect::reloadConnections</text>
</a>
</g>
</g>
<!-- Node2 -->
<g id="node2" class="node">
<title>Node2</title>
<g id="a_node2"><a xlink:href="class_dialog_connect.html#aefa611b60696bb99f199bd938857c2cb" target="_top" xlink:title="Constructor of the class.">
<polygon fill="white" stroke="#666666" points="147,-56 0,-56 0,-37 147,-37 147,-56"/>
<text text-anchor="middle" x="73.5" y="-44" font-family="Helvetica,sans-Serif" font-size="10.00">DialogConnect::DialogConnect</text>
</a>
</g>
</g>
<!-- Node1&#45;&gt;Node2 -->
<g id="edge1" class="edge">
<title>Node1&#45;&gt;Node2</title>
<path fill="none" stroke="#63b8ff" d="M171.2,-36.8C163.15,-37.61 155.08,-38.42 147.23,-39.21"/>
<polygon fill="#63b8ff" stroke="#63b8ff" points="171.43,-40.3 181.03,-35.82 170.73,-33.33 171.43,-40.3"/>
</g>
<!-- Node3 -->
<g id="node3" class="node">
<title>Node3</title>
<g id="a_node3"><a xlink:href="class_dialog_connect.html#a837300a8690091004b49817fd9778be8" target="_top" xlink:title="Expands the QWidget::showEvent to update the available devices.">
<polygon fill="white" stroke="#666666" points="139.5,-19 7.5,-19 7.5,0 139.5,0 139.5,-19"/>
<text text-anchor="middle" x="73.5" y="-7" font-family="Helvetica,sans-Serif" font-size="10.00">DialogConnect::showEvent</text>
</a>
</g>
</g>
<!-- Node1&#45;&gt;Node3 -->
<g id="edge2" class="edge">
<title>Node1&#45;&gt;Node3</title>
<path fill="none" stroke="#63b8ff" d="M171.12,-18.68C160.57,-17.68 149.99,-16.67 139.9,-15.71"/>
<polygon fill="#63b8ff" stroke="#63b8ff" points="170.74,-22.16 181.03,-19.62 171.4,-15.19 170.74,-22.16"/>
</g>
</g>
</svg>
