<?xml version="1.0" encoding="UTF-8" standalone="no"?>
<!DOCTYPE svg PUBLIC "-//W3C//DTD SVG 1.1//EN"
 "http://www.w3.org/Graphics/SVG/1.1/DTD/svg11.dtd">
<!-- Generated by graphviz version 7.0.4 (20221203.1631)
 -->
<!-- Title: comm::CommMaster::sendData Pages: 1 -->
<svg width="713pt" height="70pt"
 viewBox="0.00 0.00 713.00 69.50" xmlns="http://www.w3.org/2000/svg" xmlns:xlink="http://www.w3.org/1999/xlink">
<g id="graph0" class="graph" transform="scale(1 1) rotate(0) translate(4 65.5)">
<title>comm::CommMaster::sendData</title>
<!-- Node1 -->
<g id="node1" class="node">
<title>Node1</title>
<g id="a_node1"><a xlink:title="Send data to the connected devices.">
<polygon fill="#999999" stroke="#666666" points="705,-42.5 553,-42.5 553,-23.5 705,-23.5 705,-42.5"/>
<text text-anchor="middle" x="629" y="-30.5" font-family="Helvetica,sans-Serif" font-size="10.00">comm::CommMaster::sendData</text>
</a>
</g>
</g>
<!-- Node2 -->
<g id="node2" class="node">
<title>Node2</title>
<g id="a_node2"><a xlink:href="classcomm_1_1_comm_master.html#a7ce73489c87b14a0781b2e07f87a5d7b" target="_top" xlink:title="Send data to the connected devices.">
<polygon fill="white" stroke="#666666" points="511,-61.5 359,-61.5 359,-42.5 511,-42.5 511,-61.5"/>
<text text-anchor="middle" x="435" y="-49.5" font-family="Helvetica,sans-Serif" font-size="10.00">comm::CommMaster::sendData</text>
</a>
</g>
</g>
<!-- Node1&#45;&gt;Node2 -->
<g id="edge1" class="edge">
<title>Node1&#45;&gt;Node2</title>
<path fill="none" stroke="#63b8ff" d="M541.44,-41.57C531.43,-42.56 521.28,-43.56 511.43,-44.54"/>
<polygon fill="#63b8ff" stroke="#63b8ff" points="541.55,-45.07 551.16,-40.6 540.87,-38.11 541.55,-45.07"/>
</g>
<!-- Node3 -->
<g id="node3" class="node">
<title>Node3</title>
<g id="a_node3"><a xlink:href="classcomm_1_1_comm_master.html#a3ff7ddcdaf0f923be560692266d3580f" target="_top" xlink:title="Set a new frequency on the device.">
<polygon fill="white" stroke="#666666" points="517,-24.5 353,-24.5 353,-5.5 517,-5.5 517,-24.5"/>
<text text-anchor="middle" x="435" y="-12.5" font-family="Helvetica,sans-Serif" font-size="10.00">comm::CommMaster::setNewFreq</text>
</a>
</g>
</g>
<!-- Node1&#45;&gt;Node3 -->
<g id="edge2" class="edge">
<title>Node1&#45;&gt;Node3</title>
<path fill="none" stroke="#63b8ff" d="M541.46,-24.89C533.47,-24.14 525.39,-23.38 517.45,-22.64"/>
<polygon fill="#63b8ff" stroke="#63b8ff" points="540.88,-28.35 551.16,-25.8 541.53,-21.38 540.88,-28.35"/>
</g>
<!-- Node4 -->
<g id="node4" class="node">
<title>Node4</title>
<g id="a_node4"><a xlink:href="class_connection_widget.html#abae7db7f76bb5ef89d3be9d3e253c737" target="_top" xlink:title="Request new frequency from the connected device.">
<polygon fill="white" stroke="#666666" points="317,-30 185,-30 185,0 317,0 317,-30"/>
<text text-anchor="start" x="193" y="-18" font-family="Helvetica,sans-Serif" font-size="10.00">ConnectionWidget::request</text>
<text text-anchor="middle" x="251" y="-7" font-family="Helvetica,sans-Serif" font-size="10.00">NewFreq</text>
</a>
</g>
</g>
<!-- Node3&#45;&gt;Node4 -->
<g id="edge3" class="edge">
<title>Node3&#45;&gt;Node4</title>
<path fill="none" stroke="#63b8ff" d="M341.17,-15C333.09,-15 325.03,-15 317.25,-15"/>
<polygon fill="#63b8ff" stroke="#63b8ff" points="341.07,-18.5 351.07,-15 341.07,-11.5 341.07,-18.5"/>
</g>
<!-- Node5 -->
<g id="node5" class="node">
<title>Node5</title>
<g id="a_node5"><a xlink:href="class_connection_widget.html#a832811b8c579f99b44e45d0b30cef1fd" target="_top" xlink:title="Constructor of the class.">
<polygon fill="white" stroke="#666666" points="149,-30 0,-30 0,0 149,0 149,-30"/>
<text text-anchor="start" x="8" y="-18" font-family="Helvetica,sans-Serif" font-size="10.00">ConnectionWidget::Connection</text>
<text text-anchor="middle" x="74.5" y="-7" font-family="Helvetica,sans-Serif" font-size="10.00">Widget</text>
</a>
</g>
</g>
<!-- Node4&#45;&gt;Node5 -->
<g id="edge4" class="edge">
<title>Node4&#45;&gt;Node5</title>
<path fill="none" stroke="#63b8ff" d="M173.05,-15C165.15,-15 157.13,-15 149.25,-15"/>
<polygon fill="#63b8ff" stroke="#63b8ff" points="173.01,-18.5 183.01,-15 173.01,-11.5 173.01,-18.5"/>
</g>
</g>
</svg>
