<?xml version="1.0" encoding="UTF-8" standalone="no"?>
<!DOCTYPE svg PUBLIC "-//W3C//DTD SVG 1.1//EN"
 "http://www.w3.org/Graphics/SVG/1.1/DTD/svg11.dtd">
<!-- Generated by graphviz version 7.0.5 (20221223.1930)
 -->
<!-- Title: Logfile::splitToQString Pages: 1 -->
<svg width="374pt" height="27pt"
 viewBox="0.00 0.00 374.00 27.00" xmlns="http://www.w3.org/2000/svg" xmlns:xlink="http://www.w3.org/1999/xlink">
<g id="graph0" class="graph" transform="scale(1 1) rotate(0) translate(4 23)">
<title>Logfile::splitToQString</title>
<!-- Node1 -->
<g id="node1" class="node">
<title>Node1</title>
<g id="a_node1"><a xlink:title="Split the input line and return a QString.">
<polygon fill="#999999" stroke="#666666" points="366,-19 254,-19 254,0 366,0 366,-19"/>
<text text-anchor="middle" x="310" y="-7" font-family="Helvetica,sans-Serif" font-size="10.00">Logfile::splitToQString</text>
</a>
</g>
</g>
<!-- Node2 -->
<g id="node2" class="node">
<title>Node2</title>
<g id="a_node2"><a xlink:href="class_logfile.html#a037e993c091c54f6b124ed0c9dcb1b58" target="_top" xlink:title="Parse the metadata from a given text stream.">
<polygon fill="white" stroke="#666666" points="218,-19 104,-19 104,0 218,0 218,-19"/>
<text text-anchor="middle" x="161" y="-7" font-family="Helvetica,sans-Serif" font-size="10.00">Logfile::parseMetadata</text>
</a>
</g>
</g>
<!-- Node1&#45;&gt;Node2 -->
<g id="edge1" class="edge">
<title>Node1&#45;&gt;Node2</title>
<path fill="none" stroke="#63b8ff" d="M242.57,-9.5C234.51,-9.5 226.34,-9.5 218.44,-9.5"/>
<polygon fill="#63b8ff" stroke="#63b8ff" points="242.33,-13 252.33,-9.5 242.33,-6 242.33,-13"/>
</g>
<!-- Node3 -->
<g id="node3" class="node">
<title>Node3</title>
<g id="a_node3"><a xlink:href="class_logfile.html#ac21f368cd1107310ae2f7caf6150d1a8" target="_top" xlink:title="Open the file and parse the data.">
<polygon fill="white" stroke="#666666" points="68,-19 0,-19 0,0 68,0 68,-19"/>
<text text-anchor="middle" x="34" y="-7" font-family="Helvetica,sans-Serif" font-size="10.00">Logfile::load</text>
</a>
</g>
</g>
<!-- Node2&#45;&gt;Node3 -->
<g id="edge2" class="edge">
<title>Node2&#45;&gt;Node3</title>
<path fill="none" stroke="#63b8ff" d="M92.38,-9.5C84.08,-9.5 75.91,-9.5 68.44,-9.5"/>
<polygon fill="#63b8ff" stroke="#63b8ff" points="92.2,-13 102.2,-9.5 92.2,-6 92.2,-13"/>
</g>
</g>
</svg>
