<?xml version="1.0" encoding="UTF-8" standalone="no"?>
<!DOCTYPE svg PUBLIC "-//W3C//DTD SVG 1.1//EN"
 "http://www.w3.org/Graphics/SVG/1.1/DTD/svg11.dtd">
<!-- Generated by graphviz version 7.0.5 (20221223.1930)
 -->
<!-- Title: MainWindow Pages: 1 -->
<svg width="579pt" height="355pt"
 viewBox="0.00 0.00 579.00 355.00" xmlns="http://www.w3.org/2000/svg" xmlns:xlink="http://www.w3.org/1999/xlink">
<g id="graph0" class="graph" transform="scale(1 1) rotate(0) translate(4 351)">
<title>MainWindow</title>
<!-- Node1 -->
<g id="node1" class="node">
<title>Node1</title>
<g id="a_node1"><a xlink:title="Main window for the application linescaleGUI.">
<polygon fill="#999999" stroke="#666666" points="330,-19 258,-19 258,0 330,0 330,-19"/>
<text text-anchor="middle" x="294" y="-7" font-family="Helvetica,sans-Serif" font-size="10.00">MainWindow</text>
</a>
</g>
</g>
<!-- Node2 -->
<g id="node2" class="node">
<title>Node2</title>
<g id="a_node2"><a xlink:title=" ">
<polygon fill="white" stroke="#666666" points="80,-85 0,-85 0,-66 80,-66 80,-85"/>
<text text-anchor="middle" x="40" y="-73" font-family="Helvetica,sans-Serif" font-size="10.00">QMainWindow</text>
</a>
</g>
</g>
<!-- Node2&#45;&gt;Node1 -->
<g id="edge1" class="edge">
<title>Node2&#45;&gt;Node1</title>
<path fill="none" stroke="#63b8ff" d="M60.36,-59.27C71.98,-51.36 87.14,-42.26 102,-37 154.02,-18.57 218.18,-12.88 257.59,-11.17"/>
<polygon fill="#63b8ff" stroke="#63b8ff" points="58.53,-56.28 52.4,-64.92 62.58,-61.99 58.53,-56.28"/>
</g>
<!-- Node3 -->
<g id="node3" class="node">
<title>Node3</title>
<g id="a_node3"><a xlink:href="classcomm_1_1_comm_master.html" target="_top" xlink:title="Class to handle all connections to the connected LineScales.">
<polygon fill="white" stroke="#666666" points="266.5,-151 159.5,-151 159.5,-132 266.5,-132 266.5,-151"/>
<text text-anchor="middle" x="213" y="-139" font-family="Helvetica,sans-Serif" font-size="10.00">comm::CommMaster</text>
</a>
</g>
</g>
<!-- Node3&#45;&gt;Node1 -->
<g id="edge2" class="edge">
<title>Node3&#45;&gt;Node1</title>
<path fill="none" stroke="#9a32cd" stroke-dasharray="5,2" d="M176.11,-127.4C144.38,-114.03 106.44,-91.64 125,-66 155.16,-24.35 217.58,-13.4 257.53,-10.84"/>
<polygon fill="#9a32cd" stroke="#9a32cd" points="174.55,-130.55 185.13,-131.02 177.15,-124.05 174.55,-130.55"/>
<text text-anchor="middle" x="140" y="-73" font-family="Helvetica,sans-Serif" font-size="10.00"> comm</text>
</g>
<!-- Node10 -->
<g id="node10" class="node">
<title>Node10</title>
<g id="a_node10"><a xlink:href="class_dialog_debug.html" target="_top" xlink:title="Dialog to send predefined snippets to the linescale.">
<polygon fill="white" stroke="#666666" points="235.5,-85 164.5,-85 164.5,-66 235.5,-66 235.5,-85"/>
<text text-anchor="middle" x="200" y="-73" font-family="Helvetica,sans-Serif" font-size="10.00">DialogDebug</text>
</a>
</g>
</g>
<!-- Node3&#45;&gt;Node10 -->
<g id="edge13" class="edge">
<title>Node3&#45;&gt;Node10</title>
<path fill="none" stroke="#9a32cd" stroke-dasharray="5,2" d="M203.4,-121.71C202.43,-119.17 201.59,-116.56 201,-114 198.78,-104.35 198.85,-92.94 199.26,-85.26"/>
<polygon fill="#9a32cd" stroke="#9a32cd" points="200.12,-122.95 207.46,-130.6 206.49,-120.05 200.12,-122.95"/>
<text text-anchor="middle" x="216" y="-106" font-family="Helvetica,sans-Serif" font-size="10.00"> comm</text>
</g>
<!-- Node11 -->
<g id="node11" class="node">
<title>Node11</title>
<g id="a_node11"><a xlink:href="class_dialog_connect.html" target="_top" xlink:title="Dialog to handle the connection with a device.">
<polygon fill="white" stroke="#666666" points="334,-85 254,-85 254,-66 334,-66 334,-85"/>
<text text-anchor="middle" x="294" y="-73" font-family="Helvetica,sans-Serif" font-size="10.00">DialogConnect</text>
</a>
</g>
</g>
<!-- Node3&#45;&gt;Node11 -->
<g id="edge16" class="edge">
<title>Node3&#45;&gt;Node11</title>
<path fill="none" stroke="#9a32cd" stroke-dasharray="5,2" d="M233.2,-124.54C248.89,-112.14 270.06,-95.42 282.83,-85.32"/>
<polygon fill="#9a32cd" stroke="#9a32cd" points="231.13,-121.72 225.45,-130.66 235.47,-127.21 231.13,-121.72"/>
<text text-anchor="middle" x="274" y="-106" font-family="Helvetica,sans-Serif" font-size="10.00"> comm</text>
</g>
<!-- Node4 -->
<g id="node4" class="node">
<title>Node4</title>
<g id="a_node4"><a xlink:title=" ">
<polygon fill="white" stroke="#666666" points="333.5,-347 280.5,-347 280.5,-328 333.5,-328 333.5,-347"/>
<text text-anchor="middle" x="307" y="-335" font-family="Helvetica,sans-Serif" font-size="10.00">QObject</text>
</a>
</g>
</g>
<!-- Node4&#45;&gt;Node3 -->
<g id="edge3" class="edge">
<title>Node4&#45;&gt;Node3</title>
<path fill="none" stroke="#63b8ff" d="M311.11,-316.47C313.1,-303.68 314.57,-286.77 312,-272 303.65,-224.08 308.36,-204.4 275,-169 267.53,-161.08 257.31,-155.41 247.32,-151.41"/>
<polygon fill="#63b8ff" stroke="#63b8ff" points="307.69,-315.72 309.34,-326.18 314.57,-316.97 307.69,-315.72"/>
</g>
<!-- Node5 -->
<g id="node5" class="node">
<title>Node5</title>
<g id="a_node5"><a xlink:href="classcomm_1_1_comm_device.html" target="_top" xlink:title="Base class for every connection.">
<polygon fill="white" stroke="#666666" points="266.5,-217 159.5,-217 159.5,-198 266.5,-198 266.5,-217"/>
<text text-anchor="middle" x="213" y="-205" font-family="Helvetica,sans-Serif" font-size="10.00">comm::CommDevice</text>
</a>
</g>
</g>
<!-- Node4&#45;&gt;Node5 -->
<g id="edge5" class="edge">
<title>Node4&#45;&gt;Node5</title>
<path fill="none" stroke="#63b8ff" d="M305.32,-316.27C302.45,-293.84 294.73,-257.81 274,-235 266.78,-227.05 256.75,-221.38 246.91,-217.38"/>
<polygon fill="#63b8ff" stroke="#63b8ff" points="301.84,-316.61 306.35,-326.2 308.8,-315.89 301.84,-316.61"/>
</g>
<!-- Node6 -->
<g id="node6" class="node">
<title>Node6</title>
<g id="a_node6"><a xlink:href="class_parser.html" target="_top" xlink:title="Class to parse the received messages.">
<polygon fill="white" stroke="#666666" points="173.5,-291 128.5,-291 128.5,-272 173.5,-272 173.5,-291"/>
<text text-anchor="middle" x="151" y="-279" font-family="Helvetica,sans-Serif" font-size="10.00">Parser</text>
</a>
</g>
</g>
<!-- Node4&#45;&gt;Node6 -->
<g id="edge7" class="edge">
<title>Node4&#45;&gt;Node6</title>
<path fill="none" stroke="#63b8ff" d="M270.39,-323.83C240.47,-313.47 199.11,-299.15 173.75,-290.38"/>
<polygon fill="#63b8ff" stroke="#63b8ff" points="269.21,-327.12 279.81,-327.09 271.5,-320.51 269.21,-327.12"/>
</g>
<!-- Node12 -->
<g id="node12" class="node">
<title>Node12</title>
<g id="a_node12"><a xlink:href="class_notification.html" target="_top" xlink:title="Class to handle all notifications.">
<polygon fill="white" stroke="#666666" points="461.5,-254 396.5,-254 396.5,-235 461.5,-235 461.5,-254"/>
<text text-anchor="middle" x="429" y="-242" font-family="Helvetica,sans-Serif" font-size="10.00">Notification</text>
</a>
</g>
</g>
<!-- Node4&#45;&gt;Node12 -->
<g id="edge18" class="edge">
<title>Node4&#45;&gt;Node12</title>
<path fill="none" stroke="#63b8ff" d="M327.62,-321.12C353.33,-301.94 396.43,-269.79 417.16,-254.33"/>
<polygon fill="#63b8ff" stroke="#63b8ff" points="325.83,-318.09 319.91,-326.87 330.02,-323.7 325.83,-318.09"/>
</g>
<!-- Node5&#45;&gt;Node3 -->
<g id="edge4" class="edge">
<title>Node5&#45;&gt;Node3</title>
<path fill="none" stroke="#9a32cd" stroke-dasharray="5,2" d="M213,-186.18C213,-174.44 213,-160.27 213,-151.32"/>
<polygon fill="#9a32cd" stroke="#9a32cd" points="209.5,-186.09 213,-196.09 216.5,-186.09 209.5,-186.09"/>
<text text-anchor="middle" x="242" y="-172" font-family="Helvetica,sans-Serif" font-size="10.00"> singleDevice</text>
</g>
<!-- Node6&#45;&gt;Node5 -->
<g id="edge6" class="edge">
<title>Node6&#45;&gt;Node5</title>
<path fill="none" stroke="#9a32cd" stroke-dasharray="5,2" d="M161.12,-261.67C166.19,-253.07 172.79,-243.04 180,-235 185.89,-228.43 193.5,-222.2 199.94,-217.43"/>
<polygon fill="#9a32cd" stroke="#9a32cd" points="158.16,-259.78 156.31,-270.21 164.27,-263.21 158.16,-259.78"/>
<text text-anchor="middle" x="195" y="-242" font-family="Helvetica,sans-Serif" font-size="10.00"> parser</text>
</g>
<!-- Node7 -->
<g id="node7" class="node">
<title>Node7</title>
<g id="a_node7"><a xlink:href="struct_sample.html" target="_top" xlink:title="A sample received from a LineScale.">
<polygon fill="white" stroke="#666666" points="242,-291 192,-291 192,-272 242,-272 242,-291"/>
<text text-anchor="middle" x="217" y="-279" font-family="Helvetica,sans-Serif" font-size="10.00">Sample</text>
</a>
</g>
</g>
<!-- Node7&#45;&gt;Node5 -->
<g id="edge8" class="edge">
<title>Node7&#45;&gt;Node5</title>
<path fill="none" stroke="#9a32cd" stroke-dasharray="5,2" d="M214.52,-260.26C214.32,-258.15 214.14,-256.03 214,-254 213.14,-241.23 212.97,-226.4 212.96,-217.23"/>
<polygon fill="#9a32cd" stroke="#9a32cd" points="211.04,-260.63 215.63,-270.18 217.99,-259.85 211.04,-260.63"/>
<text text-anchor="middle" x="244" y="-242" font-family="Helvetica,sans-Serif" font-size="10.00"> receivedData</text>
</g>
<!-- Node8 -->
<g id="node8" class="node">
<title>Node8</title>
<g id="a_node8"><a xlink:href="class_dialog_about.html" target="_top" xlink:title="Dialog to show basic informations about the linescaleGUI.">
<polygon fill="white" stroke="#666666" points="421.5,-85 352.5,-85 352.5,-66 421.5,-66 421.5,-85"/>
<text text-anchor="middle" x="387" y="-73" font-family="Helvetica,sans-Serif" font-size="10.00">DialogAbout</text>
</a>
</g>
</g>
<!-- Node8&#45;&gt;Node1 -->
<g id="edge9" class="edge">
<title>Node8&#45;&gt;Node1</title>
<path fill="none" stroke="#9a32cd" stroke-dasharray="5,2" d="M368.95,-58.11C360.96,-51.22 351.29,-43.35 342,-37 332.41,-30.45 321.06,-24.12 311.81,-19.29"/>
<polygon fill="#9a32cd" stroke="#9a32cd" points="366.47,-60.59 376.28,-64.59 371.11,-55.35 366.47,-60.59"/>
<text text-anchor="middle" x="374" y="-40" font-family="Helvetica,sans-Serif" font-size="10.00"> dAbout</text>
</g>
<!-- Node9 -->
<g id="node9" class="node">
<title>Node9</title>
<g id="a_node9"><a xlink:title=" ">
<polygon fill="white" stroke="#666666" points="348.5,-151 297.5,-151 297.5,-132 348.5,-132 348.5,-151"/>
<text text-anchor="middle" x="323" y="-139" font-family="Helvetica,sans-Serif" font-size="10.00">QDialog</text>
</a>
</g>
</g>
<!-- Node9&#45;&gt;Node8 -->
<g id="edge10" class="edge">
<title>Node9&#45;&gt;Node8</title>
<path fill="none" stroke="#63b8ff" d="M340.02,-123.48C352.3,-111.2 368.37,-95.13 378.18,-85.32"/>
<polygon fill="#63b8ff" stroke="#63b8ff" points="337.57,-120.98 332.97,-130.53 342.52,-125.93 337.57,-120.98"/>
</g>
<!-- Node9&#45;&gt;Node10 -->
<g id="edge12" class="edge">
<title>Node9&#45;&gt;Node10</title>
<path fill="none" stroke="#63b8ff" d="M308.28,-123.18C301.5,-116.09 292.97,-108.33 284,-103 269.27,-94.26 251.35,-88.09 235.85,-83.92"/>
<polygon fill="#63b8ff" stroke="#63b8ff" points="305.53,-125.35 314.83,-130.43 310.73,-120.66 305.53,-125.35"/>
</g>
<!-- Node9&#45;&gt;Node11 -->
<g id="edge15" class="edge">
<title>Node9&#45;&gt;Node11</title>
<path fill="none" stroke="#63b8ff" d="M316.33,-120.84C314.17,-115.02 311.65,-108.68 309,-103 306.14,-96.87 302.39,-90.24 299.36,-85.15"/>
<polygon fill="#63b8ff" stroke="#63b8ff" points="313.02,-122.01 319.65,-130.27 319.63,-119.68 313.02,-122.01"/>
</g>
<!-- Node10&#45;&gt;Node1 -->
<g id="edge11" class="edge">
<title>Node10&#45;&gt;Node1</title>
<path fill="none" stroke="#9a32cd" stroke-dasharray="5,2" d="M221.78,-59.21C231.59,-52.37 243.34,-44.23 254,-37 262.82,-31.01 272.82,-24.39 280.62,-19.26"/>
<polygon fill="#9a32cd" stroke="#9a32cd" points="219.82,-56.32 213.63,-64.92 223.83,-62.05 219.82,-56.32"/>
<text text-anchor="middle" x="272" y="-40" font-family="Helvetica,sans-Serif" font-size="10.00"> dDebug</text>
</g>
<!-- Node11&#45;&gt;Node1 -->
<g id="edge14" class="edge">
<title>Node11&#45;&gt;Node1</title>
<path fill="none" stroke="#9a32cd" stroke-dasharray="5,2" d="M294,-54.18C294,-42.44 294,-28.27 294,-19.32"/>
<polygon fill="#9a32cd" stroke="#9a32cd" points="290.5,-54.09 294,-64.09 297.5,-54.09 290.5,-54.09"/>
<text text-anchor="middle" x="316" y="-40" font-family="Helvetica,sans-Serif" font-size="10.00"> dConnect</text>
</g>
<!-- Node12&#45;&gt;Node1 -->
<g id="edge17" class="edge">
<title>Node12&#45;&gt;Node1</title>
<path fill="none" stroke="#9a32cd" stroke-dasharray="5,2" d="M438.31,-224.25C443.93,-210.89 450,-192.51 450,-175.5 450,-175.5 450,-175.5 450,-74.5 450,-22.98 376.27,-12.05 330.18,-10.25"/>
<polygon fill="#9a32cd" stroke="#9a32cd" points="435.22,-222.6 434.28,-233.15 441.59,-225.49 435.22,-222.6"/>
<text text-anchor="middle" x="474.5" y="-139" font-family="Helvetica,sans-Serif" font-size="10.00"> notification</text>
</g>
<!-- Node13 -->
<g id="node13" class="node">
<title>Node13</title>
<g id="a_node13"><a xlink:href="class_plot.html" target="_top" xlink:title="Widget to display a dynamic line graph chart.">
<polygon fill="white" stroke="#666666" points="546,-85 512,-85 512,-66 546,-66 546,-85"/>
<text text-anchor="middle" x="529" y="-73" font-family="Helvetica,sans-Serif" font-size="10.00">Plot</text>
</a>
</g>
</g>
<!-- Node13&#45;&gt;Node1 -->
<g id="edge19" class="edge">
<title>Node13&#45;&gt;Node1</title>
<path fill="none" stroke="#9a32cd" stroke-dasharray="5,2" d="M507.42,-59.34C495.22,-51.48 479.36,-42.41 464,-37 419.63,-21.36 365.51,-14.93 330.43,-12.3"/>
<polygon fill="#9a32cd" stroke="#9a32cd" points="505.21,-62.07 515.47,-64.72 509.1,-56.25 505.21,-62.07"/>
<text text-anchor="middle" x="496.5" y="-40" font-family="Helvetica,sans-Serif" font-size="10.00"> plot</text>
</g>
<!-- Node14 -->
<g id="node14" class="node">
<title>Node14</title>
<g id="a_node14"><a xlink:title=" ">
<polygon fill="white" stroke="#666666" points="571,-151 517,-151 517,-132 571,-132 571,-151"/>
<text text-anchor="middle" x="544" y="-139" font-family="Helvetica,sans-Serif" font-size="10.00">QWidget</text>
</a>
</g>
</g>
<!-- Node14&#45;&gt;Node13 -->
<g id="edge20" class="edge">
<title>Node14&#45;&gt;Node13</title>
<path fill="none" stroke="#63b8ff" d="M539.33,-120.55C536.56,-108.74 533.19,-94.37 531.07,-85.32"/>
<polygon fill="#63b8ff" stroke="#63b8ff" points="535.88,-121.19 541.57,-130.13 542.69,-119.59 535.88,-121.19"/>
</g>
</g>
</svg>
