<?xml version="1.0" encoding="UTF-8" standalone="no"?>
<!DOCTYPE svg PUBLIC "-//W3C//DTD SVG 1.1//EN"
 "http://www.w3.org/Graphics/SVG/1.1/DTD/svg11.dtd">
<!-- Generated by graphviz version 7.0.5 (20221223.1930)
 -->
<!-- Title: comm::CommDevice::newSampleDevice Pages: 1 -->
<svg width="570pt" height="64pt"
 viewBox="0.00 0.00 570.00 64.00" xmlns="http://www.w3.org/2000/svg" xmlns:xlink="http://www.w3.org/1999/xlink">
<g id="graph0" class="graph" transform="scale(1 1) rotate(0) translate(4 60)">
<title>comm::CommDevice::newSampleDevice</title>
<!-- Node1 -->
<g id="node1" class="node">
<title>Node1</title>
<g id="a_node1"><a xlink:title="Emit after a package was received and parsed.">
<polygon fill="#999999" stroke="#666666" points="562,-42.5 400,-42.5 400,-12.5 562,-12.5 562,-42.5"/>
<text text-anchor="start" x="408" y="-30.5" font-family="Helvetica,sans-Serif" font-size="10.00">comm::CommDevice::newSample</text>
<text text-anchor="middle" x="481" y="-19.5" font-family="Helvetica,sans-Serif" font-size="10.00">Device</text>
</a>
</g>
</g>
<!-- Node2 -->
<g id="node2" class="node">
<title>Node2</title>
<g id="a_node2"><a xlink:href="classcomm_1_1_comm_master.html#a20313a06785b1817ed883e29d72a8282" target="_top" xlink:title="Create connection.">
<polygon fill="white" stroke="#666666" points="364,-56 188,-56 188,-37 364,-37 364,-56"/>
<text text-anchor="middle" x="276" y="-44" font-family="Helvetica,sans-Serif" font-size="10.00">comm::CommMaster::addConnection</text>
</a>
</g>
</g>
<!-- Node1&#45;&gt;Node2 -->
<g id="edge1" class="edge">
<title>Node1&#45;&gt;Node2</title>
<path fill="none" stroke="#63b8ff" d="M388.49,-36.07C380.45,-36.82 372.34,-37.58 364.34,-38.33"/>
<polygon fill="#63b8ff" stroke="#63b8ff" points="388.63,-39.57 398.26,-35.15 387.98,-32.6 388.63,-39.57"/>
</g>
<!-- Node3 -->
<g id="node3" class="node">
<title>Node3</title>
<g id="a_node3"><a xlink:href="classcomm_1_1_comm_u_s_b.html#ad37cdf76196c13ec5e8225853b3f6d05" target="_top" xlink:title="Method to read the received data.">
<polygon fill="white" stroke="#666666" points="346.5,-19 205.5,-19 205.5,0 346.5,0 346.5,-19"/>
<text text-anchor="middle" x="276" y="-7" font-family="Helvetica,sans-Serif" font-size="10.00">comm::CommUSB::readData</text>
</a>
</g>
</g>
<!-- Node1&#45;&gt;Node3 -->
<g id="edge2" class="edge">
<title>Node1&#45;&gt;Node3</title>
<path fill="none" stroke="#63b8ff" d="M388.59,-19.39C374.56,-18.15 360.26,-16.88 346.8,-15.69"/>
<polygon fill="#63b8ff" stroke="#63b8ff" points="387.99,-22.86 398.26,-20.25 388.61,-15.88 387.99,-22.86"/>
</g>
<!-- Node4 -->
<g id="node4" class="node">
<title>Node4</title>
<g id="a_node4"><a xlink:href="classcomm_1_1_comm_u_s_b.html#a29440857f23e85afb8b8c0803c5ba7c5" target="_top" xlink:title="Construct a new Comm USB object.">
<polygon fill="white" stroke="#666666" points="152,-19 0,-19 0,0 152,0 152,-19"/>
<text text-anchor="middle" x="76" y="-7" font-family="Helvetica,sans-Serif" font-size="10.00">comm::CommUSB::CommUSB</text>
</a>
</g>
</g>
<!-- Node3&#45;&gt;Node4 -->
<g id="edge3" class="edge">
<title>Node3&#45;&gt;Node4</title>
<path fill="none" stroke="#63b8ff" d="M193.78,-9.5C180.03,-9.5 165.81,-9.5 152.23,-9.5"/>
<polygon fill="#63b8ff" stroke="#63b8ff" points="193.68,-13 203.68,-9.5 193.68,-6 193.68,-13"/>
</g>
</g>
</svg>
