<?xml version="1.0" encoding="UTF-8" standalone="no"?>
<!DOCTYPE svg PUBLIC "-//W3C//DTD SVG 1.1//EN"
 "http://www.w3.org/Graphics/SVG/1.1/DTD/svg11.dtd">
<!-- Generated by graphviz version 7.0.5 (20221223.1930)
 -->
<!-- Title: Notification::push Pages: 1 -->
<svg width="447pt" height="64pt"
 viewBox="0.00 0.00 447.00 64.00" xmlns="http://www.w3.org/2000/svg" xmlns:xlink="http://www.w3.org/1999/xlink">
<g id="graph0" class="graph" transform="scale(1 1) rotate(0) translate(4 60)">
<title>Notification::push</title>
<!-- Node1 -->
<g id="node1" class="node">
<title>Node1</title>
<g id="a_node1"><a xlink:title="Method to write a notification to the already specified text browser.">
<polygon fill="#999999" stroke="#666666" points="439,-37 348,-37 348,-18 439,-18 439,-37"/>
<text text-anchor="middle" x="393.5" y="-25" font-family="Helvetica,sans-Serif" font-size="10.00">Notification::push</text>
</a>
</g>
</g>
<!-- Node2 -->
<g id="node2" class="node">
<title>Node2</title>
<g id="a_node2"><a xlink:href="class_notification.html#a55ba3de37658a449ffc4687e7f984776" target="_top" xlink:title="Method to save the current context of the text browser to a file. A system file dialog will open wher...">
<polygon fill="white" stroke="#666666" points="293.5,-56 186.5,-56 186.5,-37 293.5,-37 293.5,-56"/>
<text text-anchor="middle" x="240" y="-44" font-family="Helvetica,sans-Serif" font-size="10.00">Notification::saveLog</text>
</a>
</g>
</g>
<!-- Node1&#45;&gt;Node2 -->
<g id="edge1" class="edge">
<title>Node1&#45;&gt;Node2</title>
<path fill="none" stroke="#63b8ff" d="M336.85,-34.48C322.81,-36.24 307.77,-38.13 293.87,-39.87"/>
<polygon fill="#63b8ff" stroke="#63b8ff" points="336.88,-38 346.36,-33.29 336,-31.06 336.88,-38"/>
</g>
<!-- Node4 -->
<g id="node4" class="node">
<title>Node4</title>
<g id="a_node4"><a xlink:href="class_main_window.html#a5f3ac70cc2eef797bad37aee830ffbbe" target="_top" xlink:title="Start or stop the readings.">
<polygon fill="white" stroke="#666666" points="312,-19 168,-19 168,0 312,0 312,-19"/>
<text text-anchor="middle" x="240" y="-7" font-family="Helvetica,sans-Serif" font-size="10.00">MainWindow::triggerReadings</text>
</a>
</g>
</g>
<!-- Node1&#45;&gt;Node4 -->
<g id="edge3" class="edge">
<title>Node1&#45;&gt;Node4</title>
<path fill="none" stroke="#63b8ff" d="M336.56,-20.85C328.66,-19.92 320.45,-18.94 312.31,-17.97"/>
<polygon fill="#63b8ff" stroke="#63b8ff" points="336.02,-24.31 346.36,-22.02 336.84,-17.36 336.02,-24.31"/>
</g>
<!-- Node3 -->
<g id="node3" class="node">
<title>Node3</title>
<g id="a_node3"><a xlink:href="class_main_window.html#a996c5a2b6f77944776856f08ec30858d" target="_top" xlink:title=" ">
<polygon fill="white" stroke="#666666" points="132,-37 0,-37 0,-18 132,-18 132,-37"/>
<text text-anchor="middle" x="66" y="-25" font-family="Helvetica,sans-Serif" font-size="10.00">MainWindow::MainWindow</text>
</a>
</g>
</g>
<!-- Node2&#45;&gt;Node3 -->
<g id="edge2" class="edge">
<title>Node2&#45;&gt;Node3</title>
<path fill="none" stroke="#63b8ff" d="M175.4,-39.47C161.33,-37.92 146.41,-36.27 132.28,-34.71"/>
<polygon fill="#63b8ff" stroke="#63b8ff" points="174.63,-42.91 184.96,-40.53 175.4,-35.95 174.63,-42.91"/>
</g>
<!-- Node4&#45;&gt;Node3 -->
<g id="edge4" class="edge">
<title>Node4&#45;&gt;Node3</title>
<path fill="none" stroke="#63b8ff" d="M156.29,-18.16C148.29,-18.99 140.25,-19.83 132.45,-20.65"/>
<polygon fill="#63b8ff" stroke="#63b8ff" points="156.46,-21.66 166.05,-17.13 155.74,-14.69 156.46,-21.66"/>
</g>
</g>
</svg>
