<?xml version="1.0" encoding="UTF-8" standalone="no"?>
<!DOCTYPE svg PUBLIC "-//W3C//DTD SVG 1.1//EN"
 "http://www.w3.org/Graphics/SVG/1.1/DTD/svg11.dtd">
<!-- Generated by graphviz version 7.0.4 (20221203.1631)
 -->
<!-- Title: comm::CommMaster::newSampleMaster Pages: 1 -->
<svg width="561pt" height="76pt"
 viewBox="0.00 0.00 561.00 75.50" xmlns="http://www.w3.org/2000/svg" xmlns:xlink="http://www.w3.org/1999/xlink">
<g id="graph0" class="graph" transform="scale(1 1) rotate(0) translate(4 71.5)">
<title>comm::CommMaster::newSampleMaster</title>
<!-- Node1 -->
<g id="node1" class="node">
<title>Node1</title>
<g id="a_node1"><a xlink:title="Emit after new sample was sent by a deviceClass.">
<polygon fill="#999999" stroke="#666666" points="553,-51 391,-51 391,-21 553,-21 553,-51"/>
<text text-anchor="start" x="399" y="-39" font-family="Helvetica,sans-Serif" font-size="10.00">comm::CommMaster::newSample</text>
<text text-anchor="middle" x="472" y="-28" font-family="Helvetica,sans-Serif" font-size="10.00">Master</text>
</a>
</g>
</g>
<!-- Node2 -->
<g id="node2" class="node">
<title>Node2</title>
<g id="a_node2"><a xlink:href="class_main_window.html#a996c5a2b6f77944776856f08ec30858d" target="_top" xlink:title=" ">
<polygon fill="white" stroke="#666666" points="349.5,-67.5 217.5,-67.5 217.5,-48.5 349.5,-48.5 349.5,-67.5"/>
<text text-anchor="middle" x="283.5" y="-55.5" font-family="Helvetica,sans-Serif" font-size="10.00">MainWindow::MainWindow</text>
</a>
</g>
</g>
<!-- Node1&#45;&gt;Node2 -->
<g id="edge1" class="edge">
<title>Node1&#45;&gt;Node2</title>
<path fill="none" stroke="#63b8ff" d="M379.33,-46.81C369.37,-47.99 359.38,-49.17 349.82,-50.3"/>
<polygon fill="#63b8ff" stroke="#63b8ff" points="379.53,-50.31 389.05,-45.67 378.71,-43.36 379.53,-50.31"/>
</g>
<!-- Node3 -->
<g id="node3" class="node">
<title>Node3</title>
<g id="a_node3"><a xlink:href="classcomm_1_1_comm_master.html#ab4290bf47f19360b801c82e52cc2bfd4" target="_top" xlink:title="Slot to receive the emitted signal from a deviceClass.">
<polygon fill="white" stroke="#666666" points="355,-30 212,-30 212,0 355,0 355,-30"/>
<text text-anchor="start" x="220" y="-18" font-family="Helvetica,sans-Serif" font-size="10.00">comm::CommMaster::receive</text>
<text text-anchor="middle" x="283.5" y="-7" font-family="Helvetica,sans-Serif" font-size="10.00">SampleMaster</text>
</a>
</g>
</g>
<!-- Node1&#45;&gt;Node3 -->
<g id="edge2" class="edge">
<title>Node1&#45;&gt;Node3</title>
<path fill="none" stroke="#63b8ff" d="M379.22,-25.67C371.18,-24.76 363.12,-23.85 355.29,-22.97"/>
<polygon fill="#63b8ff" stroke="#63b8ff" points="378.72,-29.13 389.05,-26.77 379.5,-22.18 378.72,-29.13"/>
</g>
<!-- Node4 -->
<g id="node4" class="node">
<title>Node4</title>
<g id="a_node4"><a xlink:href="classcomm_1_1_comm_master.html#a20313a06785b1817ed883e29d72a8282" target="_top" xlink:title="Create connection.">
<polygon fill="white" stroke="#666666" points="176,-24.5 0,-24.5 0,-5.5 176,-5.5 176,-24.5"/>
<text text-anchor="middle" x="88" y="-12.5" font-family="Helvetica,sans-Serif" font-size="10.00">comm::CommMaster::addConnection</text>
</a>
</g>
</g>
<!-- Node3&#45;&gt;Node4 -->
<g id="edge3" class="edge">
<title>Node3&#45;&gt;Node4</title>
<path fill="none" stroke="#63b8ff" d="M200.15,-15C192.29,-15 184.3,-15 176.4,-15"/>
<polygon fill="#63b8ff" stroke="#63b8ff" points="200.03,-18.5 210.03,-15 200.03,-11.5 200.03,-18.5"/>
</g>
</g>
</svg>
