<?xml version="1.0" encoding="UTF-8" standalone="no"?>
<!DOCTYPE svg PUBLIC "-//W3C//DTD SVG 1.1//EN"
 "http://www.w3.org/Graphics/SVG/1.1/DTD/svg11.dtd">
<!-- Generated by graphviz version 7.0.4 (20221203.1631)
 -->
<!-- Title: Plot::beginNewGraph Pages: 1 -->
<svg width="403pt" height="27pt"
 viewBox="0.00 0.00 403.00 27.00" xmlns="http://www.w3.org/2000/svg" xmlns:xlink="http://www.w3.org/1999/xlink">
<g id="graph0" class="graph" transform="scale(1 1) rotate(0) translate(4 23)">
<title>Plot::beginNewGraph</title>
<!-- Node1 -->
<g id="node1" class="node">
<title>Node1</title>
<g id="a_node1"><a xlink:title="Add a new graph to the plot and use it for all new points added.">
<polygon fill="#999999" stroke="#666666" points="395,-19 287,-19 287,0 395,0 395,-19"/>
<text text-anchor="middle" x="341" y="-7" font-family="Helvetica,sans-Serif" font-size="10.00">Plot::beginNewGraph</text>
</a>
</g>
</g>
<!-- Node2 -->
<g id="node2" class="node">
<title>Node2</title>
<g id="a_node2"><a xlink:href="class_plot.html#a20f1b9ce5da6e9baa3a86b7d8359a4f4" target="_top" xlink:title="Add a single data point.">
<polygon fill="white" stroke="#666666" points="251,-19 177,-19 177,0 251,0 251,-19"/>
<text text-anchor="middle" x="214" y="-7" font-family="Helvetica,sans-Serif" font-size="10.00">Plot::addData</text>
</a>
</g>
</g>
<!-- Node1&#45;&gt;Node2 -->
<g id="edge1" class="edge">
<title>Node1&#45;&gt;Node2</title>
<path fill="none" stroke="#63b8ff" d="M275.35,-9.5C267.06,-9.5 258.83,-9.5 251.23,-9.5"/>
<polygon fill="#63b8ff" stroke="#63b8ff" points="275.11,-13 285.11,-9.5 275.11,-6 275.11,-13"/>
</g>
<!-- Node3 -->
<g id="node3" class="node">
<title>Node3</title>
<g id="a_node3"><a xlink:href="class_plot.html#ac5af8584145b5c1bd664b43088387433" target="_top" xlink:title="Add a single sample to the data.">
<polygon fill="white" stroke="#666666" points="141,-19 0,-19 0,0 141,0 141,-19"/>
<text text-anchor="middle" x="70.5" y="-7" font-family="Helvetica,sans-Serif" font-size="10.00">Plot::addConsecutiveSample</text>
</a>
</g>
</g>
<!-- Node2&#45;&gt;Node3 -->
<g id="edge2" class="edge">
<title>Node2&#45;&gt;Node3</title>
<path fill="none" stroke="#63b8ff" d="M165.24,-9.5C157.55,-9.5 149.44,-9.5 141.35,-9.5"/>
<polygon fill="#63b8ff" stroke="#63b8ff" points="165.05,-13 175.05,-9.5 165.05,-6 165.05,-13"/>
</g>
</g>
</svg>
