<?xml version="1.0" encoding="UTF-8" standalone="no"?>
<!DOCTYPE svg PUBLIC "-//W3C//DTD SVG 1.1//EN"
 "http://www.w3.org/Graphics/SVG/1.1/DTD/svg11.dtd">
<!-- Generated by graphviz version 7.0.5 (20221223.1930)
 -->
<!-- Title: Notification::push Pages: 1 -->
<svg width="464pt" height="138pt"
 viewBox="0.00 0.00 464.00 138.00" xmlns="http://www.w3.org/2000/svg" xmlns:xlink="http://www.w3.org/1999/xlink">
<g id="graph0" class="graph" transform="scale(1 1) rotate(0) translate(4 134)">
<title>Notification::push</title>
<!-- Node1 -->
<g id="node1" class="node">
<title>Node1</title>
<g id="a_node1"><a xlink:title="Method to write a notification to the already specified text browser.">
<polygon fill="#999999" stroke="#666666" points="456,-74 365,-74 365,-55 456,-55 456,-74"/>
<text text-anchor="middle" x="410.5" y="-62" font-family="Helvetica,sans-Serif" font-size="10.00">Notification::push</text>
</a>
</g>
</g>
<!-- Node2 -->
<g id="node2" class="node">
<title>Node2</title>
<g id="a_node2"><a xlink:href="class_main_window.html#a477a34ee6ac7f461c2cd70a29c94ca7f" target="_top" xlink:title="Receive new sample from CommMaster.">
<polygon fill="white" stroke="#666666" points="329,-130 168,-130 168,-111 329,-111 329,-130"/>
<text text-anchor="middle" x="248.5" y="-118" font-family="Helvetica,sans-Serif" font-size="10.00">MainWindow::receiveNewSample</text>
</a>
</g>
</g>
<!-- Node1&#45;&gt;Node2 -->
<g id="edge1" class="edge">
<title>Node1&#45;&gt;Node2</title>
<path fill="none" stroke="#63b8ff" d="M381.63,-79.5C366.41,-87.22 347.05,-96.28 329,-102.5 320.17,-105.54 310.61,-108.21 301.28,-110.5"/>
<polygon fill="#63b8ff" stroke="#63b8ff" points="382.82,-82.83 390.09,-75.13 379.6,-76.61 382.82,-82.83"/>
</g>
<!-- Node4 -->
<g id="node4" class="node">
<title>Node4</title>
<g id="a_node4"><a xlink:href="class_plot.html#a1bffd40999f0ff50b720bca97e4242c5" target="_top" xlink:title="Save the current plot window as png to the local machine.">
<polygon fill="white" stroke="#666666" points="291.5,-19 205.5,-19 205.5,0 291.5,0 291.5,-19"/>
<text text-anchor="middle" x="248.5" y="-7" font-family="Helvetica,sans-Serif" font-size="10.00">Plot::saveImage</text>
</a>
</g>
</g>
<!-- Node1&#45;&gt;Node4 -->
<g id="edge3" class="edge">
<title>Node1&#45;&gt;Node4</title>
<path fill="none" stroke="#63b8ff" d="M379.87,-49.66C364.89,-42.57 346.26,-34.37 329,-28.5 317.18,-24.48 304.09,-20.98 292,-18.12"/>
<polygon fill="#63b8ff" stroke="#63b8ff" points="378.17,-52.72 388.7,-53.92 381.21,-46.42 378.17,-52.72"/>
</g>
<!-- Node6 -->
<g id="node6" class="node">
<title>Node6</title>
<g id="a_node6"><a xlink:href="class_notification.html#a55ba3de37658a449ffc4687e7f984776" target="_top" xlink:title="Method to save the current context of the text browser to a file. A system file dialog will open wher...">
<polygon fill="white" stroke="#666666" points="302,-93 195,-93 195,-74 302,-74 302,-93"/>
<text text-anchor="middle" x="248.5" y="-81" font-family="Helvetica,sans-Serif" font-size="10.00">Notification::saveLog</text>
</a>
</g>
</g>
<!-- Node1&#45;&gt;Node6 -->
<g id="edge6" class="edge">
<title>Node1&#45;&gt;Node6</title>
<path fill="none" stroke="#63b8ff" d="M353.32,-71.17C336.76,-73.14 318.71,-75.28 302.36,-77.22"/>
<polygon fill="#63b8ff" stroke="#63b8ff" points="353.48,-74.68 363,-70.02 352.66,-67.73 353.48,-74.68"/>
</g>
<!-- Node7 -->
<g id="node7" class="node">
<title>Node7</title>
<g id="a_node7"><a xlink:href="class_main_window.html#a55493aa4ef69fc35e7fa5177f65fe415" target="_top" xlink:title="Start or stop the readings.">
<polygon fill="white" stroke="#666666" points="320.5,-56 176.5,-56 176.5,-37 320.5,-37 320.5,-56"/>
<text text-anchor="middle" x="248.5" y="-44" font-family="Helvetica,sans-Serif" font-size="10.00">MainWindow::triggerReadings</text>
</a>
</g>
</g>
<!-- Node1&#45;&gt;Node7 -->
<g id="edge8" class="edge">
<title>Node1&#45;&gt;Node7</title>
<path fill="none" stroke="#63b8ff" d="M353.36,-58.18C342.84,-57 331.71,-55.75 320.79,-54.52"/>
<polygon fill="#63b8ff" stroke="#63b8ff" points="352.67,-61.63 363,-59.27 353.46,-54.67 352.67,-61.63"/>
</g>
<!-- Node3 -->
<g id="node3" class="node">
<title>Node3</title>
<g id="a_node3"><a xlink:href="class_main_window.html#a996c5a2b6f77944776856f08ec30858d" target="_top" xlink:title=" ">
<polygon fill="white" stroke="#666666" points="132,-74 0,-74 0,-55 132,-55 132,-74"/>
<text text-anchor="middle" x="66" y="-62" font-family="Helvetica,sans-Serif" font-size="10.00">MainWindow::MainWindow</text>
</a>
</g>
</g>
<!-- Node2&#45;&gt;Node3 -->
<g id="edge2" class="edge">
<title>Node2&#45;&gt;Node3</title>
<path fill="none" stroke="#63b8ff" d="M187.42,-107.82C180.83,-106.16 174.25,-104.37 168,-102.5 141.08,-94.43 111.03,-82.77 90.76,-74.5"/>
<polygon fill="#63b8ff" stroke="#63b8ff" points="186.44,-111.19 196.98,-110.15 188.09,-104.38 186.44,-111.19"/>
</g>
<!-- Node4&#45;&gt;Node3 -->
<g id="edge4" class="edge">
<title>Node4&#45;&gt;Node3</title>
<path fill="none" stroke="#63b8ff" d="M194.21,-21.4C185.41,-23.6 176.42,-26 168,-28.5 141.94,-36.23 112.76,-46.85 92.49,-54.55"/>
<polygon fill="#63b8ff" stroke="#63b8ff" points="194.84,-24.85 203.72,-19.08 193.18,-18.05 194.84,-24.85"/>
</g>
<!-- Node5 -->
<g id="node5" class="node">
<title>Node5</title>
<g id="a_node5"><a xlink:href="class_plot.html#a83d9454de4b05fc361c318317658c734" target="_top" xlink:title="Create a new Plot widget.">
<polygon fill="white" stroke="#666666" points="94,-19 38,-19 38,0 94,0 94,-19"/>
<text text-anchor="middle" x="66" y="-7" font-family="Helvetica,sans-Serif" font-size="10.00">Plot::Plot</text>
</a>
</g>
</g>
<!-- Node4&#45;&gt;Node5 -->
<g id="edge5" class="edge">
<title>Node4&#45;&gt;Node5</title>
<path fill="none" stroke="#63b8ff" d="M193.97,-9.5C161.27,-9.5 120.8,-9.5 94.47,-9.5"/>
<polygon fill="#63b8ff" stroke="#63b8ff" points="193.67,-13 203.67,-9.5 193.67,-6 193.67,-13"/>
</g>
<!-- Node6&#45;&gt;Node3 -->
<g id="edge7" class="edge">
<title>Node6&#45;&gt;Node3</title>
<path fill="none" stroke="#63b8ff" d="M183.53,-76.77C166.9,-75.02 148.96,-73.13 132.26,-71.37"/>
<polygon fill="#63b8ff" stroke="#63b8ff" points="182.99,-80.23 193.3,-77.79 183.72,-73.27 182.99,-80.23"/>
</g>
<!-- Node7&#45;&gt;Node3 -->
<g id="edge9" class="edge">
<title>Node7&#45;&gt;Node3</title>
<path fill="none" stroke="#63b8ff" d="M164.85,-54.74C153.92,-55.83 142.83,-56.94 132.25,-57.99"/>
<polygon fill="#63b8ff" stroke="#63b8ff" points="165.05,-58.24 174.66,-53.76 164.36,-51.27 165.05,-58.24"/>
</g>
</g>
</svg>
