<?xml version="1.0" encoding="UTF-8" standalone="no"?>
<!DOCTYPE svg PUBLIC "-//W3C//DTD SVG 1.1//EN"
 "http://www.w3.org/Graphics/SVG/1.1/DTD/svg11.dtd">
<!-- Generated by graphviz version 7.0.4 (20221203.1631)
 -->
<!-- Title: comm::CommUSB Pages: 1 -->
<svg width="240pt" height="215pt"
 viewBox="0.00 0.00 240.00 215.00" xmlns="http://www.w3.org/2000/svg" xmlns:xlink="http://www.w3.org/1999/xlink">
<g id="graph0" class="graph" transform="scale(1 1) rotate(0) translate(4 211)">
<title>comm::CommUSB</title>
<!-- Node1 -->
<g id="node1" class="node">
<title>Node1</title>
<g id="a_node1"><a xlink:title="Class to handle the communication with a USB device.">
<polygon fill="#999999" stroke="#666666" points="173.5,-19 75.5,-19 75.5,0 173.5,0 173.5,-19"/>
<text text-anchor="middle" x="124.5" y="-7" font-family="Helvetica,sans-Serif" font-size="10.00">comm::CommUSB</text>
</a>
</g>
</g>
<!-- Node2 -->
<g id="node2" class="node">
<title>Node2</title>
<g id="a_node2"><a xlink:href="classcomm_1_1_comm_device.html" target="_top" xlink:title="Base class for every connection.">
<polygon fill="white" stroke="#666666" points="119,-85 12,-85 12,-66 119,-66 119,-85"/>
<text text-anchor="middle" x="65.5" y="-73" font-family="Helvetica,sans-Serif" font-size="10.00">comm::CommDevice</text>
</a>
</g>
</g>
<!-- Node2&#45;&gt;Node1 -->
<g id="edge1" class="edge">
<title>Node2&#45;&gt;Node1</title>
<path fill="none" stroke="#63b8ff" d="M81.19,-57.48C92.51,-45.2 107.33,-29.13 116.37,-19.32"/>
<polygon fill="#63b8ff" stroke="#63b8ff" points="78.93,-54.76 74.73,-64.49 84.08,-59.51 78.93,-54.76"/>
</g>
<!-- Node3 -->
<g id="node3" class="node">
<title>Node3</title>
<g id="a_node3"><a xlink:title=" ">
<polygon fill="white" stroke="#666666" points="53,-207 0,-207 0,-188 53,-188 53,-207"/>
<text text-anchor="middle" x="26.5" y="-195" font-family="Helvetica,sans-Serif" font-size="10.00">QObject</text>
</a>
</g>
</g>
<!-- Node3&#45;&gt;Node2 -->
<g id="edge2" class="edge">
<title>Node3&#45;&gt;Node2</title>
<path fill="none" stroke="#63b8ff" d="M26.55,-176.58C27.09,-163.6 28.78,-146.46 33.5,-132 39.3,-114.24 51.27,-95.89 58.81,-85.37"/>
<polygon fill="#63b8ff" stroke="#63b8ff" points="23.05,-176.34 26.35,-186.4 30.05,-176.48 23.05,-176.34"/>
</g>
<!-- Node4 -->
<g id="node4" class="node">
<title>Node4</title>
<g id="a_node4"><a xlink:href="class_parser.html" target="_top" xlink:title="Class to parse the received messages.">
<polygon fill="white" stroke="#666666" points="88,-151 43,-151 43,-132 88,-132 88,-151"/>
<text text-anchor="middle" x="65.5" y="-139" font-family="Helvetica,sans-Serif" font-size="10.00">Parser</text>
</a>
</g>
</g>
<!-- Node3&#45;&gt;Node4 -->
<g id="edge4" class="edge">
<title>Node3&#45;&gt;Node4</title>
<path fill="none" stroke="#63b8ff" d="M39.51,-178.48C46.13,-169.32 53.88,-158.59 59.18,-151.25"/>
<polygon fill="#63b8ff" stroke="#63b8ff" points="36.84,-176.2 33.83,-186.36 42.52,-180.3 36.84,-176.2"/>
</g>
<!-- Node4&#45;&gt;Node2 -->
<g id="edge3" class="edge">
<title>Node4&#45;&gt;Node2</title>
<path fill="none" stroke="#9a32cd" stroke-dasharray="5,2" d="M65.5,-120.18C65.5,-108.44 65.5,-94.27 65.5,-85.32"/>
<polygon fill="#9a32cd" stroke="#9a32cd" points="62,-120.09 65.5,-130.09 69,-120.09 62,-120.09"/>
<text text-anchor="middle" x="80.5" y="-106" font-family="Helvetica,sans-Serif" font-size="10.00"> parser</text>
</g>
<!-- Node5 -->
<g id="node5" class="node">
<title>Node5</title>
<g id="a_node5"><a xlink:href="struct_sample.html" target="_top" xlink:title="A sample received from a LineScale.">
<polygon fill="white" stroke="#666666" points="156.5,-151 106.5,-151 106.5,-132 156.5,-132 156.5,-151"/>
<text text-anchor="middle" x="131.5" y="-139" font-family="Helvetica,sans-Serif" font-size="10.00">Sample</text>
</a>
</g>
</g>
<!-- Node5&#45;&gt;Node2 -->
<g id="edge5" class="edge">
<title>Node5&#45;&gt;Node2</title>
<path fill="none" stroke="#9a32cd" stroke-dasharray="5,2" d="M117.77,-122.95C112.35,-116.42 105.9,-109.12 99.5,-103 92.9,-96.69 84.87,-90.37 78.27,-85.49"/>
<polygon fill="#9a32cd" stroke="#9a32cd" points="114.9,-124.95 123.89,-130.54 120.35,-120.56 114.9,-124.95"/>
<text text-anchor="middle" x="140.5" y="-106" font-family="Helvetica,sans-Serif" font-size="10.00"> receivedData</text>
</g>
<!-- Node6 -->
<g id="node6" class="node">
<title>Node6</title>
<g id="a_node6"><a xlink:href="structcomm_1_1_device_info.html" target="_top" xlink:title="Struct to identify a device Used to connect to one device.">
<polygon fill="white" stroke="#666666" points="232,-85 137,-85 137,-66 232,-66 232,-85"/>
<text text-anchor="middle" x="184.5" y="-73" font-family="Helvetica,sans-Serif" font-size="10.00">comm::DeviceInfo</text>
</a>
</g>
</g>
<!-- Node6&#45;&gt;Node1 -->
<g id="edge6" class="edge">
<title>Node6&#45;&gt;Node1</title>
<path fill="none" stroke="#9a32cd" stroke-dasharray="5,2" d="M168.54,-57.48C157.03,-45.2 141.97,-29.13 132.77,-19.32"/>
<polygon fill="#9a32cd" stroke="#9a32cd" points="165.73,-59.6 175.12,-64.5 170.84,-54.81 165.73,-59.6"/>
<text text-anchor="middle" x="177" y="-40" font-family="Helvetica,sans-Serif" font-size="10.00"> identifier</text>
</g>
</g>
</svg>
