<?xml version="1.0" encoding="UTF-8" standalone="no"?>
<!DOCTYPE svg PUBLIC "-//W3C//DTD SVG 1.1//EN"
 "http://www.w3.org/Graphics/SVG/1.1/DTD/svg11.dtd">
<!-- Generated by graphviz version 7.0.4 (20221203.1631)
 -->
<!-- Title: DialogDebug::sendMsg Pages: 1 -->
<svg width="473pt" height="46pt"
 viewBox="0.00 0.00 473.00 46.00" xmlns="http://www.w3.org/2000/svg" xmlns:xlink="http://www.w3.org/1999/xlink">
<g id="graph0" class="graph" transform="scale(1 1) rotate(0) translate(4 42)">
<title>DialogDebug::sendMsg</title>
<!-- Node1 -->
<g id="node1" class="node">
<title>Node1</title>
<g id="a_node1"><a xlink:title="Send msg to connected device.">
<polygon fill="#999999" stroke="#666666" points="465,-19 349,-19 349,0 465,0 465,-19"/>
<text text-anchor="middle" x="407" y="-7" font-family="Helvetica,sans-Serif" font-size="10.00">DialogDebug::sendMsg</text>
</a>
</g>
</g>
<!-- Node2 -->
<g id="node2" class="node">
<title>Node2</title>
<g id="a_node2"><a xlink:href="class_dialog_debug.html#aadec9f268b3fa279ea58855176ed104c" target="_top" xlink:title="Insert the double clicked item from treeCmd into inputPayload.">
<polygon fill="white" stroke="#666666" points="313,-38 167,-38 167,-19 313,-19 313,-38"/>
<text text-anchor="middle" x="240" y="-26" font-family="Helvetica,sans-Serif" font-size="10.00">DialogDebug::clickedTreeCmd</text>
</a>
</g>
</g>
<!-- Node1&#45;&gt;Node2 -->
<g id="edge1" class="edge">
<title>Node1&#45;&gt;Node2</title>
<path fill="none" stroke="#63b8ff" d="M337.56,-17.38C329.54,-18.3 321.33,-19.25 313.26,-20.18"/>
<polygon fill="#63b8ff" stroke="#63b8ff" points="337.72,-20.89 347.25,-16.27 336.92,-13.93 337.72,-20.89"/>
</g>
<!-- Node3 -->
<g id="node3" class="node">
<title>Node3</title>
<g id="a_node3"><a xlink:href="class_dialog_debug.html#a9525c71924319348ccb3b70da4028fef" target="_top" xlink:title="Construct a new DialogDebug object.">
<polygon fill="white" stroke="#666666" points="131,-19 0,-19 0,0 131,0 131,-19"/>
<text text-anchor="middle" x="65.5" y="-7" font-family="Helvetica,sans-Serif" font-size="10.00">DialogDebug::DialogDebug</text>
</a>
</g>
</g>
<!-- Node1&#45;&gt;Node3 -->
<g id="edge3" class="edge">
<title>Node1&#45;&gt;Node3</title>
<path fill="none" stroke="#63b8ff" d="M337.51,-9.5C277.39,-9.5 190.55,-9.5 131.49,-9.5"/>
<polygon fill="#63b8ff" stroke="#63b8ff" points="337.28,-13 347.28,-9.5 337.28,-6 337.28,-13"/>
</g>
<!-- Node2&#45;&gt;Node3 -->
<g id="edge2" class="edge">
<title>Node2&#45;&gt;Node3</title>
<path fill="none" stroke="#63b8ff" d="M155.5,-19.3C147.43,-18.41 139.34,-17.52 131.5,-16.66"/>
<polygon fill="#63b8ff" stroke="#63b8ff" points="155.02,-22.77 165.34,-20.39 155.78,-15.81 155.02,-22.77"/>
</g>
</g>
</svg>
