<?xml version="1.0" encoding="UTF-8" standalone="no"?>
<!DOCTYPE svg PUBLIC "-//W3C//DTD SVG 1.1//EN"
 "http://www.w3.org/Graphics/SVG/1.1/DTD/svg11.dtd">
<!-- Generated by graphviz version 7.0.5 (20221223.1930)
 -->
<!-- Title: comm::CommDevice::sendData Pages: 1 -->
<svg width="901pt" height="115pt"
 viewBox="0.00 0.00 901.00 114.50" xmlns="http://www.w3.org/2000/svg" xmlns:xlink="http://www.w3.org/1999/xlink">
<g id="graph0" class="graph" transform="scale(1 1) rotate(0) translate(4 110.5)">
<title>comm::CommDevice::sendData</title>
<!-- Node1 -->
<g id="node1" class="node">
<title>Node1</title>
<g id="a_node1"><a xlink:title="Send date to the connected device.">
<polygon fill="#999999" stroke="#666666" points="893,-69.5 741,-69.5 741,-50.5 893,-50.5 893,-69.5"/>
<text text-anchor="middle" x="817" y="-57.5" font-family="Helvetica,sans-Serif" font-size="10.00">comm::CommDevice::sendData</text>
</a>
</g>
</g>
<!-- Node2 -->
<g id="node2" class="node">
<title>Node2</title>
<g id="a_node2"><a xlink:href="classcomm_1_1_comm_master.html#a8605d1bc19aed2046b6b4593ac1b361c" target="_top" xlink:title="Send data to the connected devices.">
<polygon fill="white" stroke="#666666" points="705,-69.5 553,-69.5 553,-50.5 705,-50.5 705,-69.5"/>
<text text-anchor="middle" x="629" y="-57.5" font-family="Helvetica,sans-Serif" font-size="10.00">comm::CommMaster::sendData</text>
</a>
</g>
</g>
<!-- Node1&#45;&gt;Node2 -->
<g id="edge1" class="edge">
<title>Node1&#45;&gt;Node2</title>
<path fill="none" stroke="#63b8ff" d="M729.12,-60C721.23,-60 713.27,-60 705.49,-60"/>
<polygon fill="#63b8ff" stroke="#63b8ff" points="729.1,-63.5 739.1,-60 729.1,-56.5 729.1,-63.5"/>
</g>
<!-- Node3 -->
<g id="node3" class="node">
<title>Node3</title>
<g id="a_node3"><a xlink:href="classcomm_1_1_comm_master.html#a7ce73489c87b14a0781b2e07f87a5d7b" target="_top" xlink:title="Send data to the connected devices.">
<polygon fill="white" stroke="#666666" points="511,-106.5 359,-106.5 359,-87.5 511,-87.5 511,-106.5"/>
<text text-anchor="middle" x="435" y="-94.5" font-family="Helvetica,sans-Serif" font-size="10.00">comm::CommMaster::sendData</text>
</a>
</g>
</g>
<!-- Node2&#45;&gt;Node3 -->
<g id="edge2" class="edge">
<title>Node2&#45;&gt;Node3</title>
<path fill="none" stroke="#63b8ff" d="M565.07,-72.13C540.04,-76.95 511.6,-82.43 487.8,-87.02"/>
<polygon fill="#63b8ff" stroke="#63b8ff" points="565.65,-75.58 574.81,-70.25 564.33,-68.71 565.65,-75.58"/>
</g>
<!-- Node4 -->
<g id="node4" class="node">
<title>Node4</title>
<g id="a_node4"><a xlink:href="classcomm_1_1_comm_master.html#a3ff7ddcdaf0f923be560692266d3580f" target="_top" xlink:title="Set a new frequency on the device.">
<polygon fill="white" stroke="#666666" points="517,-69.5 353,-69.5 353,-50.5 517,-50.5 517,-69.5"/>
<text text-anchor="middle" x="435" y="-57.5" font-family="Helvetica,sans-Serif" font-size="10.00">comm::CommMaster::setNewFreq</text>
</a>
</g>
</g>
<!-- Node2&#45;&gt;Node4 -->
<g id="edge3" class="edge">
<title>Node2&#45;&gt;Node4</title>
<path fill="none" stroke="#63b8ff" d="M541.18,-60C533.28,-60 525.3,-60 517.45,-60"/>
<polygon fill="#63b8ff" stroke="#63b8ff" points="541.15,-63.5 551.15,-60 541.15,-56.5 541.15,-63.5"/>
</g>
<!-- Node7 -->
<g id="node7" class="node">
<title>Node7</title>
<g id="a_node7"><a xlink:href="classcomm_1_1_comm_master.html#acf1e9b9d32556359579fb330d00040f0" target="_top" xlink:title="Set a new unit on the device.">
<polygon fill="white" stroke="#666666" points="516.5,-29.5 353.5,-29.5 353.5,-10.5 516.5,-10.5 516.5,-29.5"/>
<text text-anchor="middle" x="435" y="-17.5" font-family="Helvetica,sans-Serif" font-size="10.00">comm::CommMaster::setNewUnit</text>
</a>
</g>
</g>
<!-- Node2&#45;&gt;Node7 -->
<g id="edge6" class="edge">
<title>Node2&#45;&gt;Node7</title>
<path fill="none" stroke="#63b8ff" d="M569.02,-47.71C541.64,-42.01 509.5,-35.31 483.68,-29.93"/>
<polygon fill="#63b8ff" stroke="#63b8ff" points="568.06,-51.09 578.56,-49.7 569.49,-44.23 568.06,-51.09"/>
</g>
<!-- Node5 -->
<g id="node5" class="node">
<title>Node5</title>
<g id="a_node5"><a xlink:href="class_connection_widget.html#abae7db7f76bb5ef89d3be9d3e253c737" target="_top" xlink:title="Request new frequency from the connected device.">
<polygon fill="white" stroke="#666666" points="317,-78 185,-78 185,-48 317,-48 317,-78"/>
<text text-anchor="start" x="193" y="-66" font-family="Helvetica,sans-Serif" font-size="10.00">ConnectionWidget::request</text>
<text text-anchor="middle" x="251" y="-55" font-family="Helvetica,sans-Serif" font-size="10.00">NewFreq</text>
</a>
</g>
</g>
<!-- Node4&#45;&gt;Node5 -->
<g id="edge4" class="edge">
<title>Node4&#45;&gt;Node5</title>
<path fill="none" stroke="#63b8ff" d="M341.17,-61.53C333.09,-61.66 325.03,-61.8 317.25,-61.92"/>
<polygon fill="#63b8ff" stroke="#63b8ff" points="341.13,-65.03 351.07,-61.37 341.01,-58.03 341.13,-65.03"/>
</g>
<!-- Node6 -->
<g id="node6" class="node">
<title>Node6</title>
<g id="a_node6"><a xlink:href="class_connection_widget.html#a832811b8c579f99b44e45d0b30cef1fd" target="_top" xlink:title="Constructor of the class.">
<polygon fill="white" stroke="#666666" points="149,-54 0,-54 0,-24 149,-24 149,-54"/>
<text text-anchor="start" x="8" y="-42" font-family="Helvetica,sans-Serif" font-size="10.00">ConnectionWidget::Connection</text>
<text text-anchor="middle" x="74.5" y="-31" font-family="Helvetica,sans-Serif" font-size="10.00">Widget</text>
</a>
</g>
</g>
<!-- Node5&#45;&gt;Node6 -->
<g id="edge5" class="edge">
<title>Node5&#45;&gt;Node6</title>
<path fill="none" stroke="#63b8ff" d="M173.33,-52.46C165.33,-51.36 157.22,-50.24 149.25,-49.14"/>
<polygon fill="#63b8ff" stroke="#63b8ff" points="172.64,-55.89 183.03,-53.79 173.6,-48.96 172.64,-55.89"/>
</g>
<!-- Node8 -->
<g id="node8" class="node">
<title>Node8</title>
<g id="a_node8"><a xlink:href="class_connection_widget.html#afd7b82ac6da432c673e112cc67979f3d" target="_top" xlink:title="Request new unit from the connected device.">
<polygon fill="white" stroke="#666666" points="317,-30 185,-30 185,0 317,0 317,-30"/>
<text text-anchor="start" x="193" y="-18" font-family="Helvetica,sans-Serif" font-size="10.00">ConnectionWidget::request</text>
<text text-anchor="middle" x="251" y="-7" font-family="Helvetica,sans-Serif" font-size="10.00">NewUnit</text>
</a>
</g>
</g>
<!-- Node7&#45;&gt;Node8 -->
<g id="edge7" class="edge">
<title>Node7&#45;&gt;Node8</title>
<path fill="none" stroke="#63b8ff" d="M341.85,-17.47C333.59,-17.24 325.33,-17.01 317.36,-16.8"/>
<polygon fill="#63b8ff" stroke="#63b8ff" points="341.51,-20.96 351.6,-17.74 341.7,-13.96 341.51,-20.96"/>
</g>
<!-- Node8&#45;&gt;Node6 -->
<g id="edge8" class="edge">
<title>Node8&#45;&gt;Node6</title>
<path fill="none" stroke="#63b8ff" d="M173.33,-25.54C165.33,-26.64 157.22,-27.76 149.25,-28.86"/>
<polygon fill="#63b8ff" stroke="#63b8ff" points="173.6,-29.04 183.03,-24.21 172.64,-22.11 173.6,-29.04"/>
</g>
</g>
</svg>
