<?xml version="1.0" encoding="UTF-8" standalone="no"?>
<!DOCTYPE svg PUBLIC "-//W3C//DTD SVG 1.1//EN"
 "http://www.w3.org/Graphics/SVG/1.1/DTD/svg11.dtd">
<!-- Generated by graphviz version 7.0.4 (20221203.1631)
 -->
<!-- Title: Parser::checkPackage Pages: 1 -->
<svg width="635pt" height="27pt"
 viewBox="0.00 0.00 635.00 27.00" xmlns="http://www.w3.org/2000/svg" xmlns:xlink="http://www.w3.org/1999/xlink">
<g id="graph0" class="graph" transform="scale(1 1) rotate(0) translate(4 23)">
<title>Parser::checkPackage</title>
<!-- Node1 -->
<g id="node1" class="node">
<title>Node1</title>
<g id="a_node1"><a xlink:title=" ">
<polygon fill="#999999" stroke="#666666" points="627,-19 513,-19 513,0 627,0 627,-19"/>
<text text-anchor="middle" x="570" y="-7" font-family="Helvetica,sans-Serif" font-size="10.00">Parser::checkPackage</text>
</a>
</g>
</g>
<!-- Node2 -->
<g id="node2" class="node">
<title>Node2</title>
<g id="a_node2"><a xlink:href="class_parser.html#abb022bc12ff85330ac74193703f69102" target="_top" xlink:title="Parses received messages from Line Scale to usable data for GUI.">
<polygon fill="white" stroke="#666666" points="477,-19 365,-19 365,0 477,0 477,-19"/>
<text text-anchor="middle" x="421" y="-7" font-family="Helvetica,sans-Serif" font-size="10.00">Parser::parsePackage</text>
</a>
</g>
</g>
<!-- Node1&#45;&gt;Node2 -->
<g id="edge1" class="edge">
<title>Node1&#45;&gt;Node2</title>
<path fill="none" stroke="#63b8ff" d="M501.24,-9.5C493.14,-9.5 484.94,-9.5 477.05,-9.5"/>
<polygon fill="#63b8ff" stroke="#63b8ff" points="501.07,-13 511.07,-9.5 501.07,-6 501.07,-13"/>
</g>
<!-- Node3 -->
<g id="node3" class="node">
<title>Node3</title>
<g id="a_node3"><a xlink:href="classcomm_1_1_comm_u_s_b.html#ad37cdf76196c13ec5e8225853b3f6d05" target="_top" xlink:title="Method to read the received data.">
<polygon fill="white" stroke="#666666" points="329,-19 188,-19 188,0 329,0 329,-19"/>
<text text-anchor="middle" x="258.5" y="-7" font-family="Helvetica,sans-Serif" font-size="10.00">comm::CommUSB::readData</text>
</a>
</g>
</g>
<!-- Node2&#45;&gt;Node3 -->
<g id="edge2" class="edge">
<title>Node2&#45;&gt;Node3</title>
<path fill="none" stroke="#63b8ff" d="M353.31,-9.5C345.38,-9.5 337.27,-9.5 329.3,-9.5"/>
<polygon fill="#63b8ff" stroke="#63b8ff" points="353.25,-13 363.25,-9.5 353.25,-6 353.25,-13"/>
</g>
<!-- Node4 -->
<g id="node4" class="node">
<title>Node4</title>
<g id="a_node4"><a xlink:href="classcomm_1_1_comm_u_s_b.html#a29440857f23e85afb8b8c0803c5ba7c5" target="_top" xlink:title="Construct a new Comm USB object.">
<polygon fill="white" stroke="#666666" points="152,-19 0,-19 0,0 152,0 152,-19"/>
<text text-anchor="middle" x="76" y="-7" font-family="Helvetica,sans-Serif" font-size="10.00">comm::CommUSB::CommUSB</text>
</a>
</g>
</g>
<!-- Node3&#45;&gt;Node4 -->
<g id="edge3" class="edge">
<title>Node3&#45;&gt;Node4</title>
<path fill="none" stroke="#63b8ff" d="M176.44,-9.5C168.4,-9.5 160.26,-9.5 152.29,-9.5"/>
<polygon fill="#63b8ff" stroke="#63b8ff" points="176.2,-13 186.2,-9.5 176.2,-6 176.2,-13"/>
</g>
</g>
</svg>
