<?xml version="1.0" encoding="UTF-8" standalone="no"?>
<!DOCTYPE svg PUBLIC "-//W3C//DTD SVG 1.1//EN"
 "http://www.w3.org/Graphics/SVG/1.1/DTD/svg11.dtd">
<!-- Generated by graphviz version 7.0.4 (20221203.1631)
 -->
<!-- Title: src/deviceCommunication/commUSB.h Pages: 1 -->
<svg width="432pt" height="203pt"
 viewBox="0.00 0.00 432.22 203.00" xmlns="http://www.w3.org/2000/svg" xmlns:xlink="http://www.w3.org/1999/xlink">
<g id="graph0" class="graph" transform="scale(1 1) rotate(0) translate(4 199)">
<title>src/deviceCommunication/commUSB.h</title>
<!-- Node1 -->
<g id="node1" class="node">
<title>Node1</title>
<g id="a_node1"><a xlink:title="comm::CommUSB declaration">
<polygon fill="#999999" stroke="#666666" points="227.22,-195 98.22,-195 98.22,-165 227.22,-165 227.22,-195"/>
<text text-anchor="start" x="106.22" y="-183" font-family="Helvetica,sans-Serif" font-size="10.00">src/deviceCommunication</text>
<text text-anchor="middle" x="162.72" y="-172" font-family="Helvetica,sans-Serif" font-size="10.00">/commUSB.h</text>
</a>
</g>
</g>
<!-- Node2 -->
<g id="node2" class="node">
<title>Node2</title>
<g id="a_node2"><a xlink:title=" ">
<polygon fill="#e0e0e0" stroke="#999999" points="63.72,-74 11.72,-74 11.72,-55 63.72,-55 63.72,-74"/>
<text text-anchor="middle" x="37.72" y="-62" font-family="Helvetica,sans-Serif" font-size="10.00">QDebug</text>
</a>
</g>
</g>
<!-- Node1&#45;&gt;Node2 -->
<g id="edge1" class="edge">
<title>Node1&#45;&gt;Node2</title>
<path fill="none" stroke="#63b8ff" d="M97.85,-165.71C77.41,-158.29 56.79,-146.79 43.72,-129 34.67,-116.69 33.63,-99.21 34.6,-85.71"/>
<polygon fill="#63b8ff" stroke="#63b8ff" points="38.07,-86.12 35.76,-75.78 31.12,-85.31 38.07,-86.12"/>
</g>
<!-- Node3 -->
<g id="node3" class="node">
<title>Node3</title>
<g id="a_node3"><a xlink:title=" ">
<polygon fill="#e0e0e0" stroke="#999999" points="238.22,-129 191.22,-129 191.22,-110 238.22,-110 238.22,-129"/>
<text text-anchor="middle" x="214.72" y="-117" font-family="Helvetica,sans-Serif" font-size="10.00">QHash</text>
</a>
</g>
</g>
<!-- Node1&#45;&gt;Node3 -->
<g id="edge2" class="edge">
<title>Node1&#45;&gt;Node3</title>
<path fill="none" stroke="#63b8ff" d="M175.57,-164.54C182.81,-156.39 191.91,-146.16 199.51,-137.61"/>
<polygon fill="#63b8ff" stroke="#63b8ff" points="201.97,-140.11 206,-130.31 196.74,-135.46 201.97,-140.11"/>
</g>
<!-- Node4 -->
<g id="node4" class="node">
<title>Node4</title>
<g id="a_node4"><a xlink:title=" ">
<polygon fill="#e0e0e0" stroke="#999999" points="115.22,-19 62.22,-19 62.22,0 115.22,0 115.22,-19"/>
<text text-anchor="middle" x="88.72" y="-7" font-family="Helvetica,sans-Serif" font-size="10.00">QObject</text>
</a>
</g>
</g>
<!-- Node1&#45;&gt;Node4 -->
<g id="edge3" class="edge">
<title>Node1&#45;&gt;Node4</title>
<path fill="none" stroke="#63b8ff" d="M99.66,-164.58C76.64,-156.93 51.63,-145.57 32.72,-129 11.77,-110.65 9.6,-100.98 2.72,-74 0.63,-65.82 -1.67,-62.21 2.72,-55 13.28,-37.64 33.05,-26.75 50.97,-20.09"/>
<polygon fill="#63b8ff" stroke="#63b8ff" points="51.98,-23.44 60.36,-16.95 49.76,-16.81 51.98,-23.44"/>
</g>
<!-- Node5 -->
<g id="node5" class="node">
<title>Node5</title>
<g id="a_node5"><a xlink:title=" ">
<polygon fill="#e0e0e0" stroke="#999999" points="323.22,-129 256.22,-129 256.22,-110 323.22,-110 323.22,-129"/>
<text text-anchor="middle" x="289.72" y="-117" font-family="Helvetica,sans-Serif" font-size="10.00">QSerialPort</text>
</a>
</g>
</g>
<!-- Node1&#45;&gt;Node5 -->
<g id="edge4" class="edge">
<title>Node1&#45;&gt;Node5</title>
<path fill="none" stroke="#63b8ff" d="M194.11,-164.54C214.31,-155.23 240.4,-143.22 260.22,-134.09"/>
<polygon fill="#63b8ff" stroke="#63b8ff" points="261.52,-137.34 269.14,-129.98 258.59,-130.98 261.52,-137.34"/>
</g>
<!-- Node6 -->
<g id="node6" class="node">
<title>Node6</title>
<g id="a_node6"><a xlink:title=" ">
<polygon fill="#e0e0e0" stroke="#999999" points="424.22,-129 341.22,-129 341.22,-110 424.22,-110 424.22,-129"/>
<text text-anchor="middle" x="382.72" y="-117" font-family="Helvetica,sans-Serif" font-size="10.00">QSerialPortInfo</text>
</a>
</g>
</g>
<!-- Node1&#45;&gt;Node6 -->
<g id="edge5" class="edge">
<title>Node1&#45;&gt;Node6</title>
<path fill="none" stroke="#63b8ff" d="M217.1,-164.54C254.41,-154.62 303.32,-141.61 338.29,-132.31"/>
<polygon fill="#63b8ff" stroke="#63b8ff" points="338.9,-135.77 347.66,-129.82 337.1,-129.01 338.9,-135.77"/>
</g>
<!-- Node7 -->
<g id="node7" class="node">
<title>Node7</title>
<g id="a_node7"><a xlink:href="parser_8h.html" target="_top" xlink:title="Parser declaration">
<polygon fill="white" stroke="#666666" points="209.22,-74 120.22,-74 120.22,-55 209.22,-55 209.22,-74"/>
<text text-anchor="middle" x="164.72" y="-62" font-family="Helvetica,sans-Serif" font-size="10.00">../parser/parser.h</text>
</a>
</g>
</g>
<!-- Node1&#45;&gt;Node7 -->
<g id="edge6" class="edge">
<title>Node1&#45;&gt;Node7</title>
<path fill="none" stroke="#63b8ff" d="M162.97,-164.63C163.32,-144.59 163.96,-108.17 164.36,-85.49"/>
<polygon fill="#63b8ff" stroke="#63b8ff" points="167.86,-85.8 164.54,-75.74 160.86,-85.68 167.86,-85.8"/>
</g>
<!-- Node9 -->
<g id="node9" class="node">
<title>Node9</title>
<g id="a_node9"><a xlink:href="comm_device_8h.html" target="_top" xlink:title="comm::CommDevice declaration">
<polygon fill="white" stroke="#666666" points="134.22,-129 53.22,-129 53.22,-110 134.22,-110 134.22,-129"/>
<text text-anchor="middle" x="93.72" y="-117" font-family="Helvetica,sans-Serif" font-size="10.00">commDevice.h</text>
</a>
</g>
</g>
<!-- Node1&#45;&gt;Node9 -->
<g id="edge9" class="edge">
<title>Node1&#45;&gt;Node9</title>
<path fill="none" stroke="#63b8ff" d="M145.66,-164.54C135.64,-156.04 122.95,-145.29 112.62,-136.53"/>
<polygon fill="#63b8ff" stroke="#63b8ff" points="114.99,-133.95 105.1,-130.15 110.47,-139.29 114.99,-133.95"/>
</g>
<!-- Node7&#45;&gt;Node4 -->
<g id="edge8" class="edge">
<title>Node7&#45;&gt;Node4</title>
<path fill="none" stroke="#63b8ff" d="M151.82,-54.51C140.62,-46.7 124.14,-35.21 110.84,-25.93"/>
<polygon fill="#63b8ff" stroke="#63b8ff" points="112.86,-23.07 102.66,-20.22 108.86,-28.81 112.86,-23.07"/>
</g>
<!-- Node8 -->
<g id="node8" class="node">
<title>Node8</title>
<g id="a_node8"><a xlink:title=" ">
<polygon fill="#e0e0e0" stroke="#999999" points="199.72,-19 133.72,-19 133.72,0 199.72,0 199.72,-19"/>
<text text-anchor="middle" x="166.72" y="-7" font-family="Helvetica,sans-Serif" font-size="10.00">QByteArray</text>
</a>
</g>
</g>
<!-- Node7&#45;&gt;Node8 -->
<g id="edge7" class="edge">
<title>Node7&#45;&gt;Node8</title>
<path fill="none" stroke="#63b8ff" d="M165.05,-54.75C165.29,-48.27 165.63,-39.16 165.95,-30.9"/>
<polygon fill="#63b8ff" stroke="#63b8ff" points="169.44,-31.08 166.32,-20.95 162.45,-30.82 169.44,-31.08"/>
</g>
<!-- Node9&#45;&gt;Node2 -->
<g id="edge10" class="edge">
<title>Node9&#45;&gt;Node2</title>
<path fill="none" stroke="#63b8ff" d="M84.22,-109.51C76.28,-102 64.77,-91.1 55.18,-82.03"/>
<polygon fill="#63b8ff" stroke="#63b8ff" points="57.84,-79.73 48.18,-75.4 53.03,-84.81 57.84,-79.73"/>
</g>
<!-- Node9&#45;&gt;Node4 -->
<g id="edge11" class="edge">
<title>Node9&#45;&gt;Node4</title>
<path fill="none" stroke="#63b8ff" d="M93.31,-109.66C92.52,-92.57 90.76,-54.61 89.66,-30.92"/>
<polygon fill="#63b8ff" stroke="#63b8ff" points="93.16,-30.8 89.2,-20.97 86.17,-31.12 93.16,-30.8"/>
</g>
<!-- Node9&#45;&gt;Node7 -->
<g id="edge12" class="edge">
<title>Node9&#45;&gt;Node7</title>
<path fill="none" stroke="#63b8ff" d="M105.76,-109.51C116.13,-101.77 131.32,-90.43 143.68,-81.2"/>
<polygon fill="#63b8ff" stroke="#63b8ff" points="145.72,-84.05 151.64,-75.26 141.53,-78.44 145.72,-84.05"/>
</g>
</g>
</svg>
