<?xml version="1.0" encoding="UTF-8" standalone="no"?>
<!DOCTYPE svg PUBLIC "-//W3C//DTD SVG 1.1//EN"
 "http://www.w3.org/Graphics/SVG/1.1/DTD/svg11.dtd">
<!-- Generated by graphviz version 7.0.4 (20221203.1631)
 -->
<!-- Title: src/deviceCommunication/commDevice.h Pages: 1 -->
<svg width="745pt" height="335pt"
 viewBox="0.00 0.00 744.50 335.00" xmlns="http://www.w3.org/2000/svg" xmlns:xlink="http://www.w3.org/1999/xlink">
<g id="graph0" class="graph" transform="scale(1 1) rotate(0) translate(4 331)">
<title>src/deviceCommunication/commDevice.h</title>
<!-- Node1 -->
<g id="node1" class="node">
<title>Node1</title>
<g id="a_node1"><a xlink:title="comm::CommDevice declaration">
<polygon fill="#999999" stroke="#666666" points="479.5,-327 350.5,-327 350.5,-297 479.5,-297 479.5,-327"/>
<text text-anchor="start" x="358.5" y="-315" font-family="Helvetica,sans-Serif" font-size="10.00">src/deviceCommunication</text>
<text text-anchor="middle" x="415" y="-304" font-family="Helvetica,sans-Serif" font-size="10.00">/commDevice.h</text>
</a>
</g>
</g>
<!-- Node2 -->
<g id="node2" class="node">
<title>Node2</title>
<g id="a_node2"><a xlink:href="comm_master_8h.html" target="_top" xlink:title="comm::CommMaster declaration">
<polygon fill="white" stroke="#666666" points="406.5,-261 277.5,-261 277.5,-231 406.5,-231 406.5,-261"/>
<text text-anchor="start" x="285.5" y="-249" font-family="Helvetica,sans-Serif" font-size="10.00">src/deviceCommunication</text>
<text text-anchor="middle" x="342" y="-238" font-family="Helvetica,sans-Serif" font-size="10.00">/commMaster.h</text>
</a>
</g>
</g>
<!-- Node1&#45;&gt;Node2 -->
<g id="edge1" class="edge">
<title>Node1&#45;&gt;Node2</title>
<path fill="none" stroke="#63b8ff" d="M390.39,-289.42C379.85,-280.18 367.83,-269.65 358.41,-261.39"/>
<polygon fill="#63b8ff" stroke="#63b8ff" points="387.83,-291.84 397.66,-295.8 392.45,-286.57 387.83,-291.84"/>
</g>
<!-- Node13 -->
<g id="node13" class="node">
<title>Node13</title>
<g id="a_node13"><a xlink:href="comm_u_s_b_8h.html" target="_top" xlink:title="comm::CommUSB declaration">
<polygon fill="white" stroke="#666666" points="589.5,-261 460.5,-261 460.5,-231 589.5,-231 589.5,-261"/>
<text text-anchor="start" x="468.5" y="-249" font-family="Helvetica,sans-Serif" font-size="10.00">src/deviceCommunication</text>
<text text-anchor="middle" x="525" y="-238" font-family="Helvetica,sans-Serif" font-size="10.00">/commUSB.h</text>
</a>
</g>
</g>
<!-- Node1&#45;&gt;Node13 -->
<g id="edge15" class="edge">
<title>Node1&#45;&gt;Node13</title>
<path fill="none" stroke="#63b8ff" d="M449.53,-290.91C466.03,-281.31 485.41,-270.03 500.4,-261.31"/>
<polygon fill="#63b8ff" stroke="#63b8ff" points="447.88,-287.82 440.99,-295.88 451.4,-293.87 447.88,-287.82"/>
</g>
<!-- Node3 -->
<g id="node3" class="node">
<title>Node3</title>
<g id="a_node3"><a xlink:href="comm_master_8cpp.html" target="_top" xlink:title="comm::CommMaster implementation">
<polygon fill="white" stroke="#666666" points="589.5,-195 460.5,-195 460.5,-165 589.5,-165 589.5,-195"/>
<text text-anchor="start" x="468.5" y="-183" font-family="Helvetica,sans-Serif" font-size="10.00">src/deviceCommunication</text>
<text text-anchor="middle" x="525" y="-172" font-family="Helvetica,sans-Serif" font-size="10.00">/commMaster.cpp</text>
</a>
</g>
</g>
<!-- Node2&#45;&gt;Node3 -->
<g id="edge2" class="edge">
<title>Node2&#45;&gt;Node3</title>
<path fill="none" stroke="#63b8ff" d="M393.65,-226.94C422.16,-216.97 457.08,-204.75 483.75,-195.43"/>
<polygon fill="#63b8ff" stroke="#63b8ff" points="392.78,-223.53 384.5,-230.14 395.09,-230.14 392.78,-223.53"/>
</g>
<!-- Node4 -->
<g id="node4" class="node">
<title>Node4</title>
<g id="a_node4"><a xlink:href="connection_widget_8h.html" target="_top" xlink:title="ConnectionWidget declaration">
<polygon fill="white" stroke="#666666" points="240,-189.5 106,-189.5 106,-170.5 240,-170.5 240,-189.5"/>
<text text-anchor="middle" x="173" y="-177.5" font-family="Helvetica,sans-Serif" font-size="10.00">src/gui/connectionWidget.h</text>
</a>
</g>
</g>
<!-- Node2&#45;&gt;Node4 -->
<g id="edge3" class="edge">
<title>Node2&#45;&gt;Node4</title>
<path fill="none" stroke="#63b8ff" d="M293.66,-226.69C261.91,-214.67 221.76,-199.47 196.73,-189.99"/>
<polygon fill="#63b8ff" stroke="#63b8ff" points="292.07,-229.83 302.66,-230.1 294.55,-223.29 292.07,-229.83"/>
</g>
<!-- Node6 -->
<g id="node6" class="node">
<title>Node6</title>
<g id="a_node6"><a xlink:href="dialogconnect_8h.html" target="_top" xlink:title="DialogConnect declaration">
<polygon fill="white" stroke="#666666" points="278,-129 162,-129 162,-110 278,-110 278,-129"/>
<text text-anchor="middle" x="220" y="-117" font-family="Helvetica,sans-Serif" font-size="10.00">src/gui/dialogconnect.h</text>
</a>
</g>
</g>
<!-- Node2&#45;&gt;Node6 -->
<g id="edge10" class="edge">
<title>Node2&#45;&gt;Node6</title>
<path fill="none" stroke="#63b8ff" d="M319.39,-222.56C310.79,-213.97 300.91,-204.06 292,-195 268.8,-171.4 241.75,-143.24 228.38,-129.26"/>
<polygon fill="#63b8ff" stroke="#63b8ff" points="316.87,-224.98 326.42,-229.56 321.81,-220.02 316.87,-224.98"/>
</g>
<!-- Node8 -->
<g id="node8" class="node">
<title>Node8</title>
<g id="a_node8"><a xlink:href="mainwindow_8h.html" target="_top" xlink:title="MainWindow declaration">
<polygon fill="white" stroke="#666666" points="380,-74 270,-74 270,-55 380,-55 380,-74"/>
<text text-anchor="middle" x="325" y="-62" font-family="Helvetica,sans-Serif" font-size="10.00">src/gui/mainwindow.h</text>
</a>
</g>
</g>
<!-- Node2&#45;&gt;Node8 -->
<g id="edge14" class="edge">
<title>Node2&#45;&gt;Node8</title>
<path fill="none" stroke="#63b8ff" d="M331.77,-220.16C329,-212.26 326.39,-203.39 325,-195 317.59,-150.19 321.87,-95.47 324.01,-74.37"/>
<polygon fill="#63b8ff" stroke="#63b8ff" points="328.47,-221.34 335.28,-229.46 335.02,-218.87 328.47,-221.34"/>
</g>
<!-- Node11 -->
<g id="node11" class="node">
<title>Node11</title>
<g id="a_node11"><a xlink:href="dialogdebug_8h.html" target="_top" xlink:title="DialogDebug declaration">
<polygon fill="white" stroke="#666666" points="442,-189.5 334,-189.5 334,-170.5 442,-170.5 442,-189.5"/>
<text text-anchor="middle" x="388" y="-177.5" font-family="Helvetica,sans-Serif" font-size="10.00">src/gui/dialogdebug.h</text>
</a>
</g>
</g>
<!-- Node2&#45;&gt;Node11 -->
<g id="edge11" class="edge">
<title>Node2&#45;&gt;Node11</title>
<path fill="none" stroke="#63b8ff" d="M358.81,-221.61C366.75,-210.56 375.76,-198.03 381.64,-189.84"/>
<polygon fill="#63b8ff" stroke="#63b8ff" points="356.09,-219.4 353.09,-229.57 361.77,-223.49 356.09,-219.4"/>
</g>
<!-- Node5 -->
<g id="node5" class="node">
<title>Node5</title>
<g id="a_node5"><a xlink:href="connection_widget_8cpp.html" target="_top" xlink:title="ConnectionWidget implementation">
<polygon fill="white" stroke="#666666" points="144,-129 0,-129 0,-110 144,-110 144,-129"/>
<text text-anchor="middle" x="72" y="-117" font-family="Helvetica,sans-Serif" font-size="10.00">src/gui/connectionWidget.cpp</text>
</a>
</g>
</g>
<!-- Node4&#45;&gt;Node5 -->
<g id="edge4" class="edge">
<title>Node4&#45;&gt;Node5</title>
<path fill="none" stroke="#63b8ff" d="M147.9,-164.46C128.95,-153.49 103.56,-138.78 87.48,-129.47"/>
<polygon fill="#63b8ff" stroke="#63b8ff" points="145.94,-167.37 156.35,-169.36 149.45,-161.32 145.94,-167.37"/>
</g>
<!-- Node4&#45;&gt;Node6 -->
<g id="edge5" class="edge">
<title>Node4&#45;&gt;Node6</title>
<path fill="none" stroke="#63b8ff" d="M187.08,-161.48C195.65,-150.81 206.22,-137.65 213.04,-129.17"/>
<polygon fill="#63b8ff" stroke="#63b8ff" points="184.42,-159.2 180.88,-169.19 189.87,-163.58 184.42,-159.2"/>
</g>
<!-- Node7 -->
<g id="node7" class="node">
<title>Node7</title>
<g id="a_node7"><a xlink:href="dialogconnect_8cpp.html" target="_top" xlink:title="DialogConnect implementation">
<polygon fill="white" stroke="#666666" points="251.5,-74 124.5,-74 124.5,-55 251.5,-55 251.5,-74"/>
<text text-anchor="middle" x="188" y="-62" font-family="Helvetica,sans-Serif" font-size="10.00">src/gui/dialogconnect.cpp</text>
</a>
</g>
</g>
<!-- Node6&#45;&gt;Node7 -->
<g id="edge6" class="edge">
<title>Node6&#45;&gt;Node7</title>
<path fill="none" stroke="#63b8ff" d="M208.88,-100.08C203.64,-91.4 197.62,-81.44 193.4,-74.44"/>
<polygon fill="#63b8ff" stroke="#63b8ff" points="205.77,-101.7 213.93,-108.45 211.76,-98.08 205.77,-101.7"/>
</g>
<!-- Node6&#45;&gt;Node8 -->
<g id="edge7" class="edge">
<title>Node6&#45;&gt;Node8</title>
<path fill="none" stroke="#63b8ff" d="M247.93,-104.4C266.84,-94.86 291.22,-82.55 307.45,-74.36"/>
<polygon fill="#63b8ff" stroke="#63b8ff" points="246.51,-101.2 239.16,-108.83 249.67,-107.45 246.51,-101.2"/>
</g>
<!-- Node9 -->
<g id="node9" class="node">
<title>Node9</title>
<g id="a_node9"><a xlink:href="mainwindow_8cpp.html" target="_top" xlink:title="MainWindow implementation">
<polygon fill="white" stroke="#666666" points="327.5,-19 206.5,-19 206.5,0 327.5,0 327.5,-19"/>
<text text-anchor="middle" x="267" y="-7" font-family="Helvetica,sans-Serif" font-size="10.00">src/gui/mainwindow.cpp</text>
</a>
</g>
</g>
<!-- Node8&#45;&gt;Node9 -->
<g id="edge8" class="edge">
<title>Node8&#45;&gt;Node9</title>
<path fill="none" stroke="#63b8ff" d="M306.74,-46.81C296.78,-37.72 284.86,-26.82 276.69,-19.36"/>
<polygon fill="#63b8ff" stroke="#63b8ff" points="304.3,-49.33 314.04,-53.49 309.02,-44.16 304.3,-49.33"/>
</g>
<!-- Node10 -->
<g id="node10" class="node">
<title>Node10</title>
<g id="a_node10"><a xlink:href="main_8cpp.html" target="_top" xlink:title="Main file of project linescaleGUI.">
<polygon fill="white" stroke="#666666" points="418,-19 346,-19 346,0 418,0 418,-19"/>
<text text-anchor="middle" x="382" y="-7" font-family="Helvetica,sans-Serif" font-size="10.00">src/main.cpp</text>
</a>
</g>
</g>
<!-- Node8&#45;&gt;Node10 -->
<g id="edge9" class="edge">
<title>Node8&#45;&gt;Node10</title>
<path fill="none" stroke="#63b8ff" d="M342.95,-46.81C352.73,-37.72 364.44,-26.82 372.47,-19.36"/>
<polygon fill="#63b8ff" stroke="#63b8ff" points="340.72,-44.11 335.78,-53.48 345.48,-49.23 340.72,-44.11"/>
</g>
<!-- Node11&#45;&gt;Node8 -->
<g id="edge13" class="edge">
<title>Node11&#45;&gt;Node8</title>
<path fill="none" stroke="#63b8ff" d="M377.5,-160.09C363.73,-135.28 340.11,-92.73 329.92,-74.36"/>
<polygon fill="#63b8ff" stroke="#63b8ff" points="374.41,-161.73 382.32,-168.77 380.53,-158.33 374.41,-161.73"/>
</g>
<!-- Node12 -->
<g id="node12" class="node">
<title>Node12</title>
<g id="a_node12"><a xlink:href="dialogdebug_8cpp.html" target="_top" xlink:title="DialogDebug implementation">
<polygon fill="white" stroke="#666666" points="491.5,-129 372.5,-129 372.5,-110 491.5,-110 491.5,-129"/>
<text text-anchor="middle" x="432" y="-117" font-family="Helvetica,sans-Serif" font-size="10.00">src/gui/dialogdebug.cpp</text>
</a>
</g>
</g>
<!-- Node11&#45;&gt;Node12 -->
<g id="edge12" class="edge">
<title>Node11&#45;&gt;Node12</title>
<path fill="none" stroke="#63b8ff" d="M401.18,-161.48C409.2,-150.81 419.1,-137.65 425.48,-129.17"/>
<polygon fill="#63b8ff" stroke="#63b8ff" points="398.62,-159.06 395.4,-169.16 404.21,-163.27 398.62,-159.06"/>
</g>
<!-- Node13&#45;&gt;Node3 -->
<g id="edge16" class="edge">
<title>Node13&#45;&gt;Node3</title>
<path fill="none" stroke="#63b8ff" d="M525,-219.39C525,-211.13 525,-202.28 525,-195.16"/>
<polygon fill="#63b8ff" stroke="#63b8ff" points="521.5,-219.28 525,-229.28 528.5,-219.28 521.5,-219.28"/>
</g>
<!-- Node14 -->
<g id="node14" class="node">
<title>Node14</title>
<g id="a_node14"><a xlink:href="comm_u_s_b_8cpp.html" target="_top" xlink:title="comm::CommUSB implementation">
<polygon fill="white" stroke="#666666" points="736.5,-195 607.5,-195 607.5,-165 736.5,-165 736.5,-195"/>
<text text-anchor="start" x="615.5" y="-183" font-family="Helvetica,sans-Serif" font-size="10.00">src/deviceCommunication</text>
<text text-anchor="middle" x="672" y="-172" font-family="Helvetica,sans-Serif" font-size="10.00">/commUSB.cpp</text>
</a>
</g>
</g>
<!-- Node13&#45;&gt;Node14 -->
<g id="edge17" class="edge">
<title>Node13&#45;&gt;Node14</title>
<path fill="none" stroke="#63b8ff" d="M568.32,-226.14C590.87,-216.32 618.01,-204.51 638.87,-195.43"/>
<polygon fill="#63b8ff" stroke="#63b8ff" points="567.15,-222.83 559.38,-230.03 569.94,-229.25 567.15,-222.83"/>
</g>
</g>
</svg>
