<?xml version="1.0" encoding="UTF-8" standalone="no"?>
<!DOCTYPE svg PUBLIC "-//W3C//DTD SVG 1.1//EN"
 "http://www.w3.org/Graphics/SVG/1.1/DTD/svg11.dtd">
<!-- Generated by graphviz version 7.0.5 (20221223.1930)
 -->
<!-- Title: src/deviceCommunication/commUSB.cpp Pages: 1 -->
<svg width="432pt" height="258pt"
 viewBox="0.00 0.00 432.20 258.00" xmlns="http://www.w3.org/2000/svg" xmlns:xlink="http://www.w3.org/1999/xlink">
<g id="graph0" class="graph" transform="scale(1 1) rotate(0) translate(4 254)">
<title>src/deviceCommunication/commUSB.cpp</title>
<!-- Node1 -->
<g id="node1" class="node">
<title>Node1</title>
<g id="a_node1"><a xlink:title="comm::CommUSB implementation">
<polygon fill="#999999" stroke="#666666" points="227.2,-250 98.2,-250 98.2,-220 227.2,-220 227.2,-250"/>
<text text-anchor="start" x="106.2" y="-238" font-family="Helvetica,sans-Serif" font-size="10.00">src/deviceCommunication</text>
<text text-anchor="middle" x="162.7" y="-227" font-family="Helvetica,sans-Serif" font-size="10.00">/commUSB.cpp</text>
</a>
</g>
</g>
<!-- Node2 -->
<g id="node2" class="node">
<title>Node2</title>
<g id="a_node2"><a xlink:href="comm_u_s_b_8h.html" target="_top" xlink:title="comm::CommUSB declaration">
<polygon fill="white" stroke="#666666" points="198.7,-184 126.7,-184 126.7,-165 198.7,-165 198.7,-184"/>
<text text-anchor="middle" x="162.7" y="-172" font-family="Helvetica,sans-Serif" font-size="10.00">commUSB.h</text>
</a>
</g>
</g>
<!-- Node1&#45;&gt;Node2 -->
<g id="edge1" class="edge">
<title>Node1&#45;&gt;Node2</title>
<path fill="none" stroke="#63b8ff" d="M162.7,-219.54C162.7,-212.34 162.7,-203.53 162.7,-195.68"/>
<polygon fill="#63b8ff" stroke="#63b8ff" points="166.2,-195.69 162.7,-185.69 159.2,-195.69 166.2,-195.69"/>
</g>
<!-- Node3 -->
<g id="node3" class="node">
<title>Node3</title>
<g id="a_node3"><a xlink:title=" ">
<polygon fill="#e0e0e0" stroke="#999999" points="63.7,-74 11.7,-74 11.7,-55 63.7,-55 63.7,-74"/>
<text text-anchor="middle" x="37.7" y="-62" font-family="Helvetica,sans-Serif" font-size="10.00">QDebug</text>
</a>
</g>
</g>
<!-- Node2&#45;&gt;Node3 -->
<g id="edge2" class="edge">
<title>Node2&#45;&gt;Node3</title>
<path fill="none" stroke="#63b8ff" d="M126.23,-170.03C98.99,-165.37 63.22,-154.48 43.7,-129 34.32,-116.75 33.37,-99.02 34.46,-85.41"/>
<polygon fill="#63b8ff" stroke="#63b8ff" points="37.89,-86.2 35.66,-75.84 30.94,-85.33 37.89,-86.2"/>
</g>
<!-- Node4 -->
<g id="node4" class="node">
<title>Node4</title>
<g id="a_node4"><a xlink:title=" ">
<polygon fill="#e0e0e0" stroke="#999999" points="238.2,-129 191.2,-129 191.2,-110 238.2,-110 238.2,-129"/>
<text text-anchor="middle" x="214.7" y="-117" font-family="Helvetica,sans-Serif" font-size="10.00">QHash</text>
</a>
</g>
</g>
<!-- Node2&#45;&gt;Node4 -->
<g id="edge3" class="edge">
<title>Node2&#45;&gt;Node4</title>
<path fill="none" stroke="#63b8ff" d="M171.29,-164.75C178.55,-157.35 189.15,-146.54 198.07,-137.45"/>
<polygon fill="#63b8ff" stroke="#63b8ff" points="200.36,-140.11 204.87,-130.52 195.37,-135.21 200.36,-140.11"/>
</g>
<!-- Node5 -->
<g id="node5" class="node">
<title>Node5</title>
<g id="a_node5"><a xlink:title=" ">
<polygon fill="#e0e0e0" stroke="#999999" points="115.2,-19 62.2,-19 62.2,0 115.2,0 115.2,-19"/>
<text text-anchor="middle" x="88.7" y="-7" font-family="Helvetica,sans-Serif" font-size="10.00">QObject</text>
</a>
</g>
</g>
<!-- Node2&#45;&gt;Node5 -->
<g id="edge4" class="edge">
<title>Node2&#45;&gt;Node5</title>
<path fill="none" stroke="#63b8ff" d="M126.29,-168.63C97.77,-163.19 58.56,-151.92 31.7,-129 10.68,-111.06 9.34,-100.82 2.7,-74 0.67,-65.8 -1.69,-62.21 2.7,-55 13.27,-37.64 33.04,-26.75 50.96,-20.09"/>
<polygon fill="#63b8ff" stroke="#63b8ff" points="51.97,-23.44 60.34,-16.95 49.75,-16.81 51.97,-23.44"/>
</g>
<!-- Node6 -->
<g id="node6" class="node">
<title>Node6</title>
<g id="a_node6"><a xlink:title=" ">
<polygon fill="#e0e0e0" stroke="#999999" points="323.2,-129 256.2,-129 256.2,-110 323.2,-110 323.2,-129"/>
<text text-anchor="middle" x="289.7" y="-117" font-family="Helvetica,sans-Serif" font-size="10.00">QSerialPort</text>
</a>
</g>
</g>
<!-- Node2&#45;&gt;Node6 -->
<g id="edge5" class="edge">
<title>Node2&#45;&gt;Node6</title>
<path fill="none" stroke="#63b8ff" d="M184.25,-164.51C204.44,-156.08 234.87,-143.38 257.86,-133.79"/>
<polygon fill="#63b8ff" stroke="#63b8ff" points="259.2,-137.02 267.08,-129.94 256.5,-130.56 259.2,-137.02"/>
</g>
<!-- Node7 -->
<g id="node7" class="node">
<title>Node7</title>
<g id="a_node7"><a xlink:title=" ">
<polygon fill="#e0e0e0" stroke="#999999" points="424.2,-129 341.2,-129 341.2,-110 424.2,-110 424.2,-129"/>
<text text-anchor="middle" x="382.7" y="-117" font-family="Helvetica,sans-Serif" font-size="10.00">QSerialPortInfo</text>
</a>
</g>
</g>
<!-- Node2&#45;&gt;Node7 -->
<g id="edge6" class="edge">
<title>Node2&#45;&gt;Node7</title>
<path fill="none" stroke="#63b8ff" d="M199.03,-164.75C236.07,-155.83 293.72,-141.94 334.55,-132.1"/>
<polygon fill="#63b8ff" stroke="#63b8ff" points="335.21,-135.54 344.11,-129.8 333.57,-128.74 335.21,-135.54"/>
</g>
<!-- Node8 -->
<g id="node8" class="node">
<title>Node8</title>
<g id="a_node8"><a xlink:href="parser_8h.html" target="_top" xlink:title="Parser declaration">
<polygon fill="white" stroke="#666666" points="209.2,-74 120.2,-74 120.2,-55 209.2,-55 209.2,-74"/>
<text text-anchor="middle" x="164.7" y="-62" font-family="Helvetica,sans-Serif" font-size="10.00">../parser/parser.h</text>
</a>
</g>
</g>
<!-- Node2&#45;&gt;Node8 -->
<g id="edge7" class="edge">
<title>Node2&#45;&gt;Node8</title>
<path fill="none" stroke="#63b8ff" d="M162.87,-164.66C163.18,-147.57 163.89,-109.61 164.32,-85.92"/>
<polygon fill="#63b8ff" stroke="#63b8ff" points="167.82,-86.04 164.51,-75.97 160.82,-85.91 167.82,-86.04"/>
</g>
<!-- Node10 -->
<g id="node10" class="node">
<title>Node10</title>
<g id="a_node10"><a xlink:href="comm_device_8h.html" target="_top" xlink:title="comm::CommDevice declaration">
<polygon fill="white" stroke="#666666" points="134.2,-129 53.2,-129 53.2,-110 134.2,-110 134.2,-129"/>
<text text-anchor="middle" x="93.7" y="-117" font-family="Helvetica,sans-Serif" font-size="10.00">commDevice.h</text>
</a>
</g>
</g>
<!-- Node2&#45;&gt;Node10 -->
<g id="edge10" class="edge">
<title>Node2&#45;&gt;Node10</title>
<path fill="none" stroke="#63b8ff" d="M151,-164.51C140.92,-156.77 126.16,-145.43 114.14,-136.2"/>
<polygon fill="#63b8ff" stroke="#63b8ff" points="116.5,-133.6 106.43,-130.28 112.23,-139.15 116.5,-133.6"/>
</g>
<!-- Node8&#45;&gt;Node5 -->
<g id="edge9" class="edge">
<title>Node8&#45;&gt;Node5</title>
<path fill="none" stroke="#63b8ff" d="M151.81,-54.51C140.61,-46.7 124.13,-35.21 110.82,-25.93"/>
<polygon fill="#63b8ff" stroke="#63b8ff" points="112.85,-23.07 102.65,-20.22 108.85,-28.81 112.85,-23.07"/>
</g>
<!-- Node9 -->
<g id="node9" class="node">
<title>Node9</title>
<g id="a_node9"><a xlink:title=" ">
<polygon fill="#e0e0e0" stroke="#999999" points="199.7,-19 133.7,-19 133.7,0 199.7,0 199.7,-19"/>
<text text-anchor="middle" x="166.7" y="-7" font-family="Helvetica,sans-Serif" font-size="10.00">QByteArray</text>
</a>
</g>
</g>
<!-- Node8&#45;&gt;Node9 -->
<g id="edge8" class="edge">
<title>Node8&#45;&gt;Node9</title>
<path fill="none" stroke="#63b8ff" d="M165.03,-54.75C165.28,-48.27 165.62,-39.16 165.93,-30.9"/>
<polygon fill="#63b8ff" stroke="#63b8ff" points="169.43,-31.08 166.31,-20.95 162.43,-30.82 169.43,-31.08"/>
</g>
<!-- Node10&#45;&gt;Node3 -->
<g id="edge11" class="edge">
<title>Node10&#45;&gt;Node3</title>
<path fill="none" stroke="#63b8ff" d="M84.2,-109.51C76.27,-102 64.75,-91.1 55.17,-82.03"/>
<polygon fill="#63b8ff" stroke="#63b8ff" points="57.83,-79.73 48.16,-75.4 53.02,-84.81 57.83,-79.73"/>
</g>
<!-- Node10&#45;&gt;Node5 -->
<g id="edge12" class="edge">
<title>Node10&#45;&gt;Node5</title>
<path fill="none" stroke="#63b8ff" d="M93.29,-109.66C92.5,-92.57 90.74,-54.61 89.65,-30.92"/>
<polygon fill="#63b8ff" stroke="#63b8ff" points="93.15,-30.8 89.19,-20.97 86.15,-31.12 93.15,-30.8"/>
</g>
<!-- Node10&#45;&gt;Node8 -->
<g id="edge13" class="edge">
<title>Node10&#45;&gt;Node8</title>
<path fill="none" stroke="#63b8ff" d="M105.75,-109.51C116.11,-101.77 131.3,-90.43 143.67,-81.2"/>
<polygon fill="#63b8ff" stroke="#63b8ff" points="145.7,-84.05 151.62,-75.26 141.52,-78.44 145.7,-84.05"/>
</g>
</g>
</svg>
