<?xml version="1.0" encoding="UTF-8" standalone="no"?>
<!DOCTYPE svg PUBLIC "-//W3C//DTD SVG 1.1//EN"
 "http://www.w3.org/Graphics/SVG/1.1/DTD/svg11.dtd">
<!-- Generated by graphviz version 7.0.5 (20221223.1930)
 -->
<!-- Title: src/deviceCommunication/commUSB.h Pages: 1 -->
<svg width="509pt" height="203pt"
 viewBox="0.00 0.00 508.51 203.00" xmlns="http://www.w3.org/2000/svg" xmlns:xlink="http://www.w3.org/1999/xlink">
<g id="graph0" class="graph" transform="scale(1 1) rotate(0) translate(4 199)">
<title>src/deviceCommunication/commUSB.h</title>
<!-- Node1 -->
<g id="node1" class="node">
<title>Node1</title>
<g id="a_node1"><a xlink:title="comm::CommUSB declaration">
<polygon fill="#999999" stroke="#666666" points="217.01,-195 88.01,-195 88.01,-165 217.01,-165 217.01,-195"/>
<text text-anchor="start" x="96.01" y="-183" font-family="Helvetica,sans-Serif" font-size="10.00">src/deviceCommunication</text>
<text text-anchor="middle" x="152.51" y="-172" font-family="Helvetica,sans-Serif" font-size="10.00">/commUSB.h</text>
</a>
</g>
</g>
<!-- Node2 -->
<g id="node2" class="node">
<title>Node2</title>
<g id="a_node2"><a xlink:title=" ">
<polygon fill="#e0e0e0" stroke="#999999" points="178.51,-74 126.51,-74 126.51,-55 178.51,-55 178.51,-74"/>
<text text-anchor="middle" x="152.51" y="-62" font-family="Helvetica,sans-Serif" font-size="10.00">QDebug</text>
</a>
</g>
</g>
<!-- Node1&#45;&gt;Node2 -->
<g id="edge1" class="edge">
<title>Node1&#45;&gt;Node2</title>
<path fill="none" stroke="#63b8ff" d="M135.28,-164.73C125.7,-155.63 114.69,-142.96 109.51,-129 102.94,-111.28 116.87,-93.7 130.59,-81.54"/>
<polygon fill="#63b8ff" stroke="#63b8ff" points="132.65,-84.38 138.18,-75.34 128.22,-78.95 132.65,-84.38"/>
</g>
<!-- Node3 -->
<g id="node3" class="node">
<title>Node3</title>
<g id="a_node3"><a xlink:title=" ">
<polygon fill="#e0e0e0" stroke="#999999" points="62.01,-129 15.01,-129 15.01,-110 62.01,-110 62.01,-129"/>
<text text-anchor="middle" x="38.51" y="-117" font-family="Helvetica,sans-Serif" font-size="10.00">QHash</text>
</a>
</g>
</g>
<!-- Node1&#45;&gt;Node3 -->
<g id="edge2" class="edge">
<title>Node1&#45;&gt;Node3</title>
<path fill="none" stroke="#63b8ff" d="M124.33,-164.54C106.53,-155.4 83.64,-143.66 65.98,-134.6"/>
<polygon fill="#63b8ff" stroke="#63b8ff" points="67.59,-131.49 57.1,-130.04 64.4,-137.72 67.59,-131.49"/>
</g>
<!-- Node4 -->
<g id="node4" class="node">
<title>Node4</title>
<g id="a_node4"><a xlink:title=" ">
<polygon fill="#e0e0e0" stroke="#999999" points="324.01,-19 271.01,-19 271.01,0 324.01,0 324.01,-19"/>
<text text-anchor="middle" x="297.51" y="-7" font-family="Helvetica,sans-Serif" font-size="10.00">QObject</text>
</a>
</g>
</g>
<!-- Node1&#45;&gt;Node4 -->
<g id="edge3" class="edge">
<title>Node1&#45;&gt;Node4</title>
<path fill="none" stroke="#63b8ff" d="M87.74,-172.02C38.56,-163.76 -17.07,-146.25 5.51,-110 59.21,-23.81 193.56,-10.71 259.62,-9.71"/>
<polygon fill="#63b8ff" stroke="#63b8ff" points="259.26,-13.22 269.24,-9.66 259.22,-6.22 259.26,-13.22"/>
</g>
<!-- Node5 -->
<g id="node5" class="node">
<title>Node5</title>
<g id="a_node5"><a xlink:title=" ">
<polygon fill="#e0e0e0" stroke="#999999" points="186.01,-129 119.01,-129 119.01,-110 186.01,-110 186.01,-129"/>
<text text-anchor="middle" x="152.51" y="-117" font-family="Helvetica,sans-Serif" font-size="10.00">QSerialPort</text>
</a>
</g>
</g>
<!-- Node1&#45;&gt;Node5 -->
<g id="edge4" class="edge">
<title>Node1&#45;&gt;Node5</title>
<path fill="none" stroke="#63b8ff" d="M152.51,-164.54C152.51,-157.34 152.51,-148.53 152.51,-140.68"/>
<polygon fill="#63b8ff" stroke="#63b8ff" points="156.01,-140.69 152.51,-130.69 149.01,-140.69 156.01,-140.69"/>
</g>
<!-- Node6 -->
<g id="node6" class="node">
<title>Node6</title>
<g id="a_node6"><a xlink:title=" ">
<polygon fill="#e0e0e0" stroke="#999999" points="287.01,-129 204.01,-129 204.01,-110 287.01,-110 287.01,-129"/>
<text text-anchor="middle" x="245.51" y="-117" font-family="Helvetica,sans-Serif" font-size="10.00">QSerialPortInfo</text>
</a>
</g>
</g>
<!-- Node1&#45;&gt;Node6 -->
<g id="edge5" class="edge">
<title>Node1&#45;&gt;Node6</title>
<path fill="none" stroke="#63b8ff" d="M175.5,-164.54C189.61,-155.66 207.64,-144.32 221.87,-135.37"/>
<polygon fill="#63b8ff" stroke="#63b8ff" points="223.57,-138.44 230.17,-130.15 219.84,-132.51 223.57,-138.44"/>
</g>
<!-- Node7 -->
<g id="node7" class="node">
<title>Node7</title>
<g id="a_node7"><a xlink:href="parser_8h.html" target="_top" xlink:title="Parser declaration">
<polygon fill="white" stroke="#666666" points="424.01,-74 335.01,-74 335.01,-55 424.01,-55 424.01,-74"/>
<text text-anchor="middle" x="379.51" y="-62" font-family="Helvetica,sans-Serif" font-size="10.00">../parser/parser.h</text>
</a>
</g>
</g>
<!-- Node1&#45;&gt;Node7 -->
<g id="edge6" class="edge">
<title>Node1&#45;&gt;Node7</title>
<path fill="none" stroke="#63b8ff" d="M217.23,-174.72C281.45,-168.96 373.4,-156.12 395.51,-129 405.83,-116.35 399.54,-97.91 392.02,-84.15"/>
<polygon fill="#63b8ff" stroke="#63b8ff" points="395.01,-82.34 386.82,-75.62 389.04,-85.98 395.01,-82.34"/>
</g>
<!-- Node10 -->
<g id="node10" class="node">
<title>Node10</title>
<g id="a_node10"><a xlink:href="comm_device_8h.html" target="_top" xlink:title="comm::CommDevice declaration">
<polygon fill="white" stroke="#666666" points="386.01,-129 305.01,-129 305.01,-110 386.01,-110 386.01,-129"/>
<text text-anchor="middle" x="345.51" y="-117" font-family="Helvetica,sans-Serif" font-size="10.00">commDevice.h</text>
</a>
</g>
</g>
<!-- Node1&#45;&gt;Node10 -->
<g id="edge10" class="edge">
<title>Node1&#45;&gt;Node10</title>
<path fill="none" stroke="#63b8ff" d="M200.22,-164.54C232.53,-154.75 274.75,-141.95 305.34,-132.68"/>
<polygon fill="#63b8ff" stroke="#63b8ff" points="306.04,-136.12 314.6,-129.87 304.01,-129.42 306.04,-136.12"/>
</g>
<!-- Node7&#45;&gt;Node4 -->
<g id="edge8" class="edge">
<title>Node7&#45;&gt;Node4</title>
<path fill="none" stroke="#63b8ff" d="M365.6,-54.51C353.28,-46.54 335.04,-34.75 320.54,-25.38"/>
<polygon fill="#63b8ff" stroke="#63b8ff" points="322.79,-22.67 312.49,-20.18 318.99,-28.55 322.79,-22.67"/>
</g>
<!-- Node8 -->
<g id="node8" class="node">
<title>Node8</title>
<g id="a_node8"><a xlink:title=" ">
<polygon fill="#e0e0e0" stroke="#999999" points="500.51,-19 434.51,-19 434.51,0 500.51,0 500.51,-19"/>
<text text-anchor="middle" x="467.51" y="-7" font-family="Helvetica,sans-Serif" font-size="10.00">QByteArray</text>
</a>
</g>
</g>
<!-- Node7&#45;&gt;Node8 -->
<g id="edge7" class="edge">
<title>Node7&#45;&gt;Node8</title>
<path fill="none" stroke="#63b8ff" d="M394.44,-54.51C407.8,-46.47 427.62,-34.53 443.25,-25.11"/>
<polygon fill="#63b8ff" stroke="#63b8ff" points="444.75,-28.3 451.51,-20.14 441.14,-22.3 444.75,-28.3"/>
</g>
<!-- Node9 -->
<g id="node9" class="node">
<title>Node9</title>
<g id="a_node9"><a xlink:title=" ">
<polygon fill="#e0e0e0" stroke="#999999" points="416.51,-19 342.51,-19 342.51,0 416.51,0 416.51,-19"/>
<text text-anchor="middle" x="379.51" y="-7" font-family="Helvetica,sans-Serif" font-size="10.00">QTextStream</text>
</a>
</g>
</g>
<!-- Node7&#45;&gt;Node9 -->
<g id="edge9" class="edge">
<title>Node7&#45;&gt;Node9</title>
<path fill="none" stroke="#63b8ff" d="M379.51,-54.75C379.51,-48.27 379.51,-39.16 379.51,-30.9"/>
<polygon fill="#63b8ff" stroke="#63b8ff" points="383.01,-30.96 379.51,-20.96 376.01,-30.96 383.01,-30.96"/>
</g>
<!-- Node10&#45;&gt;Node2 -->
<g id="edge11" class="edge">
<title>Node10&#45;&gt;Node2</title>
<path fill="none" stroke="#63b8ff" d="M312.77,-109.51C278.71,-100.16 225.46,-85.53 189.8,-75.74"/>
<polygon fill="#63b8ff" stroke="#63b8ff" points="190.92,-72.42 180.35,-73.14 189.06,-79.17 190.92,-72.42"/>
</g>
<!-- Node10&#45;&gt;Node4 -->
<g id="edge12" class="edge">
<title>Node10&#45;&gt;Node4</title>
<path fill="none" stroke="#63b8ff" d="M341.58,-109.66C333.88,-92.34 316.65,-53.55 306.16,-29.95"/>
<polygon fill="#63b8ff" stroke="#63b8ff" points="309.37,-28.56 302.11,-20.84 302.97,-31.4 309.37,-28.56"/>
</g>
<!-- Node10&#45;&gt;Node7 -->
<g id="edge13" class="edge">
<title>Node10&#45;&gt;Node7</title>
<path fill="none" stroke="#63b8ff" d="M351.13,-109.75C355.63,-102.73 362.1,-92.64 367.73,-83.87"/>
<polygon fill="#63b8ff" stroke="#63b8ff" points="370.51,-86.02 372.96,-75.72 364.61,-82.24 370.51,-86.02"/>
</g>
</g>
</svg>
