<?xml version="1.0" encoding="UTF-8" standalone="no"?>
<!DOCTYPE svg PUBLIC "-//W3C//DTD SVG 1.1//EN"
 "http://www.w3.org/Graphics/SVG/1.1/DTD/svg11.dtd">
<!-- Generated by graphviz version 7.0.4 (20221203.1631)
 -->
<!-- Title: src/deviceCommunication/commMaster.h Pages: 1 -->
<!--zoomable 269 -->
<svg id="main" version="1.1" xmlns="http://www.w3.org/2000/svg" xmlns:xlink="http://www.w3.org/1999/xlink" xml:space="preserve" onload="init(evt)">
<style type="text/css"><![CDATA[
.edge:hover path { stroke: red; }
.edge:hover polygon { stroke: red; fill: red; }
]]></style>
<script type="text/javascript"><![CDATA[
var edges = document.getElementsByTagName('g');
if (edges && edges.length) {
  for (var i=0;i<edges.length;i++) {
    if (edges[i].id.substr(0,4)=='edge') {
      edges[i].setAttribute('class','edge');
    }
  }
}
]]></script>
        <defs>
                <circle id="rim" cx="0" cy="0" r="7"/>
                <circle id="rim2" cx="0" cy="0" r="3.5"/>
                <g id="zoomPlus">
                        <use xlink:href="#rim" fill="#404040">
                                <set attributeName="fill" to="#808080" begin="zoomplus.mouseover" end="zoomplus.mouseout"/>
                        </use>
                        <path d="M-4,0h8M0,-4v8" fill="none" stroke="white" stroke-width="1.5" pointer-events="none"/>
                </g>
                <g id="zoomMin">
                        <use xlink:href="#rim" fill="#404040">
                                <set attributeName="fill" to="#808080" begin="zoomminus.mouseover" end="zoomminus.mouseout"/>
                        </use>
                        <path d="M-4,0h8" fill="none" stroke="white" stroke-width="1.5" pointer-events="none"/>
                </g>
                <g id="dirArrow">
                        <path fill="none" stroke="white" stroke-width="1.5" d="M0,-3.0v7 M-2.5,-0.5L0,-3.0L2.5,-0.5"/>
                </g>
               <g id="resetDef">
                       <use xlink:href="#rim2" fill="#404040">
                               <set attributeName="fill" to="#808080" begin="reset.mouseover" end="reset.mouseout"/>
                       </use>
               </g>
        </defs>

<script type="text/javascript">
var viewWidth = 541;
var viewHeight = 269;
var sectionId = 'dynsection-1';
</script>
<script xlink:href="svgpan.js"/>
<svg id="graph" class="graph">
<g id="viewport">
<title>src/deviceCommunication/commMaster.h</title>
<!-- Node1 -->
<g id="node1" class="node">
<title>Node1</title>
<g id="a_node1"><a xlink:title="comm::CommMaster declaration">
<polygon fill="#999999" stroke="#666666" points="374,-261 245,-261 245,-231 374,-231 374,-261"/>
<text text-anchor="start" x="253" y="-249" font-family="Helvetica,sans-Serif" font-size="10.00">src/deviceCommunication</text>
<text text-anchor="middle" x="309.5" y="-238" font-family="Helvetica,sans-Serif" font-size="10.00">/commMaster.h</text>
</a>
</g>
</g>
<!-- Node2 -->
<g id="node2" class="node">
<title>Node2</title>
<g id="a_node2"><a xlink:href="comm_master_8cpp.html" target="_top" xlink:title="comm::CommMaster implementation">
<polygon fill="white" stroke="#666666" points="129,-195 0,-195 0,-165 129,-165 129,-195"/>
<text text-anchor="start" x="8" y="-183" font-family="Helvetica,sans-Serif" font-size="10.00">src/deviceCommunication</text>
<text text-anchor="middle" x="64.5" y="-172" font-family="Helvetica,sans-Serif" font-size="10.00">/commMaster.cpp</text>
</a>
</g>
</g>
<!-- Node1&#45;&gt;Node2 -->
<g id="edge1" class="edge">
<title>Node1&#45;&gt;Node2</title>
<path fill="none" stroke="#63b8ff" d="M243.55,-227.77C204.77,-217.64 156.31,-204.98 119.59,-195.39"/>
<polygon fill="#63b8ff" stroke="#63b8ff" points="242.19,-231.03 252.75,-230.17 243.96,-224.26 242.19,-231.03"/>
</g>
<!-- Node3 -->
<g id="node3" class="node">
<title>Node3</title>
<g id="a_node3"><a xlink:href="connection_widget_8h.html" target="_top" xlink:title="ConnectionWidget declaration">
<polygon fill="white" stroke="#666666" points="281.5,-189.5 147.5,-189.5 147.5,-170.5 281.5,-170.5 281.5,-189.5"/>
<text text-anchor="middle" x="214.5" y="-177.5" font-family="Helvetica,sans-Serif" font-size="10.00">src/gui/connectionWidget.h</text>
</a>
</g>
</g>
<!-- Node1&#45;&gt;Node3 -->
<g id="edge2" class="edge">
<title>Node1&#45;&gt;Node3</title>
<path fill="none" stroke="#63b8ff" d="M279.2,-224.58C261.81,-212.87 240.88,-198.77 227.63,-189.84"/>
<polygon fill="#63b8ff" stroke="#63b8ff" points="276.91,-227.27 287.16,-229.95 280.82,-221.46 276.91,-227.27"/>
</g>
<!-- Node5 -->
<g id="node5" class="node">
<title>Node5</title>
<g id="a_node5"><a xlink:href="dialogconnect_8h.html" target="_top" xlink:title="DialogConnect declaration">
<polygon fill="white" stroke="#666666" points="319.5,-129 203.5,-129 203.5,-110 319.5,-110 319.5,-129"/>
<text text-anchor="middle" x="261.5" y="-117" font-family="Helvetica,sans-Serif" font-size="10.00">src/gui/dialogconnect.h</text>
</a>
</g>
</g>
<!-- Node1&#45;&gt;Node5 -->
<g id="edge9" class="edge">
<title>Node1&#45;&gt;Node5</title>
<path fill="none" stroke="#63b8ff" d="M305.75,-219.45C302.83,-203.38 297.99,-182.46 290.5,-165 284.75,-151.61 275.05,-137.8 268.47,-129.18"/>
<polygon fill="#63b8ff" stroke="#63b8ff" points="302.27,-219.88 307.37,-229.17 309.17,-218.73 302.27,-219.88"/>
</g>
<!-- Node7 -->
<g id="node7" class="node">
<title>Node7</title>
<g id="a_node7"><a xlink:href="mainwindow_8h.html" target="_top" xlink:title="MainWindow declaration">
<polygon fill="white" stroke="#666666" points="421.5,-74 311.5,-74 311.5,-55 421.5,-55 421.5,-74"/>
<text text-anchor="middle" x="366.5" y="-62" font-family="Helvetica,sans-Serif" font-size="10.00">src/gui/mainwindow.h</text>
</a>
</g>
</g>
<!-- Node1&#45;&gt;Node7 -->
<g id="edge13" class="edge">
<title>Node1&#45;&gt;Node7</title>
<path fill="none" stroke="#63b8ff" d="M317.52,-219.75C330.43,-179.08 355.25,-100.94 363.64,-74.5"/>
<polygon fill="#63b8ff" stroke="#63b8ff" points="314.22,-218.58 314.53,-229.17 320.89,-220.7 314.22,-218.58"/>
</g>
<!-- Node10 -->
<g id="node10" class="node">
<title>Node10</title>
<g id="a_node10"><a xlink:href="dialogdebug_8h.html" target="_top" xlink:title="DialogDebug declaration">
<polygon fill="white" stroke="#666666" points="483.5,-189.5 375.5,-189.5 375.5,-170.5 483.5,-170.5 483.5,-189.5"/>
<text text-anchor="middle" x="429.5" y="-177.5" font-family="Helvetica,sans-Serif" font-size="10.00">src/gui/dialogdebug.h</text>
</a>
</g>
</g>
<!-- Node1&#45;&gt;Node10 -->
<g id="edge10" class="edge">
<title>Node1&#45;&gt;Node10</title>
<path fill="none" stroke="#63b8ff" d="M346.5,-225.27C368.58,-213.49 395.57,-199.1 412.65,-189.99"/>
<polygon fill="#63b8ff" stroke="#63b8ff" points="344.94,-222.13 337.77,-229.92 348.24,-228.31 344.94,-222.13"/>
</g>
<!-- Node4 -->
<g id="node4" class="node">
<title>Node4</title>
<g id="a_node4"><a xlink:href="connection_widget_8cpp.html" target="_top" xlink:title="ConnectionWidget implementation">
<polygon fill="white" stroke="#666666" points="185.5,-129 41.5,-129 41.5,-110 185.5,-110 185.5,-129"/>
<text text-anchor="middle" x="113.5" y="-117" font-family="Helvetica,sans-Serif" font-size="10.00">src/gui/connectionWidget.cpp</text>
</a>
</g>
</g>
<!-- Node3&#45;&gt;Node4 -->
<g id="edge3" class="edge">
<title>Node3&#45;&gt;Node4</title>
<path fill="none" stroke="#63b8ff" d="M189.4,-164.46C170.45,-153.49 145.06,-138.78 128.98,-129.47"/>
<polygon fill="#63b8ff" stroke="#63b8ff" points="187.44,-167.37 197.85,-169.36 190.95,-161.32 187.44,-167.37"/>
</g>
<!-- Node3&#45;&gt;Node5 -->
<g id="edge4" class="edge">
<title>Node3&#45;&gt;Node5</title>
<path fill="none" stroke="#63b8ff" d="M228.58,-161.48C237.15,-150.81 247.72,-137.65 254.54,-129.17"/>
<polygon fill="#63b8ff" stroke="#63b8ff" points="225.92,-159.2 222.38,-169.19 231.37,-163.58 225.92,-159.2"/>
</g>
<!-- Node6 -->
<g id="node6" class="node">
<title>Node6</title>
<g id="a_node6"><a xlink:href="dialogconnect_8cpp.html" target="_top" xlink:title="DialogConnect implementation">
<polygon fill="white" stroke="#666666" points="293,-74 166,-74 166,-55 293,-55 293,-74"/>
<text text-anchor="middle" x="229.5" y="-62" font-family="Helvetica,sans-Serif" font-size="10.00">src/gui/dialogconnect.cpp</text>
</a>
</g>
</g>
<!-- Node5&#45;&gt;Node6 -->
<g id="edge5" class="edge">
<title>Node5&#45;&gt;Node6</title>
<path fill="none" stroke="#63b8ff" d="M250.38,-100.08C245.14,-91.4 239.12,-81.44 234.9,-74.44"/>
<polygon fill="#63b8ff" stroke="#63b8ff" points="247.27,-101.7 255.43,-108.45 253.26,-98.08 247.27,-101.7"/>
</g>
<!-- Node5&#45;&gt;Node7 -->
<g id="edge6" class="edge">
<title>Node5&#45;&gt;Node7</title>
<path fill="none" stroke="#63b8ff" d="M289.43,-104.4C308.34,-94.86 332.72,-82.55 348.95,-74.36"/>
<polygon fill="#63b8ff" stroke="#63b8ff" points="288.01,-101.2 280.66,-108.83 291.17,-107.45 288.01,-101.2"/>
</g>
<!-- Node8 -->
<g id="node8" class="node">
<title>Node8</title>
<g id="a_node8"><a xlink:href="mainwindow_8cpp.html" target="_top" xlink:title="MainWindow implementation">
<polygon fill="white" stroke="#666666" points="370,-19 249,-19 249,0 370,0 370,-19"/>
<text text-anchor="middle" x="309.5" y="-7" font-family="Helvetica,sans-Serif" font-size="10.00">src/gui/mainwindow.cpp</text>
</a>
</g>
</g>
<!-- Node7&#45;&gt;Node8 -->
<g id="edge7" class="edge">
<title>Node7&#45;&gt;Node8</title>
<path fill="none" stroke="#63b8ff" d="M348.55,-46.81C338.77,-37.72 327.06,-26.82 319.03,-19.36"/>
<polygon fill="#63b8ff" stroke="#63b8ff" points="346.02,-49.23 355.72,-53.48 350.78,-44.11 346.02,-49.23"/>
</g>
<!-- Node9 -->
<g id="node9" class="node">
<title>Node9</title>
<g id="a_node9"><a xlink:href="main_8cpp.html" target="_top" xlink:title="Main file of project linescaleGUI.">
<polygon fill="white" stroke="#666666" points="460.5,-19 388.5,-19 388.5,0 460.5,0 460.5,-19"/>
<text text-anchor="middle" x="424.5" y="-7" font-family="Helvetica,sans-Serif" font-size="10.00">src/main.cpp</text>
</a>
</g>
</g>
<!-- Node7&#45;&gt;Node9 -->
<g id="edge8" class="edge">
<title>Node7&#45;&gt;Node9</title>
<path fill="none" stroke="#63b8ff" d="M384.76,-46.81C394.72,-37.72 406.64,-26.82 414.81,-19.36"/>
<polygon fill="#63b8ff" stroke="#63b8ff" points="382.48,-44.16 377.46,-53.49 387.2,-49.33 382.48,-44.16"/>
</g>
<!-- Node10&#45;&gt;Node7 -->
<g id="edge12" class="edge">
<title>Node10&#45;&gt;Node7</title>
<path fill="none" stroke="#63b8ff" d="M419,-160.09C405.23,-135.28 381.61,-92.73 371.42,-74.36"/>
<polygon fill="#63b8ff" stroke="#63b8ff" points="415.91,-161.73 423.82,-168.77 422.03,-158.33 415.91,-161.73"/>
</g>
<!-- Node11 -->
<g id="node11" class="node">
<title>Node11</title>
<g id="a_node11"><a xlink:href="dialogdebug_8cpp.html" target="_top" xlink:title="DialogDebug implementation">
<polygon fill="white" stroke="#666666" points="533,-129 414,-129 414,-110 533,-110 533,-129"/>
<text text-anchor="middle" x="473.5" y="-117" font-family="Helvetica,sans-Serif" font-size="10.00">src/gui/dialogdebug.cpp</text>
</a>
</g>
</g>
<!-- Node10&#45;&gt;Node11 -->
<g id="edge11" class="edge">
<title>Node10&#45;&gt;Node11</title>
<path fill="none" stroke="#63b8ff" d="M442.68,-161.48C450.7,-150.81 460.6,-137.65 466.98,-129.17"/>
<polygon fill="#63b8ff" stroke="#63b8ff" points="440.12,-159.06 436.9,-169.16 445.71,-163.27 440.12,-159.06"/>
</g>
</g>
</svg>
        <g id="navigator" transform="translate(0 0)" fill="#404254">
                <rect fill="#f2f5e9" fill-opacity="0.5" stroke="#606060" stroke-width=".5" x="0" y="0" width="60" height="60"/>
                <use id="zoomplus" xlink:href="#zoomPlus" x="17" y="9" onmousedown="handleZoom(evt,'in')"/>
                <use id="zoomminus" xlink:href="#zoomMin" x="42" y="9" onmousedown="handleZoom(evt,'out')"/>
                <use id="reset" xlink:href="#resetDef" x="30" y="36" onmousedown="handleReset()"/>
                <g id="arrowUp" xlink:href="#dirArrow" transform="translate(30 24)" onmousedown="handlePan(0,-1)">
                  <use xlink:href="#rim" fill="#404040">
                        <set attributeName="fill" to="#808080" begin="arrowUp.mouseover" end="arrowUp.mouseout"/>
                  </use>
                  <path fill="none" stroke="white" stroke-width="1.5" d="M0,-3.0v7 M-2.5,-0.5L0,-3.0L2.5,-0.5"/>
                </g>
                <g id="arrowRight" xlink:href="#dirArrow" transform="rotate(90) translate(36 -43)" onmousedown="handlePan(1,0)">
                  <use xlink:href="#rim" fill="#404040">
                        <set attributeName="fill" to="#808080" begin="arrowRight.mouseover" end="arrowRight.mouseout"/>
                  </use>
                  <path fill="none" stroke="white" stroke-width="1.5" d="M0,-3.0v7 M-2.5,-0.5L0,-3.0L2.5,-0.5"/>
                </g>
                <g id="arrowDown" xlink:href="#dirArrow" transform="rotate(180) translate(-30 -48)" onmousedown="handlePan(0,1)">
                  <use xlink:href="#rim" fill="#404040">
                        <set attributeName="fill" to="#808080" begin="arrowDown.mouseover" end="arrowDown.mouseout"/>
                  </use>
                  <path fill="none" stroke="white" stroke-width="1.5" d="M0,-3.0v7 M-2.5,-0.5L0,-3.0L2.5,-0.5"/>
                </g>
                <g id="arrowLeft" xlink:href="#dirArrow" transform="rotate(270) translate(-36 17)" onmousedown="handlePan(-1,0)">
                  <use xlink:href="#rim" fill="#404040">
                        <set attributeName="fill" to="#808080" begin="arrowLeft.mouseover" end="arrowLeft.mouseout"/>
                  </use>
                  <path fill="none" stroke="white" stroke-width="1.5" d="M0,-3.0v7 M-2.5,-0.5L0,-3.0L2.5,-0.5"/>
                </g>
        </g>
        <svg viewBox="0 0 15 15" width="100%" height="30px" preserveAspectRatio="xMaxYMin meet">
         <g id="arrow_out" transform="scale(0.3 0.3)">
          <a xlink:href="comm_master_8h__dep__incl_org.svg" target="_base">
           <rect id="button" ry="5" rx="5" y="6" x="6" height="38" width="38"
                fill="#f2f5e9" fill-opacity="0.5" stroke="#606060" stroke-width="1.0"/>
           <path id="arrow"
             d="M 11.500037,31.436501 C 11.940474,20.09759 22.043105,11.32322 32.158766,21.979434 L 37.068811,17.246167 C 37.068811,17.246167 37.088388,32 37.088388,32 L 22.160133,31.978069 C 22.160133,31.978069 26.997745,27.140456 26.997745,27.140456 C 18.528582,18.264221 13.291696,25.230495 11.500037,31.436501 z"
             style="fill:#404040;"/>
          </a>
         </g>
        </svg>
</svg>
