<?xml version="1.0" encoding="UTF-8" standalone="no"?>
<!DOCTYPE svg PUBLIC "-//W3C//DTD SVG 1.1//EN"
 "http://www.w3.org/Graphics/SVG/1.1/DTD/svg11.dtd">
<!-- Generated by graphviz version 7.0.5 (20221223.1930)
 -->
<!-- Title: src/deviceCommunication/commUSB.cpp Pages: 1 -->
<svg width="508pt" height="258pt"
 viewBox="0.00 0.00 508.17 258.00" xmlns="http://www.w3.org/2000/svg" xmlns:xlink="http://www.w3.org/1999/xlink">
<g id="graph0" class="graph" transform="scale(1 1) rotate(0) translate(4 254)">
<title>src/deviceCommunication/commUSB.cpp</title>
<!-- Node1 -->
<g id="node1" class="node">
<title>Node1</title>
<g id="a_node1"><a xlink:title="comm::CommUSB implementation">
<polygon fill="#999999" stroke="#666666" points="216.67,-250 87.67,-250 87.67,-220 216.67,-220 216.67,-250"/>
<text text-anchor="start" x="95.67" y="-238" font-family="Helvetica,sans-Serif" font-size="10.00">src/deviceCommunication</text>
<text text-anchor="middle" x="152.17" y="-227" font-family="Helvetica,sans-Serif" font-size="10.00">/commUSB.cpp</text>
</a>
</g>
</g>
<!-- Node2 -->
<g id="node2" class="node">
<title>Node2</title>
<g id="a_node2"><a xlink:href="comm_u_s_b_8h.html" target="_top" xlink:title="comm::CommUSB declaration">
<polygon fill="white" stroke="#666666" points="188.17,-184 116.17,-184 116.17,-165 188.17,-165 188.17,-184"/>
<text text-anchor="middle" x="152.17" y="-172" font-family="Helvetica,sans-Serif" font-size="10.00">commUSB.h</text>
</a>
</g>
</g>
<!-- Node1&#45;&gt;Node2 -->
<g id="edge1" class="edge">
<title>Node1&#45;&gt;Node2</title>
<path fill="none" stroke="#63b8ff" d="M152.17,-219.54C152.17,-212.34 152.17,-203.53 152.17,-195.68"/>
<polygon fill="#63b8ff" stroke="#63b8ff" points="155.67,-195.69 152.17,-185.69 148.67,-195.69 155.67,-195.69"/>
</g>
<!-- Node3 -->
<g id="node3" class="node">
<title>Node3</title>
<g id="a_node3"><a xlink:title=" ">
<polygon fill="#e0e0e0" stroke="#999999" points="178.17,-74 126.17,-74 126.17,-55 178.17,-55 178.17,-74"/>
<text text-anchor="middle" x="152.17" y="-62" font-family="Helvetica,sans-Serif" font-size="10.00">QDebug</text>
</a>
</g>
</g>
<!-- Node2&#45;&gt;Node3 -->
<g id="edge2" class="edge">
<title>Node2&#45;&gt;Node3</title>
<path fill="none" stroke="#63b8ff" d="M138.82,-164.54C123.21,-152.85 100.54,-131.35 109.17,-110 113.61,-99.03 122.19,-89.26 130.52,-81.69"/>
<polygon fill="#63b8ff" stroke="#63b8ff" points="132.67,-84.45 138.1,-75.36 128.19,-79.08 132.67,-84.45"/>
</g>
<!-- Node4 -->
<g id="node4" class="node">
<title>Node4</title>
<g id="a_node4"><a xlink:title=" ">
<polygon fill="#e0e0e0" stroke="#999999" points="61.67,-129 14.67,-129 14.67,-110 61.67,-110 61.67,-129"/>
<text text-anchor="middle" x="38.17" y="-117" font-family="Helvetica,sans-Serif" font-size="10.00">QHash</text>
</a>
</g>
</g>
<!-- Node2&#45;&gt;Node4 -->
<g id="edge3" class="edge">
<title>Node2&#45;&gt;Node4</title>
<path fill="none" stroke="#63b8ff" d="M132.83,-164.51C114.96,-156.2 88.13,-143.73 67.6,-134.18"/>
<polygon fill="#63b8ff" stroke="#63b8ff" points="69.14,-131.04 58.6,-130 66.19,-137.39 69.14,-131.04"/>
</g>
<!-- Node5 -->
<g id="node5" class="node">
<title>Node5</title>
<g id="a_node5"><a xlink:title=" ">
<polygon fill="#e0e0e0" stroke="#999999" points="323.67,-19 270.67,-19 270.67,0 323.67,0 323.67,-19"/>
<text text-anchor="middle" x="297.17" y="-7" font-family="Helvetica,sans-Serif" font-size="10.00">QObject</text>
</a>
</g>
</g>
<!-- Node2&#45;&gt;Node5 -->
<g id="edge4" class="edge">
<title>Node2&#45;&gt;Node5</title>
<path fill="none" stroke="#63b8ff" d="M115.72,-171.41C64,-166.92 -21.58,-152.94 5.17,-110 58.87,-23.81 193.22,-10.71 259.28,-9.71"/>
<polygon fill="#63b8ff" stroke="#63b8ff" points="258.92,-13.22 268.9,-9.66 258.88,-6.22 258.92,-13.22"/>
</g>
<!-- Node6 -->
<g id="node6" class="node">
<title>Node6</title>
<g id="a_node6"><a xlink:title=" ">
<polygon fill="#e0e0e0" stroke="#999999" points="185.67,-129 118.67,-129 118.67,-110 185.67,-110 185.67,-129"/>
<text text-anchor="middle" x="152.17" y="-117" font-family="Helvetica,sans-Serif" font-size="10.00">QSerialPort</text>
</a>
</g>
</g>
<!-- Node2&#45;&gt;Node6 -->
<g id="edge5" class="edge">
<title>Node2&#45;&gt;Node6</title>
<path fill="none" stroke="#63b8ff" d="M152.17,-164.75C152.17,-158.27 152.17,-149.16 152.17,-140.9"/>
<polygon fill="#63b8ff" stroke="#63b8ff" points="155.67,-140.96 152.17,-130.96 148.67,-140.96 155.67,-140.96"/>
</g>
<!-- Node7 -->
<g id="node7" class="node">
<title>Node7</title>
<g id="a_node7"><a xlink:title=" ">
<polygon fill="#e0e0e0" stroke="#999999" points="286.67,-129 203.67,-129 203.67,-110 286.67,-110 286.67,-129"/>
<text text-anchor="middle" x="245.17" y="-117" font-family="Helvetica,sans-Serif" font-size="10.00">QSerialPortInfo</text>
</a>
</g>
</g>
<!-- Node2&#45;&gt;Node7 -->
<g id="edge6" class="edge">
<title>Node2&#45;&gt;Node7</title>
<path fill="none" stroke="#63b8ff" d="M167.95,-164.51C182.2,-156.39 203.41,-144.3 220,-134.85"/>
<polygon fill="#63b8ff" stroke="#63b8ff" points="221.36,-138.1 228.31,-130.11 217.89,-132.02 221.36,-138.1"/>
</g>
<!-- Node8 -->
<g id="node8" class="node">
<title>Node8</title>
<g id="a_node8"><a xlink:href="parser_8h.html" target="_top" xlink:title="Parser declaration">
<polygon fill="white" stroke="#666666" points="423.67,-74 334.67,-74 334.67,-55 423.67,-55 423.67,-74"/>
<text text-anchor="middle" x="379.17" y="-62" font-family="Helvetica,sans-Serif" font-size="10.00">../parser/parser.h</text>
</a>
</g>
</g>
<!-- Node2&#45;&gt;Node8 -->
<g id="edge7" class="edge">
<title>Node2&#45;&gt;Node8</title>
<path fill="none" stroke="#63b8ff" d="M188.55,-172.33C249.77,-169.5 369.29,-160.05 395.17,-129 405.73,-116.33 399.19,-97.64 391.54,-83.81"/>
<polygon fill="#63b8ff" stroke="#63b8ff" points="394.74,-82.34 386.52,-75.66 388.78,-86.01 394.74,-82.34"/>
</g>
<!-- Node11 -->
<g id="node11" class="node">
<title>Node11</title>
<g id="a_node11"><a xlink:href="comm_device_8h.html" target="_top" xlink:title="comm::CommDevice declaration">
<polygon fill="white" stroke="#666666" points="385.67,-129 304.67,-129 304.67,-110 385.67,-110 385.67,-129"/>
<text text-anchor="middle" x="345.17" y="-117" font-family="Helvetica,sans-Serif" font-size="10.00">commDevice.h</text>
</a>
</g>
</g>
<!-- Node2&#45;&gt;Node11 -->
<g id="edge11" class="edge">
<title>Node2&#45;&gt;Node11</title>
<path fill="none" stroke="#63b8ff" d="M184.91,-164.51C217.03,-155.69 266.21,-142.18 301.62,-132.46"/>
<polygon fill="#63b8ff" stroke="#63b8ff" points="302.42,-135.87 311.13,-129.85 300.56,-129.12 302.42,-135.87"/>
</g>
<!-- Node8&#45;&gt;Node5 -->
<g id="edge9" class="edge">
<title>Node8&#45;&gt;Node5</title>
<path fill="none" stroke="#63b8ff" d="M365.26,-54.51C352.94,-46.54 334.7,-34.75 320.2,-25.38"/>
<polygon fill="#63b8ff" stroke="#63b8ff" points="322.45,-22.67 312.15,-20.18 318.65,-28.55 322.45,-22.67"/>
</g>
<!-- Node9 -->
<g id="node9" class="node">
<title>Node9</title>
<g id="a_node9"><a xlink:title=" ">
<polygon fill="#e0e0e0" stroke="#999999" points="500.17,-19 434.17,-19 434.17,0 500.17,0 500.17,-19"/>
<text text-anchor="middle" x="467.17" y="-7" font-family="Helvetica,sans-Serif" font-size="10.00">QByteArray</text>
</a>
</g>
</g>
<!-- Node8&#45;&gt;Node9 -->
<g id="edge8" class="edge">
<title>Node8&#45;&gt;Node9</title>
<path fill="none" stroke="#63b8ff" d="M394.1,-54.51C407.45,-46.47 427.28,-34.53 442.91,-25.11"/>
<polygon fill="#63b8ff" stroke="#63b8ff" points="444.41,-28.3 451.17,-20.14 440.8,-22.3 444.41,-28.3"/>
</g>
<!-- Node10 -->
<g id="node10" class="node">
<title>Node10</title>
<g id="a_node10"><a xlink:title=" ">
<polygon fill="#e0e0e0" stroke="#999999" points="416.17,-19 342.17,-19 342.17,0 416.17,0 416.17,-19"/>
<text text-anchor="middle" x="379.17" y="-7" font-family="Helvetica,sans-Serif" font-size="10.00">QTextStream</text>
</a>
</g>
</g>
<!-- Node8&#45;&gt;Node10 -->
<g id="edge10" class="edge">
<title>Node8&#45;&gt;Node10</title>
<path fill="none" stroke="#63b8ff" d="M379.17,-54.75C379.17,-48.27 379.17,-39.16 379.17,-30.9"/>
<polygon fill="#63b8ff" stroke="#63b8ff" points="382.67,-30.96 379.17,-20.96 375.67,-30.96 382.67,-30.96"/>
</g>
<!-- Node11&#45;&gt;Node3 -->
<g id="edge12" class="edge">
<title>Node11&#45;&gt;Node3</title>
<path fill="none" stroke="#63b8ff" d="M312.43,-109.51C278.37,-100.16 225.12,-85.53 189.46,-75.74"/>
<polygon fill="#63b8ff" stroke="#63b8ff" points="190.58,-72.42 180.01,-73.14 188.72,-79.17 190.58,-72.42"/>
</g>
<!-- Node11&#45;&gt;Node5 -->
<g id="edge13" class="edge">
<title>Node11&#45;&gt;Node5</title>
<path fill="none" stroke="#63b8ff" d="M341.24,-109.66C333.54,-92.34 316.3,-53.55 305.81,-29.95"/>
<polygon fill="#63b8ff" stroke="#63b8ff" points="309.03,-28.56 301.77,-20.84 302.63,-31.4 309.03,-28.56"/>
</g>
<!-- Node11&#45;&gt;Node8 -->
<g id="edge14" class="edge">
<title>Node11&#45;&gt;Node8</title>
<path fill="none" stroke="#63b8ff" d="M350.79,-109.75C355.29,-102.73 361.76,-92.64 367.39,-83.87"/>
<polygon fill="#63b8ff" stroke="#63b8ff" points="370.16,-86.02 372.62,-75.72 364.27,-82.24 370.16,-86.02"/>
</g>
</g>
</svg>
