<?xml version="1.0" encoding="UTF-8" standalone="no"?>
<!DOCTYPE svg PUBLIC "-//W3C//DTD SVG 1.1//EN"
 "http://www.w3.org/Graphics/SVG/1.1/DTD/svg11.dtd">
<!-- Generated by graphviz version 7.0.5 (20221223.1930)
 -->
<!-- Title: src/deviceCommunication/commDevice.h Pages: 1 -->
<svg width="206pt" height="148pt"
 viewBox="0.00 0.00 205.50 148.00" xmlns="http://www.w3.org/2000/svg" xmlns:xlink="http://www.w3.org/1999/xlink">
<g id="graph0" class="graph" transform="scale(1 1) rotate(0) translate(4 144)">
<title>src/deviceCommunication/commDevice.h</title>
<!-- Node1 -->
<g id="node1" class="node">
<title>Node1</title>
<g id="a_node1"><a xlink:title="comm::CommDevice declaration">
<polygon fill="#999999" stroke="#666666" points="144.5,-140 15.5,-140 15.5,-110 144.5,-110 144.5,-140"/>
<text text-anchor="start" x="23.5" y="-128" font-family="Helvetica,sans-Serif" font-size="10.00">src/deviceCommunication</text>
<text text-anchor="middle" x="80" y="-117" font-family="Helvetica,sans-Serif" font-size="10.00">/commDevice.h</text>
</a>
</g>
</g>
<!-- Node2 -->
<g id="node2" class="node">
<title>Node2</title>
<g id="a_node2"><a xlink:title=" ">
<polygon fill="#e0e0e0" stroke="#999999" points="52,-74 0,-74 0,-55 52,-55 52,-74"/>
<text text-anchor="middle" x="26" y="-62" font-family="Helvetica,sans-Serif" font-size="10.00">QDebug</text>
</a>
</g>
</g>
<!-- Node1&#45;&gt;Node2 -->
<g id="edge1" class="edge">
<title>Node1&#45;&gt;Node2</title>
<path fill="none" stroke="#63b8ff" d="M66.65,-109.54C59.13,-101.39 49.69,-91.16 41.8,-82.61"/>
<polygon fill="#63b8ff" stroke="#63b8ff" points="44.39,-80.26 35.03,-75.29 39.25,-85.01 44.39,-80.26"/>
</g>
<!-- Node3 -->
<g id="node3" class="node">
<title>Node3</title>
<g id="a_node3"><a xlink:title=" ">
<polygon fill="#e0e0e0" stroke="#999999" points="106.5,-19 53.5,-19 53.5,0 106.5,0 106.5,-19"/>
<text text-anchor="middle" x="80" y="-7" font-family="Helvetica,sans-Serif" font-size="10.00">QObject</text>
</a>
</g>
</g>
<!-- Node1&#45;&gt;Node3 -->
<g id="edge2" class="edge">
<title>Node1&#45;&gt;Node3</title>
<path fill="none" stroke="#63b8ff" d="M80,-109.63C80,-89.59 80,-53.17 80,-30.49"/>
<polygon fill="#63b8ff" stroke="#63b8ff" points="83.5,-30.74 80,-20.74 76.5,-30.74 83.5,-30.74"/>
</g>
<!-- Node4 -->
<g id="node4" class="node">
<title>Node4</title>
<g id="a_node4"><a xlink:href="parser_8h.html" target="_top" xlink:title="Parser declaration">
<polygon fill="white" stroke="#666666" points="197.5,-74 108.5,-74 108.5,-55 197.5,-55 197.5,-74"/>
<text text-anchor="middle" x="153" y="-62" font-family="Helvetica,sans-Serif" font-size="10.00">../parser/parser.h</text>
</a>
</g>
</g>
<!-- Node1&#45;&gt;Node4 -->
<g id="edge3" class="edge">
<title>Node1&#45;&gt;Node4</title>
<path fill="none" stroke="#63b8ff" d="M98.04,-109.54C108.76,-100.96 122.34,-90.07 133.33,-81.26"/>
<polygon fill="#63b8ff" stroke="#63b8ff" points="135.38,-84.11 140.99,-75.12 131,-78.64 135.38,-84.11"/>
</g>
<!-- Node4&#45;&gt;Node3 -->
<g id="edge5" class="edge">
<title>Node4&#45;&gt;Node3</title>
<path fill="none" stroke="#63b8ff" d="M140.62,-54.51C129.85,-46.7 114.03,-35.21 101.25,-25.93"/>
<polygon fill="#63b8ff" stroke="#63b8ff" points="103.57,-23.29 93.43,-20.25 99.46,-28.95 103.57,-23.29"/>
</g>
<!-- Node5 -->
<g id="node5" class="node">
<title>Node5</title>
<g id="a_node5"><a xlink:title=" ">
<polygon fill="#e0e0e0" stroke="#999999" points="191,-19 125,-19 125,0 191,0 191,-19"/>
<text text-anchor="middle" x="158" y="-7" font-family="Helvetica,sans-Serif" font-size="10.00">QByteArray</text>
</a>
</g>
</g>
<!-- Node4&#45;&gt;Node5 -->
<g id="edge4" class="edge">
<title>Node4&#45;&gt;Node5</title>
<path fill="none" stroke="#63b8ff" d="M153.83,-54.75C154.44,-48.27 155.3,-39.16 156.08,-30.9"/>
<polygon fill="#63b8ff" stroke="#63b8ff" points="159.56,-31.23 157.01,-20.95 152.59,-30.58 159.56,-31.23"/>
</g>
</g>
</svg>
