<?xml version="1.0" encoding="UTF-8" standalone="no"?>
<!DOCTYPE svg PUBLIC "-//W3C//DTD SVG 1.1//EN"
 "http://www.w3.org/Graphics/SVG/1.1/DTD/svg11.dtd">
<!-- Generated by graphviz version 7.0.5 (20221223.1930)
 -->
<!-- Title: src/deviceCommunication/commMaster.cpp Pages: 1 -->
<!--zoomable 258 -->
<svg id="main" version="1.1" xmlns="http://www.w3.org/2000/svg" xmlns:xlink="http://www.w3.org/1999/xlink" xml:space="preserve" onload="init(evt)">
<style type="text/css"><![CDATA[
.edge:hover path { stroke: red; }
.edge:hover polygon { stroke: red; fill: red; }
]]></style>
<script type="text/javascript"><![CDATA[
var edges = document.getElementsByTagName('g');
if (edges && edges.length) {
  for (var i=0;i<edges.length;i++) {
    if (edges[i].id.substr(0,4)=='edge') {
      edges[i].setAttribute('class','edge');
    }
  }
}
]]></script>
        <defs>
                <circle id="rim" cx="0" cy="0" r="7"/>
                <circle id="rim2" cx="0" cy="0" r="3.5"/>
                <g id="zoomPlus">
                        <use xlink:href="#rim" fill="#404040">
                                <set attributeName="fill" to="#808080" begin="zoomplus.mouseover" end="zoomplus.mouseout"/>
                        </use>
                        <path d="M-4,0h8M0,-4v8" fill="none" stroke="white" stroke-width="1.5" pointer-events="none"/>
                </g>
                <g id="zoomMin">
                        <use xlink:href="#rim" fill="#404040">
                                <set attributeName="fill" to="#808080" begin="zoomminus.mouseover" end="zoomminus.mouseout"/>
                        </use>
                        <path d="M-4,0h8" fill="none" stroke="white" stroke-width="1.5" pointer-events="none"/>
                </g>
                <g id="dirArrow">
                        <path fill="none" stroke="white" stroke-width="1.5" d="M0,-3.0v7 M-2.5,-0.5L0,-3.0L2.5,-0.5"/>
                </g>
               <g id="resetDef">
                       <use xlink:href="#rim2" fill="#404040">
                               <set attributeName="fill" to="#808080" begin="reset.mouseover" end="reset.mouseout"/>
                       </use>
               </g>
        </defs>

<script type="text/javascript">
var viewWidth = 599;
var viewHeight = 258;
var sectionId = 'dynsection-0';
</script>
<script xlink:href="svgpan.js"/>
<svg id="graph" class="graph">
<g id="viewport">
<title>src/deviceCommunication/commMaster.cpp</title>
<!-- Node1 -->
<g id="node1" class="node">
<title>Node1</title>
<g id="a_node1"><a xlink:title="comm::CommMaster implementation">
<polygon fill="#999999" stroke="#666666" points="380,-250 251,-250 251,-220 380,-220 380,-250"/>
<text text-anchor="start" x="259" y="-238" font-family="Helvetica,sans-Serif" font-size="10.00">src/deviceCommunication</text>
<text text-anchor="middle" x="315.5" y="-227" font-family="Helvetica,sans-Serif" font-size="10.00">/commMaster.cpp</text>
</a>
</g>
</g>
<!-- Node2 -->
<g id="node2" class="node">
<title>Node2</title>
<g id="a_node2"><a xlink:href="comm_master_8h.html" target="_top" xlink:title="comm::CommMaster declaration">
<polygon fill="white" stroke="#666666" points="81,-184 0,-184 0,-165 81,-165 81,-184"/>
<text text-anchor="middle" x="40.5" y="-172" font-family="Helvetica,sans-Serif" font-size="10.00">commMaster.h</text>
</a>
</g>
</g>
<!-- Node1&#45;&gt;Node2 -->
<g id="edge1" class="edge">
<title>Node1&#45;&gt;Node2</title>
<path fill="none" stroke="#63b8ff" d="M250.68,-220.21C202.47,-209.96 137.54,-196.14 92.67,-186.6"/>
<polygon fill="#63b8ff" stroke="#63b8ff" points="93.42,-183.18 82.91,-184.52 91.96,-190.03 93.42,-183.18"/>
</g>
<!-- Node5 -->
<g id="node5" class="node">
<title>Node5</title>
<g id="a_node5"><a xlink:title=" ">
<polygon fill="#e0e0e0" stroke="#999999" points="165.5,-74 113.5,-74 113.5,-55 165.5,-55 165.5,-74"/>
<text text-anchor="middle" x="139.5" y="-62" font-family="Helvetica,sans-Serif" font-size="10.00">QDebug</text>
</a>
</g>
</g>
<!-- Node1&#45;&gt;Node5 -->
<g id="edge9" class="edge">
<title>Node1&#45;&gt;Node5</title>
<path fill="none" stroke="#63b8ff" d="M269.39,-219.55C228.66,-204.13 171.51,-175.43 143.5,-129 135.72,-116.1 135.09,-98.92 136.21,-85.68"/>
<polygon fill="#63b8ff" stroke="#63b8ff" points="139.65,-86.33 137.44,-75.97 132.71,-85.45 139.65,-86.33"/>
</g>
<!-- Node8 -->
<g id="node8" class="node">
<title>Node8</title>
<g id="a_node8"><a xlink:title=" ">
<polygon fill="#e0e0e0" stroke="#999999" points="577,-129 494,-129 494,-110 577,-110 577,-129"/>
<text text-anchor="middle" x="535.5" y="-117" font-family="Helvetica,sans-Serif" font-size="10.00">QSerialPortInfo</text>
</a>
</g>
</g>
<!-- Node1&#45;&gt;Node8 -->
<g id="edge10" class="edge">
<title>Node1&#45;&gt;Node8</title>
<path fill="none" stroke="#63b8ff" d="M343.36,-219.63C385.8,-197.73 466.14,-156.28 508.22,-134.57"/>
<polygon fill="#63b8ff" stroke="#63b8ff" points="509.67,-137.77 516.95,-130.07 506.46,-131.54 509.67,-137.77"/>
</g>
<!-- Node9 -->
<g id="node9" class="node">
<title>Node9</title>
<g id="a_node9"><a xlink:href="comm_u_s_b_8h.html" target="_top" xlink:title="comm::CommUSB declaration">
<polygon fill="white" stroke="#666666" points="351.5,-184 279.5,-184 279.5,-165 351.5,-165 351.5,-184"/>
<text text-anchor="middle" x="315.5" y="-172" font-family="Helvetica,sans-Serif" font-size="10.00">commUSB.h</text>
</a>
</g>
</g>
<!-- Node1&#45;&gt;Node9 -->
<g id="edge11" class="edge">
<title>Node1&#45;&gt;Node9</title>
<path fill="none" stroke="#63b8ff" d="M315.5,-219.54C315.5,-212.34 315.5,-203.53 315.5,-195.68"/>
<polygon fill="#63b8ff" stroke="#63b8ff" points="319,-195.69 315.5,-185.69 312,-195.69 319,-195.69"/>
</g>
<!-- Node12 -->
<g id="node12" class="node">
<title>Node12</title>
<g id="a_node12"><a xlink:href="command_8h.html" target="_top" xlink:title="All commands for the linescale3.">
<polygon fill="white" stroke="#666666" points="559,-74 492,-74 492,-55 559,-55 559,-74"/>
<text text-anchor="middle" x="525.5" y="-62" font-family="Helvetica,sans-Serif" font-size="10.00">command.h</text>
</a>
</g>
</g>
<!-- Node1&#45;&gt;Node12 -->
<g id="edge19" class="edge">
<title>Node1&#45;&gt;Node12</title>
<path fill="none" stroke="#63b8ff" d="M380.26,-229.17C444.77,-220.5 540.61,-196.34 586.5,-129 599.3,-110.22 576.66,-91.84 555.43,-79.72"/>
<polygon fill="#63b8ff" stroke="#63b8ff" points="557.08,-76.64 546.61,-75.02 553.78,-82.81 557.08,-76.64"/>
</g>
<!-- Node3 -->
<g id="node3" class="node">
<title>Node3</title>
<g id="a_node3"><a xlink:title=" ">
<polygon fill="#e0e0e0" stroke="#999999" points="285,-19 232,-19 232,0 285,0 285,-19"/>
<text text-anchor="middle" x="258.5" y="-7" font-family="Helvetica,sans-Serif" font-size="10.00">QObject</text>
</a>
</g>
</g>
<!-- Node2&#45;&gt;Node3 -->
<g id="edge2" class="edge">
<title>Node2&#45;&gt;Node3</title>
<path fill="none" stroke="#63b8ff" d="M42.75,-164.52C48.77,-142.41 67.36,-84.93 104.5,-55 137.84,-28.13 186.73,-17.48 220.44,-13.27"/>
<polygon fill="#63b8ff" stroke="#63b8ff" points="220.62,-16.77 230.17,-12.19 219.85,-9.81 220.62,-16.77"/>
</g>
<!-- Node4 -->
<g id="node4" class="node">
<title>Node4</title>
<g id="a_node4"><a xlink:href="comm_device_8h.html" target="_top" xlink:title="comm::CommDevice declaration">
<polygon fill="white" stroke="#666666" points="249,-129 168,-129 168,-110 249,-110 249,-129"/>
<text text-anchor="middle" x="208.5" y="-117" font-family="Helvetica,sans-Serif" font-size="10.00">commDevice.h</text>
</a>
</g>
</g>
<!-- Node2&#45;&gt;Node4 -->
<g id="edge3" class="edge">
<title>Node2&#45;&gt;Node4</title>
<path fill="none" stroke="#63b8ff" d="M69,-164.51C96.6,-155.8 138.66,-142.53 169.38,-132.84"/>
<polygon fill="#63b8ff" stroke="#63b8ff" points="170.22,-136.25 178.7,-129.9 168.11,-129.57 170.22,-136.25"/>
</g>
<!-- Node4&#45;&gt;Node3 -->
<g id="edge5" class="edge">
<title>Node4&#45;&gt;Node3</title>
<path fill="none" stroke="#63b8ff" d="M212.59,-109.66C220.65,-92.26 238.73,-53.19 249.65,-29.62"/>
<polygon fill="#63b8ff" stroke="#63b8ff" points="252.69,-31.38 253.72,-20.83 246.34,-28.44 252.69,-31.38"/>
</g>
<!-- Node4&#45;&gt;Node5 -->
<g id="edge4" class="edge">
<title>Node4&#45;&gt;Node5</title>
<path fill="none" stroke="#63b8ff" d="M196.8,-109.51C186.72,-101.77 171.96,-90.43 159.94,-81.2"/>
<polygon fill="#63b8ff" stroke="#63b8ff" points="162.29,-78.6 152.23,-75.28 158.03,-84.15 162.29,-78.6"/>
</g>
<!-- Node6 -->
<g id="node6" class="node">
<title>Node6</title>
<g id="a_node6"><a xlink:href="parser_8h.html" target="_top" xlink:title="Parser declaration">
<polygon fill="white" stroke="#666666" points="395,-74 306,-74 306,-55 395,-55 395,-74"/>
<text text-anchor="middle" x="350.5" y="-62" font-family="Helvetica,sans-Serif" font-size="10.00">../parser/parser.h</text>
</a>
</g>
</g>
<!-- Node4&#45;&gt;Node6 -->
<g id="edge6" class="edge">
<title>Node4&#45;&gt;Node6</title>
<path fill="none" stroke="#63b8ff" d="M232.59,-109.51C255.57,-100.93 290.44,-87.92 316.3,-78.27"/>
<polygon fill="#63b8ff" stroke="#63b8ff" points="317.2,-81.66 325.35,-74.89 314.76,-75.1 317.2,-81.66"/>
</g>
<!-- Node6&#45;&gt;Node3 -->
<g id="edge8" class="edge">
<title>Node6&#45;&gt;Node3</title>
<path fill="none" stroke="#63b8ff" d="M334.89,-54.51C320.8,-46.39 299.81,-34.3 283.4,-24.85"/>
<polygon fill="#63b8ff" stroke="#63b8ff" points="285.6,-22.07 275.19,-20.11 282.11,-28.14 285.6,-22.07"/>
</g>
<!-- Node7 -->
<g id="node7" class="node">
<title>Node7</title>
<g id="a_node7"><a xlink:title=" ">
<polygon fill="#e0e0e0" stroke="#999999" points="401.5,-19 335.5,-19 335.5,0 401.5,0 401.5,-19"/>
<text text-anchor="middle" x="368.5" y="-7" font-family="Helvetica,sans-Serif" font-size="10.00">QByteArray</text>
</a>
</g>
</g>
<!-- Node6&#45;&gt;Node7 -->
<g id="edge7" class="edge">
<title>Node6&#45;&gt;Node7</title>
<path fill="none" stroke="#63b8ff" d="M353.47,-54.75C355.73,-48.11 358.91,-38.73 361.77,-30.31"/>
<polygon fill="#63b8ff" stroke="#63b8ff" points="365.07,-31.47 364.98,-20.88 358.45,-29.22 365.07,-31.47"/>
</g>
<!-- Node9&#45;&gt;Node3 -->
<g id="edge14" class="edge">
<title>Node9&#45;&gt;Node3</title>
<path fill="none" stroke="#63b8ff" d="M312.44,-164.74C303.58,-139.42 277.81,-65.72 265.37,-30.16"/>
<polygon fill="#63b8ff" stroke="#63b8ff" points="268.68,-29.02 262.08,-20.74 262.08,-31.33 268.68,-29.02"/>
</g>
<!-- Node9&#45;&gt;Node4 -->
<g id="edge18" class="edge">
<title>Node9&#45;&gt;Node4</title>
<path fill="none" stroke="#63b8ff" d="M297.35,-164.51C280.72,-156.27 255.86,-143.96 236.65,-134.45"/>
<polygon fill="#63b8ff" stroke="#63b8ff" points="238.25,-131.33 227.74,-130.03 235.15,-137.6 238.25,-131.33"/>
</g>
<!-- Node9&#45;&gt;Node5 -->
<g id="edge12" class="edge">
<title>Node9&#45;&gt;Node5</title>
<path fill="none" stroke="#63b8ff" d="M279.11,-172.82C243.71,-170.19 190.68,-160.72 158.5,-129 146.95,-117.62 142.36,-99.54 140.57,-85.57"/>
<polygon fill="#63b8ff" stroke="#63b8ff" points="144.06,-85.39 139.72,-75.72 137.09,-85.99 144.06,-85.39"/>
</g>
<!-- Node9&#45;&gt;Node6 -->
<g id="edge17" class="edge">
<title>Node9&#45;&gt;Node6</title>
<path fill="none" stroke="#63b8ff" d="M317.93,-164.83C321.41,-152.56 328.1,-129.46 334.5,-110 337.23,-101.71 340.45,-92.64 343.28,-84.86"/>
<polygon fill="#63b8ff" stroke="#63b8ff" points="346.47,-86.33 346.65,-75.74 339.9,-83.91 346.47,-86.33"/>
</g>
<!-- Node9&#45;&gt;Node8 -->
<g id="edge16" class="edge">
<title>Node9&#45;&gt;Node8</title>
<path fill="none" stroke="#63b8ff" d="M351.83,-164.75C388.86,-155.83 446.52,-141.94 487.35,-132.1"/>
<polygon fill="#63b8ff" stroke="#63b8ff" points="488.01,-135.54 496.91,-129.8 486.37,-128.74 488.01,-135.54"/>
</g>
<!-- Node10 -->
<g id="node10" class="node">
<title>Node10</title>
<g id="a_node10"><a xlink:title=" ">
<polygon fill="#e0e0e0" stroke="#999999" points="391,-129 344,-129 344,-110 391,-110 391,-129"/>
<text text-anchor="middle" x="367.5" y="-117" font-family="Helvetica,sans-Serif" font-size="10.00">QHash</text>
</a>
</g>
</g>
<!-- Node9&#45;&gt;Node10 -->
<g id="edge13" class="edge">
<title>Node9&#45;&gt;Node10</title>
<path fill="none" stroke="#63b8ff" d="M324.09,-164.75C331.34,-157.35 341.95,-146.54 350.87,-137.45"/>
<polygon fill="#63b8ff" stroke="#63b8ff" points="353.16,-140.11 357.67,-130.52 348.16,-135.21 353.16,-140.11"/>
</g>
<!-- Node11 -->
<g id="node11" class="node">
<title>Node11</title>
<g id="a_node11"><a xlink:title=" ">
<polygon fill="#e0e0e0" stroke="#999999" points="476,-129 409,-129 409,-110 476,-110 476,-129"/>
<text text-anchor="middle" x="442.5" y="-117" font-family="Helvetica,sans-Serif" font-size="10.00">QSerialPort</text>
</a>
</g>
</g>
<!-- Node9&#45;&gt;Node11 -->
<g id="edge15" class="edge">
<title>Node9&#45;&gt;Node11</title>
<path fill="none" stroke="#63b8ff" d="M337.04,-164.51C357.24,-156.08 387.67,-143.38 410.66,-133.79"/>
<polygon fill="#63b8ff" stroke="#63b8ff" points="412,-137.02 419.88,-129.94 409.3,-130.56 412,-137.02"/>
</g>
<!-- Node12&#45;&gt;Node7 -->
<g id="edge20" class="edge">
<title>Node12&#45;&gt;Node7</title>
<path fill="none" stroke="#63b8ff" d="M498.87,-54.51C473.3,-45.88 434.45,-32.76 405.81,-23.1"/>
<polygon fill="#63b8ff" stroke="#63b8ff" points="407.03,-19.81 396.44,-19.93 404.79,-26.45 407.03,-19.81"/>
</g>
</g>
</svg>
        <g id="navigator" transform="translate(0 0)" fill="#404254">
                <rect fill="#f2f5e9" fill-opacity="0.5" stroke="#606060" stroke-width=".5" x="0" y="0" width="60" height="60"/>
                <use id="zoomplus" xlink:href="#zoomPlus" x="17" y="9" onmousedown="handleZoom(evt,'in')"/>
                <use id="zoomminus" xlink:href="#zoomMin" x="42" y="9" onmousedown="handleZoom(evt,'out')"/>
                <use id="reset" xlink:href="#resetDef" x="30" y="36" onmousedown="handleReset()"/>
                <g id="arrowUp" xlink:href="#dirArrow" transform="translate(30 24)" onmousedown="handlePan(0,-1)">
                  <use xlink:href="#rim" fill="#404040">
                        <set attributeName="fill" to="#808080" begin="arrowUp.mouseover" end="arrowUp.mouseout"/>
                  </use>
                  <path fill="none" stroke="white" stroke-width="1.5" d="M0,-3.0v7 M-2.5,-0.5L0,-3.0L2.5,-0.5"/>
                </g>
                <g id="arrowRight" xlink:href="#dirArrow" transform="rotate(90) translate(36 -43)" onmousedown="handlePan(1,0)">
                  <use xlink:href="#rim" fill="#404040">
                        <set attributeName="fill" to="#808080" begin="arrowRight.mouseover" end="arrowRight.mouseout"/>
                  </use>
                  <path fill="none" stroke="white" stroke-width="1.5" d="M0,-3.0v7 M-2.5,-0.5L0,-3.0L2.5,-0.5"/>
                </g>
                <g id="arrowDown" xlink:href="#dirArrow" transform="rotate(180) translate(-30 -48)" onmousedown="handlePan(0,1)">
                  <use xlink:href="#rim" fill="#404040">
                        <set attributeName="fill" to="#808080" begin="arrowDown.mouseover" end="arrowDown.mouseout"/>
                  </use>
                  <path fill="none" stroke="white" stroke-width="1.5" d="M0,-3.0v7 M-2.5,-0.5L0,-3.0L2.5,-0.5"/>
                </g>
                <g id="arrowLeft" xlink:href="#dirArrow" transform="rotate(270) translate(-36 17)" onmousedown="handlePan(-1,0)">
                  <use xlink:href="#rim" fill="#404040">
                        <set attributeName="fill" to="#808080" begin="arrowLeft.mouseover" end="arrowLeft.mouseout"/>
                  </use>
                  <path fill="none" stroke="white" stroke-width="1.5" d="M0,-3.0v7 M-2.5,-0.5L0,-3.0L2.5,-0.5"/>
                </g>
        </g>
        <svg viewBox="0 0 15 15" width="100%" height="30px" preserveAspectRatio="xMaxYMin meet">
         <g id="arrow_out" transform="scale(0.3 0.3)">
          <a xlink:href="comm_master_8cpp__incl_org.svg" target="_base">
           <rect id="button" ry="5" rx="5" y="6" x="6" height="38" width="38"
                fill="#f2f5e9" fill-opacity="0.5" stroke="#606060" stroke-width="1.0"/>
           <path id="arrow"
             d="M 11.500037,31.436501 C 11.940474,20.09759 22.043105,11.32322 32.158766,21.979434 L 37.068811,17.246167 C 37.068811,17.246167 37.088388,32 37.088388,32 L 22.160133,31.978069 C 22.160133,31.978069 26.997745,27.140456 26.997745,27.140456 C 18.528582,18.264221 13.291696,25.230495 11.500037,31.436501 z"
             style="fill:#404040;"/>
          </a>
         </g>
        </svg>
</svg>
