<?xml version="1.0" encoding="UTF-8" standalone="no"?>
<!DOCTYPE svg PUBLIC "-//W3C//DTD SVG 1.1//EN"
 "http://www.w3.org/Graphics/SVG/1.1/DTD/svg11.dtd">
<!-- Generated by graphviz version 7.0.5 (20221223.1930)
 -->
<!-- Title: src/deviceCommunication/commDevice.h Pages: 1 -->
<svg width="289pt" height="148pt"
 viewBox="0.00 0.00 289.00 148.00" xmlns="http://www.w3.org/2000/svg" xmlns:xlink="http://www.w3.org/1999/xlink">
<g id="graph0" class="graph" transform="scale(1 1) rotate(0) translate(4 144)">
<title>src/deviceCommunication/commDevice.h</title>
<!-- Node1 -->
<g id="node1" class="node">
<title>Node1</title>
<g id="a_node1"><a xlink:title="comm::CommDevice declaration">
<polygon fill="#999999" stroke="#666666" points="144.5,-140 15.5,-140 15.5,-110 144.5,-110 144.5,-140"/>
<text text-anchor="start" x="23.5" y="-128" font-family="Helvetica,sans-Serif" font-size="10.00">src/deviceCommunication</text>
<text text-anchor="middle" x="80" y="-117" font-family="Helvetica,sans-Serif" font-size="10.00">/commDevice.h</text>
</a>
</g>
</g>
<!-- Node2 -->
<g id="node2" class="node">
<title>Node2</title>
<g id="a_node2"><a xlink:title=" ">
<polygon fill="#e0e0e0" stroke="#999999" points="52,-74 0,-74 0,-55 52,-55 52,-74"/>
<text text-anchor="middle" x="26" y="-62" font-family="Helvetica,sans-Serif" font-size="10.00">QDebug</text>
</a>
</g>
</g>
<!-- Node1&#45;&gt;Node2 -->
<g id="edge1" class="edge">
<title>Node1&#45;&gt;Node2</title>
<path fill="none" stroke="#63b8ff" d="M66.65,-109.54C59.13,-101.39 49.69,-91.16 41.8,-82.61"/>
<polygon fill="#63b8ff" stroke="#63b8ff" points="44.39,-80.26 35.03,-75.29 39.25,-85.01 44.39,-80.26"/>
</g>
<!-- Node3 -->
<g id="node3" class="node">
<title>Node3</title>
<g id="a_node3"><a xlink:title=" ">
<polygon fill="#e0e0e0" stroke="#999999" points="104.5,-19 51.5,-19 51.5,0 104.5,0 104.5,-19"/>
<text text-anchor="middle" x="78" y="-7" font-family="Helvetica,sans-Serif" font-size="10.00">QObject</text>
</a>
</g>
</g>
<!-- Node1&#45;&gt;Node3 -->
<g id="edge2" class="edge">
<title>Node1&#45;&gt;Node3</title>
<path fill="none" stroke="#63b8ff" d="M79.75,-109.63C79.39,-89.59 78.75,-53.17 78.35,-30.49"/>
<polygon fill="#63b8ff" stroke="#63b8ff" points="81.86,-30.68 78.18,-20.74 74.86,-30.8 81.86,-30.68"/>
</g>
<!-- Node4 -->
<g id="node4" class="node">
<title>Node4</title>
<g id="a_node4"><a xlink:href="parser_8h.html" target="_top" xlink:title="Parser declaration">
<polygon fill="white" stroke="#666666" points="199.5,-74 110.5,-74 110.5,-55 199.5,-55 199.5,-74"/>
<text text-anchor="middle" x="155" y="-62" font-family="Helvetica,sans-Serif" font-size="10.00">../parser/parser.h</text>
</a>
</g>
</g>
<!-- Node1&#45;&gt;Node4 -->
<g id="edge3" class="edge">
<title>Node1&#45;&gt;Node4</title>
<path fill="none" stroke="#63b8ff" d="M98.54,-109.54C109.65,-100.87 123.79,-89.85 135.13,-81"/>
<polygon fill="#63b8ff" stroke="#63b8ff" points="136.95,-84.02 142.68,-75.11 132.65,-78.5 136.95,-84.02"/>
</g>
<!-- Node4&#45;&gt;Node3 -->
<g id="edge5" class="edge">
<title>Node4&#45;&gt;Node3</title>
<path fill="none" stroke="#63b8ff" d="M141.94,-54.51C130.48,-46.62 113.57,-34.98 100.02,-25.65"/>
<polygon fill="#63b8ff" stroke="#63b8ff" points="102.34,-23 92.12,-20.22 98.37,-28.77 102.34,-23"/>
</g>
<!-- Node5 -->
<g id="node5" class="node">
<title>Node5</title>
<g id="a_node5"><a xlink:title=" ">
<polygon fill="#e0e0e0" stroke="#999999" points="189,-19 123,-19 123,0 189,0 189,-19"/>
<text text-anchor="middle" x="156" y="-7" font-family="Helvetica,sans-Serif" font-size="10.00">QByteArray</text>
</a>
</g>
</g>
<!-- Node4&#45;&gt;Node5 -->
<g id="edge4" class="edge">
<title>Node4&#45;&gt;Node5</title>
<path fill="none" stroke="#63b8ff" d="M155.17,-54.75C155.29,-48.27 155.46,-39.16 155.62,-30.9"/>
<polygon fill="#63b8ff" stroke="#63b8ff" points="159.11,-31.02 155.8,-20.96 152.11,-30.89 159.11,-31.02"/>
</g>
<!-- Node6 -->
<g id="node6" class="node">
<title>Node6</title>
<g id="a_node6"><a xlink:title=" ">
<polygon fill="#e0e0e0" stroke="#999999" points="281,-19 207,-19 207,0 281,0 281,-19"/>
<text text-anchor="middle" x="244" y="-7" font-family="Helvetica,sans-Serif" font-size="10.00">QTextStream</text>
</a>
</g>
</g>
<!-- Node4&#45;&gt;Node6 -->
<g id="edge6" class="edge">
<title>Node4&#45;&gt;Node6</title>
<path fill="none" stroke="#63b8ff" d="M170.1,-54.51C183.6,-46.47 203.65,-34.53 219.46,-25.11"/>
<polygon fill="#63b8ff" stroke="#63b8ff" points="221.02,-28.26 227.82,-20.13 217.44,-22.24 221.02,-28.26"/>
</g>
</g>
</svg>
