<?xml version="1.0" encoding="UTF-8" standalone="no"?>
<!DOCTYPE svg PUBLIC "-//W3C//DTD SVG 1.1//EN"
 "http://www.w3.org/Graphics/SVG/1.1/DTD/svg11.dtd">
<!-- Generated by graphviz version 7.0.5 (20221223.1930)
 -->
<!-- Title: src/deviceCommunication/commMaster.h Pages: 1 -->
<svg width="264pt" height="203pt"
 viewBox="0.00 0.00 264.00 203.00" xmlns="http://www.w3.org/2000/svg" xmlns:xlink="http://www.w3.org/1999/xlink">
<g id="graph0" class="graph" transform="scale(1 1) rotate(0) translate(4 199)">
<title>src/deviceCommunication/commMaster.h</title>
<!-- Node1 -->
<g id="node1" class="node">
<title>Node1</title>
<g id="a_node1"><a xlink:title="comm::CommMaster declaration">
<polygon fill="#999999" stroke="#666666" points="129,-195 0,-195 0,-165 129,-165 129,-195"/>
<text text-anchor="start" x="8" y="-183" font-family="Helvetica,sans-Serif" font-size="10.00">src/deviceCommunication</text>
<text text-anchor="middle" x="64.5" y="-172" font-family="Helvetica,sans-Serif" font-size="10.00">/commMaster.h</text>
</a>
</g>
</g>
<!-- Node2 -->
<g id="node2" class="node">
<title>Node2</title>
<g id="a_node2"><a xlink:title=" ">
<polygon fill="#e0e0e0" stroke="#999999" points="95,-19 42,-19 42,0 95,0 95,-19"/>
<text text-anchor="middle" x="68.5" y="-7" font-family="Helvetica,sans-Serif" font-size="10.00">QObject</text>
</a>
</g>
</g>
<!-- Node1&#45;&gt;Node2 -->
<g id="edge1" class="edge">
<title>Node1&#45;&gt;Node2</title>
<path fill="none" stroke="#63b8ff" d="M63.04,-164.58C62.1,-154.6 60.98,-141.01 60.5,-129 59.12,-94.41 62.99,-54.21 65.82,-30.65"/>
<polygon fill="#63b8ff" stroke="#63b8ff" points="69.27,-31.27 67.05,-20.91 62.32,-30.39 69.27,-31.27"/>
</g>
<!-- Node3 -->
<g id="node3" class="node">
<title>Node3</title>
<g id="a_node3"><a xlink:href="comm_device_8h.html" target="_top" xlink:title="comm::CommDevice declaration">
<polygon fill="white" stroke="#666666" points="151,-129 70,-129 70,-110 151,-110 151,-129"/>
<text text-anchor="middle" x="110.5" y="-117" font-family="Helvetica,sans-Serif" font-size="10.00">commDevice.h</text>
</a>
</g>
</g>
<!-- Node1&#45;&gt;Node3 -->
<g id="edge2" class="edge">
<title>Node1&#45;&gt;Node3</title>
<path fill="none" stroke="#63b8ff" d="M75.87,-164.54C82.14,-156.56 89.98,-146.59 96.61,-138.16"/>
<polygon fill="#63b8ff" stroke="#63b8ff" points="99.31,-140.39 102.74,-130.36 93.81,-136.06 99.31,-140.39"/>
</g>
<!-- Node3&#45;&gt;Node2 -->
<g id="edge4" class="edge">
<title>Node3&#45;&gt;Node2</title>
<path fill="none" stroke="#63b8ff" d="M105.23,-109.53C100.2,-100.71 92.65,-86.74 87.5,-74 81.75,-59.76 76.83,-43.1 73.44,-30.42"/>
<polygon fill="#63b8ff" stroke="#63b8ff" points="76.83,-29.58 70.96,-20.77 70.05,-31.33 76.83,-29.58"/>
</g>
<!-- Node4 -->
<g id="node4" class="node">
<title>Node4</title>
<g id="a_node4"><a xlink:title=" ">
<polygon fill="#e0e0e0" stroke="#999999" points="148.5,-74 96.5,-74 96.5,-55 148.5,-55 148.5,-74"/>
<text text-anchor="middle" x="122.5" y="-62" font-family="Helvetica,sans-Serif" font-size="10.00">QDebug</text>
</a>
</g>
</g>
<!-- Node3&#45;&gt;Node4 -->
<g id="edge3" class="edge">
<title>Node3&#45;&gt;Node4</title>
<path fill="none" stroke="#63b8ff" d="M112.48,-109.75C113.97,-103.19 116.06,-93.95 117.95,-85.6"/>
<polygon fill="#63b8ff" stroke="#63b8ff" points="121.35,-86.44 120.14,-75.92 114.52,-84.9 121.35,-86.44"/>
</g>
<!-- Node5 -->
<g id="node5" class="node">
<title>Node5</title>
<g id="a_node5"><a xlink:href="parser_8h.html" target="_top" xlink:title="Parser declaration">
<polygon fill="white" stroke="#666666" points="256,-74 167,-74 167,-55 256,-55 256,-74"/>
<text text-anchor="middle" x="211.5" y="-62" font-family="Helvetica,sans-Serif" font-size="10.00">../parser/parser.h</text>
</a>
</g>
</g>
<!-- Node3&#45;&gt;Node5 -->
<g id="edge5" class="edge">
<title>Node3&#45;&gt;Node5</title>
<path fill="none" stroke="#63b8ff" d="M127.63,-109.51C143.25,-101.31 166.58,-89.07 184.67,-79.58"/>
<polygon fill="#63b8ff" stroke="#63b8ff" points="186.05,-82.81 193.28,-75.06 182.8,-76.61 186.05,-82.81"/>
</g>
<!-- Node5&#45;&gt;Node2 -->
<g id="edge7" class="edge">
<title>Node5&#45;&gt;Node2</title>
<path fill="none" stroke="#63b8ff" d="M187.24,-54.51C164.09,-45.93 128.99,-32.92 102.94,-23.27"/>
<polygon fill="#63b8ff" stroke="#63b8ff" points="104.41,-20.08 93.82,-19.88 101.98,-26.64 104.41,-20.08"/>
</g>
<!-- Node6 -->
<g id="node6" class="node">
<title>Node6</title>
<g id="a_node6"><a xlink:title=" ">
<polygon fill="#e0e0e0" stroke="#999999" points="244.5,-19 178.5,-19 178.5,0 244.5,0 244.5,-19"/>
<text text-anchor="middle" x="211.5" y="-7" font-family="Helvetica,sans-Serif" font-size="10.00">QByteArray</text>
</a>
</g>
</g>
<!-- Node5&#45;&gt;Node6 -->
<g id="edge6" class="edge">
<title>Node5&#45;&gt;Node6</title>
<path fill="none" stroke="#63b8ff" d="M211.5,-54.75C211.5,-48.27 211.5,-39.16 211.5,-30.9"/>
<polygon fill="#63b8ff" stroke="#63b8ff" points="215,-30.96 211.5,-20.96 208,-30.96 215,-30.96"/>
</g>
</g>
</svg>
