<?xml version="1.0" encoding="UTF-8" standalone="no"?>
<!DOCTYPE svg PUBLIC "-//W3C//DTD SVG 1.1//EN"
 "http://www.w3.org/Graphics/SVG/1.1/DTD/svg11.dtd">
<!-- Generated by graphviz version 7.0.5 (20221223.1930)
 -->
<!-- Title: src/gui/connectionWidget.h Pages: 1 -->
<svg width="373pt" height="258pt"
 viewBox="0.00 0.00 373.00 258.00" xmlns="http://www.w3.org/2000/svg" xmlns:xlink="http://www.w3.org/1999/xlink">
<g id="graph0" class="graph" transform="scale(1 1) rotate(0) translate(4 254)">
<title>src/gui/connectionWidget.h</title>
<!-- Node1 -->
<g id="node1" class="node">
<title>Node1</title>
<g id="a_node1"><a xlink:title="ConnectionWidget declaration">
<polygon fill="#999999" stroke="#666666" points="146,-250 12,-250 12,-231 146,-231 146,-250"/>
<text text-anchor="middle" x="79" y="-238" font-family="Helvetica,sans-Serif" font-size="10.00">src/gui/connectionWidget.h</text>
</a>
</g>
</g>
<!-- Node2 -->
<g id="node2" class="node">
<title>Node2</title>
<g id="a_node2"><a xlink:title=" ">
<polygon fill="#e0e0e0" stroke="#999999" points="54,-189.5 0,-189.5 0,-170.5 54,-170.5 54,-189.5"/>
<text text-anchor="middle" x="27" y="-177.5" font-family="Helvetica,sans-Serif" font-size="10.00">QWidget</text>
</a>
</g>
</g>
<!-- Node1&#45;&gt;Node2 -->
<g id="edge1" class="edge">
<title>Node1&#45;&gt;Node2</title>
<path fill="none" stroke="#63b8ff" d="M71.33,-230.87C63.72,-222.31 51.86,-208.97 42.32,-198.24"/>
<polygon fill="#63b8ff" stroke="#63b8ff" points="44.97,-195.95 35.71,-190.8 39.74,-200.6 44.97,-195.95"/>
</g>
<!-- Node3 -->
<g id="node3" class="node">
<title>Node3</title>
<g id="a_node3"><a xlink:href="comm_master_8h.html" target="_top" xlink:title="comm::CommMaster declaration">
<polygon fill="white" stroke="#666666" points="192,-195 72,-195 72,-165 192,-165 192,-195"/>
<text text-anchor="start" x="80" y="-183" font-family="Helvetica,sans-Serif" font-size="10.00">../deviceCommunication</text>
<text text-anchor="middle" x="132" y="-172" font-family="Helvetica,sans-Serif" font-size="10.00">/commMaster.h</text>
</a>
</g>
</g>
<!-- Node1&#45;&gt;Node3 -->
<g id="edge2" class="edge">
<title>Node1&#45;&gt;Node3</title>
<path fill="none" stroke="#63b8ff" d="M86.82,-230.87C93.35,-223.67 102.95,-213.07 111.62,-203.49"/>
<polygon fill="#63b8ff" stroke="#63b8ff" points="114.08,-206 118.2,-196.24 108.89,-201.3 114.08,-206"/>
</g>
<!-- Node4 -->
<g id="node4" class="node">
<title>Node4</title>
<g id="a_node4"><a xlink:title=" ">
<polygon fill="#e0e0e0" stroke="#999999" points="156.5,-19 103.5,-19 103.5,0 156.5,0 156.5,-19"/>
<text text-anchor="middle" x="130" y="-7" font-family="Helvetica,sans-Serif" font-size="10.00">QObject</text>
</a>
</g>
</g>
<!-- Node3&#45;&gt;Node4 -->
<g id="edge3" class="edge">
<title>Node3&#45;&gt;Node4</title>
<path fill="none" stroke="#63b8ff" d="M128.35,-164.67C126.02,-154.74 123.2,-141.16 122,-129 118.59,-94.55 123.09,-54.31 126.6,-30.7"/>
<polygon fill="#63b8ff" stroke="#63b8ff" points="130.04,-31.35 128.15,-20.93 123.12,-30.26 130.04,-31.35"/>
</g>
<!-- Node5 -->
<g id="node5" class="node">
<title>Node5</title>
<g id="a_node5"><a xlink:href="comm_device_8h.html" target="_top" xlink:title="comm::CommDevice declaration">
<polygon fill="white" stroke="#666666" points="212.5,-129 131.5,-129 131.5,-110 212.5,-110 212.5,-129"/>
<text text-anchor="middle" x="172" y="-117" font-family="Helvetica,sans-Serif" font-size="10.00">commDevice.h</text>
</a>
</g>
</g>
<!-- Node3&#45;&gt;Node5 -->
<g id="edge4" class="edge">
<title>Node3&#45;&gt;Node5</title>
<path fill="none" stroke="#63b8ff" d="M141.89,-164.54C147.28,-156.65 154.01,-146.81 159.74,-138.44"/>
<polygon fill="#63b8ff" stroke="#63b8ff" points="162.46,-140.65 165.21,-130.42 156.68,-136.7 162.46,-140.65"/>
</g>
<!-- Node5&#45;&gt;Node4 -->
<g id="edge6" class="edge">
<title>Node5&#45;&gt;Node4</title>
<path fill="none" stroke="#63b8ff" d="M166.73,-109.53C161.7,-100.71 154.15,-86.74 149,-74 143.25,-59.76 138.33,-43.1 134.94,-30.42"/>
<polygon fill="#63b8ff" stroke="#63b8ff" points="138.33,-29.58 132.46,-20.77 131.55,-31.33 138.33,-29.58"/>
</g>
<!-- Node6 -->
<g id="node6" class="node">
<title>Node6</title>
<g id="a_node6"><a xlink:title=" ">
<polygon fill="#e0e0e0" stroke="#999999" points="210,-74 158,-74 158,-55 210,-55 210,-74"/>
<text text-anchor="middle" x="184" y="-62" font-family="Helvetica,sans-Serif" font-size="10.00">QDebug</text>
</a>
</g>
</g>
<!-- Node5&#45;&gt;Node6 -->
<g id="edge5" class="edge">
<title>Node5&#45;&gt;Node6</title>
<path fill="none" stroke="#63b8ff" d="M173.98,-109.75C175.47,-103.19 177.56,-93.95 179.45,-85.6"/>
<polygon fill="#63b8ff" stroke="#63b8ff" points="182.85,-86.44 181.64,-75.92 176.02,-84.9 182.85,-86.44"/>
</g>
<!-- Node7 -->
<g id="node7" class="node">
<title>Node7</title>
<g id="a_node7"><a xlink:href="parser_8h.html" target="_top" xlink:title="Parser declaration">
<polygon fill="white" stroke="#666666" points="317.5,-74 228.5,-74 228.5,-55 317.5,-55 317.5,-74"/>
<text text-anchor="middle" x="273" y="-62" font-family="Helvetica,sans-Serif" font-size="10.00">../parser/parser.h</text>
</a>
</g>
</g>
<!-- Node5&#45;&gt;Node7 -->
<g id="edge7" class="edge">
<title>Node5&#45;&gt;Node7</title>
<path fill="none" stroke="#63b8ff" d="M189.13,-109.51C204.75,-101.31 228.08,-89.07 246.17,-79.58"/>
<polygon fill="#63b8ff" stroke="#63b8ff" points="247.55,-82.81 254.78,-75.06 244.3,-76.61 247.55,-82.81"/>
</g>
<!-- Node7&#45;&gt;Node4 -->
<g id="edge9" class="edge">
<title>Node7&#45;&gt;Node4</title>
<path fill="none" stroke="#63b8ff" d="M248.74,-54.51C225.59,-45.93 190.49,-32.92 164.44,-23.27"/>
<polygon fill="#63b8ff" stroke="#63b8ff" points="165.91,-20.08 155.32,-19.88 163.48,-26.64 165.91,-20.08"/>
</g>
<!-- Node8 -->
<g id="node8" class="node">
<title>Node8</title>
<g id="a_node8"><a xlink:title=" ">
<polygon fill="#e0e0e0" stroke="#999999" points="273,-19 207,-19 207,0 273,0 273,-19"/>
<text text-anchor="middle" x="240" y="-7" font-family="Helvetica,sans-Serif" font-size="10.00">QByteArray</text>
</a>
</g>
</g>
<!-- Node7&#45;&gt;Node8 -->
<g id="edge8" class="edge">
<title>Node7&#45;&gt;Node8</title>
<path fill="none" stroke="#63b8ff" d="M267.55,-54.75C263.23,-47.81 257.04,-37.86 251.62,-29.16"/>
<polygon fill="#63b8ff" stroke="#63b8ff" points="254.62,-27.37 246.37,-20.73 248.68,-31.07 254.62,-27.37"/>
</g>
<!-- Node9 -->
<g id="node9" class="node">
<title>Node9</title>
<g id="a_node9"><a xlink:title=" ">
<polygon fill="#e0e0e0" stroke="#999999" points="365,-19 291,-19 291,0 365,0 365,-19"/>
<text text-anchor="middle" x="328" y="-7" font-family="Helvetica,sans-Serif" font-size="10.00">QTextStream</text>
</a>
</g>
</g>
<!-- Node7&#45;&gt;Node9 -->
<g id="edge10" class="edge">
<title>Node7&#45;&gt;Node9</title>
<path fill="none" stroke="#63b8ff" d="M282.08,-54.75C289.84,-47.27 301.21,-36.32 310.7,-27.17"/>
<polygon fill="#63b8ff" stroke="#63b8ff" points="312.86,-29.95 317.63,-20.49 308,-24.91 312.86,-29.95"/>
</g>
</g>
</svg>
