<?xml version="1.0" encoding="UTF-8" standalone="no"?>
<!DOCTYPE svg PUBLIC "-//W3C//DTD SVG 1.1//EN"
 "http://www.w3.org/Graphics/SVG/1.1/DTD/svg11.dtd">
<!-- Generated by graphviz version 7.0.5 (20221223.1930)
 -->
<!-- Title: src/gui/connectionWidget.h Pages: 1 -->
<svg width="389pt" height="192pt"
 viewBox="0.00 0.00 389.00 192.00" xmlns="http://www.w3.org/2000/svg" xmlns:xlink="http://www.w3.org/1999/xlink">
<g id="graph0" class="graph" transform="scale(1 1) rotate(0) translate(4 188)">
<title>src/gui/connectionWidget.h</title>
<!-- Node1 -->
<g id="node1" class="node">
<title>Node1</title>
<g id="a_node1"><a xlink:title="ConnectionWidget declaration">
<polygon fill="#999999" stroke="#666666" points="213,-184 79,-184 79,-165 213,-165 213,-184"/>
<text text-anchor="middle" x="146" y="-172" font-family="Helvetica,sans-Serif" font-size="10.00">src/gui/connectionWidget.h</text>
</a>
</g>
</g>
<!-- Node2 -->
<g id="node2" class="node">
<title>Node2</title>
<g id="a_node2"><a xlink:href="connection_widget_8cpp.html" target="_top" xlink:title="ConnectionWidget implementation">
<polygon fill="white" stroke="#666666" points="144,-129 0,-129 0,-110 144,-110 144,-129"/>
<text text-anchor="middle" x="72" y="-117" font-family="Helvetica,sans-Serif" font-size="10.00">src/gui/connectionWidget.cpp</text>
</a>
</g>
</g>
<!-- Node1&#45;&gt;Node2 -->
<g id="edge1" class="edge">
<title>Node1&#45;&gt;Node2</title>
<path fill="none" stroke="#63b8ff" d="M124.24,-157.92C111.25,-148.61 95.22,-137.13 84.37,-129.36"/>
<polygon fill="#63b8ff" stroke="#63b8ff" points="122.05,-160.65 132.22,-163.63 126.12,-154.96 122.05,-160.65"/>
</g>
<!-- Node3 -->
<g id="node3" class="node">
<title>Node3</title>
<g id="a_node3"><a xlink:href="dialogconnect_8h.html" target="_top" xlink:title="DialogConnect declaration">
<polygon fill="white" stroke="#666666" points="278,-129 162,-129 162,-110 278,-110 278,-129"/>
<text text-anchor="middle" x="220" y="-117" font-family="Helvetica,sans-Serif" font-size="10.00">src/gui/dialogconnect.h</text>
</a>
</g>
</g>
<!-- Node1&#45;&gt;Node3 -->
<g id="edge2" class="edge">
<title>Node1&#45;&gt;Node3</title>
<path fill="none" stroke="#63b8ff" d="M167.76,-157.92C180.75,-148.61 196.78,-137.13 207.63,-129.36"/>
<polygon fill="#63b8ff" stroke="#63b8ff" points="165.88,-154.96 159.78,-163.63 169.95,-160.65 165.88,-154.96"/>
</g>
<!-- Node4 -->
<g id="node4" class="node">
<title>Node4</title>
<g id="a_node4"><a xlink:href="dialogconnect_8cpp.html" target="_top" xlink:title="DialogConnect implementation">
<polygon fill="white" stroke="#666666" points="214.5,-74 87.5,-74 87.5,-55 214.5,-55 214.5,-74"/>
<text text-anchor="middle" x="151" y="-62" font-family="Helvetica,sans-Serif" font-size="10.00">src/gui/dialogconnect.cpp</text>
</a>
</g>
</g>
<!-- Node3&#45;&gt;Node4 -->
<g id="edge3" class="edge">
<title>Node3&#45;&gt;Node4</title>
<path fill="none" stroke="#63b8ff" d="M199.35,-102.64C187.3,-93.39 172.55,-82.05 162.53,-74.36"/>
<polygon fill="#63b8ff" stroke="#63b8ff" points="197.03,-105.27 207.09,-108.59 201.3,-99.72 197.03,-105.27"/>
</g>
<!-- Node5 -->
<g id="node5" class="node">
<title>Node5</title>
<g id="a_node5"><a xlink:href="mainwindow_8h.html" target="_top" xlink:title="MainWindow declaration">
<polygon fill="white" stroke="#666666" points="343,-74 233,-74 233,-55 343,-55 343,-74"/>
<text text-anchor="middle" x="288" y="-62" font-family="Helvetica,sans-Serif" font-size="10.00">src/gui/mainwindow.h</text>
</a>
</g>
</g>
<!-- Node3&#45;&gt;Node5 -->
<g id="edge4" class="edge">
<title>Node3&#45;&gt;Node5</title>
<path fill="none" stroke="#63b8ff" d="M240.35,-102.64C252.22,-93.39 266.76,-82.05 276.64,-74.36"/>
<polygon fill="#63b8ff" stroke="#63b8ff" points="238.46,-99.67 232.73,-108.58 242.77,-105.19 238.46,-99.67"/>
</g>
<!-- Node6 -->
<g id="node6" class="node">
<title>Node6</title>
<g id="a_node6"><a xlink:href="mainwindow_8cpp.html" target="_top" xlink:title="MainWindow implementation">
<polygon fill="white" stroke="#666666" points="290.5,-19 169.5,-19 169.5,0 290.5,0 290.5,-19"/>
<text text-anchor="middle" x="230" y="-7" font-family="Helvetica,sans-Serif" font-size="10.00">src/gui/mainwindow.cpp</text>
</a>
</g>
</g>
<!-- Node5&#45;&gt;Node6 -->
<g id="edge5" class="edge">
<title>Node5&#45;&gt;Node6</title>
<path fill="none" stroke="#63b8ff" d="M269.74,-46.81C259.78,-37.72 247.86,-26.82 239.69,-19.36"/>
<polygon fill="#63b8ff" stroke="#63b8ff" points="267.3,-49.33 277.04,-53.49 272.02,-44.16 267.3,-49.33"/>
</g>
<!-- Node7 -->
<g id="node7" class="node">
<title>Node7</title>
<g id="a_node7"><a xlink:href="main_8cpp.html" target="_top" xlink:title="Main file of project linescaleGUI.">
<polygon fill="white" stroke="#666666" points="381,-19 309,-19 309,0 381,0 381,-19"/>
<text text-anchor="middle" x="345" y="-7" font-family="Helvetica,sans-Serif" font-size="10.00">src/main.cpp</text>
</a>
</g>
</g>
<!-- Node5&#45;&gt;Node7 -->
<g id="edge6" class="edge">
<title>Node5&#45;&gt;Node7</title>
<path fill="none" stroke="#63b8ff" d="M305.95,-46.81C315.73,-37.72 327.44,-26.82 335.47,-19.36"/>
<polygon fill="#63b8ff" stroke="#63b8ff" points="303.72,-44.11 298.78,-53.48 308.48,-49.23 303.72,-44.11"/>
</g>
</g>
</svg>
