<?xml version="1.0" encoding="UTF-8" standalone="no"?>
<!DOCTYPE svg PUBLIC "-//W3C//DTD SVG 1.1//EN"
 "http://www.w3.org/Graphics/SVG/1.1/DTD/svg11.dtd">
<!-- Generated by graphviz version 7.0.4 (20221203.1631)
 -->
<!-- Title: src/gui/dialogabout.h Pages: 1 -->
<svg width="290pt" height="137pt"
 viewBox="0.00 0.00 290.00 137.00" xmlns="http://www.w3.org/2000/svg" xmlns:xlink="http://www.w3.org/1999/xlink">
<g id="graph0" class="graph" transform="scale(1 1) rotate(0) translate(4 133)">
<title>src/gui/dialogabout.h</title>
<!-- Node1 -->
<g id="node1" class="node">
<title>Node1</title>
<g id="a_node1"><a xlink:title="DialogAbout declaration">
<polygon fill="#999999" stroke="#666666" points="176,-129 70,-129 70,-110 176,-110 176,-129"/>
<text text-anchor="middle" x="123" y="-117" font-family="Helvetica,sans-Serif" font-size="10.00">src/gui/dialogabout.h</text>
</a>
</g>
</g>
<!-- Node2 -->
<g id="node2" class="node">
<title>Node2</title>
<g id="a_node2"><a xlink:href="dialogabout_8cpp.html" target="_top" xlink:title="DialogAbout implementation">
<polygon fill="white" stroke="#666666" points="116,-74 0,-74 0,-55 116,-55 116,-74"/>
<text text-anchor="middle" x="58" y="-62" font-family="Helvetica,sans-Serif" font-size="10.00">src/gui/dialogabout.cpp</text>
</a>
</g>
</g>
<!-- Node1&#45;&gt;Node2 -->
<g id="edge1" class="edge">
<title>Node1&#45;&gt;Node2</title>
<path fill="none" stroke="#63b8ff" d="M103.21,-102.37C91.92,-93.16 78.21,-81.98 68.86,-74.36"/>
<polygon fill="#63b8ff" stroke="#63b8ff" points="100.84,-104.95 110.8,-108.55 105.26,-99.52 100.84,-104.95"/>
</g>
<!-- Node3 -->
<g id="node3" class="node">
<title>Node3</title>
<g id="a_node3"><a xlink:href="mainwindow_8h.html" target="_top" xlink:title="MainWindow declaration">
<polygon fill="white" stroke="#666666" points="244,-74 134,-74 134,-55 244,-55 244,-74"/>
<text text-anchor="middle" x="189" y="-62" font-family="Helvetica,sans-Serif" font-size="10.00">src/gui/mainwindow.h</text>
</a>
</g>
</g>
<!-- Node1&#45;&gt;Node3 -->
<g id="edge2" class="edge">
<title>Node1&#45;&gt;Node3</title>
<path fill="none" stroke="#63b8ff" d="M143.09,-102.37C154.55,-93.16 168.48,-81.98 177.97,-74.36"/>
<polygon fill="#63b8ff" stroke="#63b8ff" points="140.98,-99.57 135.38,-108.56 145.36,-105.03 140.98,-99.57"/>
</g>
<!-- Node4 -->
<g id="node4" class="node">
<title>Node4</title>
<g id="a_node4"><a xlink:href="mainwindow_8cpp.html" target="_top" xlink:title="MainWindow implementation">
<polygon fill="white" stroke="#666666" points="191.5,-19 70.5,-19 70.5,0 191.5,0 191.5,-19"/>
<text text-anchor="middle" x="131" y="-7" font-family="Helvetica,sans-Serif" font-size="10.00">src/gui/mainwindow.cpp</text>
</a>
</g>
</g>
<!-- Node3&#45;&gt;Node4 -->
<g id="edge3" class="edge">
<title>Node3&#45;&gt;Node4</title>
<path fill="none" stroke="#63b8ff" d="M170.74,-46.81C160.78,-37.72 148.86,-26.82 140.69,-19.36"/>
<polygon fill="#63b8ff" stroke="#63b8ff" points="168.3,-49.33 178.04,-53.49 173.02,-44.16 168.3,-49.33"/>
</g>
<!-- Node5 -->
<g id="node5" class="node">
<title>Node5</title>
<g id="a_node5"><a xlink:href="main_8cpp.html" target="_top" xlink:title="Main file of project linescaleGUI.">
<polygon fill="white" stroke="#666666" points="282,-19 210,-19 210,0 282,0 282,-19"/>
<text text-anchor="middle" x="246" y="-7" font-family="Helvetica,sans-Serif" font-size="10.00">src/main.cpp</text>
</a>
</g>
</g>
<!-- Node3&#45;&gt;Node5 -->
<g id="edge4" class="edge">
<title>Node3&#45;&gt;Node5</title>
<path fill="none" stroke="#63b8ff" d="M206.95,-46.81C216.73,-37.72 228.44,-26.82 236.47,-19.36"/>
<polygon fill="#63b8ff" stroke="#63b8ff" points="204.72,-44.11 199.78,-53.48 209.48,-49.23 204.72,-44.11"/>
</g>
</g>
</svg>
