<?xml version="1.0" encoding="UTF-8" standalone="no"?>
<!DOCTYPE svg PUBLIC "-//W3C//DTD SVG 1.1//EN"
 "http://www.w3.org/Graphics/SVG/1.1/DTD/svg11.dtd">
<!-- Generated by graphviz version 7.0.5 (20221223.1930)
 -->
<!-- Title: src/gui/dialogconnect.h Pages: 1 -->
<svg width="327pt" height="313pt"
 viewBox="0.00 0.00 326.50 313.00" xmlns="http://www.w3.org/2000/svg" xmlns:xlink="http://www.w3.org/1999/xlink">
<g id="graph0" class="graph" transform="scale(1 1) rotate(0) translate(4 309)">
<title>src/gui/dialogconnect.h</title>
<!-- Node1 -->
<g id="node1" class="node">
<title>Node1</title>
<g id="a_node1"><a xlink:title="DialogConnect declaration">
<polygon fill="#999999" stroke="#666666" points="137.5,-305 21.5,-305 21.5,-286 137.5,-286 137.5,-305"/>
<text text-anchor="middle" x="79.5" y="-293" font-family="Helvetica,sans-Serif" font-size="10.00">src/gui/dialogconnect.h</text>
</a>
</g>
</g>
<!-- Node2 -->
<g id="node2" class="node">
<title>Node2</title>
<g id="a_node2"><a xlink:title=" ">
<polygon fill="#e0e0e0" stroke="#999999" points="51,-250 0,-250 0,-231 51,-231 51,-250"/>
<text text-anchor="middle" x="25.5" y="-238" font-family="Helvetica,sans-Serif" font-size="10.00">QDialog</text>
</a>
</g>
</g>
<!-- Node1&#45;&gt;Node2 -->
<g id="edge1" class="edge">
<title>Node1&#45;&gt;Node2</title>
<path fill="none" stroke="#63b8ff" d="M70.58,-285.75C63.05,-278.35 52.03,-267.54 42.77,-258.45"/>
<polygon fill="#63b8ff" stroke="#63b8ff" points="45.28,-256.01 35.69,-251.5 40.38,-261 45.28,-256.01"/>
</g>
<!-- Node3 -->
<g id="node3" class="node">
<title>Node3</title>
<g id="a_node3"><a xlink:href="comm_master_8h.html" target="_top" xlink:title="comm::CommMaster declaration">
<polygon fill="white" stroke="#666666" points="139.5,-195 19.5,-195 19.5,-165 139.5,-165 139.5,-195"/>
<text text-anchor="start" x="27.5" y="-183" font-family="Helvetica,sans-Serif" font-size="10.00">../deviceCommunication</text>
<text text-anchor="middle" x="79.5" y="-172" font-family="Helvetica,sans-Serif" font-size="10.00">/commMaster.h</text>
</a>
</g>
</g>
<!-- Node1&#45;&gt;Node3 -->
<g id="edge2" class="edge">
<title>Node1&#45;&gt;Node3</title>
<path fill="none" stroke="#63b8ff" d="M79.5,-285.59C79.5,-268.8 79.5,-231.87 79.5,-206.71"/>
<polygon fill="#63b8ff" stroke="#63b8ff" points="83,-206.95 79.5,-196.95 76,-206.95 83,-206.95"/>
</g>
<!-- Node10 -->
<g id="node10" class="node">
<title>Node10</title>
<g id="a_node10"><a xlink:href="connection_widget_8h.html" target="_top" xlink:title="ConnectionWidget declaration">
<polygon fill="white" stroke="#666666" points="209,-250 108,-250 108,-231 209,-231 209,-250"/>
<text text-anchor="middle" x="158.5" y="-238" font-family="Helvetica,sans-Serif" font-size="10.00">connectionWidget.h</text>
</a>
</g>
</g>
<!-- Node1&#45;&gt;Node10 -->
<g id="edge11" class="edge">
<title>Node1&#45;&gt;Node10</title>
<path fill="none" stroke="#63b8ff" d="M92.9,-285.51C104.66,-277.62 122.01,-265.98 135.91,-256.65"/>
<polygon fill="#63b8ff" stroke="#63b8ff" points="137.69,-259.68 144.04,-251.2 133.79,-253.87 137.69,-259.68"/>
</g>
<!-- Node4 -->
<g id="node4" class="node">
<title>Node4</title>
<g id="a_node4"><a xlink:title=" ">
<polygon fill="#e0e0e0" stroke="#999999" points="110,-19 57,-19 57,0 110,0 110,-19"/>
<text text-anchor="middle" x="83.5" y="-7" font-family="Helvetica,sans-Serif" font-size="10.00">QObject</text>
</a>
</g>
</g>
<!-- Node3&#45;&gt;Node4 -->
<g id="edge3" class="edge">
<title>Node3&#45;&gt;Node4</title>
<path fill="none" stroke="#63b8ff" d="M78.4,-164.57C77.7,-154.59 76.86,-141 76.5,-129 75.46,-94.41 78.8,-54.22 81.22,-30.65"/>
<polygon fill="#63b8ff" stroke="#63b8ff" points="84.67,-31.23 82.27,-20.92 77.71,-30.48 84.67,-31.23"/>
</g>
<!-- Node5 -->
<g id="node5" class="node">
<title>Node5</title>
<g id="a_node5"><a xlink:href="comm_device_8h.html" target="_top" xlink:title="comm::CommDevice declaration">
<polygon fill="white" stroke="#666666" points="166,-129 85,-129 85,-110 166,-110 166,-129"/>
<text text-anchor="middle" x="125.5" y="-117" font-family="Helvetica,sans-Serif" font-size="10.00">commDevice.h</text>
</a>
</g>
</g>
<!-- Node3&#45;&gt;Node5 -->
<g id="edge4" class="edge">
<title>Node3&#45;&gt;Node5</title>
<path fill="none" stroke="#63b8ff" d="M90.87,-164.54C97.14,-156.56 104.98,-146.59 111.61,-138.16"/>
<polygon fill="#63b8ff" stroke="#63b8ff" points="114.31,-140.39 117.74,-130.36 108.81,-136.06 114.31,-140.39"/>
</g>
<!-- Node5&#45;&gt;Node4 -->
<g id="edge6" class="edge">
<title>Node5&#45;&gt;Node4</title>
<path fill="none" stroke="#63b8ff" d="M120.23,-109.53C115.2,-100.71 107.65,-86.74 102.5,-74 96.75,-59.76 91.83,-43.1 88.44,-30.42"/>
<polygon fill="#63b8ff" stroke="#63b8ff" points="91.83,-29.58 85.96,-20.77 85.05,-31.33 91.83,-29.58"/>
</g>
<!-- Node6 -->
<g id="node6" class="node">
<title>Node6</title>
<g id="a_node6"><a xlink:title=" ">
<polygon fill="#e0e0e0" stroke="#999999" points="163.5,-74 111.5,-74 111.5,-55 163.5,-55 163.5,-74"/>
<text text-anchor="middle" x="137.5" y="-62" font-family="Helvetica,sans-Serif" font-size="10.00">QDebug</text>
</a>
</g>
</g>
<!-- Node5&#45;&gt;Node6 -->
<g id="edge5" class="edge">
<title>Node5&#45;&gt;Node6</title>
<path fill="none" stroke="#63b8ff" d="M127.48,-109.75C128.97,-103.19 131.06,-93.95 132.95,-85.6"/>
<polygon fill="#63b8ff" stroke="#63b8ff" points="136.35,-86.44 135.14,-75.92 129.52,-84.9 136.35,-86.44"/>
</g>
<!-- Node7 -->
<g id="node7" class="node">
<title>Node7</title>
<g id="a_node7"><a xlink:href="parser_8h.html" target="_top" xlink:title="Parser declaration">
<polygon fill="white" stroke="#666666" points="271,-74 182,-74 182,-55 271,-55 271,-74"/>
<text text-anchor="middle" x="226.5" y="-62" font-family="Helvetica,sans-Serif" font-size="10.00">../parser/parser.h</text>
</a>
</g>
</g>
<!-- Node5&#45;&gt;Node7 -->
<g id="edge7" class="edge">
<title>Node5&#45;&gt;Node7</title>
<path fill="none" stroke="#63b8ff" d="M142.63,-109.51C158.25,-101.31 181.58,-89.07 199.67,-79.58"/>
<polygon fill="#63b8ff" stroke="#63b8ff" points="201.05,-82.81 208.28,-75.06 197.8,-76.61 201.05,-82.81"/>
</g>
<!-- Node7&#45;&gt;Node4 -->
<g id="edge9" class="edge">
<title>Node7&#45;&gt;Node4</title>
<path fill="none" stroke="#63b8ff" d="M202.24,-54.51C179.09,-45.93 143.99,-32.92 117.94,-23.27"/>
<polygon fill="#63b8ff" stroke="#63b8ff" points="119.41,-20.08 108.82,-19.88 116.98,-26.64 119.41,-20.08"/>
</g>
<!-- Node8 -->
<g id="node8" class="node">
<title>Node8</title>
<g id="a_node8"><a xlink:title=" ">
<polygon fill="#e0e0e0" stroke="#999999" points="226.5,-19 160.5,-19 160.5,0 226.5,0 226.5,-19"/>
<text text-anchor="middle" x="193.5" y="-7" font-family="Helvetica,sans-Serif" font-size="10.00">QByteArray</text>
</a>
</g>
</g>
<!-- Node7&#45;&gt;Node8 -->
<g id="edge8" class="edge">
<title>Node7&#45;&gt;Node8</title>
<path fill="none" stroke="#63b8ff" d="M221.05,-54.75C216.73,-47.81 210.54,-37.86 205.12,-29.16"/>
<polygon fill="#63b8ff" stroke="#63b8ff" points="208.12,-27.37 199.87,-20.73 202.18,-31.07 208.12,-27.37"/>
</g>
<!-- Node9 -->
<g id="node9" class="node">
<title>Node9</title>
<g id="a_node9"><a xlink:title=" ">
<polygon fill="#e0e0e0" stroke="#999999" points="318.5,-19 244.5,-19 244.5,0 318.5,0 318.5,-19"/>
<text text-anchor="middle" x="281.5" y="-7" font-family="Helvetica,sans-Serif" font-size="10.00">QTextStream</text>
</a>
</g>
</g>
<!-- Node7&#45;&gt;Node9 -->
<g id="edge10" class="edge">
<title>Node7&#45;&gt;Node9</title>
<path fill="none" stroke="#63b8ff" d="M235.58,-54.75C243.34,-47.27 254.71,-36.32 264.2,-27.17"/>
<polygon fill="#63b8ff" stroke="#63b8ff" points="266.36,-29.95 271.13,-20.49 261.5,-24.91 266.36,-29.95"/>
</g>
<!-- Node10&#45;&gt;Node3 -->
<g id="edge13" class="edge">
<title>Node10&#45;&gt;Node3</title>
<path fill="none" stroke="#63b8ff" d="M146.5,-230.62C136.36,-223.1 121.41,-212.04 108.21,-202.26"/>
<polygon fill="#63b8ff" stroke="#63b8ff" points="110.34,-199.48 100.22,-196.34 106.17,-205.1 110.34,-199.48"/>
</g>
<!-- Node11 -->
<g id="node11" class="node">
<title>Node11</title>
<g id="a_node11"><a xlink:title=" ">
<polygon fill="#e0e0e0" stroke="#999999" points="211.5,-189.5 157.5,-189.5 157.5,-170.5 211.5,-170.5 211.5,-189.5"/>
<text text-anchor="middle" x="184.5" y="-177.5" font-family="Helvetica,sans-Serif" font-size="10.00">QWidget</text>
</a>
</g>
</g>
<!-- Node10&#45;&gt;Node11 -->
<g id="edge12" class="edge">
<title>Node10&#45;&gt;Node11</title>
<path fill="none" stroke="#63b8ff" d="M162.34,-230.87C165.95,-222.75 171.47,-210.31 176.11,-199.89"/>
<polygon fill="#63b8ff" stroke="#63b8ff" points="179.17,-201.61 180.03,-191.05 172.77,-198.77 179.17,-201.61"/>
</g>
</g>
</svg>
