<?xml version="1.0" encoding="UTF-8" standalone="no"?>
<!DOCTYPE svg PUBLIC "-//W3C//DTD SVG 1.1//EN"
 "http://www.w3.org/Graphics/SVG/1.1/DTD/svg11.dtd">
<!-- Generated by graphviz version 7.0.5 (20221223.1930)
 -->
<!-- Title: src/gui/dialogdebug.h Pages: 1 -->
<svg width="371pt" height="258pt"
 viewBox="0.00 0.00 370.50 258.00" xmlns="http://www.w3.org/2000/svg" xmlns:xlink="http://www.w3.org/1999/xlink">
<g id="graph0" class="graph" transform="scale(1 1) rotate(0) translate(4 254)">
<title>src/gui/dialogdebug.h</title>
<!-- Node1 -->
<g id="node1" class="node">
<title>Node1</title>
<g id="a_node1"><a xlink:title="DialogDebug declaration">
<polygon fill="#999999" stroke="#666666" points="131.5,-250 23.5,-250 23.5,-231 131.5,-231 131.5,-250"/>
<text text-anchor="middle" x="77.5" y="-238" font-family="Helvetica,sans-Serif" font-size="10.00">src/gui/dialogdebug.h</text>
</a>
</g>
</g>
<!-- Node2 -->
<g id="node2" class="node">
<title>Node2</title>
<g id="a_node2"><a xlink:title=" ">
<polygon fill="#e0e0e0" stroke="#999999" points="51,-189.5 0,-189.5 0,-170.5 51,-170.5 51,-189.5"/>
<text text-anchor="middle" x="25.5" y="-177.5" font-family="Helvetica,sans-Serif" font-size="10.00">QDialog</text>
</a>
</g>
</g>
<!-- Node1&#45;&gt;Node2 -->
<g id="edge1" class="edge">
<title>Node1&#45;&gt;Node2</title>
<path fill="none" stroke="#63b8ff" d="M69.83,-230.87C62.22,-222.31 50.36,-208.97 40.82,-198.24"/>
<polygon fill="#63b8ff" stroke="#63b8ff" points="43.47,-195.95 34.21,-190.8 38.24,-200.6 43.47,-195.95"/>
</g>
<!-- Node3 -->
<g id="node3" class="node">
<title>Node3</title>
<g id="a_node3"><a xlink:href="comm_master_8h.html" target="_top" xlink:title="comm::CommMaster declaration">
<polygon fill="white" stroke="#666666" points="189.5,-195 69.5,-195 69.5,-165 189.5,-165 189.5,-195"/>
<text text-anchor="start" x="77.5" y="-183" font-family="Helvetica,sans-Serif" font-size="10.00">../deviceCommunication</text>
<text text-anchor="middle" x="129.5" y="-172" font-family="Helvetica,sans-Serif" font-size="10.00">/commMaster.h</text>
</a>
</g>
</g>
<!-- Node1&#45;&gt;Node3 -->
<g id="edge2" class="edge">
<title>Node1&#45;&gt;Node3</title>
<path fill="none" stroke="#63b8ff" d="M85.17,-230.87C91.58,-223.67 100.99,-213.07 109.51,-203.49"/>
<polygon fill="#63b8ff" stroke="#63b8ff" points="111.92,-206.05 115.95,-196.25 106.69,-201.39 111.92,-206.05"/>
</g>
<!-- Node4 -->
<g id="node4" class="node">
<title>Node4</title>
<g id="a_node4"><a xlink:title=" ">
<polygon fill="#e0e0e0" stroke="#999999" points="154,-19 101,-19 101,0 154,0 154,-19"/>
<text text-anchor="middle" x="127.5" y="-7" font-family="Helvetica,sans-Serif" font-size="10.00">QObject</text>
</a>
</g>
</g>
<!-- Node3&#45;&gt;Node4 -->
<g id="edge3" class="edge">
<title>Node3&#45;&gt;Node4</title>
<path fill="none" stroke="#63b8ff" d="M125.85,-164.67C123.52,-154.74 120.7,-141.16 119.5,-129 116.09,-94.55 120.59,-54.31 124.1,-30.7"/>
<polygon fill="#63b8ff" stroke="#63b8ff" points="127.54,-31.35 125.65,-20.93 120.62,-30.26 127.54,-31.35"/>
</g>
<!-- Node5 -->
<g id="node5" class="node">
<title>Node5</title>
<g id="a_node5"><a xlink:href="comm_device_8h.html" target="_top" xlink:title="comm::CommDevice declaration">
<polygon fill="white" stroke="#666666" points="210,-129 129,-129 129,-110 210,-110 210,-129"/>
<text text-anchor="middle" x="169.5" y="-117" font-family="Helvetica,sans-Serif" font-size="10.00">commDevice.h</text>
</a>
</g>
</g>
<!-- Node3&#45;&gt;Node5 -->
<g id="edge4" class="edge">
<title>Node3&#45;&gt;Node5</title>
<path fill="none" stroke="#63b8ff" d="M139.39,-164.54C144.78,-156.65 151.51,-146.81 157.24,-138.44"/>
<polygon fill="#63b8ff" stroke="#63b8ff" points="159.96,-140.65 162.71,-130.42 154.18,-136.7 159.96,-140.65"/>
</g>
<!-- Node5&#45;&gt;Node4 -->
<g id="edge6" class="edge">
<title>Node5&#45;&gt;Node4</title>
<path fill="none" stroke="#63b8ff" d="M164.23,-109.53C159.2,-100.71 151.65,-86.74 146.5,-74 140.75,-59.76 135.83,-43.1 132.44,-30.42"/>
<polygon fill="#63b8ff" stroke="#63b8ff" points="135.83,-29.58 129.96,-20.77 129.05,-31.33 135.83,-29.58"/>
</g>
<!-- Node6 -->
<g id="node6" class="node">
<title>Node6</title>
<g id="a_node6"><a xlink:title=" ">
<polygon fill="#e0e0e0" stroke="#999999" points="207.5,-74 155.5,-74 155.5,-55 207.5,-55 207.5,-74"/>
<text text-anchor="middle" x="181.5" y="-62" font-family="Helvetica,sans-Serif" font-size="10.00">QDebug</text>
</a>
</g>
</g>
<!-- Node5&#45;&gt;Node6 -->
<g id="edge5" class="edge">
<title>Node5&#45;&gt;Node6</title>
<path fill="none" stroke="#63b8ff" d="M171.48,-109.75C172.97,-103.19 175.06,-93.95 176.95,-85.6"/>
<polygon fill="#63b8ff" stroke="#63b8ff" points="180.35,-86.44 179.14,-75.92 173.52,-84.9 180.35,-86.44"/>
</g>
<!-- Node7 -->
<g id="node7" class="node">
<title>Node7</title>
<g id="a_node7"><a xlink:href="parser_8h.html" target="_top" xlink:title="Parser declaration">
<polygon fill="white" stroke="#666666" points="315,-74 226,-74 226,-55 315,-55 315,-74"/>
<text text-anchor="middle" x="270.5" y="-62" font-family="Helvetica,sans-Serif" font-size="10.00">../parser/parser.h</text>
</a>
</g>
</g>
<!-- Node5&#45;&gt;Node7 -->
<g id="edge7" class="edge">
<title>Node5&#45;&gt;Node7</title>
<path fill="none" stroke="#63b8ff" d="M186.63,-109.51C202.25,-101.31 225.58,-89.07 243.67,-79.58"/>
<polygon fill="#63b8ff" stroke="#63b8ff" points="245.05,-82.81 252.28,-75.06 241.8,-76.61 245.05,-82.81"/>
</g>
<!-- Node7&#45;&gt;Node4 -->
<g id="edge9" class="edge">
<title>Node7&#45;&gt;Node4</title>
<path fill="none" stroke="#63b8ff" d="M246.24,-54.51C223.09,-45.93 187.99,-32.92 161.94,-23.27"/>
<polygon fill="#63b8ff" stroke="#63b8ff" points="163.41,-20.08 152.82,-19.88 160.98,-26.64 163.41,-20.08"/>
</g>
<!-- Node8 -->
<g id="node8" class="node">
<title>Node8</title>
<g id="a_node8"><a xlink:title=" ">
<polygon fill="#e0e0e0" stroke="#999999" points="270.5,-19 204.5,-19 204.5,0 270.5,0 270.5,-19"/>
<text text-anchor="middle" x="237.5" y="-7" font-family="Helvetica,sans-Serif" font-size="10.00">QByteArray</text>
</a>
</g>
</g>
<!-- Node7&#45;&gt;Node8 -->
<g id="edge8" class="edge">
<title>Node7&#45;&gt;Node8</title>
<path fill="none" stroke="#63b8ff" d="M265.05,-54.75C260.73,-47.81 254.54,-37.86 249.12,-29.16"/>
<polygon fill="#63b8ff" stroke="#63b8ff" points="252.12,-27.37 243.87,-20.73 246.18,-31.07 252.12,-27.37"/>
</g>
<!-- Node9 -->
<g id="node9" class="node">
<title>Node9</title>
<g id="a_node9"><a xlink:title=" ">
<polygon fill="#e0e0e0" stroke="#999999" points="362.5,-19 288.5,-19 288.5,0 362.5,0 362.5,-19"/>
<text text-anchor="middle" x="325.5" y="-7" font-family="Helvetica,sans-Serif" font-size="10.00">QTextStream</text>
</a>
</g>
</g>
<!-- Node7&#45;&gt;Node9 -->
<g id="edge10" class="edge">
<title>Node7&#45;&gt;Node9</title>
<path fill="none" stroke="#63b8ff" d="M279.58,-54.75C287.34,-47.27 298.71,-36.32 308.2,-27.17"/>
<polygon fill="#63b8ff" stroke="#63b8ff" points="310.36,-29.95 315.13,-20.49 305.5,-24.91 310.36,-29.95"/>
</g>
</g>
</svg>
