<?xml version="1.0" encoding="UTF-8" standalone="no"?>
<!DOCTYPE svg PUBLIC "-//W3C//DTD SVG 1.1//EN"
 "http://www.w3.org/Graphics/SVG/1.1/DTD/svg11.dtd">
<!-- Generated by graphviz version 7.0.4 (20221203.1631)
 -->
<!-- Title: src/gui/dialogconnect.h Pages: 1 -->
<svg width="302pt" height="137pt"
 viewBox="0.00 0.00 301.50 137.00" xmlns="http://www.w3.org/2000/svg" xmlns:xlink="http://www.w3.org/1999/xlink">
<g id="graph0" class="graph" transform="scale(1 1) rotate(0) translate(4 133)">
<title>src/gui/dialogconnect.h</title>
<!-- Node1 -->
<g id="node1" class="node">
<title>Node1</title>
<g id="a_node1"><a xlink:title="DialogConnect declaration">
<polygon fill="#999999" stroke="#666666" points="189.5,-129 73.5,-129 73.5,-110 189.5,-110 189.5,-129"/>
<text text-anchor="middle" x="131.5" y="-117" font-family="Helvetica,sans-Serif" font-size="10.00">src/gui/dialogconnect.h</text>
</a>
</g>
</g>
<!-- Node2 -->
<g id="node2" class="node">
<title>Node2</title>
<g id="a_node2"><a xlink:href="dialogconnect_8cpp.html" target="_top" xlink:title="DialogConnect implementation">
<polygon fill="white" stroke="#666666" points="127,-74 0,-74 0,-55 127,-55 127,-74"/>
<text text-anchor="middle" x="63.5" y="-62" font-family="Helvetica,sans-Serif" font-size="10.00">src/gui/dialogconnect.cpp</text>
</a>
</g>
</g>
<!-- Node1&#45;&gt;Node2 -->
<g id="edge1" class="edge">
<title>Node1&#45;&gt;Node2</title>
<path fill="none" stroke="#63b8ff" d="M111.15,-102.64C99.28,-93.39 84.74,-82.05 74.86,-74.36"/>
<polygon fill="#63b8ff" stroke="#63b8ff" points="108.73,-105.19 118.77,-108.58 113.04,-99.67 108.73,-105.19"/>
</g>
<!-- Node3 -->
<g id="node3" class="node">
<title>Node3</title>
<g id="a_node3"><a xlink:href="mainwindow_8h.html" target="_top" xlink:title="MainWindow declaration">
<polygon fill="white" stroke="#666666" points="255.5,-74 145.5,-74 145.5,-55 255.5,-55 255.5,-74"/>
<text text-anchor="middle" x="200.5" y="-62" font-family="Helvetica,sans-Serif" font-size="10.00">src/gui/mainwindow.h</text>
</a>
</g>
</g>
<!-- Node1&#45;&gt;Node3 -->
<g id="edge2" class="edge">
<title>Node1&#45;&gt;Node3</title>
<path fill="none" stroke="#63b8ff" d="M152.15,-102.64C164.2,-93.39 178.95,-82.05 188.97,-74.36"/>
<polygon fill="#63b8ff" stroke="#63b8ff" points="150.2,-99.72 144.41,-108.59 154.47,-105.27 150.2,-99.72"/>
</g>
<!-- Node4 -->
<g id="node4" class="node">
<title>Node4</title>
<g id="a_node4"><a xlink:href="mainwindow_8cpp.html" target="_top" xlink:title="MainWindow implementation">
<polygon fill="white" stroke="#666666" points="203,-19 82,-19 82,0 203,0 203,-19"/>
<text text-anchor="middle" x="142.5" y="-7" font-family="Helvetica,sans-Serif" font-size="10.00">src/gui/mainwindow.cpp</text>
</a>
</g>
</g>
<!-- Node3&#45;&gt;Node4 -->
<g id="edge3" class="edge">
<title>Node3&#45;&gt;Node4</title>
<path fill="none" stroke="#63b8ff" d="M182.24,-46.81C172.28,-37.72 160.36,-26.82 152.19,-19.36"/>
<polygon fill="#63b8ff" stroke="#63b8ff" points="179.8,-49.33 189.54,-53.49 184.52,-44.16 179.8,-49.33"/>
</g>
<!-- Node5 -->
<g id="node5" class="node">
<title>Node5</title>
<g id="a_node5"><a xlink:href="main_8cpp.html" target="_top" xlink:title="Main file of project linescaleGUI.">
<polygon fill="white" stroke="#666666" points="293.5,-19 221.5,-19 221.5,0 293.5,0 293.5,-19"/>
<text text-anchor="middle" x="257.5" y="-7" font-family="Helvetica,sans-Serif" font-size="10.00">src/main.cpp</text>
</a>
</g>
</g>
<!-- Node3&#45;&gt;Node5 -->
<g id="edge4" class="edge">
<title>Node3&#45;&gt;Node5</title>
<path fill="none" stroke="#63b8ff" d="M218.45,-46.81C228.23,-37.72 239.94,-26.82 247.97,-19.36"/>
<polygon fill="#63b8ff" stroke="#63b8ff" points="216.22,-44.11 211.28,-53.48 220.98,-49.23 216.22,-44.11"/>
</g>
</g>
</svg>
