<?xml version="1.0" encoding="UTF-8" standalone="no"?>
<!DOCTYPE svg PUBLIC "-//W3C//DTD SVG 1.1//EN"
 "http://www.w3.org/Graphics/SVG/1.1/DTD/svg11.dtd">
<!-- Generated by graphviz version 7.0.5 (20221223.1930)
 -->
<!-- Title: src/gui/dialogdebug.h Pages: 1 -->
<svg width="294pt" height="137pt"
 viewBox="0.00 0.00 293.50 137.00" xmlns="http://www.w3.org/2000/svg" xmlns:xlink="http://www.w3.org/1999/xlink">
<g id="graph0" class="graph" transform="scale(1 1) rotate(0) translate(4 133)">
<title>src/gui/dialogdebug.h</title>
<!-- Node1 -->
<g id="node1" class="node">
<title>Node1</title>
<g id="a_node1"><a xlink:title="DialogDebug declaration">
<polygon fill="#999999" stroke="#666666" points="179.5,-129 71.5,-129 71.5,-110 179.5,-110 179.5,-129"/>
<text text-anchor="middle" x="125.5" y="-117" font-family="Helvetica,sans-Serif" font-size="10.00">src/gui/dialogdebug.h</text>
</a>
</g>
</g>
<!-- Node2 -->
<g id="node2" class="node">
<title>Node2</title>
<g id="a_node2"><a xlink:href="dialogdebug_8cpp.html" target="_top" xlink:title="DialogDebug implementation">
<polygon fill="white" stroke="#666666" points="119,-74 0,-74 0,-55 119,-55 119,-74"/>
<text text-anchor="middle" x="59.5" y="-62" font-family="Helvetica,sans-Serif" font-size="10.00">src/gui/dialogdebug.cpp</text>
</a>
</g>
</g>
<!-- Node1&#45;&gt;Node2 -->
<g id="edge1" class="edge">
<title>Node1&#45;&gt;Node2</title>
<path fill="none" stroke="#63b8ff" d="M105.41,-102.37C93.95,-93.16 80.02,-81.98 70.53,-74.36"/>
<polygon fill="#63b8ff" stroke="#63b8ff" points="103.14,-105.03 113.12,-108.56 107.52,-99.57 103.14,-105.03"/>
</g>
<!-- Node3 -->
<g id="node3" class="node">
<title>Node3</title>
<g id="a_node3"><a xlink:href="mainwindow_8h.html" target="_top" xlink:title="MainWindow declaration">
<polygon fill="white" stroke="#666666" points="247.5,-74 137.5,-74 137.5,-55 247.5,-55 247.5,-74"/>
<text text-anchor="middle" x="192.5" y="-62" font-family="Helvetica,sans-Serif" font-size="10.00">src/gui/mainwindow.h</text>
</a>
</g>
</g>
<!-- Node1&#45;&gt;Node3 -->
<g id="edge2" class="edge">
<title>Node1&#45;&gt;Node3</title>
<path fill="none" stroke="#63b8ff" d="M145.55,-102.64C157.25,-93.39 171.57,-82.05 181.3,-74.36"/>
<polygon fill="#63b8ff" stroke="#63b8ff" points="143.72,-99.62 138.05,-108.57 148.07,-105.11 143.72,-99.62"/>
</g>
<!-- Node4 -->
<g id="node4" class="node">
<title>Node4</title>
<g id="a_node4"><a xlink:href="mainwindow_8cpp.html" target="_top" xlink:title="MainWindow implementation">
<polygon fill="white" stroke="#666666" points="195,-19 74,-19 74,0 195,0 195,-19"/>
<text text-anchor="middle" x="134.5" y="-7" font-family="Helvetica,sans-Serif" font-size="10.00">src/gui/mainwindow.cpp</text>
</a>
</g>
</g>
<!-- Node3&#45;&gt;Node4 -->
<g id="edge3" class="edge">
<title>Node3&#45;&gt;Node4</title>
<path fill="none" stroke="#63b8ff" d="M174.24,-46.81C164.28,-37.72 152.36,-26.82 144.19,-19.36"/>
<polygon fill="#63b8ff" stroke="#63b8ff" points="171.8,-49.33 181.54,-53.49 176.52,-44.16 171.8,-49.33"/>
</g>
<!-- Node5 -->
<g id="node5" class="node">
<title>Node5</title>
<g id="a_node5"><a xlink:href="main_8cpp.html" target="_top" xlink:title="Main file of project linescaleGUI.">
<polygon fill="white" stroke="#666666" points="285.5,-19 213.5,-19 213.5,0 285.5,0 285.5,-19"/>
<text text-anchor="middle" x="249.5" y="-7" font-family="Helvetica,sans-Serif" font-size="10.00">src/main.cpp</text>
</a>
</g>
</g>
<!-- Node3&#45;&gt;Node5 -->
<g id="edge4" class="edge">
<title>Node3&#45;&gt;Node5</title>
<path fill="none" stroke="#63b8ff" d="M210.45,-46.81C220.23,-37.72 231.94,-26.82 239.97,-19.36"/>
<polygon fill="#63b8ff" stroke="#63b8ff" points="208.22,-44.11 203.28,-53.48 212.98,-49.23 208.22,-44.11"/>
</g>
</g>
</svg>
