<?xml version="1.0" encoding="UTF-8" standalone="no"?>
<!DOCTYPE svg PUBLIC "-//W3C//DTD SVG 1.1//EN"
 "http://www.w3.org/Graphics/SVG/1.1/DTD/svg11.dtd">
<!-- Generated by graphviz version 7.0.5 (20221223.1930)
 -->
<!-- Title: src Pages: 1 -->
<svg width="255pt" height="224pt"
 viewBox="0.00 0.00 255.00 224.00" xmlns="http://www.w3.org/2000/svg" xmlns:xlink="http://www.w3.org/1999/xlink">
<g id="graph0" class="graph" transform="scale(1 1) rotate(0) translate(4 220)">
<title>src</title>
<g id="clust1" class="cluster">
<title>clusterdir_68267d1309a1af8e8297ef4c3efbcdba</title>
<g id="a_clust1"><a xlink:href="dir_68267d1309a1af8e8297ef4c3efbcdba.html" target="_top">
<polygon fill="#edf0f7" stroke="#404040" stroke-width="2" points="8,-8 8,-208 239,-208 239,-8 8,-8"/>
</a>
</g>
</g>
<!-- dir_68267d1309a1af8e8297ef4c3efbcdba -->
<g id="node1" class="node">
<title>dir_68267d1309a1af8e8297ef4c3efbcdba</title>
<text text-anchor="middle" x="179" y="-188" font-family="Helvetica,sans-Serif" font-size="10.00">src</text>
</g>
<!-- dir_99d0482cf009f9d97a0877749b817f19 -->
<g id="node3" class="node">
<title>dir_99d0482cf009f9d97a0877749b817f19</title>
<g id="a_node3"><a xlink:href="dir_99d0482cf009f9d97a0877749b817f19.html" target="_top" xlink:title="gui">
<polygon fill="#a2b4d6" stroke="#404040" points="193.5,-145 164.5,-145 164.5,-126 193.5,-126 193.5,-145"/>
<text text-anchor="middle" x="179" y="-133" font-family="Helvetica,sans-Serif" font-size="10.00">gui</text>
</a>
</g>
</g>
<!-- dir_68267d1309a1af8e8297ef4c3efbcdba&#45;&gt;dir_99d0482cf009f9d97a0877749b817f19 -->
<g id="edge1" class="edge">
<title>dir_68267d1309a1af8e8297ef4c3efbcdba&#45;&gt;dir_99d0482cf009f9d97a0877749b817f19</title>
<path fill="none" stroke="#63b8ff" d="M179,-181.22C179,-174.65 179,-165.18 179,-156.64"/>
<polygon fill="#63b8ff" stroke="#63b8ff" points="182.5,-156.77 179,-146.77 175.5,-156.77 182.5,-156.77"/>
<g id="a_edge1&#45;headlabel"><a xlink:href="dir_000004_000001.html" target="_top" xlink:title="1">
<text text-anchor="middle" x="185.34" y="-156.35" font-family="Helvetica,sans-Serif" font-size="10.00" fill="#63b8ff">1</text>
</a>
</g>
</g>
<!-- dir_4a761e7caedf545790f52a1969ab497a -->
<g id="node2" class="node">
<title>dir_4a761e7caedf545790f52a1969ab497a</title>
<g id="a_node2"><a xlink:href="dir_4a761e7caedf545790f52a1969ab497a.html" target="_top" xlink:title="deviceCommunication">
<polygon fill="#a2b4d6" stroke="#404040" points="129.5,-90 16.5,-90 16.5,-71 129.5,-71 129.5,-90"/>
<text text-anchor="middle" x="73" y="-78" font-family="Helvetica,sans-Serif" font-size="10.00">deviceCommunication</text>
</a>
</g>
</g>
<!-- dir_6cd8491d143eb218b70983dbdb3c58bc -->
<g id="node5" class="node">
<title>dir_6cd8491d143eb218b70983dbdb3c58bc</title>
<g id="a_node5"><a xlink:href="dir_6cd8491d143eb218b70983dbdb3c58bc.html" target="_top" xlink:title="parser">
<polygon fill="#a2b4d6" stroke="#404040" points="163,-35 119,-35 119,-16 163,-16 163,-35"/>
<text text-anchor="middle" x="141" y="-23" font-family="Helvetica,sans-Serif" font-size="10.00">parser</text>
</a>
</g>
</g>
<!-- dir_4a761e7caedf545790f52a1969ab497a&#45;&gt;dir_6cd8491d143eb218b70983dbdb3c58bc -->
<g id="edge2" class="edge">
<title>dir_4a761e7caedf545790f52a1969ab497a&#45;&gt;dir_6cd8491d143eb218b70983dbdb3c58bc</title>
<path fill="none" stroke="#63b8ff" d="M84.54,-70.51C94.46,-62.77 109.01,-51.43 120.86,-42.2"/>
<polygon fill="#63b8ff" stroke="#63b8ff" points="122.71,-45.2 128.44,-36.29 118.4,-39.68 122.71,-45.2"/>
<g id="a_edge2&#45;headlabel"><a xlink:href="dir_000000_000003.html" target="_top" xlink:title="2">
<text text-anchor="middle" x="122.81" y="-46.22" font-family="Helvetica,sans-Serif" font-size="10.00" fill="#63b8ff">2</text>
</a>
</g>
</g>
<!-- dir_99d0482cf009f9d97a0877749b817f19&#45;&gt;dir_4a761e7caedf545790f52a1969ab497a -->
<g id="edge3" class="edge">
<title>dir_99d0482cf009f9d97a0877749b817f19&#45;&gt;dir_4a761e7caedf545790f52a1969ab497a</title>
<path fill="none" stroke="#63b8ff" d="M164.26,-127.13C147.96,-118.98 121.33,-105.66 101.03,-95.51"/>
<polygon fill="#63b8ff" stroke="#63b8ff" points="102.66,-92.42 92.15,-91.07 99.53,-98.68 102.66,-92.42"/>
<g id="a_edge3&#45;headlabel"><a xlink:href="dir_000001_000000.html" target="_top" xlink:title="5">
<text text-anchor="middle" x="105.79" y="-88.31" font-family="Helvetica,sans-Serif" font-size="10.00" fill="#63b8ff">5</text>
</a>
</g>
</g>
<!-- dir_b881cb6ca9ddcba9002717d130de9a90 -->
<g id="node4" class="node">
<title>dir_b881cb6ca9ddcba9002717d130de9a90</title>
<g id="a_node4"><a xlink:href="dir_b881cb6ca9ddcba9002717d130de9a90.html" target="_top" xlink:title="notification">
<polygon fill="#a2b4d6" stroke="#404040" points="210.5,-90 147.5,-90 147.5,-71 210.5,-71 210.5,-90"/>
<text text-anchor="middle" x="179" y="-78" font-family="Helvetica,sans-Serif" font-size="10.00">notification</text>
</a>
</g>
</g>
<!-- dir_99d0482cf009f9d97a0877749b817f19&#45;&gt;dir_b881cb6ca9ddcba9002717d130de9a90 -->
<g id="edge5" class="edge">
<title>dir_99d0482cf009f9d97a0877749b817f19&#45;&gt;dir_b881cb6ca9ddcba9002717d130de9a90</title>
<path fill="none" stroke="#63b8ff" d="M179,-125.75C179,-119.27 179,-110.16 179,-101.9"/>
<polygon fill="#63b8ff" stroke="#63b8ff" points="182.5,-101.96 179,-91.96 175.5,-101.96 182.5,-101.96"/>
<g id="a_edge5&#45;headlabel"><a xlink:href="dir_000001_000002.html" target="_top" xlink:title="2">
<text text-anchor="middle" x="185.34" y="-101.54" font-family="Helvetica,sans-Serif" font-size="10.00" fill="#63b8ff">2</text>
</a>
</g>
</g>
<!-- dir_99d0482cf009f9d97a0877749b817f19&#45;&gt;dir_6cd8491d143eb218b70983dbdb3c58bc -->
<g id="edge4" class="edge">
<title>dir_99d0482cf009f9d97a0877749b817f19&#45;&gt;dir_6cd8491d143eb218b70983dbdb3c58bc</title>
<path fill="none" stroke="#63b8ff" d="M191.92,-125.61C207.9,-113.48 231.65,-90.94 220,-71 210.03,-53.94 190.85,-42.91 173.88,-36.1"/>
<polygon fill="#63b8ff" stroke="#63b8ff" points="175.19,-32.85 164.6,-32.73 172.8,-39.43 175.19,-32.85"/>
<g id="a_edge4&#45;headlabel"><a xlink:href="dir_000001_000003.html" target="_top" xlink:title="2">
<text text-anchor="middle" x="178.11" y="-28.4" font-family="Helvetica,sans-Serif" font-size="10.00" fill="#63b8ff">2</text>
</a>
</g>
</g>
</g>
</svg>
