<?xml version="1.0" encoding="UTF-8" standalone="no"?>
<!DOCTYPE svg PUBLIC "-//W3C//DTD SVG 1.1//EN"
 "http://www.w3.org/Graphics/SVG/1.1/DTD/svg11.dtd">
<!-- Generated by graphviz version 7.0.5 (20221223.1930)
 -->
<!-- Title: src/gui Pages: 1 -->
<svg width="298pt" height="133pt"
 viewBox="0.00 0.00 298.00 133.00" xmlns="http://www.w3.org/2000/svg" xmlns:xlink="http://www.w3.org/1999/xlink">
<g id="graph0" class="graph" transform="scale(1 1) rotate(0) translate(4 129)">
<title>src/gui</title>
<g id="clust1" class="cluster">
<title>clusterdir_68267d1309a1af8e8297ef4c3efbcdba</title>
<g id="a_clust1"><a xlink:href="dir_68267d1309a1af8e8297ef4c3efbcdba.html" target="_top" xlink:title="src">
<polygon fill="#edf0f7" stroke="#404040" stroke-dasharray="5,2" points="8,-8 8,-117 282,-117 282,-8 8,-8"/>
<text text-anchor="middle" x="145" y="-105" font-family="Helvetica,sans-Serif" font-size="10.00">src</text>
</a>
</g>
</g>
<!-- dir_4a761e7caedf545790f52a1969ab497a -->
<g id="node1" class="node">
<title>dir_4a761e7caedf545790f52a1969ab497a</title>
<g id="a_node1"><a xlink:href="dir_4a761e7caedf545790f52a1969ab497a.html" target="_top" xlink:title="deviceCommunication">
<polygon fill="#a2b4d6" stroke="#404040" points="129.5,-35 16.5,-35 16.5,-16 129.5,-16 129.5,-35"/>
<text text-anchor="middle" x="73" y="-23" font-family="Helvetica,sans-Serif" font-size="10.00">deviceCommunication</text>
</a>
</g>
</g>
<!-- dir_6cd8491d143eb218b70983dbdb3c58bc -->
<g id="node2" class="node">
<title>dir_6cd8491d143eb218b70983dbdb3c58bc</title>
<g id="a_node2"><a xlink:href="dir_6cd8491d143eb218b70983dbdb3c58bc.html" target="_top" xlink:title="parser">
<polygon fill="#a2b4d6" stroke="#404040" points="192,-35 148,-35 148,-16 192,-16 192,-35"/>
<text text-anchor="middle" x="170" y="-23" font-family="Helvetica,sans-Serif" font-size="10.00">parser</text>
</a>
</g>
</g>
<!-- dir_b881cb6ca9ddcba9002717d130de9a90 -->
<g id="node3" class="node">
<title>dir_b881cb6ca9ddcba9002717d130de9a90</title>
<g id="a_node3"><a xlink:href="dir_b881cb6ca9ddcba9002717d130de9a90.html" target="_top" xlink:title="notification">
<polygon fill="#a2b4d6" stroke="#404040" points="273.5,-35 210.5,-35 210.5,-16 273.5,-16 273.5,-35"/>
<text text-anchor="middle" x="242" y="-23" font-family="Helvetica,sans-Serif" font-size="10.00">notification</text>
</a>
</g>
</g>
<!-- dir_99d0482cf009f9d97a0877749b817f19 -->
<g id="node4" class="node">
<title>dir_99d0482cf009f9d97a0877749b817f19</title>
<g id="a_node4"><a xlink:href="dir_99d0482cf009f9d97a0877749b817f19.html" target="_top" xlink:title="gui">
<polygon fill="#edf0f7" stroke="#404040" stroke-width="2" points="184.5,-90 155.5,-90 155.5,-71 184.5,-71 184.5,-90"/>
<text text-anchor="middle" x="170" y="-78" font-family="Helvetica,sans-Serif" font-size="10.00">gui</text>
</a>
</g>
</g>
<!-- dir_99d0482cf009f9d97a0877749b817f19&#45;&gt;dir_4a761e7caedf545790f52a1969ab497a -->
<g id="edge1" class="edge">
<title>dir_99d0482cf009f9d97a0877749b817f19&#45;&gt;dir_4a761e7caedf545790f52a1969ab497a</title>
<path fill="none" stroke="#63b8ff" d="M155.27,-71.45C140.38,-63.32 117.07,-50.58 99.06,-40.74"/>
<polygon fill="#63b8ff" stroke="#63b8ff" points="100.95,-37.78 90.5,-36.06 97.59,-43.93 100.95,-37.78"/>
<g id="a_edge1&#45;headlabel"><a xlink:href="dir_000001_000000.html" target="_top" xlink:title="5">
<text text-anchor="middle" x="104.14" y="-33.79" font-family="Helvetica,sans-Serif" font-size="10.00" fill="#63b8ff">5</text>
</a>
</g>
</g>
<!-- dir_99d0482cf009f9d97a0877749b817f19&#45;&gt;dir_6cd8491d143eb218b70983dbdb3c58bc -->
<g id="edge2" class="edge">
<title>dir_99d0482cf009f9d97a0877749b817f19&#45;&gt;dir_6cd8491d143eb218b70983dbdb3c58bc</title>
<path fill="none" stroke="#63b8ff" d="M170,-70.75C170,-64.27 170,-55.16 170,-46.9"/>
<polygon fill="#63b8ff" stroke="#63b8ff" points="173.5,-46.96 170,-36.96 166.5,-46.96 173.5,-46.96"/>
<g id="a_edge2&#45;headlabel"><a xlink:href="dir_000001_000003.html" target="_top" xlink:title="2">
<text text-anchor="middle" x="176.34" y="-46.54" font-family="Helvetica,sans-Serif" font-size="10.00" fill="#63b8ff">2</text>
</a>
</g>
</g>
<!-- dir_99d0482cf009f9d97a0877749b817f19&#45;&gt;dir_b881cb6ca9ddcba9002717d130de9a90 -->
<g id="edge3" class="edge">
<title>dir_99d0482cf009f9d97a0877749b817f19&#45;&gt;dir_b881cb6ca9ddcba9002717d130de9a90</title>
<path fill="none" stroke="#63b8ff" d="M182.21,-70.51C192.83,-62.7 208.44,-51.21 221.04,-41.93"/>
<polygon fill="#63b8ff" stroke="#63b8ff" points="222.77,-45 228.75,-36.26 218.62,-39.36 222.77,-45"/>
<g id="a_edge3&#45;headlabel"><a xlink:href="dir_000001_000002.html" target="_top" xlink:title="3">
<text text-anchor="middle" x="222.78" y="-46.02" font-family="Helvetica,sans-Serif" font-size="10.00" fill="#63b8ff">3</text>
</a>
</g>
</g>
</g>
</svg>
