<?xml version="1.0" encoding="UTF-8" standalone="no"?>
<!DOCTYPE svg PUBLIC "-//W3C//DTD SVG 1.1//EN"
 "http://www.w3.org/Graphics/SVG/1.1/DTD/svg11.dtd">
<!-- Generated by graphviz version 7.0.5 (20221223.1930)
 -->
<!-- Title: src Pages: 1 -->
<svg width="314pt" height="224pt"
 viewBox="0.00 0.00 314.00 224.00" xmlns="http://www.w3.org/2000/svg" xmlns:xlink="http://www.w3.org/1999/xlink">
<g id="graph0" class="graph" transform="scale(1 1) rotate(0) translate(4 220)">
<title>src</title>
<g id="clust1" class="cluster">
<title>clusterdir_68267d1309a1af8e8297ef4c3efbcdba</title>
<g id="a_clust1"><a xlink:href="dir_68267d1309a1af8e8297ef4c3efbcdba.html" target="_top">
<polygon fill="#edf0f7" stroke="#404040" stroke-width="2" points="8,-8 8,-208 298,-208 298,-8 8,-8"/>
</a>
</g>
</g>
<!-- dir_68267d1309a1af8e8297ef4c3efbcdba -->
<g id="node1" class="node">
<title>dir_68267d1309a1af8e8297ef4c3efbcdba</title>
<text text-anchor="middle" x="238" y="-188" font-family="Helvetica,sans-Serif" font-size="10.00">src</text>
</g>
<!-- dir_99d0482cf009f9d97a0877749b817f19 -->
<g id="node3" class="node">
<title>dir_99d0482cf009f9d97a0877749b817f19</title>
<g id="a_node3"><a xlink:href="dir_99d0482cf009f9d97a0877749b817f19.html" target="_top" xlink:title="gui">
<polygon fill="#a2b4d6" stroke="#404040" points="252.5,-145 223.5,-145 223.5,-126 252.5,-126 252.5,-145"/>
<text text-anchor="middle" x="238" y="-133" font-family="Helvetica,sans-Serif" font-size="10.00">gui</text>
</a>
</g>
</g>
<!-- dir_68267d1309a1af8e8297ef4c3efbcdba&#45;&gt;dir_99d0482cf009f9d97a0877749b817f19 -->
<g id="edge1" class="edge">
<title>dir_68267d1309a1af8e8297ef4c3efbcdba&#45;&gt;dir_99d0482cf009f9d97a0877749b817f19</title>
<path fill="none" stroke="#63b8ff" d="M238,-181.22C238,-174.65 238,-165.18 238,-156.64"/>
<polygon fill="#63b8ff" stroke="#63b8ff" points="241.5,-156.77 238,-146.77 234.5,-156.77 241.5,-156.77"/>
<g id="a_edge1&#45;headlabel"><a xlink:href="dir_000005_000001.html" target="_top" xlink:title="1">
<text text-anchor="middle" x="244.34" y="-156.35" font-family="Helvetica,sans-Serif" font-size="10.00" fill="#63b8ff">1</text>
</a>
</g>
</g>
<!-- dir_4a761e7caedf545790f52a1969ab497a -->
<g id="node2" class="node">
<title>dir_4a761e7caedf545790f52a1969ab497a</title>
<g id="a_node2"><a xlink:href="dir_4a761e7caedf545790f52a1969ab497a.html" target="_top" xlink:title="deviceCommunication">
<polygon fill="#a2b4d6" stroke="#404040" points="188.5,-90 75.5,-90 75.5,-71 188.5,-71 188.5,-90"/>
<text text-anchor="middle" x="132" y="-78" font-family="Helvetica,sans-Serif" font-size="10.00">deviceCommunication</text>
</a>
</g>
</g>
<!-- dir_6cd8491d143eb218b70983dbdb3c58bc -->
<g id="node6" class="node">
<title>dir_6cd8491d143eb218b70983dbdb3c58bc</title>
<g id="a_node6"><a xlink:href="dir_6cd8491d143eb218b70983dbdb3c58bc.html" target="_top" xlink:title="parser">
<polygon fill="#a2b4d6" stroke="#404040" points="154,-35 110,-35 110,-16 154,-16 154,-35"/>
<text text-anchor="middle" x="132" y="-23" font-family="Helvetica,sans-Serif" font-size="10.00">parser</text>
</a>
</g>
</g>
<!-- dir_4a761e7caedf545790f52a1969ab497a&#45;&gt;dir_6cd8491d143eb218b70983dbdb3c58bc -->
<g id="edge2" class="edge">
<title>dir_4a761e7caedf545790f52a1969ab497a&#45;&gt;dir_6cd8491d143eb218b70983dbdb3c58bc</title>
<path fill="none" stroke="#63b8ff" d="M132,-70.75C132,-64.27 132,-55.16 132,-46.9"/>
<polygon fill="#63b8ff" stroke="#63b8ff" points="135.5,-46.96 132,-36.96 128.5,-46.96 135.5,-46.96"/>
<g id="a_edge2&#45;headlabel"><a xlink:href="dir_000000_000004.html" target="_top" xlink:title="2">
<text text-anchor="middle" x="138.34" y="-46.54" font-family="Helvetica,sans-Serif" font-size="10.00" fill="#63b8ff">2</text>
</a>
</g>
</g>
<!-- dir_99d0482cf009f9d97a0877749b817f19&#45;&gt;dir_4a761e7caedf545790f52a1969ab497a -->
<g id="edge3" class="edge">
<title>dir_99d0482cf009f9d97a0877749b817f19&#45;&gt;dir_4a761e7caedf545790f52a1969ab497a</title>
<path fill="none" stroke="#63b8ff" d="M223.26,-127.13C206.96,-118.98 180.33,-105.66 160.03,-95.51"/>
<polygon fill="#63b8ff" stroke="#63b8ff" points="161.66,-92.42 151.15,-91.07 158.53,-98.68 161.66,-92.42"/>
<g id="a_edge3&#45;headlabel"><a xlink:href="dir_000001_000000.html" target="_top" xlink:title="5">
<text text-anchor="middle" x="164.79" y="-88.31" font-family="Helvetica,sans-Serif" font-size="10.00" fill="#63b8ff">5</text>
</a>
</g>
</g>
<!-- dir_b881cb6ca9ddcba9002717d130de9a90 -->
<g id="node5" class="node">
<title>dir_b881cb6ca9ddcba9002717d130de9a90</title>
<g id="a_node5"><a xlink:href="dir_b881cb6ca9ddcba9002717d130de9a90.html" target="_top" xlink:title="notification">
<polygon fill="#a2b4d6" stroke="#404040" points="269.5,-90 206.5,-90 206.5,-71 269.5,-71 269.5,-90"/>
<text text-anchor="middle" x="238" y="-78" font-family="Helvetica,sans-Serif" font-size="10.00">notification</text>
</a>
</g>
</g>
<!-- dir_99d0482cf009f9d97a0877749b817f19&#45;&gt;dir_b881cb6ca9ddcba9002717d130de9a90 -->
<g id="edge5" class="edge">
<title>dir_99d0482cf009f9d97a0877749b817f19&#45;&gt;dir_b881cb6ca9ddcba9002717d130de9a90</title>
<path fill="none" stroke="#63b8ff" d="M238,-125.75C238,-119.27 238,-110.16 238,-101.9"/>
<polygon fill="#63b8ff" stroke="#63b8ff" points="241.5,-101.96 238,-91.96 234.5,-101.96 241.5,-101.96"/>
<g id="a_edge5&#45;headlabel"><a xlink:href="dir_000001_000003.html" target="_top" xlink:title="3">
<text text-anchor="middle" x="244.34" y="-101.54" font-family="Helvetica,sans-Serif" font-size="10.00" fill="#63b8ff">3</text>
</a>
</g>
</g>
<!-- dir_99d0482cf009f9d97a0877749b817f19&#45;&gt;dir_6cd8491d143eb218b70983dbdb3c58bc -->
<g id="edge4" class="edge">
<title>dir_99d0482cf009f9d97a0877749b817f19&#45;&gt;dir_6cd8491d143eb218b70983dbdb3c58bc</title>
<path fill="none" stroke="#63b8ff" d="M250.98,-125.63C267.66,-113.13 292.92,-89.76 279,-71 253.13,-36.14 200.71,-27.62 165.98,-26.04"/>
<polygon fill="#63b8ff" stroke="#63b8ff" points="166.1,-22.54 156.01,-25.78 165.92,-29.54 166.1,-22.54"/>
<g id="a_edge4&#45;headlabel"><a xlink:href="dir_000001_000004.html" target="_top" xlink:title="2">
<text text-anchor="middle" x="168.25" y="-17.26" font-family="Helvetica,sans-Serif" font-size="10.00" fill="#63b8ff">2</text>
</a>
</g>
</g>
<!-- dir_adeb431505c4247a2145ce6ac1c4b64b -->
<g id="node4" class="node">
<title>dir_adeb431505c4247a2145ce6ac1c4b64b</title>
<g id="a_node4"><a xlink:href="dir_adeb431505c4247a2145ce6ac1c4b64b.html" target="_top" xlink:title="logfile">
<polygon fill="#a2b4d6" stroke="#404040" points="57.5,-90 16.5,-90 16.5,-71 57.5,-71 57.5,-90"/>
<text text-anchor="middle" x="37" y="-78" font-family="Helvetica,sans-Serif" font-size="10.00">logfile</text>
</a>
</g>
</g>
<!-- dir_adeb431505c4247a2145ce6ac1c4b64b&#45;&gt;dir_6cd8491d143eb218b70983dbdb3c58bc -->
<g id="edge6" class="edge">
<title>dir_adeb431505c4247a2145ce6ac1c4b64b&#45;&gt;dir_6cd8491d143eb218b70983dbdb3c58bc</title>
<path fill="none" stroke="#63b8ff" d="M53.12,-70.51C67.67,-62.39 89.34,-50.3 106.29,-40.85"/>
<polygon fill="#63b8ff" stroke="#63b8ff" points="107.77,-44.02 114.8,-36.1 104.36,-37.91 107.77,-44.02"/>
<g id="a_edge6&#45;headlabel"><a xlink:href="dir_000002_000004.html" target="_top" xlink:title="1">
<text text-anchor="middle" x="107.34" y="-45.02" font-family="Helvetica,sans-Serif" font-size="10.00" fill="#63b8ff">1</text>
</a>
</g>
</g>
</g>
</svg>
