<?xml version="1.0" encoding="UTF-8" standalone="no"?>
<!DOCTYPE svg PUBLIC "-//W3C//DTD SVG 1.1//EN"
 "http://www.w3.org/Graphics/SVG/1.1/DTD/svg11.dtd">
<!-- Generated by graphviz version 7.0.5 (20221223.1930)
 -->
<!-- Title: Graphical Class Hierarchy Pages: 1 -->
<svg width="338pt" height="138pt"
 viewBox="0.00 0.00 338.00 138.00" xmlns="http://www.w3.org/2000/svg" xmlns:xlink="http://www.w3.org/1999/xlink">
<g id="graph0" class="graph" transform="scale(1 1) rotate(0) translate(4 134)">
<title>Graphical Class Hierarchy</title>
<!-- Node0 -->
<g id="node1" class="node">
<title>Node0</title>
<g id="a_node1"><a xlink:title=" ">
<polygon fill="#e0e0e0" stroke="#999999" points="53,-74 0,-74 0,-55 53,-55 53,-74"/>
<text text-anchor="middle" x="26.5" y="-62" font-family="Helvetica,sans-Serif" font-size="10.00">QObject</text>
</a>
</g>
</g>
<!-- Node1 -->
<g id="node2" class="node">
<title>Node1</title>
<g id="a_node2"><a xlink:href="class_notification.html" target="_top" xlink:title="Class to handle all notifications.">
<polygon fill="white" stroke="#666666" points="175,-130 110,-130 110,-111 175,-111 175,-130"/>
<text text-anchor="middle" x="142.5" y="-118" font-family="Helvetica,sans-Serif" font-size="10.00">Notification</text>
</a>
</g>
</g>
<!-- Node0&#45;&gt;Node1 -->
<g id="edge1" class="edge">
<title>Node0&#45;&gt;Node1</title>
<path fill="none" stroke="#63b8ff" d="M50.64,-80.51C61.89,-87.83 75.8,-96.25 89,-102.5 95.53,-105.59 102.74,-108.41 109.67,-110.86"/>
<polygon fill="#63b8ff" stroke="#63b8ff" points="52.68,-77.66 42.42,-75.02 48.8,-83.48 52.68,-77.66"/>
</g>
<!-- Node2 -->
<g id="node3" class="node">
<title>Node2</title>
<g id="a_node3"><a xlink:href="class_parser.html" target="_top" xlink:title="Class to parse the received messages.">
<polygon fill="white" stroke="#666666" points="165,-93 120,-93 120,-74 165,-74 165,-93"/>
<text text-anchor="middle" x="142.5" y="-81" font-family="Helvetica,sans-Serif" font-size="10.00">Parser</text>
</a>
</g>
</g>
<!-- Node0&#45;&gt;Node2 -->
<g id="edge2" class="edge">
<title>Node0&#45;&gt;Node2</title>
<path fill="none" stroke="#63b8ff" d="M64.5,-70.67C82.69,-73.7 103.99,-77.25 119.57,-79.85"/>
<polygon fill="#63b8ff" stroke="#63b8ff" points="65.3,-67.25 54.86,-69.06 64.15,-74.16 65.3,-67.25"/>
</g>
<!-- Node3 -->
<g id="node4" class="node">
<title>Node3</title>
<g id="a_node4"><a xlink:href="classcomm_1_1_comm_device.html" target="_top" xlink:title="Base class for every connection.">
<polygon fill="white" stroke="#666666" points="196,-56 89,-56 89,-37 196,-37 196,-56"/>
<text text-anchor="middle" x="142.5" y="-44" font-family="Helvetica,sans-Serif" font-size="10.00">comm::CommDevice</text>
</a>
</g>
</g>
<!-- Node0&#45;&gt;Node3 -->
<g id="edge3" class="edge">
<title>Node0&#45;&gt;Node3</title>
<path fill="none" stroke="#63b8ff" d="M64.56,-58.65C72.28,-57.43 80.55,-56.12 88.71,-54.83"/>
<polygon fill="#63b8ff" stroke="#63b8ff" points="64.2,-55.16 54.86,-60.18 65.29,-62.08 64.2,-55.16"/>
</g>
<!-- Node5 -->
<g id="node6" class="node">
<title>Node5</title>
<g id="a_node6"><a xlink:href="classcomm_1_1_comm_master.html" target="_top" xlink:title="Class to handle all connections to the connected LineScales.">
<polygon fill="white" stroke="#666666" points="196,-19 89,-19 89,0 196,0 196,-19"/>
<text text-anchor="middle" x="142.5" y="-7" font-family="Helvetica,sans-Serif" font-size="10.00">comm::CommMaster</text>
</a>
</g>
</g>
<!-- Node0&#45;&gt;Node5 -->
<g id="edge5" class="edge">
<title>Node0&#45;&gt;Node5</title>
<path fill="none" stroke="#63b8ff" d="M52.48,-48.48C63.44,-41.82 76.61,-34.31 89,-28.5 96.02,-25.21 103.78,-22.12 111.13,-19.43"/>
<polygon fill="#63b8ff" stroke="#63b8ff" points="50.69,-45.47 44.03,-53.72 54.38,-51.42 50.69,-45.47"/>
</g>
<!-- Node4 -->
<g id="node5" class="node">
<title>Node4</title>
<g id="a_node5"><a xlink:href="classcomm_1_1_comm_u_s_b.html" target="_top" xlink:title="Class to handle the communication with a USB device.">
<polygon fill="white" stroke="#666666" points="330,-56 232,-56 232,-37 330,-37 330,-56"/>
<text text-anchor="middle" x="281" y="-44" font-family="Helvetica,sans-Serif" font-size="10.00">comm::CommUSB</text>
</a>
</g>
</g>
<!-- Node3&#45;&gt;Node4 -->
<g id="edge4" class="edge">
<title>Node3&#45;&gt;Node4</title>
<path fill="none" stroke="#63b8ff" d="M207.67,-46.5C215.8,-46.5 224.01,-46.5 231.83,-46.5"/>
<polygon fill="#63b8ff" stroke="#63b8ff" points="207.79,-43 197.79,-46.5 207.79,-50 207.79,-43"/>
</g>
</g>
</svg>
