<?xml version="1.0" encoding="UTF-8" standalone="no"?>
<!DOCTYPE svg PUBLIC "-//W3C//DTD SVG 1.1//EN"
 "http://www.w3.org/Graphics/SVG/1.1/DTD/svg11.dtd">
<!-- Generated by graphviz version 7.0.4 (20221203.1631)
 -->
<!-- Title: Graphical Class Hierarchy Pages: 1 -->
<svg width="175pt" height="101pt"
 viewBox="0.00 0.00 175.00 101.00" xmlns="http://www.w3.org/2000/svg" xmlns:xlink="http://www.w3.org/1999/xlink">
<g id="graph0" class="graph" transform="scale(1 1) rotate(0) translate(4 97)">
<title>Graphical Class Hierarchy</title>
<!-- Node0 -->
<g id="node1" class="node">
<title>Node0</title>
<g id="a_node1"><a xlink:title=" ">
<polygon fill="#e0e0e0" stroke="#999999" points="51,-56 0,-56 0,-37 51,-37 51,-56"/>
<text text-anchor="middle" x="25.5" y="-44" font-family="Helvetica,sans-Serif" font-size="10.00">QDialog</text>
</a>
</g>
</g>
<!-- Node1 -->
<g id="node2" class="node">
<title>Node1</title>
<g id="a_node2"><a xlink:href="class_dialog_about.html" target="_top" xlink:title="Dialog to show basic informations about the linescaleGUI.">
<polygon fill="white" stroke="#666666" points="161.5,-93 92.5,-93 92.5,-74 161.5,-74 161.5,-93"/>
<text text-anchor="middle" x="127" y="-81" font-family="Helvetica,sans-Serif" font-size="10.00">DialogAbout</text>
</a>
</g>
</g>
<!-- Node0&#45;&gt;Node1 -->
<g id="edge1" class="edge">
<title>Node0&#45;&gt;Node1</title>
<path fill="none" stroke="#63b8ff" d="M61.8,-59.63C74.17,-64.22 87.84,-69.31 99.38,-73.6"/>
<polygon fill="#63b8ff" stroke="#63b8ff" points="63.36,-56.47 52.77,-56.27 60.92,-63.03 63.36,-56.47"/>
</g>
<!-- Node2 -->
<g id="node3" class="node">
<title>Node2</title>
<g id="a_node3"><a xlink:href="class_dialog_connect.html" target="_top" xlink:title="Dialog to handle the connection with a device.">
<polygon fill="white" stroke="#666666" points="167,-56 87,-56 87,-37 167,-37 167,-56"/>
<text text-anchor="middle" x="127" y="-44" font-family="Helvetica,sans-Serif" font-size="10.00">DialogConnect</text>
</a>
</g>
</g>
<!-- Node0&#45;&gt;Node2 -->
<g id="edge2" class="edge">
<title>Node0&#45;&gt;Node2</title>
<path fill="none" stroke="#63b8ff" d="M62.73,-46.5C70.55,-46.5 78.85,-46.5 86.77,-46.5"/>
<polygon fill="#63b8ff" stroke="#63b8ff" points="62.86,-43 52.86,-46.5 62.86,-50 62.86,-43"/>
</g>
<!-- Node3 -->
<g id="node4" class="node">
<title>Node3</title>
<g id="a_node4"><a xlink:href="class_dialog_debug.html" target="_top" xlink:title="Dialog to send predefined snippets to the linescale.">
<polygon fill="white" stroke="#666666" points="162.5,-19 91.5,-19 91.5,0 162.5,0 162.5,-19"/>
<text text-anchor="middle" x="127" y="-7" font-family="Helvetica,sans-Serif" font-size="10.00">DialogDebug</text>
</a>
</g>
</g>
<!-- Node0&#45;&gt;Node3 -->
<g id="edge3" class="edge">
<title>Node0&#45;&gt;Node3</title>
<path fill="none" stroke="#63b8ff" d="M61.8,-33.37C74.17,-28.78 87.84,-23.69 99.38,-19.4"/>
<polygon fill="#63b8ff" stroke="#63b8ff" points="60.92,-29.97 52.77,-36.73 63.36,-36.53 60.92,-29.97"/>
</g>
</g>
</svg>
