<?xml version="1.0" encoding="UTF-8" standalone="no"?>
<!DOCTYPE svg PUBLIC "-//W3C//DTD SVG 1.1//EN"
 "http://www.w3.org/Graphics/SVG/1.1/DTD/svg11.dtd">
<!-- Generated by graphviz version 7.0.5 (20221223.1930)
 -->
<!-- Title: src/logfile/logfile.h Pages: 1 -->
<svg width="345pt" height="137pt"
 viewBox="0.00 0.00 344.50 137.00" xmlns="http://www.w3.org/2000/svg" xmlns:xlink="http://www.w3.org/1999/xlink">
<g id="graph0" class="graph" transform="scale(1 1) rotate(0) translate(4 133)">
<title>src/logfile/logfile.h</title>
<!-- Node1 -->
<g id="node1" class="node">
<title>Node1</title>
<g id="a_node1"><a xlink:title="Logfile declaration">
<polygon fill="#999999" stroke="#666666" points="169.5,-129 76.5,-129 76.5,-110 169.5,-110 169.5,-129"/>
<text text-anchor="middle" x="123" y="-117" font-family="Helvetica,sans-Serif" font-size="10.00">src/logfile/logfile.h</text>
</a>
</g>
</g>
<!-- Node2 -->
<g id="node2" class="node">
<title>Node2</title>
<g id="a_node2"><a xlink:title=" ">
<polygon fill="#e0e0e0" stroke="#999999" points="40,-74 0,-74 0,-55 40,-55 40,-74"/>
<text text-anchor="middle" x="20" y="-62" font-family="Helvetica,sans-Serif" font-size="10.00">QFile</text>
</a>
</g>
</g>
<!-- Node1&#45;&gt;Node2 -->
<g id="edge1" class="edge">
<title>Node1&#45;&gt;Node2</title>
<path fill="none" stroke="#63b8ff" d="M105.53,-109.51C89.6,-101.31 65.81,-89.07 47.36,-79.58"/>
<polygon fill="#63b8ff" stroke="#63b8ff" points="49.05,-76.51 38.56,-75.05 45.85,-82.74 49.05,-76.51"/>
</g>
<!-- Node3 -->
<g id="node3" class="node">
<title>Node3</title>
<g id="a_node3"><a xlink:title=" ">
<polygon fill="#e0e0e0" stroke="#999999" points="163,-19 89,-19 89,0 163,0 163,-19"/>
<text text-anchor="middle" x="126" y="-7" font-family="Helvetica,sans-Serif" font-size="10.00">QTextStream</text>
</a>
</g>
</g>
<!-- Node1&#45;&gt;Node3 -->
<g id="edge2" class="edge">
<title>Node1&#45;&gt;Node3</title>
<path fill="none" stroke="#63b8ff" d="M112.35,-109.89C99.11,-98.06 79.15,-75.88 87,-55 91.04,-44.27 98.97,-34.43 106.63,-26.76"/>
<polygon fill="#63b8ff" stroke="#63b8ff" points="108.58,-29.72 113.53,-20.36 103.82,-24.59 108.58,-29.72"/>
</g>
<!-- Node4 -->
<g id="node4" class="node">
<title>Node4</title>
<g id="a_node4"><a xlink:title=" ">
<polygon fill="#e0e0e0" stroke="#999999" points="149.5,-74 96.5,-74 96.5,-55 149.5,-55 149.5,-74"/>
<text text-anchor="middle" x="123" y="-62" font-family="Helvetica,sans-Serif" font-size="10.00">QVector</text>
</a>
</g>
</g>
<!-- Node1&#45;&gt;Node4 -->
<g id="edge3" class="edge">
<title>Node1&#45;&gt;Node4</title>
<path fill="none" stroke="#63b8ff" d="M123,-109.75C123,-103.27 123,-94.16 123,-85.9"/>
<polygon fill="#63b8ff" stroke="#63b8ff" points="126.5,-85.96 123,-75.96 119.5,-85.96 126.5,-85.96"/>
</g>
<!-- Node5 -->
<g id="node5" class="node">
<title>Node5</title>
<g id="a_node5"><a xlink:title=" ">
<polygon fill="#e0e0e0" stroke="#999999" points="208,-74 168,-74 168,-55 208,-55 208,-74"/>
<text text-anchor="middle" x="188" y="-62" font-family="Helvetica,sans-Serif" font-size="10.00">limits</text>
</a>
</g>
</g>
<!-- Node1&#45;&gt;Node5 -->
<g id="edge4" class="edge">
<title>Node1&#45;&gt;Node5</title>
<path fill="none" stroke="#63b8ff" d="M134.03,-109.51C143.42,-101.85 157.15,-90.66 168.41,-81.47"/>
<polygon fill="#63b8ff" stroke="#63b8ff" points="170.43,-84.35 175.96,-75.31 166,-78.92 170.43,-84.35"/>
</g>
<!-- Node6 -->
<g id="node6" class="node">
<title>Node6</title>
<g id="a_node6"><a xlink:href="parser_8h.html" target="_top" xlink:title="Parser declaration">
<polygon fill="white" stroke="#666666" points="315.5,-74 226.5,-74 226.5,-55 315.5,-55 315.5,-74"/>
<text text-anchor="middle" x="271" y="-62" font-family="Helvetica,sans-Serif" font-size="10.00">../parser/parser.h</text>
</a>
</g>
</g>
<!-- Node1&#45;&gt;Node6 -->
<g id="edge5" class="edge">
<title>Node1&#45;&gt;Node6</title>
<path fill="none" stroke="#63b8ff" d="M148.11,-109.51C172.17,-100.89 208.72,-87.8 235.71,-78.14"/>
<polygon fill="#63b8ff" stroke="#63b8ff" points="236.61,-81.53 244.84,-74.87 234.25,-74.94 236.61,-81.53"/>
</g>
<!-- Node6&#45;&gt;Node3 -->
<g id="edge8" class="edge">
<title>Node6&#45;&gt;Node3</title>
<path fill="none" stroke="#63b8ff" d="M246.4,-54.51C222.93,-45.93 187.33,-32.92 160.93,-23.27"/>
<polygon fill="#63b8ff" stroke="#63b8ff" points="162.25,-20.02 151.66,-19.88 159.85,-26.6 162.25,-20.02"/>
</g>
<!-- Node7 -->
<g id="node7" class="node">
<title>Node7</title>
<g id="a_node7"><a xlink:title=" ">
<polygon fill="#e0e0e0" stroke="#999999" points="265,-19 199,-19 199,0 265,0 265,-19"/>
<text text-anchor="middle" x="232" y="-7" font-family="Helvetica,sans-Serif" font-size="10.00">QByteArray</text>
</a>
</g>
</g>
<!-- Node6&#45;&gt;Node7 -->
<g id="edge6" class="edge">
<title>Node6&#45;&gt;Node7</title>
<path fill="none" stroke="#63b8ff" d="M264.56,-54.75C259.34,-47.66 251.81,-37.42 245.31,-28.59"/>
<polygon fill="#63b8ff" stroke="#63b8ff" points="248.22,-26.64 239.48,-20.66 242.58,-30.79 248.22,-26.64"/>
</g>
<!-- Node8 -->
<g id="node8" class="node">
<title>Node8</title>
<g id="a_node8"><a xlink:title=" ">
<polygon fill="#e0e0e0" stroke="#999999" points="336.5,-19 283.5,-19 283.5,0 336.5,0 336.5,-19"/>
<text text-anchor="middle" x="310" y="-7" font-family="Helvetica,sans-Serif" font-size="10.00">QObject</text>
</a>
</g>
</g>
<!-- Node6&#45;&gt;Node8 -->
<g id="edge7" class="edge">
<title>Node6&#45;&gt;Node8</title>
<path fill="none" stroke="#63b8ff" d="M277.44,-54.75C282.66,-47.66 290.19,-37.42 296.69,-28.59"/>
<polygon fill="#63b8ff" stroke="#63b8ff" points="299.42,-30.79 302.52,-20.66 293.78,-26.64 299.42,-30.79"/>
</g>
</g>
</svg>
