<?xml version="1.0" encoding="UTF-8" standalone="no"?>
<!DOCTYPE svg PUBLIC "-//W3C//DTD SVG 1.1//EN"
 "http://www.w3.org/Graphics/SVG/1.1/DTD/svg11.dtd">
<!-- Generated by graphviz version 7.0.5 (20221223.1930)
 -->
<!-- Title: src/logfile/logfile.cpp Pages: 1 -->
<svg width="464pt" height="192pt"
 viewBox="0.00 0.00 464.00 192.00" xmlns="http://www.w3.org/2000/svg" xmlns:xlink="http://www.w3.org/1999/xlink">
<g id="graph0" class="graph" transform="scale(1 1) rotate(0) translate(4 188)">
<title>src/logfile/logfile.cpp</title>
<!-- Node1 -->
<g id="node1" class="node">
<title>Node1</title>
<g id="a_node1"><a xlink:title="Logfile implementation">
<polygon fill="#999999" stroke="#666666" points="354,-184 250,-184 250,-165 354,-165 354,-184"/>
<text text-anchor="middle" x="302" y="-172" font-family="Helvetica,sans-Serif" font-size="10.00">src/logfile/logfile.cpp</text>
</a>
</g>
</g>
<!-- Node2 -->
<g id="node2" class="node">
<title>Node2</title>
<g id="a_node2"><a xlink:href="logfile_8h.html" target="_top" xlink:title="Logfile declaration">
<polygon fill="white" stroke="#666666" points="147.5,-129 98.5,-129 98.5,-110 147.5,-110 147.5,-129"/>
<text text-anchor="middle" x="123" y="-117" font-family="Helvetica,sans-Serif" font-size="10.00">logfile.h</text>
</a>
</g>
</g>
<!-- Node1&#45;&gt;Node2 -->
<g id="edge1" class="edge">
<title>Node1&#45;&gt;Node2</title>
<path fill="none" stroke="#63b8ff" d="M271.64,-164.51C240.41,-155.26 191.79,-140.87 158.73,-131.08"/>
<polygon fill="#63b8ff" stroke="#63b8ff" points="159.77,-127.74 149.19,-128.25 157.79,-134.45 159.77,-127.74"/>
</g>
<!-- Node10 -->
<g id="node10" class="node">
<title>Node10</title>
<g id="a_node10"><a xlink:title=" ">
<polygon fill="#e0e0e0" stroke="#999999" points="258,-129 166,-129 166,-110 258,-110 258,-129"/>
<text text-anchor="middle" x="212" y="-117" font-family="Helvetica,sans-Serif" font-size="10.00">QCoreApplication</text>
</a>
</g>
</g>
<!-- Node1&#45;&gt;Node10 -->
<g id="edge10" class="edge">
<title>Node1&#45;&gt;Node10</title>
<path fill="none" stroke="#63b8ff" d="M286.73,-164.51C273.07,-156.47 252.8,-144.53 236.82,-135.11"/>
<polygon fill="#63b8ff" stroke="#63b8ff" points="238.74,-132.18 228.35,-130.13 235.19,-138.22 238.74,-132.18"/>
</g>
<!-- Node11 -->
<g id="node11" class="node">
<title>Node11</title>
<g id="a_node11"><a xlink:title=" ">
<polygon fill="#e0e0e0" stroke="#999999" points="328,-129 276,-129 276,-110 328,-110 328,-129"/>
<text text-anchor="middle" x="302" y="-117" font-family="Helvetica,sans-Serif" font-size="10.00">QDebug</text>
</a>
</g>
</g>
<!-- Node1&#45;&gt;Node11 -->
<g id="edge11" class="edge">
<title>Node1&#45;&gt;Node11</title>
<path fill="none" stroke="#63b8ff" d="M302,-164.75C302,-158.27 302,-149.16 302,-140.9"/>
<polygon fill="#63b8ff" stroke="#63b8ff" points="305.5,-140.96 302,-130.96 298.5,-140.96 305.5,-140.96"/>
</g>
<!-- Node12 -->
<g id="node12" class="node">
<title>Node12</title>
<g id="a_node12"><a xlink:title=" ">
<polygon fill="#e0e0e0" stroke="#999999" points="382,-129 346,-129 346,-110 382,-110 382,-129"/>
<text text-anchor="middle" x="364" y="-117" font-family="Helvetica,sans-Serif" font-size="10.00">QDir</text>
</a>
</g>
</g>
<!-- Node1&#45;&gt;Node12 -->
<g id="edge12" class="edge">
<title>Node1&#45;&gt;Node12</title>
<path fill="none" stroke="#63b8ff" d="M312.52,-164.51C321.39,-156.93 334.31,-145.88 344.99,-136.75"/>
<polygon fill="#63b8ff" stroke="#63b8ff" points="347.16,-139.5 352.49,-130.34 342.61,-134.18 347.16,-139.5"/>
</g>
<!-- Node13 -->
<g id="node13" class="node">
<title>Node13</title>
<g id="a_node13"><a xlink:title=" ">
<polygon fill="#e0e0e0" stroke="#999999" points="456,-129 400,-129 400,-110 456,-110 456,-129"/>
<text text-anchor="middle" x="428" y="-117" font-family="Helvetica,sans-Serif" font-size="10.00">algorithm</text>
</a>
</g>
</g>
<!-- Node1&#45;&gt;Node13 -->
<g id="edge13" class="edge">
<title>Node1&#45;&gt;Node13</title>
<path fill="none" stroke="#63b8ff" d="M323.37,-164.51C343.41,-156.08 373.6,-143.38 396.41,-133.79"/>
<polygon fill="#63b8ff" stroke="#63b8ff" points="397.69,-137.05 405.55,-129.94 394.97,-130.6 397.69,-137.05"/>
</g>
<!-- Node3 -->
<g id="node3" class="node">
<title>Node3</title>
<g id="a_node3"><a xlink:title=" ">
<polygon fill="#e0e0e0" stroke="#999999" points="40,-74 0,-74 0,-55 40,-55 40,-74"/>
<text text-anchor="middle" x="20" y="-62" font-family="Helvetica,sans-Serif" font-size="10.00">QFile</text>
</a>
</g>
</g>
<!-- Node2&#45;&gt;Node3 -->
<g id="edge2" class="edge">
<title>Node2&#45;&gt;Node3</title>
<path fill="none" stroke="#63b8ff" d="M105.53,-109.51C89.6,-101.31 65.81,-89.07 47.36,-79.58"/>
<polygon fill="#63b8ff" stroke="#63b8ff" points="49.05,-76.51 38.56,-75.05 45.85,-82.74 49.05,-76.51"/>
</g>
<!-- Node4 -->
<g id="node4" class="node">
<title>Node4</title>
<g id="a_node4"><a xlink:title=" ">
<polygon fill="#e0e0e0" stroke="#999999" points="163,-19 89,-19 89,0 163,0 163,-19"/>
<text text-anchor="middle" x="126" y="-7" font-family="Helvetica,sans-Serif" font-size="10.00">QTextStream</text>
</a>
</g>
</g>
<!-- Node2&#45;&gt;Node4 -->
<g id="edge3" class="edge">
<title>Node2&#45;&gt;Node4</title>
<path fill="none" stroke="#63b8ff" d="M112.35,-109.89C99.11,-98.06 79.15,-75.88 87,-55 91.04,-44.27 98.97,-34.43 106.63,-26.76"/>
<polygon fill="#63b8ff" stroke="#63b8ff" points="108.58,-29.72 113.53,-20.36 103.82,-24.59 108.58,-29.72"/>
</g>
<!-- Node5 -->
<g id="node5" class="node">
<title>Node5</title>
<g id="a_node5"><a xlink:title=" ">
<polygon fill="#e0e0e0" stroke="#999999" points="149.5,-74 96.5,-74 96.5,-55 149.5,-55 149.5,-74"/>
<text text-anchor="middle" x="123" y="-62" font-family="Helvetica,sans-Serif" font-size="10.00">QVector</text>
</a>
</g>
</g>
<!-- Node2&#45;&gt;Node5 -->
<g id="edge4" class="edge">
<title>Node2&#45;&gt;Node5</title>
<path fill="none" stroke="#63b8ff" d="M123,-109.75C123,-103.27 123,-94.16 123,-85.9"/>
<polygon fill="#63b8ff" stroke="#63b8ff" points="126.5,-85.96 123,-75.96 119.5,-85.96 126.5,-85.96"/>
</g>
<!-- Node6 -->
<g id="node6" class="node">
<title>Node6</title>
<g id="a_node6"><a xlink:title=" ">
<polygon fill="#e0e0e0" stroke="#999999" points="208,-74 168,-74 168,-55 208,-55 208,-74"/>
<text text-anchor="middle" x="188" y="-62" font-family="Helvetica,sans-Serif" font-size="10.00">limits</text>
</a>
</g>
</g>
<!-- Node2&#45;&gt;Node6 -->
<g id="edge5" class="edge">
<title>Node2&#45;&gt;Node6</title>
<path fill="none" stroke="#63b8ff" d="M134.03,-109.51C143.42,-101.85 157.15,-90.66 168.41,-81.47"/>
<polygon fill="#63b8ff" stroke="#63b8ff" points="170.43,-84.35 175.96,-75.31 166,-78.92 170.43,-84.35"/>
</g>
<!-- Node7 -->
<g id="node7" class="node">
<title>Node7</title>
<g id="a_node7"><a xlink:href="parser_8h.html" target="_top" xlink:title="Parser declaration">
<polygon fill="white" stroke="#666666" points="315.5,-74 226.5,-74 226.5,-55 315.5,-55 315.5,-74"/>
<text text-anchor="middle" x="271" y="-62" font-family="Helvetica,sans-Serif" font-size="10.00">../parser/parser.h</text>
</a>
</g>
</g>
<!-- Node2&#45;&gt;Node7 -->
<g id="edge6" class="edge">
<title>Node2&#45;&gt;Node7</title>
<path fill="none" stroke="#63b8ff" d="M147.77,-109.63C171.78,-101.03 208.45,-87.9 235.55,-78.2"/>
<polygon fill="#63b8ff" stroke="#63b8ff" points="236.49,-81.58 244.72,-74.91 234.13,-74.99 236.49,-81.58"/>
</g>
<!-- Node7&#45;&gt;Node4 -->
<g id="edge9" class="edge">
<title>Node7&#45;&gt;Node4</title>
<path fill="none" stroke="#63b8ff" d="M246.4,-54.51C222.93,-45.93 187.33,-32.92 160.93,-23.27"/>
<polygon fill="#63b8ff" stroke="#63b8ff" points="162.25,-20.02 151.66,-19.88 159.85,-26.6 162.25,-20.02"/>
</g>
<!-- Node8 -->
<g id="node8" class="node">
<title>Node8</title>
<g id="a_node8"><a xlink:title=" ">
<polygon fill="#e0e0e0" stroke="#999999" points="265,-19 199,-19 199,0 265,0 265,-19"/>
<text text-anchor="middle" x="232" y="-7" font-family="Helvetica,sans-Serif" font-size="10.00">QByteArray</text>
</a>
</g>
</g>
<!-- Node7&#45;&gt;Node8 -->
<g id="edge7" class="edge">
<title>Node7&#45;&gt;Node8</title>
<path fill="none" stroke="#63b8ff" d="M264.56,-54.75C259.34,-47.66 251.81,-37.42 245.31,-28.59"/>
<polygon fill="#63b8ff" stroke="#63b8ff" points="248.22,-26.64 239.48,-20.66 242.58,-30.79 248.22,-26.64"/>
</g>
<!-- Node9 -->
<g id="node9" class="node">
<title>Node9</title>
<g id="a_node9"><a xlink:title=" ">
<polygon fill="#e0e0e0" stroke="#999999" points="336.5,-19 283.5,-19 283.5,0 336.5,0 336.5,-19"/>
<text text-anchor="middle" x="310" y="-7" font-family="Helvetica,sans-Serif" font-size="10.00">QObject</text>
</a>
</g>
</g>
<!-- Node7&#45;&gt;Node9 -->
<g id="edge8" class="edge">
<title>Node7&#45;&gt;Node9</title>
<path fill="none" stroke="#63b8ff" d="M277.44,-54.75C282.66,-47.66 290.19,-37.42 296.69,-28.59"/>
<polygon fill="#63b8ff" stroke="#63b8ff" points="299.42,-30.79 302.52,-20.66 293.78,-26.64 299.42,-30.79"/>
</g>
</g>
</svg>
