<?xml version="1.0" encoding="UTF-8" standalone="no"?>
<!DOCTYPE svg PUBLIC "-//W3C//DTD SVG 1.1//EN"
 "http://www.w3.org/Graphics/SVG/1.1/DTD/svg11.dtd">
<!-- Generated by graphviz version 7.0.5 (20221223.1930)
 -->
<!-- Title: src/gui/mainwindow.cpp Pages: 1 -->
<svg width="1317pt" height="434pt"
 viewBox="0.00 0.00 1316.50 434.00" xmlns="http://www.w3.org/2000/svg" xmlns:xlink="http://www.w3.org/1999/xlink">
<g id="graph0" class="graph" transform="scale(1 1) rotate(0) translate(4 430)">
<title>src/gui/mainwindow.cpp</title>
<!-- Node1 -->
<g id="node1" class="node">
<title>Node1</title>
<g id="a_node1"><a xlink:title="MainWindow implementation">
<polygon fill="#999999" stroke="#666666" points="1029.5,-426 908.5,-426 908.5,-407 1029.5,-407 1029.5,-426"/>
<text text-anchor="middle" x="969" y="-414" font-family="Helvetica,sans-Serif" font-size="10.00">src/gui/mainwindow.cpp</text>
</a>
</g>
</g>
<!-- Node2 -->
<g id="node2" class="node">
<title>Node2</title>
<g id="a_node2"><a xlink:href="mainwindow_8h.html" target="_top" xlink:title="MainWindow declaration">
<polygon fill="white" stroke="#666666" points="509,-371 431,-371 431,-352 509,-352 509,-371"/>
<text text-anchor="middle" x="470" y="-359" font-family="Helvetica,sans-Serif" font-size="10.00">mainwindow.h</text>
</a>
</g>
</g>
<!-- Node1&#45;&gt;Node2 -->
<g id="edge1" class="edge">
<title>Node1&#45;&gt;Node2</title>
<path fill="none" stroke="#63b8ff" d="M908.31,-409.05C808.93,-398.5 613.29,-377.72 520.77,-367.89"/>
<polygon fill="#63b8ff" stroke="#63b8ff" points="521.3,-364.43 510.99,-366.85 520.56,-371.39 521.3,-364.43"/>
</g>
<!-- Node10 -->
<g id="node10" class="node">
<title>Node10</title>
<g id="a_node10"><a xlink:href="notification_8h.html" target="_top" xlink:title="Notification declaration">
<polygon fill="white" stroke="#666666" points="186,-316 58,-316 58,-297 186,-297 186,-316"/>
<text text-anchor="middle" x="122" y="-304" font-family="Helvetica,sans-Serif" font-size="10.00">../notification/notification.h</text>
</a>
</g>
</g>
<!-- Node1&#45;&gt;Node10 -->
<g id="edge39" class="edge">
<title>Node1&#45;&gt;Node10</title>
<path fill="none" stroke="#63b8ff" d="M908.01,-413.08C806.66,-408.48 597.36,-396.59 422,-371 331.13,-357.74 226.51,-333.52 167.93,-319.13"/>
<polygon fill="#63b8ff" stroke="#63b8ff" points="168.86,-315.75 158.31,-316.75 167.18,-322.55 168.86,-315.75"/>
</g>
<!-- Node21 -->
<g id="node21" class="node">
<title>Node21</title>
<g id="a_node21"><a xlink:title=" ">
<polygon fill="#e0e0e0" stroke="#999999" points="861.5,-261 812.5,-261 812.5,-242 861.5,-242 861.5,-261"/>
<text text-anchor="middle" x="837" y="-249" font-family="Helvetica,sans-Serif" font-size="10.00">QTimer</text>
</a>
</g>
</g>
<!-- Node1&#45;&gt;Node21 -->
<g id="edge36" class="edge">
<title>Node1&#45;&gt;Node21</title>
<path fill="none" stroke="#63b8ff" d="M921.41,-406.57C899.96,-400.17 876.1,-389.3 861,-371 837.8,-342.88 835.03,-298.38 835.65,-272.67"/>
<polygon fill="#63b8ff" stroke="#63b8ff" points="839.14,-273.07 836.1,-262.92 832.14,-272.75 839.14,-273.07"/>
</g>
<!-- Node23 -->
<g id="node23" class="node">
<title>Node23</title>
<g id="a_node23"><a xlink:title=" ">
<polygon fill="#e0e0e0" stroke="#999999" points="968,-371 870,-371 870,-352 968,-352 968,-371"/>
<text text-anchor="middle" x="919" y="-359" font-family="Helvetica,sans-Serif" font-size="10.00">QDesktopServices</text>
</a>
</g>
</g>
<!-- Node1&#45;&gt;Node23 -->
<g id="edge33" class="edge">
<title>Node1&#45;&gt;Node23</title>
<path fill="none" stroke="#63b8ff" d="M960.74,-406.75C953.84,-399.43 943.78,-388.76 935.26,-379.74"/>
<polygon fill="#63b8ff" stroke="#63b8ff" points="937.88,-377.42 928.47,-372.54 932.79,-382.22 937.88,-377.42"/>
</g>
<!-- Node24 -->
<g id="node24" class="node">
<title>Node24</title>
<g id="a_node24"><a xlink:title=" ">
<polygon fill="#e0e0e0" stroke="#999999" points="1053.5,-371 986.5,-371 986.5,-352 1053.5,-352 1053.5,-371"/>
<text text-anchor="middle" x="1020" y="-359" font-family="Helvetica,sans-Serif" font-size="10.00">QFileDialog</text>
</a>
</g>
</g>
<!-- Node1&#45;&gt;Node24 -->
<g id="edge34" class="edge">
<title>Node1&#45;&gt;Node24</title>
<path fill="none" stroke="#63b8ff" d="M977.42,-406.75C984.47,-399.43 994.73,-388.76 1003.41,-379.74"/>
<polygon fill="#63b8ff" stroke="#63b8ff" points="1005.93,-382.17 1010.35,-372.53 1000.89,-377.31 1005.93,-382.17"/>
</g>
<!-- Node25 -->
<g id="node25" class="node">
<title>Node25</title>
<g id="a_node25"><a xlink:title=" ">
<polygon fill="#e0e0e0" stroke="#999999" points="1160.5,-371 1071.5,-371 1071.5,-352 1160.5,-352 1160.5,-371"/>
<text text-anchor="middle" x="1116" y="-359" font-family="Helvetica,sans-Serif" font-size="10.00">QStandardPaths</text>
</a>
</g>
</g>
<!-- Node1&#45;&gt;Node25 -->
<g id="edge35" class="edge">
<title>Node1&#45;&gt;Node25</title>
<path fill="none" stroke="#63b8ff" d="M993.94,-406.51C1017.84,-397.89 1054.14,-384.8 1080.95,-375.14"/>
<polygon fill="#63b8ff" stroke="#63b8ff" points="1081.79,-378.56 1090.01,-371.87 1079.41,-371.97 1081.79,-378.56"/>
</g>
<!-- Node26 -->
<g id="node26" class="node">
<title>Node26</title>
<g id="a_node26"><a xlink:href="command_8h.html" target="_top" xlink:title="All commands for the linescale3.">
<polygon fill="white" stroke="#666666" points="1167,-140 1047,-140 1047,-110 1167,-110 1167,-140"/>
<text text-anchor="start" x="1055" y="-128" font-family="Helvetica,sans-Serif" font-size="10.00">../deviceCommunication</text>
<text text-anchor="middle" x="1107" y="-117" font-family="Helvetica,sans-Serif" font-size="10.00">/command.h</text>
</a>
</g>
</g>
<!-- Node1&#45;&gt;Node26 -->
<g id="edge37" class="edge">
<title>Node1&#45;&gt;Node26</title>
<path fill="none" stroke="#63b8ff" d="M1029.95,-408.83C1081.42,-402 1149.88,-389.71 1170,-371 1191.58,-350.94 1189,-336.96 1189,-307.5 1189,-307.5 1189,-307.5 1189,-250.5 1189,-209.24 1157.2,-171.09 1133.21,-148.17"/>
<polygon fill="#63b8ff" stroke="#63b8ff" points="1135.64,-145.65 1125.91,-141.46 1130.9,-150.81 1135.64,-145.65"/>
</g>
<!-- Node27 -->
<g id="node27" class="node">
<title>Node27</title>
<g id="a_node27"><a xlink:title=" ">
<polygon fill="#e0e0e0" stroke="#999999" points="1308.5,-371 1217.5,-371 1217.5,-352 1308.5,-352 1308.5,-371"/>
<text text-anchor="middle" x="1263" y="-359" font-family="Helvetica,sans-Serif" font-size="10.00">ui_mainwindow.h</text>
</a>
</g>
</g>
<!-- Node1&#45;&gt;Node27 -->
<g id="edge40" class="edge">
<title>Node1&#45;&gt;Node27</title>
<path fill="none" stroke="#63b8ff" d="M1018.87,-406.51C1070.72,-397.16 1151.75,-382.55 1206.08,-372.76"/>
<polygon fill="#63b8ff" stroke="#63b8ff" points="1206.53,-376.24 1215.75,-371.02 1205.29,-369.35 1206.53,-376.24"/>
</g>
<!-- Node3 -->
<g id="node3" class="node">
<title>Node3</title>
<g id="a_node3"><a xlink:title=" ">
<polygon fill="#e0e0e0" stroke="#999999" points="776,-316 696,-316 696,-297 776,-297 776,-316"/>
<text text-anchor="middle" x="736" y="-304" font-family="Helvetica,sans-Serif" font-size="10.00">QMainWindow</text>
</a>
</g>
</g>
<!-- Node2&#45;&gt;Node3 -->
<g id="edge2" class="edge">
<title>Node2&#45;&gt;Node3</title>
<path fill="none" stroke="#63b8ff" d="M509.25,-352.68C555.74,-343.42 633.31,-327.96 684.57,-317.75"/>
<polygon fill="#63b8ff" stroke="#63b8ff" points="685.11,-321.21 694.23,-315.82 683.74,-314.34 685.11,-321.21"/>
</g>
<!-- Node4 -->
<g id="node4" class="node">
<title>Node4</title>
<g id="a_node4"><a xlink:href="comm_master_8h.html" target="_top" xlink:title="comm::CommMaster declaration">
<polygon fill="white" stroke="#666666" points="420,-206 300,-206 300,-176 420,-176 420,-206"/>
<text text-anchor="start" x="308" y="-194" font-family="Helvetica,sans-Serif" font-size="10.00">../deviceCommunication</text>
<text text-anchor="middle" x="360" y="-183" font-family="Helvetica,sans-Serif" font-size="10.00">/commMaster.h</text>
</a>
</g>
</g>
<!-- Node2&#45;&gt;Node4 -->
<g id="edge3" class="edge">
<title>Node2&#45;&gt;Node4</title>
<path fill="none" stroke="#63b8ff" d="M430.61,-355.86C366.52,-347.91 245.51,-331.08 233,-316 199.73,-275.9 265.82,-234.67 314.52,-211.3"/>
<polygon fill="#63b8ff" stroke="#63b8ff" points="315.96,-214.5 323.55,-207.1 313.01,-208.15 315.96,-214.5"/>
</g>
<!-- Node8 -->
<g id="node8" class="node">
<title>Node8</title>
<g id="a_node8"><a xlink:href="parser_8h.html" target="_top" xlink:title="Parser declaration">
<polygon fill="white" stroke="#666666" points="828.5,-74 739.5,-74 739.5,-55 828.5,-55 828.5,-74"/>
<text text-anchor="middle" x="784" y="-62" font-family="Helvetica,sans-Serif" font-size="10.00">../parser/parser.h</text>
</a>
</g>
</g>
<!-- Node2&#45;&gt;Node8 -->
<g id="edge15" class="edge">
<title>Node2&#45;&gt;Node8</title>
<path fill="none" stroke="#63b8ff" d="M509.36,-360.26C570.31,-358.74 690.35,-351.05 785,-316 827.55,-300.24 849.21,-300.8 871,-261 906.03,-197.01 836.14,-116.17 801.67,-81.97"/>
<polygon fill="#63b8ff" stroke="#63b8ff" points="804.47,-79.81 794.84,-75.37 799.6,-84.84 804.47,-79.81"/>
</g>
<!-- Node2&#45;&gt;Node10 -->
<g id="edge11" class="edge">
<title>Node2&#45;&gt;Node10</title>
<path fill="none" stroke="#63b8ff" d="M430.76,-354.52C372.97,-345.72 264.08,-329.14 192.28,-318.2"/>
<polygon fill="#63b8ff" stroke="#63b8ff" points="193,-314.77 182.59,-316.73 191.95,-321.69 193,-314.77"/>
</g>
<!-- Node13 -->
<g id="node13" class="node">
<title>Node13</title>
<g id="a_node13"><a xlink:href="dialogabout_8h.html" target="_top" xlink:title="DialogAbout declaration">
<polygon fill="white" stroke="#666666" points="410,-316 336,-316 336,-297 410,-297 410,-316"/>
<text text-anchor="middle" x="373" y="-304" font-family="Helvetica,sans-Serif" font-size="10.00">dialogabout.h</text>
</a>
</g>
</g>
<!-- Node2&#45;&gt;Node13 -->
<g id="edge16" class="edge">
<title>Node2&#45;&gt;Node13</title>
<path fill="none" stroke="#63b8ff" d="M453.55,-351.51C438.68,-343.39 416.56,-331.3 399.25,-321.85"/>
<polygon fill="#63b8ff" stroke="#63b8ff" points="400.99,-318.81 390.54,-317.08 397.64,-324.95 400.99,-318.81"/>
</g>
<!-- Node15 -->
<g id="node15" class="node">
<title>Node15</title>
<g id="a_node15"><a xlink:href="dialogconnect_8h.html" target="_top" xlink:title="DialogConnect declaration">
<polygon fill="white" stroke="#666666" points="512,-316 428,-316 428,-297 512,-297 512,-316"/>
<text text-anchor="middle" x="470" y="-304" font-family="Helvetica,sans-Serif" font-size="10.00">dialogconnect.h</text>
</a>
</g>
</g>
<!-- Node2&#45;&gt;Node15 -->
<g id="edge18" class="edge">
<title>Node2&#45;&gt;Node15</title>
<path fill="none" stroke="#63b8ff" d="M470,-351.75C470,-345.27 470,-336.16 470,-327.9"/>
<polygon fill="#63b8ff" stroke="#63b8ff" points="473.5,-327.96 470,-317.96 466.5,-327.96 473.5,-327.96"/>
</g>
<!-- Node18 -->
<g id="node18" class="node">
<title>Node18</title>
<g id="a_node18"><a xlink:href="dialogdebug_8h.html" target="_top" xlink:title="DialogDebug declaration">
<polygon fill="white" stroke="#666666" points="318,-316 242,-316 242,-297 318,-297 318,-316"/>
<text text-anchor="middle" x="280" y="-304" font-family="Helvetica,sans-Serif" font-size="10.00">dialogdebug.h</text>
</a>
</g>
</g>
<!-- Node2&#45;&gt;Node18 -->
<g id="edge24" class="edge">
<title>Node2&#45;&gt;Node18</title>
<path fill="none" stroke="#63b8ff" d="M437.77,-351.51C406.15,-342.69 357.73,-329.18 322.87,-319.46"/>
<polygon fill="#63b8ff" stroke="#63b8ff" points="324.1,-316.17 313.53,-316.85 322.22,-322.91 324.1,-316.17"/>
</g>
<!-- Node19 -->
<g id="node19" class="node">
<title>Node19</title>
<g id="a_node19"><a xlink:href="plot_widget_8h.html" target="_top" xlink:title="Plot declaration">
<polygon fill="white" stroke="#666666" points="678,-316 608,-316 608,-297 678,-297 678,-316"/>
<text text-anchor="middle" x="643" y="-304" font-family="Helvetica,sans-Serif" font-size="10.00">plotWidget.h</text>
</a>
</g>
</g>
<!-- Node2&#45;&gt;Node19 -->
<g id="edge27" class="edge">
<title>Node2&#45;&gt;Node19</title>
<path fill="none" stroke="#63b8ff" d="M499.35,-351.51C527.89,-342.76 571.46,-329.42 603.14,-319.71"/>
<polygon fill="#63b8ff" stroke="#63b8ff" points="603.81,-323.17 612.35,-316.89 601.76,-316.47 603.81,-323.17"/>
</g>
<!-- Node5 -->
<g id="node5" class="node">
<title>Node5</title>
<g id="a_node5"><a xlink:title=" ">
<polygon fill="#e0e0e0" stroke="#999999" points="405.5,-19 352.5,-19 352.5,0 405.5,0 405.5,-19"/>
<text text-anchor="middle" x="379" y="-7" font-family="Helvetica,sans-Serif" font-size="10.00">QObject</text>
</a>
</g>
</g>
<!-- Node4&#45;&gt;Node5 -->
<g id="edge4" class="edge">
<title>Node4&#45;&gt;Node5</title>
<path fill="none" stroke="#63b8ff" d="M361.52,-175.61C364.89,-143.76 373,-67.22 376.87,-30.64"/>
<polygon fill="#63b8ff" stroke="#63b8ff" points="380.32,-31.32 377.89,-21 373.35,-30.58 380.32,-31.32"/>
</g>
<!-- Node6 -->
<g id="node6" class="node">
<title>Node6</title>
<g id="a_node6"><a xlink:href="comm_device_8h.html" target="_top" xlink:title="comm::CommDevice declaration">
<polygon fill="white" stroke="#666666" points="481.5,-134.5 400.5,-134.5 400.5,-115.5 481.5,-115.5 481.5,-134.5"/>
<text text-anchor="middle" x="441" y="-122.5" font-family="Helvetica,sans-Serif" font-size="10.00">commDevice.h</text>
</a>
</g>
</g>
<!-- Node4&#45;&gt;Node6 -->
<g id="edge5" class="edge">
<title>Node4&#45;&gt;Node6</title>
<path fill="none" stroke="#63b8ff" d="M377.98,-175.8C390.73,-165.72 407.85,-152.19 421.03,-141.78"/>
<polygon fill="#63b8ff" stroke="#63b8ff" points="422.94,-144.73 428.62,-135.78 418.6,-139.24 422.94,-144.73"/>
</g>
<!-- Node6&#45;&gt;Node5 -->
<g id="edge7" class="edge">
<title>Node6&#45;&gt;Node5</title>
<path fill="none" stroke="#63b8ff" d="M436.13,-115.09C426.08,-96.69 402.84,-54.14 389.3,-29.35"/>
<polygon fill="#63b8ff" stroke="#63b8ff" points="392.43,-27.79 384.57,-20.69 386.29,-31.15 392.43,-27.79"/>
</g>
<!-- Node7 -->
<g id="node7" class="node">
<title>Node7</title>
<g id="a_node7"><a xlink:title=" ">
<polygon fill="#e0e0e0" stroke="#999999" points="478,-74 426,-74 426,-55 478,-55 478,-74"/>
<text text-anchor="middle" x="452" y="-62" font-family="Helvetica,sans-Serif" font-size="10.00">QDebug</text>
</a>
</g>
</g>
<!-- Node6&#45;&gt;Node7 -->
<g id="edge6" class="edge">
<title>Node6&#45;&gt;Node7</title>
<path fill="none" stroke="#63b8ff" d="M442.62,-115.37C444.1,-107.5 446.34,-95.6 448.26,-85.39"/>
<polygon fill="#63b8ff" stroke="#63b8ff" points="451.68,-86.13 450.09,-75.65 444.8,-84.84 451.68,-86.13"/>
</g>
<!-- Node6&#45;&gt;Node8 -->
<g id="edge8" class="edge">
<title>Node6&#45;&gt;Node8</title>
<path fill="none" stroke="#63b8ff" d="M481.69,-117.06C542.88,-106.62 658.76,-86.86 727.92,-75.07"/>
<polygon fill="#63b8ff" stroke="#63b8ff" points="728.25,-78.56 737.52,-73.43 727.08,-71.66 728.25,-78.56"/>
</g>
<!-- Node8&#45;&gt;Node5 -->
<g id="edge10" class="edge">
<title>Node8&#45;&gt;Node5</title>
<path fill="none" stroke="#63b8ff" d="M739.11,-57.63C658.76,-47.11 491.78,-25.26 416.84,-15.45"/>
<polygon fill="#63b8ff" stroke="#63b8ff" points="417.5,-12.01 407.13,-14.18 416.59,-18.95 417.5,-12.01"/>
</g>
<!-- Node9 -->
<g id="node9" class="node">
<title>Node9</title>
<g id="a_node9"><a xlink:title=" ">
<polygon fill="#e0e0e0" stroke="#999999" points="935,-19 869,-19 869,0 935,0 935,-19"/>
<text text-anchor="middle" x="902" y="-7" font-family="Helvetica,sans-Serif" font-size="10.00">QByteArray</text>
</a>
</g>
</g>
<!-- Node8&#45;&gt;Node9 -->
<g id="edge9" class="edge">
<title>Node8&#45;&gt;Node9</title>
<path fill="none" stroke="#63b8ff" d="M804.02,-54.51C822.61,-46.16 850.54,-33.61 871.83,-24.05"/>
<polygon fill="#63b8ff" stroke="#63b8ff" points="873.21,-27.27 880.9,-19.98 870.34,-20.88 873.21,-27.27"/>
</g>
<!-- Node10&#45;&gt;Node5 -->
<g id="edge12" class="edge">
<title>Node10&#45;&gt;Node5</title>
<path fill="none" stroke="#63b8ff" d="M130.38,-296.63C138.04,-288.1 149.17,-274.54 156,-261 170.38,-232.49 176,-223.93 176,-192 176,-192 176,-192 176,-124 176,-49.24 282.19,-23.25 340.97,-14.59"/>
<polygon fill="#63b8ff" stroke="#63b8ff" points="341.11,-18.1 350.54,-13.28 340.16,-11.17 341.11,-18.1"/>
</g>
<!-- Node11 -->
<g id="node11" class="node">
<title>Node11</title>
<g id="a_node11"><a xlink:title=" ">
<polygon fill="#e0e0e0" stroke="#999999" points="50,-261 0,-261 0,-242 50,-242 50,-261"/>
<text text-anchor="middle" x="25" y="-249" font-family="Helvetica,sans-Serif" font-size="10.00">QString</text>
</a>
</g>
</g>
<!-- Node10&#45;&gt;Node11 -->
<g id="edge13" class="edge">
<title>Node10&#45;&gt;Node11</title>
<path fill="none" stroke="#63b8ff" d="M105.55,-296.51C90.68,-288.39 68.56,-276.3 51.25,-266.85"/>
<polygon fill="#63b8ff" stroke="#63b8ff" points="52.99,-263.81 42.54,-262.08 49.64,-269.95 52.99,-263.81"/>
</g>
<!-- Node12 -->
<g id="node12" class="node">
<title>Node12</title>
<g id="a_node12"><a xlink:title=" ">
<polygon fill="#e0e0e0" stroke="#999999" points="147.5,-261 68.5,-261 68.5,-242 147.5,-242 147.5,-261"/>
<text text-anchor="middle" x="108" y="-249" font-family="Helvetica,sans-Serif" font-size="10.00">QTextBrowser</text>
</a>
</g>
</g>
<!-- Node10&#45;&gt;Node12 -->
<g id="edge14" class="edge">
<title>Node10&#45;&gt;Node12</title>
<path fill="none" stroke="#63b8ff" d="M119.69,-296.75C117.94,-290.11 115.46,-280.73 113.23,-272.31"/>
<polygon fill="#63b8ff" stroke="#63b8ff" points="116.69,-271.68 110.75,-262.91 109.92,-273.47 116.69,-271.68"/>
</g>
<!-- Node14 -->
<g id="node14" class="node">
<title>Node14</title>
<g id="a_node14"><a xlink:title=" ">
<polygon fill="#e0e0e0" stroke="#999999" points="331.5,-261 280.5,-261 280.5,-242 331.5,-242 331.5,-261"/>
<text text-anchor="middle" x="306" y="-249" font-family="Helvetica,sans-Serif" font-size="10.00">QDialog</text>
</a>
</g>
</g>
<!-- Node13&#45;&gt;Node14 -->
<g id="edge17" class="edge">
<title>Node13&#45;&gt;Node14</title>
<path fill="none" stroke="#63b8ff" d="M361.63,-296.51C351.95,-288.85 337.8,-277.66 326.19,-268.47"/>
<polygon fill="#63b8ff" stroke="#63b8ff" points="328.4,-265.76 318.38,-262.3 324.06,-271.25 328.4,-265.76"/>
</g>
<!-- Node15&#45;&gt;Node4 -->
<g id="edge20" class="edge">
<title>Node15&#45;&gt;Node4</title>
<path fill="none" stroke="#63b8ff" d="M437.06,-296.56C417.88,-289.75 394.66,-278.51 380,-261 369.74,-248.75 364.74,-231.47 362.31,-217.28"/>
<polygon fill="#63b8ff" stroke="#63b8ff" points="365.83,-217.19 361.01,-207.75 358.89,-218.13 365.83,-217.19"/>
</g>
<!-- Node15&#45;&gt;Node14 -->
<g id="edge19" class="edge">
<title>Node15&#45;&gt;Node14</title>
<path fill="none" stroke="#63b8ff" d="M442.18,-296.51C414.79,-287.66 372.8,-274.09 342.69,-264.36"/>
<polygon fill="#63b8ff" stroke="#63b8ff" points="343.82,-261.05 333.23,-261.3 341.67,-267.71 343.82,-261.05"/>
</g>
<!-- Node16 -->
<g id="node16" class="node">
<title>Node16</title>
<g id="a_node16"><a xlink:href="connection_widget_8h.html" target="_top" xlink:title="ConnectionWidget declaration">
<polygon fill="white" stroke="#666666" points="489.5,-261 388.5,-261 388.5,-242 489.5,-242 489.5,-261"/>
<text text-anchor="middle" x="439" y="-249" font-family="Helvetica,sans-Serif" font-size="10.00">connectionWidget.h</text>
</a>
</g>
</g>
<!-- Node15&#45;&gt;Node16 -->
<g id="edge21" class="edge">
<title>Node15&#45;&gt;Node16</title>
<path fill="none" stroke="#63b8ff" d="M464.88,-296.75C460.82,-289.81 455.01,-279.86 449.91,-271.16"/>
<polygon fill="#63b8ff" stroke="#63b8ff" points="453.06,-269.61 444.99,-262.75 447.02,-273.15 453.06,-269.61"/>
</g>
<!-- Node16&#45;&gt;Node4 -->
<g id="edge23" class="edge">
<title>Node16&#45;&gt;Node4</title>
<path fill="none" stroke="#63b8ff" d="M427,-241.62C416.86,-234.1 401.91,-223.04 388.71,-213.26"/>
<polygon fill="#63b8ff" stroke="#63b8ff" points="390.84,-210.48 380.72,-207.34 386.67,-216.1 390.84,-210.48"/>
</g>
<!-- Node17 -->
<g id="node17" class="node">
<title>Node17</title>
<g id="a_node17"><a xlink:title=" ">
<polygon fill="#e0e0e0" stroke="#999999" points="624,-200.5 570,-200.5 570,-181.5 624,-181.5 624,-200.5"/>
<text text-anchor="middle" x="597" y="-188.5" font-family="Helvetica,sans-Serif" font-size="10.00">QWidget</text>
</a>
</g>
</g>
<!-- Node16&#45;&gt;Node17 -->
<g id="edge22" class="edge">
<title>Node16&#45;&gt;Node17</title>
<path fill="none" stroke="#63b8ff" d="M463,-241.62C489.45,-231.82 532.22,-215.98 562.32,-204.84"/>
<polygon fill="#63b8ff" stroke="#63b8ff" points="563.2,-208.25 571.36,-201.49 560.76,-201.68 563.2,-208.25"/>
</g>
<!-- Node18&#45;&gt;Node4 -->
<g id="edge26" class="edge">
<title>Node18&#45;&gt;Node4</title>
<path fill="none" stroke="#63b8ff" d="M275.64,-296.6C269.98,-283.66 261.94,-259.29 272,-242 279.61,-228.93 292.04,-219 305.21,-211.57"/>
<polygon fill="#63b8ff" stroke="#63b8ff" points="306.7,-214.74 314,-207.06 303.5,-208.51 306.7,-214.74"/>
</g>
<!-- Node18&#45;&gt;Node14 -->
<g id="edge25" class="edge">
<title>Node18&#45;&gt;Node14</title>
<path fill="none" stroke="#63b8ff" d="M284.29,-296.75C287.62,-289.96 292.36,-280.3 296.56,-271.73"/>
<polygon fill="#63b8ff" stroke="#63b8ff" points="299.68,-273.32 300.95,-262.8 293.4,-270.24 299.68,-273.32"/>
</g>
<!-- Node19&#45;&gt;Node8 -->
<g id="edge32" class="edge">
<title>Node19&#45;&gt;Node8</title>
<path fill="none" stroke="#63b8ff" d="M678.1,-298.45C699.95,-292.24 726.88,-280.96 743,-261 785,-209 787,-124.48 785.42,-85.89"/>
<polygon fill="#63b8ff" stroke="#63b8ff" points="788.92,-85.78 784.87,-75.99 781.93,-86.16 788.92,-85.78"/>
</g>
<!-- Node19&#45;&gt;Node17 -->
<g id="edge31" class="edge">
<title>Node19&#45;&gt;Node17</title>
<path fill="none" stroke="#63b8ff" d="M673.77,-296.56C704.25,-286.06 744.08,-266.86 727,-242 706.61,-212.31 665.93,-200.24 635.48,-195.34"/>
<polygon fill="#63b8ff" stroke="#63b8ff" points="636.26,-191.92 625.87,-194 635.29,-198.85 636.26,-191.92"/>
</g>
<!-- Node20 -->
<g id="node20" class="node">
<title>Node20</title>
<g id="a_node20"><a xlink:title=" ">
<polygon fill="#e0e0e0" stroke="#999999" points="717.5,-261 578.5,-261 578.5,-242 717.5,-242 717.5,-261"/>
<text text-anchor="middle" x="648" y="-249" font-family="Helvetica,sans-Serif" font-size="10.00">QCustomPlot/qcustomplot.h</text>
</a>
</g>
</g>
<!-- Node19&#45;&gt;Node20 -->
<g id="edge28" class="edge">
<title>Node19&#45;&gt;Node20</title>
<path fill="none" stroke="#63b8ff" d="M643.83,-296.75C644.44,-290.27 645.3,-281.16 646.08,-272.9"/>
<polygon fill="#63b8ff" stroke="#63b8ff" points="649.56,-273.23 647.01,-262.95 642.59,-272.58 649.56,-273.23"/>
</g>
<!-- Node19&#45;&gt;Node21 -->
<g id="edge29" class="edge">
<title>Node19&#45;&gt;Node21</title>
<path fill="none" stroke="#63b8ff" d="M675.91,-296.51C710.73,-287 765.51,-272.03 801.34,-262.24"/>
<polygon fill="#63b8ff" stroke="#63b8ff" points="802.07,-265.67 810.8,-259.66 800.23,-258.92 802.07,-265.67"/>
</g>
<!-- Node22 -->
<g id="node22" class="node">
<title>Node22</title>
<g id="a_node22"><a xlink:title=" ">
<polygon fill="#e0e0e0" stroke="#999999" points="560.5,-261 507.5,-261 507.5,-242 560.5,-242 560.5,-261"/>
<text text-anchor="middle" x="534" y="-249" font-family="Helvetica,sans-Serif" font-size="10.00">QVector</text>
</a>
</g>
</g>
<!-- Node19&#45;&gt;Node22 -->
<g id="edge30" class="edge">
<title>Node19&#45;&gt;Node22</title>
<path fill="none" stroke="#63b8ff" d="M624.51,-296.51C607.5,-288.24 582.01,-275.84 562.41,-266.31"/>
<polygon fill="#63b8ff" stroke="#63b8ff" points="564.1,-263.25 553.58,-262.02 561.04,-269.54 564.1,-263.25"/>
</g>
<!-- Node26&#45;&gt;Node9 -->
<g id="edge38" class="edge">
<title>Node26&#45;&gt;Node9</title>
<path fill="none" stroke="#63b8ff" d="M1081.04,-109.63C1041.66,-87.82 967.27,-46.64 927.92,-24.85"/>
<polygon fill="#63b8ff" stroke="#63b8ff" points="929.8,-21.89 919.36,-20.11 926.41,-28.01 929.8,-21.89"/>
</g>
</g>
</svg>
