<?xml version="1.0" encoding="UTF-8" standalone="no"?>
<!DOCTYPE svg PUBLIC "-//W3C//DTD SVG 1.1//EN"
 "http://www.w3.org/Graphics/SVG/1.1/DTD/svg11.dtd">
<!-- Generated by graphviz version 7.0.5 (20221223.1930)
 -->
<!-- Title: src/gui/mainwindow.cpp Pages: 1 -->
<!--zoomable 434 -->
<svg id="main" version="1.1" xmlns="http://www.w3.org/2000/svg" xmlns:xlink="http://www.w3.org/1999/xlink" xml:space="preserve" onload="init(evt)">
<style type="text/css"><![CDATA[
.edge:hover path { stroke: red; }
.edge:hover polygon { stroke: red; fill: red; }
]]></style>
<script type="text/javascript"><![CDATA[
var edges = document.getElementsByTagName('g');
if (edges && edges.length) {
  for (var i=0;i<edges.length;i++) {
    if (edges[i].id.substr(0,4)=='edge') {
      edges[i].setAttribute('class','edge');
    }
  }
}
]]></script>
        <defs>
                <circle id="rim" cx="0" cy="0" r="7"/>
                <circle id="rim2" cx="0" cy="0" r="3.5"/>
                <g id="zoomPlus">
                        <use xlink:href="#rim" fill="#404040">
                                <set attributeName="fill" to="#808080" begin="zoomplus.mouseover" end="zoomplus.mouseout"/>
                        </use>
                        <path d="M-4,0h8M0,-4v8" fill="none" stroke="white" stroke-width="1.5" pointer-events="none"/>
                </g>
                <g id="zoomMin">
                        <use xlink:href="#rim" fill="#404040">
                                <set attributeName="fill" to="#808080" begin="zoomminus.mouseover" end="zoomminus.mouseout"/>
                        </use>
                        <path d="M-4,0h8" fill="none" stroke="white" stroke-width="1.5" pointer-events="none"/>
                </g>
                <g id="dirArrow">
                        <path fill="none" stroke="white" stroke-width="1.5" d="M0,-3.0v7 M-2.5,-0.5L0,-3.0L2.5,-0.5"/>
                </g>
               <g id="resetDef">
                       <use xlink:href="#rim2" fill="#404040">
                               <set attributeName="fill" to="#808080" begin="reset.mouseover" end="reset.mouseout"/>
                       </use>
               </g>
        </defs>

<script type="text/javascript">
var viewWidth = 1105;
var viewHeight = 434;
var sectionId = 'dynsection-0';
</script>
<script xlink:href="svgpan.js"/>
<svg id="graph" class="graph">
<g id="viewport">
<title>src/gui/mainwindow.cpp</title>
<!-- Node1 -->
<g id="node1" class="node">
<title>Node1</title>
<g id="a_node1"><a xlink:title="MainWindow implementation">
<polygon fill="#999999" stroke="#666666" points="921.5,-426 800.5,-426 800.5,-407 921.5,-407 921.5,-426"/>
<text text-anchor="middle" x="861" y="-414" font-family="Helvetica,sans-Serif" font-size="10.00">src/gui/mainwindow.cpp</text>
</a>
</g>
</g>
<!-- Node2 -->
<g id="node2" class="node">
<title>Node2</title>
<g id="a_node2"><a xlink:href="mainwindow_8h.html" target="_top" xlink:title="MainWindow declaration">
<polygon fill="white" stroke="#666666" points="622,-371 544,-371 544,-352 622,-352 622,-371"/>
<text text-anchor="middle" x="583" y="-359" font-family="Helvetica,sans-Serif" font-size="10.00">mainwindow.h</text>
</a>
</g>
</g>
<!-- Node1&#45;&gt;Node2 -->
<g id="edge1" class="edge">
<title>Node1&#45;&gt;Node2</title>
<path fill="none" stroke="#63b8ff" d="M813.84,-406.51C763.72,-396.95 684.77,-381.9 633.44,-372.12"/>
<polygon fill="#63b8ff" stroke="#63b8ff" points="634.25,-368.71 623.77,-370.27 632.94,-375.58 634.25,-368.71"/>
</g>
<!-- Node10 -->
<g id="node10" class="node">
<title>Node10</title>
<g id="a_node10"><a xlink:href="notification_8h.html" target="_top" xlink:title="Notification declaration">
<polygon fill="white" stroke="#666666" points="756,-261 628,-261 628,-242 756,-242 756,-261"/>
<text text-anchor="middle" x="692" y="-249" font-family="Helvetica,sans-Serif" font-size="10.00">../notification/notification.h</text>
</a>
</g>
</g>
<!-- Node1&#45;&gt;Node10 -->
<g id="edge38" class="edge">
<title>Node1&#45;&gt;Node10</title>
<path fill="none" stroke="#63b8ff" d="M855.17,-406.65C841.12,-385.78 803.55,-332.55 763,-297 749.75,-285.38 733.14,-274.8 719.32,-266.87"/>
<polygon fill="#63b8ff" stroke="#63b8ff" points="721.16,-263.89 710.72,-262.08 717.76,-270 721.16,-263.89"/>
</g>
<!-- Node20 -->
<g id="node20" class="node">
<title>Node20</title>
<g id="a_node20"><a xlink:title=" ">
<polygon fill="#e0e0e0" stroke="#999999" points="861.5,-261 812.5,-261 812.5,-242 861.5,-242 861.5,-261"/>
<text text-anchor="middle" x="837" y="-249" font-family="Helvetica,sans-Serif" font-size="10.00">QTimer</text>
</a>
</g>
</g>
<!-- Node1&#45;&gt;Node20 -->
<g id="edge35" class="edge">
<title>Node1&#45;&gt;Node20</title>
<path fill="none" stroke="#63b8ff" d="M856.07,-406.62C851.48,-397.86 844.93,-383.94 842,-371 834.32,-337.11 834.59,-296.41 835.67,-272.6"/>
<polygon fill="#63b8ff" stroke="#63b8ff" points="839.16,-272.96 836.22,-262.78 832.17,-272.56 839.16,-272.96"/>
</g>
<!-- Node23 -->
<g id="node23" class="node">
<title>Node23</title>
<g id="a_node23"><a xlink:title=" ">
<polygon fill="#e0e0e0" stroke="#999999" points="949,-371 851,-371 851,-352 949,-352 949,-371"/>
<text text-anchor="middle" x="900" y="-359" font-family="Helvetica,sans-Serif" font-size="10.00">QDesktopServices</text>
</a>
</g>
</g>
<!-- Node1&#45;&gt;Node23 -->
<g id="edge34" class="edge">
<title>Node1&#45;&gt;Node23</title>
<path fill="none" stroke="#63b8ff" d="M867.44,-406.75C872.66,-399.66 880.19,-389.42 886.69,-380.59"/>
<polygon fill="#63b8ff" stroke="#63b8ff" points="889.42,-382.79 892.52,-372.66 883.78,-378.64 889.42,-382.79"/>
</g>
<!-- Node24 -->
<g id="node24" class="node">
<title>Node24</title>
<g id="a_node24"><a xlink:href="command_8h.html" target="_top" xlink:title="All commands for the linescale3.">
<polygon fill="white" stroke="#666666" points="1038,-140 918,-140 918,-110 1038,-110 1038,-140"/>
<text text-anchor="start" x="926" y="-128" font-family="Helvetica,sans-Serif" font-size="10.00">../deviceCommunication</text>
<text text-anchor="middle" x="978" y="-117" font-family="Helvetica,sans-Serif" font-size="10.00">/command.h</text>
</a>
</g>
</g>
<!-- Node1&#45;&gt;Node24 -->
<g id="edge36" class="edge">
<title>Node1&#45;&gt;Node24</title>
<path fill="none" stroke="#63b8ff" d="M898.31,-406.52C918.57,-399.85 942.56,-388.76 958,-371 977.33,-348.77 977,-336.96 977,-307.5 977,-307.5 977,-307.5 977,-250.5 977,-216.29 977.38,-176.8 977.67,-151.63"/>
<polygon fill="#63b8ff" stroke="#63b8ff" points="981.17,-151.74 977.79,-141.7 974.17,-151.66 981.17,-151.74"/>
</g>
<!-- Node25 -->
<g id="node25" class="node">
<title>Node25</title>
<g id="a_node25"><a xlink:title=" ">
<polygon fill="#e0e0e0" stroke="#999999" points="1096.5,-371 1005.5,-371 1005.5,-352 1096.5,-352 1096.5,-371"/>
<text text-anchor="middle" x="1051" y="-359" font-family="Helvetica,sans-Serif" font-size="10.00">ui_mainwindow.h</text>
</a>
</g>
</g>
<!-- Node1&#45;&gt;Node25 -->
<g id="edge39" class="edge">
<title>Node1&#45;&gt;Node25</title>
<path fill="none" stroke="#63b8ff" d="M893.23,-406.51C924.85,-397.69 973.27,-384.18 1008.13,-374.46"/>
<polygon fill="#63b8ff" stroke="#63b8ff" points="1008.78,-377.91 1017.47,-371.85 1006.9,-371.17 1008.78,-377.91"/>
</g>
<!-- Node3 -->
<g id="node3" class="node">
<title>Node3</title>
<g id="a_node3"><a xlink:title=" ">
<polygon fill="#e0e0e0" stroke="#999999" points="754,-316 674,-316 674,-297 754,-297 754,-316"/>
<text text-anchor="middle" x="714" y="-304" font-family="Helvetica,sans-Serif" font-size="10.00">QMainWindow</text>
</a>
</g>
</g>
<!-- Node2&#45;&gt;Node3 -->
<g id="edge2" class="edge">
<title>Node2&#45;&gt;Node3</title>
<path fill="none" stroke="#63b8ff" d="M605.22,-351.51C626.14,-343.04 657.73,-330.27 681.48,-320.66"/>
<polygon fill="#63b8ff" stroke="#63b8ff" points="682.75,-323.92 690.7,-316.93 680.12,-317.43 682.75,-323.92"/>
</g>
<!-- Node4 -->
<g id="node4" class="node">
<title>Node4</title>
<g id="a_node4"><a xlink:href="comm_master_8h.html" target="_top" xlink:title="comm::CommMaster declaration">
<polygon fill="white" stroke="#666666" points="287,-206 167,-206 167,-176 287,-176 287,-206"/>
<text text-anchor="start" x="175" y="-194" font-family="Helvetica,sans-Serif" font-size="10.00">../deviceCommunication</text>
<text text-anchor="middle" x="227" y="-183" font-family="Helvetica,sans-Serif" font-size="10.00">/commMaster.h</text>
</a>
</g>
</g>
<!-- Node2&#45;&gt;Node4 -->
<g id="edge3" class="edge">
<title>Node2&#45;&gt;Node4</title>
<path fill="none" stroke="#63b8ff" d="M543.53,-355.03C460.39,-342.64 271.65,-309.68 232,-261 222.28,-249.07 221.04,-231.8 222.22,-217.52"/>
<polygon fill="#63b8ff" stroke="#63b8ff" points="225.65,-218.28 223.46,-207.91 218.71,-217.38 225.65,-218.28"/>
</g>
<!-- Node8 -->
<g id="node8" class="node">
<title>Node8</title>
<g id="a_node8"><a xlink:href="parser_8h.html" target="_top" xlink:title="Parser declaration">
<polygon fill="white" stroke="#666666" points="828.5,-74 739.5,-74 739.5,-55 828.5,-55 828.5,-74"/>
<text text-anchor="middle" x="784" y="-62" font-family="Helvetica,sans-Serif" font-size="10.00">../parser/parser.h</text>
</a>
</g>
</g>
<!-- Node2&#45;&gt;Node8 -->
<g id="edge15" class="edge">
<title>Node2&#45;&gt;Node8</title>
<path fill="none" stroke="#63b8ff" d="M622.19,-355.14C704.96,-342.71 890,-308.65 890,-252.5 890,-252.5 890,-252.5 890,-190 890,-140.56 840.94,-100.77 809.58,-80.38"/>
<polygon fill="#63b8ff" stroke="#63b8ff" points="811.72,-77.59 801.38,-75.26 808.01,-83.53 811.72,-77.59"/>
</g>
<!-- Node2&#45;&gt;Node10 -->
<g id="edge11" class="edge">
<title>Node2&#45;&gt;Node10</title>
<path fill="none" stroke="#63b8ff" d="M591.92,-351.66C610.04,-333.7 651.44,-292.69 674.92,-269.42"/>
<polygon fill="#63b8ff" stroke="#63b8ff" points="677.24,-272.05 681.88,-262.53 672.31,-267.08 677.24,-272.05"/>
</g>
<!-- Node13 -->
<g id="node13" class="node">
<title>Node13</title>
<g id="a_node13"><a xlink:href="dialogabout_8h.html" target="_top" xlink:title="DialogAbout declaration">
<polygon fill="white" stroke="#666666" points="168,-316 94,-316 94,-297 168,-297 168,-316"/>
<text text-anchor="middle" x="131" y="-304" font-family="Helvetica,sans-Serif" font-size="10.00">dialogabout.h</text>
</a>
</g>
</g>
<!-- Node2&#45;&gt;Node13 -->
<g id="edge16" class="edge">
<title>Node2&#45;&gt;Node13</title>
<path fill="none" stroke="#63b8ff" d="M543.68,-357.16C472.96,-350.94 319.37,-336.49 179.45,-316.26"/>
<polygon fill="#63b8ff" stroke="#63b8ff" points="180.02,-312.8 169.62,-314.82 179,-319.73 180.02,-312.8"/>
</g>
<!-- Node15 -->
<g id="node15" class="node">
<title>Node15</title>
<g id="a_node15"><a xlink:href="dialogconnect_8h.html" target="_top" xlink:title="DialogConnect declaration">
<polygon fill="white" stroke="#666666" points="270,-316 186,-316 186,-297 270,-297 270,-316"/>
<text text-anchor="middle" x="228" y="-304" font-family="Helvetica,sans-Serif" font-size="10.00">dialogconnect.h</text>
</a>
</g>
</g>
<!-- Node2&#45;&gt;Node15 -->
<g id="edge18" class="edge">
<title>Node2&#45;&gt;Node15</title>
<path fill="none" stroke="#63b8ff" d="M543.81,-354.7C486.68,-346.25 377.16,-330 284,-316 283.18,-315.88 282.35,-315.75 281.52,-315.63"/>
<polygon fill="#63b8ff" stroke="#63b8ff" points="282.41,-312.22 272,-314.19 281.36,-319.14 282.41,-312.22"/>
</g>
<!-- Node18 -->
<g id="node18" class="node">
<title>Node18</title>
<g id="a_node18"><a xlink:href="dialogdebug_8h.html" target="_top" xlink:title="DialogDebug declaration">
<polygon fill="white" stroke="#666666" points="76,-316 0,-316 0,-297 76,-297 76,-316"/>
<text text-anchor="middle" x="38" y="-304" font-family="Helvetica,sans-Serif" font-size="10.00">dialogdebug.h</text>
</a>
</g>
</g>
<!-- Node2&#45;&gt;Node18 -->
<g id="edge24" class="edge">
<title>Node2&#45;&gt;Node18</title>
<path fill="none" stroke="#63b8ff" d="M543.81,-358.2C461.34,-353.1 263.65,-339.52 87.72,-316.25"/>
<polygon fill="#63b8ff" stroke="#63b8ff" points="88.31,-312.8 77.93,-314.94 87.38,-319.74 88.31,-312.8"/>
</g>
<!-- Node19 -->
<g id="node19" class="node">
<title>Node19</title>
<g id="a_node19"><a xlink:href="plot_widget_8h.html" target="_top" xlink:title="Plot declaration">
<polygon fill="white" stroke="#666666" points="618,-316 548,-316 548,-297 618,-297 618,-316"/>
<text text-anchor="middle" x="583" y="-304" font-family="Helvetica,sans-Serif" font-size="10.00">plotWidget.h</text>
</a>
</g>
</g>
<!-- Node2&#45;&gt;Node19 -->
<g id="edge27" class="edge">
<title>Node2&#45;&gt;Node19</title>
<path fill="none" stroke="#63b8ff" d="M583,-351.75C583,-345.27 583,-336.16 583,-327.9"/>
<polygon fill="#63b8ff" stroke="#63b8ff" points="586.5,-327.96 583,-317.96 579.5,-327.96 586.5,-327.96"/>
</g>
<!-- Node5 -->
<g id="node5" class="node">
<title>Node5</title>
<g id="a_node5"><a xlink:title=" ">
<polygon fill="#e0e0e0" stroke="#999999" points="587.5,-19 534.5,-19 534.5,0 587.5,0 587.5,-19"/>
<text text-anchor="middle" x="561" y="-7" font-family="Helvetica,sans-Serif" font-size="10.00">QObject</text>
</a>
</g>
</g>
<!-- Node4&#45;&gt;Node5 -->
<g id="edge4" class="edge">
<title>Node4&#45;&gt;Node5</title>
<path fill="none" stroke="#63b8ff" d="M248.53,-175.67C288.02,-149.72 375.17,-94.01 453,-55 476.77,-43.08 504.53,-31.7 525.95,-23.43"/>
<polygon fill="#63b8ff" stroke="#63b8ff" points="527.01,-26.77 535.11,-19.94 524.52,-20.23 527.01,-26.77"/>
</g>
<!-- Node6 -->
<g id="node6" class="node">
<title>Node6</title>
<g id="a_node6"><a xlink:href="comm_device_8h.html" target="_top" xlink:title="comm::CommDevice declaration">
<polygon fill="white" stroke="#666666" points="540.5,-134.5 459.5,-134.5 459.5,-115.5 540.5,-115.5 540.5,-134.5"/>
<text text-anchor="middle" x="500" y="-122.5" font-family="Helvetica,sans-Serif" font-size="10.00">commDevice.h</text>
</a>
</g>
</g>
<!-- Node4&#45;&gt;Node6 -->
<g id="edge5" class="edge">
<title>Node4&#45;&gt;Node6</title>
<path fill="none" stroke="#63b8ff" d="M287.25,-175.88C336.32,-164.37 404.75,-148.33 450.63,-137.57"/>
<polygon fill="#63b8ff" stroke="#63b8ff" points="451.37,-141 460.3,-135.31 449.77,-134.18 451.37,-141"/>
</g>
<!-- Node6&#45;&gt;Node5 -->
<g id="edge7" class="edge">
<title>Node6&#45;&gt;Node5</title>
<path fill="none" stroke="#63b8ff" d="M504.79,-115.09C514.68,-96.69 537.55,-54.14 550.87,-29.35"/>
<polygon fill="#63b8ff" stroke="#63b8ff" points="553.87,-31.16 555.52,-20.7 547.7,-27.85 553.87,-31.16"/>
</g>
<!-- Node7 -->
<g id="node7" class="node">
<title>Node7</title>
<g id="a_node7"><a xlink:title=" ">
<polygon fill="#e0e0e0" stroke="#999999" points="514,-74 462,-74 462,-55 514,-55 514,-74"/>
<text text-anchor="middle" x="488" y="-62" font-family="Helvetica,sans-Serif" font-size="10.00">QDebug</text>
</a>
</g>
</g>
<!-- Node6&#45;&gt;Node7 -->
<g id="edge6" class="edge">
<title>Node6&#45;&gt;Node7</title>
<path fill="none" stroke="#63b8ff" d="M498.23,-115.37C496.62,-107.5 494.17,-95.6 492.08,-85.39"/>
<polygon fill="#63b8ff" stroke="#63b8ff" points="495.52,-84.74 490.08,-75.65 488.66,-86.15 495.52,-84.74"/>
</g>
<!-- Node6&#45;&gt;Node8 -->
<g id="edge8" class="edge">
<title>Node6&#45;&gt;Node8</title>
<path fill="none" stroke="#63b8ff" d="M540.99,-115.56C590.72,-105.31 674.7,-88.01 729.75,-76.68"/>
<polygon fill="#63b8ff" stroke="#63b8ff" points="730.12,-80.17 739.21,-74.73 728.71,-73.32 730.12,-80.17"/>
</g>
<!-- Node8&#45;&gt;Node5 -->
<g id="edge10" class="edge">
<title>Node8&#45;&gt;Node5</title>
<path fill="none" stroke="#63b8ff" d="M746.17,-54.51C705.14,-44.76 640.02,-29.28 598.95,-19.52"/>
<polygon fill="#63b8ff" stroke="#63b8ff" points="599.8,-16.12 589.26,-17.22 598.18,-22.93 599.8,-16.12"/>
</g>
<!-- Node9 -->
<g id="node9" class="node">
<title>Node9</title>
<g id="a_node9"><a xlink:title=" ">
<polygon fill="#e0e0e0" stroke="#999999" points="883,-19 817,-19 817,0 883,0 883,-19"/>
<text text-anchor="middle" x="850" y="-7" font-family="Helvetica,sans-Serif" font-size="10.00">QByteArray</text>
</a>
</g>
</g>
<!-- Node8&#45;&gt;Node9 -->
<g id="edge9" class="edge">
<title>Node8&#45;&gt;Node9</title>
<path fill="none" stroke="#63b8ff" d="M795.2,-54.51C804.74,-46.85 818.67,-35.66 830.11,-26.47"/>
<polygon fill="#63b8ff" stroke="#63b8ff" points="832.18,-29.3 837.79,-20.31 827.8,-23.84 832.18,-29.3"/>
</g>
<!-- Node10&#45;&gt;Node5 -->
<g id="edge12" class="edge">
<title>Node10&#45;&gt;Node5</title>
<path fill="none" stroke="#63b8ff" d="M655.08,-241.53C635.54,-234.9 612.8,-223.84 599,-206 558.23,-153.28 557.31,-69.12 559.35,-30.75"/>
<polygon fill="#63b8ff" stroke="#63b8ff" points="562.83,-31.14 560.01,-20.92 555.84,-30.66 562.83,-31.14"/>
</g>
<!-- Node11 -->
<g id="node11" class="node">
<title>Node11</title>
<g id="a_node11"><a xlink:title=" ">
<polygon fill="#e0e0e0" stroke="#999999" points="756,-200.5 706,-200.5 706,-181.5 756,-181.5 756,-200.5"/>
<text text-anchor="middle" x="731" y="-188.5" font-family="Helvetica,sans-Serif" font-size="10.00">QString</text>
</a>
</g>
</g>
<!-- Node10&#45;&gt;Node11 -->
<g id="edge13" class="edge">
<title>Node10&#45;&gt;Node11</title>
<path fill="none" stroke="#63b8ff" d="M697.75,-241.87C703.28,-233.57 711.82,-220.78 718.85,-210.22"/>
<polygon fill="#63b8ff" stroke="#63b8ff" points="721.75,-212.19 724.38,-201.93 715.92,-208.31 721.75,-212.19"/>
</g>
<!-- Node12 -->
<g id="node12" class="node">
<title>Node12</title>
<g id="a_node12"><a xlink:title=" ">
<polygon fill="#e0e0e0" stroke="#999999" points="687.5,-200.5 608.5,-200.5 608.5,-181.5 687.5,-181.5 687.5,-200.5"/>
<text text-anchor="middle" x="648" y="-188.5" font-family="Helvetica,sans-Serif" font-size="10.00">QTextBrowser</text>
</a>
</g>
</g>
<!-- Node10&#45;&gt;Node12 -->
<g id="edge14" class="edge">
<title>Node10&#45;&gt;Node12</title>
<path fill="none" stroke="#63b8ff" d="M685.51,-241.87C679.14,-233.4 669.24,-220.24 661.21,-209.57"/>
<polygon fill="#63b8ff" stroke="#63b8ff" points="664.24,-207.76 655.43,-201.88 658.64,-211.97 664.24,-207.76"/>
</g>
<!-- Node14 -->
<g id="node14" class="node">
<title>Node14</title>
<g id="a_node14"><a xlink:title=" ">
<polygon fill="#e0e0e0" stroke="#999999" points="146.5,-261 95.5,-261 95.5,-242 146.5,-242 146.5,-261"/>
<text text-anchor="middle" x="121" y="-249" font-family="Helvetica,sans-Serif" font-size="10.00">QDialog</text>
</a>
</g>
</g>
<!-- Node13&#45;&gt;Node14 -->
<g id="edge17" class="edge">
<title>Node13&#45;&gt;Node14</title>
<path fill="none" stroke="#63b8ff" d="M129.35,-296.75C128.11,-290.19 126.37,-280.95 124.79,-272.6"/>
<polygon fill="#63b8ff" stroke="#63b8ff" points="128.26,-272.11 122.97,-262.93 121.38,-273.4 128.26,-272.11"/>
</g>
<!-- Node15&#45;&gt;Node4 -->
<g id="edge20" class="edge">
<title>Node15&#45;&gt;Node4</title>
<path fill="none" stroke="#63b8ff" d="M220.06,-296.75C212.97,-288.3 203.1,-274.79 199,-261 194.39,-245.5 200.98,-228.67 208.91,-215.51"/>
<polygon fill="#63b8ff" stroke="#63b8ff" points="211.61,-217.77 214.24,-207.51 205.79,-213.89 211.61,-217.77"/>
</g>
<!-- Node15&#45;&gt;Node14 -->
<g id="edge19" class="edge">
<title>Node15&#45;&gt;Node14</title>
<path fill="none" stroke="#63b8ff" d="M209.85,-296.51C193.22,-288.27 168.36,-275.96 149.15,-266.45"/>
<polygon fill="#63b8ff" stroke="#63b8ff" points="150.75,-263.33 140.24,-262.03 147.65,-269.6 150.75,-263.33"/>
</g>
<!-- Node16 -->
<g id="node16" class="node">
<title>Node16</title>
<g id="a_node16"><a xlink:href="connection_widget_8h.html" target="_top" xlink:title="ConnectionWidget declaration">
<polygon fill="white" stroke="#666666" points="342.5,-261 241.5,-261 241.5,-242 342.5,-242 342.5,-261"/>
<text text-anchor="middle" x="292" y="-249" font-family="Helvetica,sans-Serif" font-size="10.00">connectionWidget.h</text>
</a>
</g>
</g>
<!-- Node15&#45;&gt;Node16 -->
<g id="edge21" class="edge">
<title>Node15&#45;&gt;Node16</title>
<path fill="none" stroke="#63b8ff" d="M238.86,-296.51C248.11,-288.85 261.62,-277.66 272.71,-268.47"/>
<polygon fill="#63b8ff" stroke="#63b8ff" points="274.67,-271.4 280.14,-262.32 270.2,-266.01 274.67,-271.4"/>
</g>
<!-- Node16&#45;&gt;Node4 -->
<g id="edge23" class="edge">
<title>Node16&#45;&gt;Node4</title>
<path fill="none" stroke="#63b8ff" d="M282.13,-241.62C274.03,-234.32 262.2,-223.68 251.58,-214.12"/>
<polygon fill="#63b8ff" stroke="#63b8ff" points="253.94,-211.54 244.17,-207.45 249.26,-216.74 253.94,-211.54"/>
</g>
<!-- Node17 -->
<g id="node17" class="node">
<title>Node17</title>
<g id="a_node17"><a xlink:title=" ">
<polygon fill="#e0e0e0" stroke="#999999" points="372,-200.5 318,-200.5 318,-181.5 372,-181.5 372,-200.5"/>
<text text-anchor="middle" x="345" y="-188.5" font-family="Helvetica,sans-Serif" font-size="10.00">QWidget</text>
</a>
</g>
</g>
<!-- Node16&#45;&gt;Node17 -->
<g id="edge22" class="edge">
<title>Node16&#45;&gt;Node17</title>
<path fill="none" stroke="#63b8ff" d="M299.82,-241.87C307.65,-233.23 319.9,-219.7 329.67,-208.92"/>
<polygon fill="#63b8ff" stroke="#63b8ff" points="332.01,-211.55 336.13,-201.79 326.82,-206.85 332.01,-211.55"/>
</g>
<!-- Node18&#45;&gt;Node4 -->
<g id="edge26" class="edge">
<title>Node18&#45;&gt;Node4</title>
<path fill="none" stroke="#63b8ff" d="M42.39,-296.82C49.66,-283.26 65.49,-257.02 86,-242 106.62,-226.89 132.23,-216.01 155.94,-208.34"/>
<polygon fill="#63b8ff" stroke="#63b8ff" points="156.7,-211.77 165.23,-205.48 154.64,-205.08 156.7,-211.77"/>
</g>
<!-- Node18&#45;&gt;Node14 -->
<g id="edge25" class="edge">
<title>Node18&#45;&gt;Node14</title>
<path fill="none" stroke="#63b8ff" d="M52.08,-296.51C64.56,-288.54 83.02,-276.75 97.69,-267.38"/>
<polygon fill="#63b8ff" stroke="#63b8ff" points="99.31,-270.5 105.85,-262.17 95.54,-264.6 99.31,-270.5"/>
</g>
<!-- Node19&#45;&gt;Node8 -->
<g id="edge32" class="edge">
<title>Node19&#45;&gt;Node8</title>
<path fill="none" stroke="#63b8ff" d="M618.11,-301.72C665.46,-295.85 746.04,-282.88 765,-261 808.43,-210.88 796.84,-124.08 788.76,-85.26"/>
<polygon fill="#63b8ff" stroke="#63b8ff" points="792.22,-84.72 786.62,-75.73 785.39,-86.25 792.22,-84.72"/>
</g>
<!-- Node19&#45;&gt;Node10 -->
<g id="edge31" class="edge">
<title>Node19&#45;&gt;Node10</title>
<path fill="none" stroke="#63b8ff" d="M601.49,-296.51C618.5,-288.24 643.99,-275.84 663.59,-266.31"/>
<polygon fill="#63b8ff" stroke="#63b8ff" points="664.96,-269.54 672.42,-262.02 661.9,-263.25 664.96,-269.54"/>
</g>
<!-- Node19&#45;&gt;Node17 -->
<g id="edge30" class="edge">
<title>Node19&#45;&gt;Node17</title>
<path fill="none" stroke="#63b8ff" d="M547.79,-305.11C506.49,-303.01 437.64,-294.28 390,-261 372.26,-248.61 359.77,-226.77 352.53,-210.97"/>
<polygon fill="#63b8ff" stroke="#63b8ff" points="355.91,-209.98 348.77,-202.15 349.47,-212.72 355.91,-209.98"/>
</g>
<!-- Node19&#45;&gt;Node20 -->
<g id="edge28" class="edge">
<title>Node19&#45;&gt;Node20</title>
<path fill="none" stroke="#63b8ff" d="M618.41,-298.29C661.04,-289.58 734.8,-274.43 798,-261 799.01,-260.79 800.03,-260.57 801.06,-260.35"/>
<polygon fill="#63b8ff" stroke="#63b8ff" points="801.73,-263.78 810.77,-258.25 800.26,-256.94 801.73,-263.78"/>
</g>
<!-- Node21 -->
<g id="node21" class="node">
<title>Node21</title>
<g id="a_node21"><a xlink:title=" ">
<polygon fill="#e0e0e0" stroke="#999999" points="609.5,-261 556.5,-261 556.5,-242 609.5,-242 609.5,-261"/>
<text text-anchor="middle" x="583" y="-249" font-family="Helvetica,sans-Serif" font-size="10.00">QVector</text>
</a>
</g>
</g>
<!-- Node19&#45;&gt;Node21 -->
<g id="edge29" class="edge">
<title>Node19&#45;&gt;Node21</title>
<path fill="none" stroke="#63b8ff" d="M583,-296.75C583,-290.27 583,-281.16 583,-272.9"/>
<polygon fill="#63b8ff" stroke="#63b8ff" points="586.5,-272.96 583,-262.96 579.5,-272.96 586.5,-272.96"/>
</g>
<!-- Node22 -->
<g id="node22" class="node">
<title>Node22</title>
<g id="a_node22"><a xlink:title=" ">
<polygon fill="#e0e0e0" stroke="#999999" points="538.5,-261 399.5,-261 399.5,-242 538.5,-242 538.5,-261"/>
<text text-anchor="middle" x="469" y="-249" font-family="Helvetica,sans-Serif" font-size="10.00">QCustomPlot/qcustomplot.h</text>
</a>
</g>
</g>
<!-- Node19&#45;&gt;Node22 -->
<g id="edge33" class="edge">
<title>Node19&#45;&gt;Node22</title>
<path fill="none" stroke="#63b8ff" d="M563.66,-296.51C545.78,-288.2 518.96,-275.73 498.43,-266.18"/>
<polygon fill="#63b8ff" stroke="#63b8ff" points="499.97,-263.04 489.43,-262 497.02,-269.39 499.97,-263.04"/>
</g>
<!-- Node24&#45;&gt;Node9 -->
<g id="edge37" class="edge">
<title>Node24&#45;&gt;Node9</title>
<path fill="none" stroke="#63b8ff" d="M961.79,-109.63C937.93,-88.47 893.48,-49.05 868.42,-26.83"/>
<polygon fill="#63b8ff" stroke="#63b8ff" points="870.78,-24.25 860.98,-20.23 866.14,-29.49 870.78,-24.25"/>
</g>
</g>
</svg>
        <g id="navigator" transform="translate(0 0)" fill="#404254">
                <rect fill="#f2f5e9" fill-opacity="0.5" stroke="#606060" stroke-width=".5" x="0" y="0" width="60" height="60"/>
                <use id="zoomplus" xlink:href="#zoomPlus" x="17" y="9" onmousedown="handleZoom(evt,'in')"/>
                <use id="zoomminus" xlink:href="#zoomMin" x="42" y="9" onmousedown="handleZoom(evt,'out')"/>
                <use id="reset" xlink:href="#resetDef" x="30" y="36" onmousedown="handleReset()"/>
                <g id="arrowUp" xlink:href="#dirArrow" transform="translate(30 24)" onmousedown="handlePan(0,-1)">
                  <use xlink:href="#rim" fill="#404040">
                        <set attributeName="fill" to="#808080" begin="arrowUp.mouseover" end="arrowUp.mouseout"/>
                  </use>
                  <path fill="none" stroke="white" stroke-width="1.5" d="M0,-3.0v7 M-2.5,-0.5L0,-3.0L2.5,-0.5"/>
                </g>
                <g id="arrowRight" xlink:href="#dirArrow" transform="rotate(90) translate(36 -43)" onmousedown="handlePan(1,0)">
                  <use xlink:href="#rim" fill="#404040">
                        <set attributeName="fill" to="#808080" begin="arrowRight.mouseover" end="arrowRight.mouseout"/>
                  </use>
                  <path fill="none" stroke="white" stroke-width="1.5" d="M0,-3.0v7 M-2.5,-0.5L0,-3.0L2.5,-0.5"/>
                </g>
                <g id="arrowDown" xlink:href="#dirArrow" transform="rotate(180) translate(-30 -48)" onmousedown="handlePan(0,1)">
                  <use xlink:href="#rim" fill="#404040">
                        <set attributeName="fill" to="#808080" begin="arrowDown.mouseover" end="arrowDown.mouseout"/>
                  </use>
                  <path fill="none" stroke="white" stroke-width="1.5" d="M0,-3.0v7 M-2.5,-0.5L0,-3.0L2.5,-0.5"/>
                </g>
                <g id="arrowLeft" xlink:href="#dirArrow" transform="rotate(270) translate(-36 17)" onmousedown="handlePan(-1,0)">
                  <use xlink:href="#rim" fill="#404040">
                        <set attributeName="fill" to="#808080" begin="arrowLeft.mouseover" end="arrowLeft.mouseout"/>
                  </use>
                  <path fill="none" stroke="white" stroke-width="1.5" d="M0,-3.0v7 M-2.5,-0.5L0,-3.0L2.5,-0.5"/>
                </g>
        </g>
        <svg viewBox="0 0 15 15" width="100%" height="30px" preserveAspectRatio="xMaxYMin meet">
         <g id="arrow_out" transform="scale(0.3 0.3)">
          <a xlink:href="mainwindow_8cpp__incl_org.svg" target="_base">
           <rect id="button" ry="5" rx="5" y="6" x="6" height="38" width="38"
                fill="#f2f5e9" fill-opacity="0.5" stroke="#606060" stroke-width="1.0"/>
           <path id="arrow"
             d="M 11.500037,31.436501 C 11.940474,20.09759 22.043105,11.32322 32.158766,21.979434 L 37.068811,17.246167 C 37.068811,17.246167 37.088388,32 37.088388,32 L 22.160133,31.978069 C 22.160133,31.978069 26.997745,27.140456 26.997745,27.140456 C 18.528582,18.264221 13.291696,25.230495 11.500037,31.436501 z"
             style="fill:#404040;"/>
          </a>
         </g>
        </svg>
</svg>
