<?xml version="1.0" encoding="UTF-8" standalone="no"?>
<!DOCTYPE svg PUBLIC "-//W3C//DTD SVG 1.1//EN"
 "http://www.w3.org/Graphics/SVG/1.1/DTD/svg11.dtd">
<!-- Generated by graphviz version 7.0.5 (20221223.1930)
 -->
<!-- Title: src/gui/mainwindow.h Pages: 1 -->
<svg width="220pt" height="82pt"
 viewBox="0.00 0.00 219.50 82.00" xmlns="http://www.w3.org/2000/svg" xmlns:xlink="http://www.w3.org/1999/xlink">
<g id="graph0" class="graph" transform="scale(1 1) rotate(0) translate(4 78)">
<title>src/gui/mainwindow.h</title>
<!-- Node1 -->
<g id="node1" class="node">
<title>Node1</title>
<g id="a_node1"><a xlink:title="MainWindow declaration">
<polygon fill="#999999" stroke="#666666" points="172.5,-74 62.5,-74 62.5,-55 172.5,-55 172.5,-74"/>
<text text-anchor="middle" x="117.5" y="-62" font-family="Helvetica,sans-Serif" font-size="10.00">src/gui/mainwindow.h</text>
</a>
</g>
</g>
<!-- Node2 -->
<g id="node2" class="node">
<title>Node2</title>
<g id="a_node2"><a xlink:href="mainwindow_8cpp.html" target="_top" xlink:title="MainWindow implementation">
<polygon fill="white" stroke="#666666" points="121,-19 0,-19 0,0 121,0 121,-19"/>
<text text-anchor="middle" x="60.5" y="-7" font-family="Helvetica,sans-Serif" font-size="10.00">src/gui/mainwindow.cpp</text>
</a>
</g>
</g>
<!-- Node1&#45;&gt;Node2 -->
<g id="edge1" class="edge">
<title>Node1&#45;&gt;Node2</title>
<path fill="none" stroke="#63b8ff" d="M99.55,-46.81C89.77,-37.72 78.06,-26.82 70.03,-19.36"/>
<polygon fill="#63b8ff" stroke="#63b8ff" points="97.02,-49.23 106.72,-53.48 101.78,-44.11 97.02,-49.23"/>
</g>
<!-- Node3 -->
<g id="node3" class="node">
<title>Node3</title>
<g id="a_node3"><a xlink:href="main_8cpp.html" target="_top" xlink:title="Main file of project linescaleGUI.">
<polygon fill="white" stroke="#666666" points="211.5,-19 139.5,-19 139.5,0 211.5,0 211.5,-19"/>
<text text-anchor="middle" x="175.5" y="-7" font-family="Helvetica,sans-Serif" font-size="10.00">src/main.cpp</text>
</a>
</g>
</g>
<!-- Node1&#45;&gt;Node3 -->
<g id="edge2" class="edge">
<title>Node1&#45;&gt;Node3</title>
<path fill="none" stroke="#63b8ff" d="M135.76,-46.81C145.72,-37.72 157.64,-26.82 165.81,-19.36"/>
<polygon fill="#63b8ff" stroke="#63b8ff" points="133.48,-44.16 128.46,-53.49 138.2,-49.33 133.48,-44.16"/>
</g>
</g>
</svg>
