<?xml version="1.0" encoding="UTF-8" standalone="no"?>
<!DOCTYPE svg PUBLIC "-//W3C//DTD SVG 1.1//EN"
 "http://www.w3.org/Graphics/SVG/1.1/DTD/svg11.dtd">
<!-- Generated by graphviz version 7.0.5 (20221223.1930)
 -->
<!-- Title: src/gui/mainwindow.h Pages: 1 -->
<svg width="882pt" height="368pt"
 viewBox="0.00 0.00 881.50 368.00" xmlns="http://www.w3.org/2000/svg" xmlns:xlink="http://www.w3.org/1999/xlink">
<g id="graph0" class="graph" transform="scale(1 1) rotate(0) translate(4 364)">
<title>src/gui/mainwindow.h</title>
<!-- Node1 -->
<g id="node1" class="node">
<title>Node1</title>
<g id="a_node1"><a xlink:title="MainWindow declaration">
<polygon fill="#999999" stroke="#666666" points="516.5,-360 406.5,-360 406.5,-341 516.5,-341 516.5,-360"/>
<text text-anchor="middle" x="461.5" y="-348" font-family="Helvetica,sans-Serif" font-size="10.00">src/gui/mainwindow.h</text>
</a>
</g>
</g>
<!-- Node2 -->
<g id="node2" class="node">
<title>Node2</title>
<g id="a_node2"><a xlink:title=" ">
<polygon fill="#e0e0e0" stroke="#999999" points="277.5,-305 197.5,-305 197.5,-286 277.5,-286 277.5,-305"/>
<text text-anchor="middle" x="237.5" y="-293" font-family="Helvetica,sans-Serif" font-size="10.00">QMainWindow</text>
</a>
</g>
</g>
<!-- Node1&#45;&gt;Node2 -->
<g id="edge1" class="edge">
<title>Node1&#45;&gt;Node2</title>
<path fill="none" stroke="#63b8ff" d="M423.5,-340.51C385.74,-331.57 327.65,-317.83 286.45,-308.08"/>
<polygon fill="#63b8ff" stroke="#63b8ff" points="287.32,-304.69 276.78,-305.79 285.71,-311.5 287.32,-304.69"/>
</g>
<!-- Node3 -->
<g id="node3" class="node">
<title>Node3</title>
<g id="a_node3"><a xlink:href="comm_master_8h.html" target="_top" xlink:title="comm::CommMaster declaration">
<polygon fill="white" stroke="#666666" points="579.5,-195 459.5,-195 459.5,-165 579.5,-165 579.5,-195"/>
<text text-anchor="start" x="467.5" y="-183" font-family="Helvetica,sans-Serif" font-size="10.00">../deviceCommunication</text>
<text text-anchor="middle" x="519.5" y="-172" font-family="Helvetica,sans-Serif" font-size="10.00">/commMaster.h</text>
</a>
</g>
</g>
<!-- Node1&#45;&gt;Node3 -->
<g id="edge2" class="edge">
<title>Node1&#45;&gt;Node3</title>
<path fill="none" stroke="#63b8ff" d="M516.59,-344.05C566.28,-337.86 634.02,-325.81 650.5,-305 683.26,-263.63 616.13,-222.99 566.42,-200.05"/>
<polygon fill="#63b8ff" stroke="#63b8ff" points="568.06,-196.95 557.5,-196.05 565.19,-203.34 568.06,-196.95"/>
</g>
<!-- Node7 -->
<g id="node7" class="node">
<title>Node7</title>
<g id="a_node7"><a xlink:href="parser_8h.html" target="_top" xlink:title="Parser declaration">
<polygon fill="white" stroke="#666666" points="388,-74 299,-74 299,-55 388,-55 388,-74"/>
<text text-anchor="middle" x="343.5" y="-62" font-family="Helvetica,sans-Serif" font-size="10.00">../parser/parser.h</text>
</a>
</g>
</g>
<!-- Node1&#45;&gt;Node7 -->
<g id="edge14" class="edge">
<title>Node1&#45;&gt;Node7</title>
<path fill="none" stroke="#63b8ff" d="M422.95,-340.54C402.38,-333.92 378.15,-322.86 362.5,-305 343.09,-282.84 343.5,-270.96 343.5,-241.5 343.5,-241.5 343.5,-241.5 343.5,-179 343.5,-146.39 343.5,-108.5 343.5,-85.79"/>
<polygon fill="#63b8ff" stroke="#63b8ff" points="347,-85.84 343.5,-75.84 340,-85.84 347,-85.84"/>
</g>
<!-- Node9 -->
<g id="node9" class="node">
<title>Node9</title>
<g id="a_node9"><a xlink:href="notification_8h.html" target="_top" xlink:title="Notification declaration">
<polygon fill="white" stroke="#666666" points="847.5,-305 719.5,-305 719.5,-286 847.5,-286 847.5,-305"/>
<text text-anchor="middle" x="783.5" y="-293" font-family="Helvetica,sans-Serif" font-size="10.00">../notification/notification.h</text>
</a>
</g>
</g>
<!-- Node1&#45;&gt;Node9 -->
<g id="edge10" class="edge">
<title>Node1&#45;&gt;Node9</title>
<path fill="none" stroke="#63b8ff" d="M516.12,-340.51C571.83,-331.34 658.3,-317.11 717.74,-307.32"/>
<polygon fill="#63b8ff" stroke="#63b8ff" points="718.09,-310.81 727.39,-305.74 716.95,-303.91 718.09,-310.81"/>
</g>
<!-- Node12 -->
<g id="node12" class="node">
<title>Node12</title>
<g id="a_node12"><a xlink:href="dialogabout_8h.html" target="_top" xlink:title="DialogAbout declaration">
<polygon fill="white" stroke="#666666" points="547.5,-305 473.5,-305 473.5,-286 547.5,-286 547.5,-305"/>
<text text-anchor="middle" x="510.5" y="-293" font-family="Helvetica,sans-Serif" font-size="10.00">dialogabout.h</text>
</a>
</g>
</g>
<!-- Node1&#45;&gt;Node12 -->
<g id="edge15" class="edge">
<title>Node1&#45;&gt;Node12</title>
<path fill="none" stroke="#63b8ff" d="M469.59,-340.75C476.36,-333.43 486.22,-322.76 494.56,-313.74"/>
<polygon fill="#63b8ff" stroke="#63b8ff" points="496.99,-316.27 501.21,-306.55 491.85,-311.52 496.99,-316.27"/>
</g>
<!-- Node14 -->
<g id="node14" class="node">
<title>Node14</title>
<g id="a_node14"><a xlink:href="dialogconnect_8h.html" target="_top" xlink:title="DialogConnect declaration">
<polygon fill="white" stroke="#666666" points="455.5,-305 371.5,-305 371.5,-286 455.5,-286 455.5,-305"/>
<text text-anchor="middle" x="413.5" y="-293" font-family="Helvetica,sans-Serif" font-size="10.00">dialogconnect.h</text>
</a>
</g>
</g>
<!-- Node1&#45;&gt;Node14 -->
<g id="edge17" class="edge">
<title>Node1&#45;&gt;Node14</title>
<path fill="none" stroke="#63b8ff" d="M453.57,-340.75C446.94,-333.43 437.28,-322.76 429.11,-313.74"/>
<polygon fill="#63b8ff" stroke="#63b8ff" points="431.92,-311.63 422.61,-306.56 426.73,-316.33 431.92,-311.63"/>
</g>
<!-- Node17 -->
<g id="node17" class="node">
<title>Node17</title>
<g id="a_node17"><a xlink:href="dialogdebug_8h.html" target="_top" xlink:title="DialogDebug declaration">
<polygon fill="white" stroke="#666666" points="641.5,-305 565.5,-305 565.5,-286 641.5,-286 641.5,-305"/>
<text text-anchor="middle" x="603.5" y="-293" font-family="Helvetica,sans-Serif" font-size="10.00">dialogdebug.h</text>
</a>
</g>
</g>
<!-- Node1&#45;&gt;Node17 -->
<g id="edge23" class="edge">
<title>Node1&#45;&gt;Node17</title>
<path fill="none" stroke="#63b8ff" d="M485.59,-340.51C508.57,-331.93 543.44,-318.92 569.3,-309.27"/>
<polygon fill="#63b8ff" stroke="#63b8ff" points="570.2,-312.66 578.35,-305.89 567.76,-306.1 570.2,-312.66"/>
</g>
<!-- Node18 -->
<g id="node18" class="node">
<title>Node18</title>
<g id="a_node18"><a xlink:href="plot_widget_8h.html" target="_top" xlink:title="Plot declaration">
<polygon fill="white" stroke="#666666" points="301.5,-250 231.5,-250 231.5,-231 301.5,-231 301.5,-250"/>
<text text-anchor="middle" x="266.5" y="-238" font-family="Helvetica,sans-Serif" font-size="10.00">plotWidget.h</text>
</a>
</g>
</g>
<!-- Node1&#45;&gt;Node18 -->
<g id="edge26" class="edge">
<title>Node1&#45;&gt;Node18</title>
<path fill="none" stroke="#63b8ff" d="M419.18,-340.57C392.14,-333.61 357.11,-322.2 329.5,-305 309.8,-292.72 291.62,-273.13 279.91,-258.95"/>
<polygon fill="#63b8ff" stroke="#63b8ff" points="282.81,-256.97 273.84,-251.34 277.34,-261.34 282.81,-256.97"/>
</g>
<!-- Node4 -->
<g id="node4" class="node">
<title>Node4</title>
<g id="a_node4"><a xlink:title=" ">
<polygon fill="#e0e0e0" stroke="#999999" points="532,-19 479,-19 479,0 532,0 532,-19"/>
<text text-anchor="middle" x="505.5" y="-7" font-family="Helvetica,sans-Serif" font-size="10.00">QObject</text>
</a>
</g>
</g>
<!-- Node3&#45;&gt;Node4 -->
<g id="edge3" class="edge">
<title>Node3&#45;&gt;Node4</title>
<path fill="none" stroke="#63b8ff" d="M518.31,-164.63C515.81,-134.57 510.03,-64.97 507.16,-30.54"/>
<polygon fill="#63b8ff" stroke="#63b8ff" points="510.67,-30.4 506.35,-20.72 503.69,-30.98 510.67,-30.4"/>
</g>
<!-- Node5 -->
<g id="node5" class="node">
<title>Node5</title>
<g id="a_node5"><a xlink:href="comm_device_8h.html" target="_top" xlink:title="comm::CommDevice declaration">
<polygon fill="white" stroke="#666666" points="485,-129 404,-129 404,-110 485,-110 485,-129"/>
<text text-anchor="middle" x="444.5" y="-117" font-family="Helvetica,sans-Serif" font-size="10.00">commDevice.h</text>
</a>
</g>
</g>
<!-- Node3&#45;&gt;Node5 -->
<g id="edge4" class="edge">
<title>Node3&#45;&gt;Node5</title>
<path fill="none" stroke="#63b8ff" d="M500.96,-164.54C489.85,-155.87 475.71,-144.85 464.37,-136"/>
<polygon fill="#63b8ff" stroke="#63b8ff" points="466.85,-133.5 456.82,-130.11 462.55,-139.02 466.85,-133.5"/>
</g>
<!-- Node5&#45;&gt;Node4 -->
<g id="edge6" class="edge">
<title>Node5&#45;&gt;Node4</title>
<path fill="none" stroke="#63b8ff" d="M449.49,-109.66C459.37,-92.18 481.59,-52.84 494.88,-29.3"/>
<polygon fill="#63b8ff" stroke="#63b8ff" points="497.82,-31.21 499.69,-20.78 491.73,-27.76 497.82,-31.21"/>
</g>
<!-- Node6 -->
<g id="node6" class="node">
<title>Node6</title>
<g id="a_node6"><a xlink:title=" ">
<polygon fill="#e0e0e0" stroke="#999999" points="458.5,-74 406.5,-74 406.5,-55 458.5,-55 458.5,-74"/>
<text text-anchor="middle" x="432.5" y="-62" font-family="Helvetica,sans-Serif" font-size="10.00">QDebug</text>
</a>
</g>
</g>
<!-- Node5&#45;&gt;Node6 -->
<g id="edge5" class="edge">
<title>Node5&#45;&gt;Node6</title>
<path fill="none" stroke="#63b8ff" d="M442.52,-109.75C441.03,-103.19 438.94,-93.95 437.05,-85.6"/>
<polygon fill="#63b8ff" stroke="#63b8ff" points="440.48,-84.9 434.86,-75.92 433.65,-86.44 440.48,-84.9"/>
</g>
<!-- Node5&#45;&gt;Node7 -->
<g id="edge7" class="edge">
<title>Node5&#45;&gt;Node7</title>
<path fill="none" stroke="#63b8ff" d="M427.37,-109.51C411.75,-101.31 388.42,-89.07 370.33,-79.58"/>
<polygon fill="#63b8ff" stroke="#63b8ff" points="372.2,-76.61 361.72,-75.06 368.95,-82.81 372.2,-76.61"/>
</g>
<!-- Node7&#45;&gt;Node4 -->
<g id="edge9" class="edge">
<title>Node7&#45;&gt;Node4</title>
<path fill="none" stroke="#63b8ff" d="M370.98,-54.51C397.64,-45.79 438.29,-32.49 467.93,-22.79"/>
<polygon fill="#63b8ff" stroke="#63b8ff" points="468.84,-26.18 477.26,-19.74 466.66,-19.52 468.84,-26.18"/>
</g>
<!-- Node8 -->
<g id="node8" class="node">
<title>Node8</title>
<g id="a_node8"><a xlink:title=" ">
<polygon fill="#e0e0e0" stroke="#999999" points="376.5,-19 310.5,-19 310.5,0 376.5,0 376.5,-19"/>
<text text-anchor="middle" x="343.5" y="-7" font-family="Helvetica,sans-Serif" font-size="10.00">QByteArray</text>
</a>
</g>
</g>
<!-- Node7&#45;&gt;Node8 -->
<g id="edge8" class="edge">
<title>Node7&#45;&gt;Node8</title>
<path fill="none" stroke="#63b8ff" d="M343.5,-54.75C343.5,-48.27 343.5,-39.16 343.5,-30.9"/>
<polygon fill="#63b8ff" stroke="#63b8ff" points="347,-30.96 343.5,-20.96 340,-30.96 347,-30.96"/>
</g>
<!-- Node9&#45;&gt;Node4 -->
<g id="edge11" class="edge">
<title>Node9&#45;&gt;Node4</title>
<path fill="none" stroke="#63b8ff" d="M806.2,-285.59C821.96,-278.28 842.25,-266.45 854.5,-250 873.49,-224.48 873.5,-212.81 873.5,-181 873.5,-181 873.5,-181 873.5,-118.5 873.5,-50.26 637.56,-22.06 543.52,-13.53"/>
<polygon fill="#63b8ff" stroke="#63b8ff" points="544.04,-10.06 533.77,-12.67 543.43,-17.03 544.04,-10.06"/>
</g>
<!-- Node10 -->
<g id="node10" class="node">
<title>Node10</title>
<g id="a_node10"><a xlink:title=" ">
<polygon fill="#e0e0e0" stroke="#999999" points="747.5,-250 697.5,-250 697.5,-231 747.5,-231 747.5,-250"/>
<text text-anchor="middle" x="722.5" y="-238" font-family="Helvetica,sans-Serif" font-size="10.00">QString</text>
</a>
</g>
</g>
<!-- Node9&#45;&gt;Node10 -->
<g id="edge12" class="edge">
<title>Node9&#45;&gt;Node10</title>
<path fill="none" stroke="#63b8ff" d="M773.15,-285.51C764.42,-277.93 751.71,-266.88 741.2,-257.75"/>
<polygon fill="#63b8ff" stroke="#63b8ff" points="743.68,-255.27 733.84,-251.35 739.09,-260.55 743.68,-255.27"/>
</g>
<!-- Node11 -->
<g id="node11" class="node">
<title>Node11</title>
<g id="a_node11"><a xlink:title=" ">
<polygon fill="#e0e0e0" stroke="#999999" points="845,-250 766,-250 766,-231 845,-231 845,-250"/>
<text text-anchor="middle" x="805.5" y="-238" font-family="Helvetica,sans-Serif" font-size="10.00">QTextBrowser</text>
</a>
</g>
</g>
<!-- Node9&#45;&gt;Node11 -->
<g id="edge13" class="edge">
<title>Node9&#45;&gt;Node11</title>
<path fill="none" stroke="#63b8ff" d="M787.13,-285.75C789.92,-279.04 793.87,-269.52 797.4,-261.02"/>
<polygon fill="#63b8ff" stroke="#63b8ff" points="800.61,-262.42 801.21,-251.84 794.14,-259.73 800.61,-262.42"/>
</g>
<!-- Node13 -->
<g id="node13" class="node">
<title>Node13</title>
<g id="a_node13"><a xlink:title=" ">
<polygon fill="#e0e0e0" stroke="#999999" points="581,-250 530,-250 530,-231 581,-231 581,-250"/>
<text text-anchor="middle" x="555.5" y="-238" font-family="Helvetica,sans-Serif" font-size="10.00">QDialog</text>
</a>
</g>
</g>
<!-- Node12&#45;&gt;Node13 -->
<g id="edge16" class="edge">
<title>Node12&#45;&gt;Node13</title>
<path fill="none" stroke="#63b8ff" d="M517.93,-285.75C524.08,-278.5 533.01,-267.98 540.63,-259.02"/>
<polygon fill="#63b8ff" stroke="#63b8ff" points="543.12,-261.48 546.93,-251.6 537.79,-256.95 543.12,-261.48"/>
</g>
<!-- Node14&#45;&gt;Node3 -->
<g id="edge19" class="edge">
<title>Node14&#45;&gt;Node3</title>
<path fill="none" stroke="#63b8ff" d="M432.02,-285.6C446.8,-277.8 467.31,-265.32 481.5,-250 493.46,-237.1 502.99,-219.74 509.52,-205.67"/>
<polygon fill="#63b8ff" stroke="#63b8ff" points="512.68,-207.18 513.49,-196.61 506.27,-204.37 512.68,-207.18"/>
</g>
<!-- Node14&#45;&gt;Node13 -->
<g id="edge18" class="edge">
<title>Node14&#45;&gt;Node13</title>
<path fill="none" stroke="#63b8ff" d="M437.59,-285.51C460.57,-276.93 495.44,-263.92 521.3,-254.27"/>
<polygon fill="#63b8ff" stroke="#63b8ff" points="522.2,-257.66 530.35,-250.89 519.76,-251.1 522.2,-257.66"/>
</g>
<!-- Node15 -->
<g id="node15" class="node">
<title>Node15</title>
<g id="a_node15"><a xlink:href="connection_widget_8h.html" target="_top" xlink:title="ConnectionWidget declaration">
<polygon fill="white" stroke="#666666" points="473,-250 372,-250 372,-231 473,-231 473,-250"/>
<text text-anchor="middle" x="422.5" y="-238" font-family="Helvetica,sans-Serif" font-size="10.00">connectionWidget.h</text>
</a>
</g>
</g>
<!-- Node14&#45;&gt;Node15 -->
<g id="edge20" class="edge">
<title>Node14&#45;&gt;Node15</title>
<path fill="none" stroke="#63b8ff" d="M414.99,-285.75C416.1,-279.19 417.67,-269.95 419.09,-261.6"/>
<polygon fill="#63b8ff" stroke="#63b8ff" points="422.5,-262.38 420.73,-251.93 415.6,-261.21 422.5,-262.38"/>
</g>
<!-- Node15&#45;&gt;Node3 -->
<g id="edge22" class="edge">
<title>Node15&#45;&gt;Node3</title>
<path fill="none" stroke="#63b8ff" d="M437.23,-230.62C450.17,-222.81 469.47,-211.17 486.12,-201.13"/>
<polygon fill="#63b8ff" stroke="#63b8ff" points="487.51,-204.38 494.26,-196.22 483.89,-198.39 487.51,-204.38"/>
</g>
<!-- Node16 -->
<g id="node16" class="node">
<title>Node16</title>
<g id="a_node16"><a xlink:title=" ">
<polygon fill="#e0e0e0" stroke="#999999" points="431.5,-189.5 377.5,-189.5 377.5,-170.5 431.5,-170.5 431.5,-189.5"/>
<text text-anchor="middle" x="404.5" y="-177.5" font-family="Helvetica,sans-Serif" font-size="10.00">QWidget</text>
</a>
</g>
</g>
<!-- Node15&#45;&gt;Node16 -->
<g id="edge21" class="edge">
<title>Node15&#45;&gt;Node16</title>
<path fill="none" stroke="#63b8ff" d="M419.84,-230.87C417.4,-222.92 413.68,-210.83 410.52,-200.55"/>
<polygon fill="#63b8ff" stroke="#63b8ff" points="413.9,-199.64 407.61,-191.11 407.21,-201.7 413.9,-199.64"/>
</g>
<!-- Node17&#45;&gt;Node3 -->
<g id="edge25" class="edge">
<title>Node17&#45;&gt;Node3</title>
<path fill="none" stroke="#63b8ff" d="M603.49,-285.52C603.07,-272.46 600.7,-247.96 589.5,-231 581.72,-219.22 570.14,-209.32 558.63,-201.52"/>
<polygon fill="#63b8ff" stroke="#63b8ff" points="560.66,-198.67 550.34,-196.28 556.92,-204.58 560.66,-198.67"/>
</g>
<!-- Node17&#45;&gt;Node13 -->
<g id="edge24" class="edge">
<title>Node17&#45;&gt;Node13</title>
<path fill="none" stroke="#63b8ff" d="M595.57,-285.75C588.94,-278.43 579.28,-267.76 571.11,-258.74"/>
<polygon fill="#63b8ff" stroke="#63b8ff" points="573.92,-256.63 564.61,-251.56 568.73,-261.33 573.92,-256.63"/>
</g>
<!-- Node18&#45;&gt;Node7 -->
<g id="edge31" class="edge">
<title>Node18&#45;&gt;Node7</title>
<path fill="none" stroke="#63b8ff" d="M270.42,-230.63C282.37,-203.64 318.49,-122.03 335.04,-84.61"/>
<polygon fill="#63b8ff" stroke="#63b8ff" points="338.22,-86.09 339.06,-75.53 331.82,-83.26 338.22,-86.09"/>
</g>
<!-- Node18&#45;&gt;Node16 -->
<g id="edge30" class="edge">
<title>Node18&#45;&gt;Node16</title>
<path fill="none" stroke="#63b8ff" d="M287.46,-230.62C310.15,-220.99 346.62,-205.54 372.81,-194.43"/>
<polygon fill="#63b8ff" stroke="#63b8ff" points="374.11,-197.68 381.95,-190.56 371.38,-191.24 374.11,-197.68"/>
</g>
<!-- Node19 -->
<g id="node19" class="node">
<title>Node19</title>
<g id="a_node19"><a xlink:title=" ">
<polygon fill="#e0e0e0" stroke="#999999" points="210,-189.5 71,-189.5 71,-170.5 210,-170.5 210,-189.5"/>
<text text-anchor="middle" x="140.5" y="-177.5" font-family="Helvetica,sans-Serif" font-size="10.00">QCustomPlot/qcustomplot.h</text>
</a>
</g>
</g>
<!-- Node18&#45;&gt;Node19 -->
<g id="edge27" class="edge">
<title>Node18&#45;&gt;Node19</title>
<path fill="none" stroke="#63b8ff" d="M247.36,-230.62C226.83,-221.08 193.94,-205.81 170.07,-194.73"/>
<polygon fill="#63b8ff" stroke="#63b8ff" points="171.73,-191.64 161.19,-190.61 168.79,-197.99 171.73,-191.64"/>
</g>
<!-- Node20 -->
<g id="node20" class="node">
<title>Node20</title>
<g id="a_node20"><a xlink:title=" ">
<polygon fill="#e0e0e0" stroke="#999999" points="277,-189.5 228,-189.5 228,-170.5 277,-170.5 277,-189.5"/>
<text text-anchor="middle" x="252.5" y="-177.5" font-family="Helvetica,sans-Serif" font-size="10.00">QTimer</text>
</a>
</g>
</g>
<!-- Node18&#45;&gt;Node20 -->
<g id="edge28" class="edge">
<title>Node18&#45;&gt;Node20</title>
<path fill="none" stroke="#63b8ff" d="M264.43,-230.87C262.53,-222.92 259.64,-210.83 257.18,-200.55"/>
<polygon fill="#63b8ff" stroke="#63b8ff" points="260.66,-200.05 254.93,-191.14 253.85,-201.68 260.66,-200.05"/>
</g>
<!-- Node21 -->
<g id="node21" class="node">
<title>Node21</title>
<g id="a_node21"><a xlink:title=" ">
<polygon fill="#e0e0e0" stroke="#999999" points="53,-189.5 0,-189.5 0,-170.5 53,-170.5 53,-189.5"/>
<text text-anchor="middle" x="26.5" y="-177.5" font-family="Helvetica,sans-Serif" font-size="10.00">QVector</text>
</a>
</g>
</g>
<!-- Node18&#45;&gt;Node21 -->
<g id="edge29" class="edge">
<title>Node18&#45;&gt;Node21</title>
<path fill="none" stroke="#63b8ff" d="M231.22,-233.69C190.01,-226.48 120,-212.91 61.5,-195 60.16,-194.59 58.8,-194.15 57.44,-193.69"/>
<polygon fill="#63b8ff" stroke="#63b8ff" points="59.04,-190.55 48.44,-190.39 56.63,-197.12 59.04,-190.55"/>
</g>
</g>
</svg>
