<?xml version="1.0" encoding="UTF-8" standalone="no"?>
<!DOCTYPE svg PUBLIC "-//W3C//DTD SVG 1.1//EN"
 "http://www.w3.org/Graphics/SVG/1.1/DTD/svg11.dtd">
<!-- Generated by graphviz version 7.0.5 (20221223.1930)
 -->
<!-- Title: src/gui/mainwindow.cpp Pages: 1 -->
<!--zoomable 434 -->
<svg id="main" version="1.1" xmlns="http://www.w3.org/2000/svg" xmlns:xlink="http://www.w3.org/1999/xlink" xml:space="preserve" onload="init(evt)">
<style type="text/css"><![CDATA[
.edge:hover path { stroke: red; }
.edge:hover polygon { stroke: red; fill: red; }
]]></style>
<script type="text/javascript"><![CDATA[
var edges = document.getElementsByTagName('g');
if (edges && edges.length) {
  for (var i=0;i<edges.length;i++) {
    if (edges[i].id.substr(0,4)=='edge') {
      edges[i].setAttribute('class','edge');
    }
  }
}
]]></script>
        <defs>
                <circle id="rim" cx="0" cy="0" r="7"/>
                <circle id="rim2" cx="0" cy="0" r="3.5"/>
                <g id="zoomPlus">
                        <use xlink:href="#rim" fill="#404040">
                                <set attributeName="fill" to="#808080" begin="zoomplus.mouseover" end="zoomplus.mouseout"/>
                        </use>
                        <path d="M-4,0h8M0,-4v8" fill="none" stroke="white" stroke-width="1.5" pointer-events="none"/>
                </g>
                <g id="zoomMin">
                        <use xlink:href="#rim" fill="#404040">
                                <set attributeName="fill" to="#808080" begin="zoomminus.mouseover" end="zoomminus.mouseout"/>
                        </use>
                        <path d="M-4,0h8" fill="none" stroke="white" stroke-width="1.5" pointer-events="none"/>
                </g>
                <g id="dirArrow">
                        <path fill="none" stroke="white" stroke-width="1.5" d="M0,-3.0v7 M-2.5,-0.5L0,-3.0L2.5,-0.5"/>
                </g>
               <g id="resetDef">
                       <use xlink:href="#rim2" fill="#404040">
                               <set attributeName="fill" to="#808080" begin="reset.mouseover" end="reset.mouseout"/>
                       </use>
               </g>
        </defs>

<script type="text/javascript">
var viewWidth = 1113;
var viewHeight = 434;
var sectionId = 'dynsection-0';
</script>
<script xlink:href="svgpan.js"/>
<svg id="graph" class="graph">
<g id="viewport">
<title>src/gui/mainwindow.cpp</title>
<!-- Node1 -->
<g id="node1" class="node">
<title>Node1</title>
<g id="a_node1"><a xlink:title="MainWindow implementation">
<polygon fill="#999999" stroke="#666666" points="929.5,-426 808.5,-426 808.5,-407 929.5,-407 929.5,-426"/>
<text text-anchor="middle" x="869" y="-414" font-family="Helvetica,sans-Serif" font-size="10.00">src/gui/mainwindow.cpp</text>
</a>
</g>
</g>
<!-- Node2 -->
<g id="node2" class="node">
<title>Node2</title>
<g id="a_node2"><a xlink:href="mainwindow_8h.html" target="_top" xlink:title="MainWindow declaration">
<polygon fill="white" stroke="#666666" points="434,-371 356,-371 356,-352 434,-352 434,-371"/>
<text text-anchor="middle" x="395" y="-359" font-family="Helvetica,sans-Serif" font-size="10.00">mainwindow.h</text>
</a>
</g>
</g>
<!-- Node1&#45;&gt;Node2 -->
<g id="edge1" class="edge">
<title>Node1&#45;&gt;Node2</title>
<path fill="none" stroke="#63b8ff" d="M808,-408.68C713.48,-398.11 533.39,-377.97 445.62,-368.16"/>
<polygon fill="#63b8ff" stroke="#63b8ff" points="446.2,-364.7 435.88,-367.07 445.42,-371.66 446.2,-364.7"/>
</g>
<!-- Node11 -->
<g id="node11" class="node">
<title>Node11</title>
<g id="a_node11"><a xlink:href="notification_8h.html" target="_top" xlink:title="Notification declaration">
<polygon fill="white" stroke="#666666" points="765,-261 637,-261 637,-242 765,-242 765,-261"/>
<text text-anchor="middle" x="701" y="-249" font-family="Helvetica,sans-Serif" font-size="10.00">../notification/notification.h</text>
</a>
</g>
</g>
<!-- Node1&#45;&gt;Node11 -->
<g id="edge39" class="edge">
<title>Node1&#45;&gt;Node11</title>
<path fill="none" stroke="#63b8ff" d="M859.97,-406.74C833.08,-380.65 753.23,-303.17 718.01,-269"/>
<polygon fill="#63b8ff" stroke="#63b8ff" points="720.78,-266.81 711.16,-262.36 715.9,-271.84 720.78,-266.81"/>
</g>
<!-- Node21 -->
<g id="node21" class="node">
<title>Node21</title>
<g id="a_node21"><a xlink:title=" ">
<polygon fill="#e0e0e0" stroke="#999999" points="870.5,-261 821.5,-261 821.5,-242 870.5,-242 870.5,-261"/>
<text text-anchor="middle" x="846" y="-249" font-family="Helvetica,sans-Serif" font-size="10.00">QTimer</text>
</a>
</g>
</g>
<!-- Node1&#45;&gt;Node21 -->
<g id="edge36" class="edge">
<title>Node1&#45;&gt;Node21</title>
<path fill="none" stroke="#63b8ff" d="M864.04,-406.63C859.44,-397.87 852.88,-383.96 850,-371 842.47,-337.09 843.13,-296.4 844.45,-272.6"/>
<polygon fill="#63b8ff" stroke="#63b8ff" points="847.93,-272.98 845.11,-262.77 840.95,-272.52 847.93,-272.98"/>
</g>
<!-- Node24 -->
<g id="node24" class="node">
<title>Node24</title>
<g id="a_node24"><a xlink:title=" ">
<polygon fill="#e0e0e0" stroke="#999999" points="957,-371 859,-371 859,-352 957,-352 957,-371"/>
<text text-anchor="middle" x="908" y="-359" font-family="Helvetica,sans-Serif" font-size="10.00">QDesktopServices</text>
</a>
</g>
</g>
<!-- Node1&#45;&gt;Node24 -->
<g id="edge35" class="edge">
<title>Node1&#45;&gt;Node24</title>
<path fill="none" stroke="#63b8ff" d="M875.44,-406.75C880.66,-399.66 888.19,-389.42 894.69,-380.59"/>
<polygon fill="#63b8ff" stroke="#63b8ff" points="897.42,-382.79 900.52,-372.66 891.78,-378.64 897.42,-382.79"/>
</g>
<!-- Node25 -->
<g id="node25" class="node">
<title>Node25</title>
<g id="a_node25"><a xlink:href="command_8h.html" target="_top" xlink:title="All commands for the linescale3.">
<polygon fill="white" stroke="#666666" points="1019,-140 899,-140 899,-110 1019,-110 1019,-140"/>
<text text-anchor="start" x="907" y="-128" font-family="Helvetica,sans-Serif" font-size="10.00">../deviceCommunication</text>
<text text-anchor="middle" x="959" y="-117" font-family="Helvetica,sans-Serif" font-size="10.00">/command.h</text>
</a>
</g>
</g>
<!-- Node1&#45;&gt;Node25 -->
<g id="edge37" class="edge">
<title>Node1&#45;&gt;Node25</title>
<path fill="none" stroke="#63b8ff" d="M906.31,-406.52C926.57,-399.85 950.56,-388.76 966,-371 985.33,-348.77 985,-336.96 985,-307.5 985,-307.5 985,-307.5 985,-250.5 985,-215.43 974.99,-175.95 967.39,-151.03"/>
<polygon fill="#63b8ff" stroke="#63b8ff" points="970.83,-150.28 964.47,-141.81 964.15,-152.4 970.83,-150.28"/>
</g>
<!-- Node26 -->
<g id="node26" class="node">
<title>Node26</title>
<g id="a_node26"><a xlink:title=" ">
<polygon fill="#e0e0e0" stroke="#999999" points="1104.5,-371 1013.5,-371 1013.5,-352 1104.5,-352 1104.5,-371"/>
<text text-anchor="middle" x="1059" y="-359" font-family="Helvetica,sans-Serif" font-size="10.00">ui_mainwindow.h</text>
</a>
</g>
</g>
<!-- Node1&#45;&gt;Node26 -->
<g id="edge40" class="edge">
<title>Node1&#45;&gt;Node26</title>
<path fill="none" stroke="#63b8ff" d="M901.23,-406.51C932.85,-397.69 981.27,-384.18 1016.13,-374.46"/>
<polygon fill="#63b8ff" stroke="#63b8ff" points="1016.78,-377.91 1025.47,-371.85 1014.9,-371.17 1016.78,-377.91"/>
</g>
<!-- Node3 -->
<g id="node3" class="node">
<title>Node3</title>
<g id="a_node3"><a xlink:title=" ">
<polygon fill="#e0e0e0" stroke="#999999" points="435,-316 355,-316 355,-297 435,-297 435,-316"/>
<text text-anchor="middle" x="395" y="-304" font-family="Helvetica,sans-Serif" font-size="10.00">QMainWindow</text>
</a>
</g>
</g>
<!-- Node2&#45;&gt;Node3 -->
<g id="edge2" class="edge">
<title>Node2&#45;&gt;Node3</title>
<path fill="none" stroke="#63b8ff" d="M395,-351.75C395,-345.27 395,-336.16 395,-327.9"/>
<polygon fill="#63b8ff" stroke="#63b8ff" points="398.5,-327.96 395,-317.96 391.5,-327.96 398.5,-327.96"/>
</g>
<!-- Node4 -->
<g id="node4" class="node">
<title>Node4</title>
<g id="a_node4"><a xlink:href="comm_master_8h.html" target="_top" xlink:title="comm::CommMaster declaration">
<polygon fill="white" stroke="#666666" points="288,-206 168,-206 168,-176 288,-176 288,-206"/>
<text text-anchor="start" x="176" y="-194" font-family="Helvetica,sans-Serif" font-size="10.00">../deviceCommunication</text>
<text text-anchor="middle" x="228" y="-183" font-family="Helvetica,sans-Serif" font-size="10.00">/commMaster.h</text>
</a>
</g>
</g>
<!-- Node2&#45;&gt;Node4 -->
<g id="edge3" class="edge">
<title>Node2&#45;&gt;Node4</title>
<path fill="none" stroke="#63b8ff" d="M384.49,-351.68C374.3,-342.97 358.58,-329.09 346,-316 316.27,-285.06 313.86,-272.81 284,-242 274.63,-232.33 263.69,-222.31 253.99,-213.81"/>
<polygon fill="#63b8ff" stroke="#63b8ff" points="256.5,-211.36 246.64,-207.47 251.93,-216.66 256.5,-211.36"/>
</g>
<!-- Node8 -->
<g id="node8" class="node">
<title>Node8</title>
<g id="a_node8"><a xlink:href="parser_8h.html" target="_top" xlink:title="Parser declaration">
<polygon fill="white" stroke="#666666" points="732.5,-74 643.5,-74 643.5,-55 732.5,-55 732.5,-74"/>
<text text-anchor="middle" x="688" y="-62" font-family="Helvetica,sans-Serif" font-size="10.00">../parser/parser.h</text>
</a>
</g>
</g>
<!-- Node2&#45;&gt;Node8 -->
<g id="edge16" class="edge">
<title>Node2&#45;&gt;Node8</title>
<path fill="none" stroke="#63b8ff" d="M434.32,-361.1C509.52,-360.14 675.06,-347.57 774,-261 803.64,-235.07 814.11,-212.36 799,-176 781.51,-133.92 739.35,-99.58 712.32,-80.88"/>
<polygon fill="#63b8ff" stroke="#63b8ff" points="714.29,-77.99 704.04,-75.33 710.4,-83.81 714.29,-77.99"/>
</g>
<!-- Node2&#45;&gt;Node11 -->
<g id="edge12" class="edge">
<title>Node2&#45;&gt;Node11</title>
<path fill="none" stroke="#63b8ff" d="M432.96,-351.53C465.67,-343.42 513.97,-330.55 555,-316 596.81,-301.17 643.58,-279.98 672.66,-266.23"/>
<polygon fill="#63b8ff" stroke="#63b8ff" points="674,-269.47 681.52,-262 670.99,-263.15 674,-269.47"/>
</g>
<!-- Node14 -->
<g id="node14" class="node">
<title>Node14</title>
<g id="a_node14"><a xlink:href="dialogabout_8h.html" target="_top" xlink:title="DialogAbout declaration">
<polygon fill="white" stroke="#666666" points="168,-316 94,-316 94,-297 168,-297 168,-316"/>
<text text-anchor="middle" x="131" y="-304" font-family="Helvetica,sans-Serif" font-size="10.00">dialogabout.h</text>
</a>
</g>
</g>
<!-- Node2&#45;&gt;Node14 -->
<g id="edge17" class="edge">
<title>Node2&#45;&gt;Node14</title>
<path fill="none" stroke="#63b8ff" d="M355.76,-352.62C308.76,-343.19 230.02,-327.38 179.31,-317.2"/>
<polygon fill="#63b8ff" stroke="#63b8ff" points="180.29,-313.83 169.8,-315.29 178.92,-320.69 180.29,-313.83"/>
</g>
<!-- Node16 -->
<g id="node16" class="node">
<title>Node16</title>
<g id="a_node16"><a xlink:href="dialogconnect_8h.html" target="_top" xlink:title="DialogConnect declaration">
<polygon fill="white" stroke="#666666" points="270,-316 186,-316 186,-297 270,-297 270,-316"/>
<text text-anchor="middle" x="228" y="-304" font-family="Helvetica,sans-Serif" font-size="10.00">dialogconnect.h</text>
</a>
</g>
</g>
<!-- Node2&#45;&gt;Node16 -->
<g id="edge19" class="edge">
<title>Node2&#45;&gt;Node16</title>
<path fill="none" stroke="#63b8ff" d="M366.67,-351.51C339.24,-342.8 297.42,-329.53 266.88,-319.84"/>
<polygon fill="#63b8ff" stroke="#63b8ff" points="268.22,-316.59 257.63,-316.9 266.1,-323.27 268.22,-316.59"/>
</g>
<!-- Node19 -->
<g id="node19" class="node">
<title>Node19</title>
<g id="a_node19"><a xlink:href="dialogdebug_8h.html" target="_top" xlink:title="DialogDebug declaration">
<polygon fill="white" stroke="#666666" points="76,-316 0,-316 0,-297 76,-297 76,-316"/>
<text text-anchor="middle" x="38" y="-304" font-family="Helvetica,sans-Serif" font-size="10.00">dialogdebug.h</text>
</a>
</g>
</g>
<!-- Node2&#45;&gt;Node19 -->
<g id="edge25" class="edge">
<title>Node2&#45;&gt;Node19</title>
<path fill="none" stroke="#63b8ff" d="M355.78,-355.34C298.96,-347.75 190.14,-332.85 87.63,-316.38"/>
<polygon fill="#63b8ff" stroke="#63b8ff" points="88.38,-312.95 77.95,-314.81 87.26,-319.86 88.38,-312.95"/>
</g>
<!-- Node20 -->
<g id="node20" class="node">
<title>Node20</title>
<g id="a_node20"><a xlink:href="plot_widget_8h.html" target="_top" xlink:title="Plot declaration">
<polygon fill="white" stroke="#666666" points="546,-316 476,-316 476,-297 546,-297 546,-316"/>
<text text-anchor="middle" x="511" y="-304" font-family="Helvetica,sans-Serif" font-size="10.00">plotWidget.h</text>
</a>
</g>
</g>
<!-- Node2&#45;&gt;Node20 -->
<g id="edge28" class="edge">
<title>Node2&#45;&gt;Node20</title>
<path fill="none" stroke="#63b8ff" d="M414.68,-351.51C432.95,-343.16 460.41,-330.61 481.35,-321.05"/>
<polygon fill="#63b8ff" stroke="#63b8ff" points="482.6,-324.33 490.24,-316.99 479.69,-317.96 482.6,-324.33"/>
</g>
<!-- Node5 -->
<g id="node5" class="node">
<title>Node5</title>
<g id="a_node5"><a xlink:title=" ">
<polygon fill="#e0e0e0" stroke="#999999" points="583.5,-19 530.5,-19 530.5,0 583.5,0 583.5,-19"/>
<text text-anchor="middle" x="557" y="-7" font-family="Helvetica,sans-Serif" font-size="10.00">QObject</text>
</a>
</g>
</g>
<!-- Node4&#45;&gt;Node5 -->
<g id="edge4" class="edge">
<title>Node4&#45;&gt;Node5</title>
<path fill="none" stroke="#63b8ff" d="M254.37,-175.61C316.06,-141.95 469.23,-58.39 530.78,-24.81"/>
<polygon fill="#63b8ff" stroke="#63b8ff" points="532.07,-28.09 539.18,-20.22 528.72,-21.94 532.07,-28.09"/>
</g>
<!-- Node6 -->
<g id="node6" class="node">
<title>Node6</title>
<g id="a_node6"><a xlink:href="comm_device_8h.html" target="_top" xlink:title="comm::CommDevice declaration">
<polygon fill="white" stroke="#666666" points="548.5,-134.5 467.5,-134.5 467.5,-115.5 548.5,-115.5 548.5,-134.5"/>
<text text-anchor="middle" x="508" y="-122.5" font-family="Helvetica,sans-Serif" font-size="10.00">commDevice.h</text>
</a>
</g>
</g>
<!-- Node4&#45;&gt;Node6 -->
<g id="edge5" class="edge">
<title>Node4&#45;&gt;Node6</title>
<path fill="none" stroke="#63b8ff" d="M288.41,-176.19C339.01,-164.63 410.39,-148.31 457.88,-137.46"/>
<polygon fill="#63b8ff" stroke="#63b8ff" points="458.37,-140.93 467.34,-135.29 456.81,-134.11 458.37,-140.93"/>
</g>
<!-- Node6&#45;&gt;Node5 -->
<g id="edge7" class="edge">
<title>Node6&#45;&gt;Node5</title>
<path fill="none" stroke="#63b8ff" d="M509.28,-115.17C511.45,-101.71 516.57,-75.46 526,-55 530.32,-45.62 536.63,-36.11 542.43,-28.3"/>
<polygon fill="#63b8ff" stroke="#63b8ff" points="545.01,-30.69 548.39,-20.65 539.48,-26.39 545.01,-30.69"/>
</g>
<!-- Node7 -->
<g id="node7" class="node">
<title>Node7</title>
<g id="a_node7"><a xlink:title=" ">
<polygon fill="#e0e0e0" stroke="#999999" points="587,-74 535,-74 535,-55 587,-55 587,-74"/>
<text text-anchor="middle" x="561" y="-62" font-family="Helvetica,sans-Serif" font-size="10.00">QDebug</text>
</a>
</g>
</g>
<!-- Node6&#45;&gt;Node7 -->
<g id="edge6" class="edge">
<title>Node6&#45;&gt;Node7</title>
<path fill="none" stroke="#63b8ff" d="M515.82,-115.37C523.65,-106.73 535.9,-93.2 545.67,-82.42"/>
<polygon fill="#63b8ff" stroke="#63b8ff" points="548.01,-85.05 552.13,-75.29 542.82,-80.35 548.01,-85.05"/>
</g>
<!-- Node6&#45;&gt;Node8 -->
<g id="edge8" class="edge">
<title>Node6&#45;&gt;Node8</title>
<path fill="none" stroke="#63b8ff" d="M535.34,-115.12C565.87,-105.19 615.49,-89.07 649.83,-77.9"/>
<polygon fill="#63b8ff" stroke="#63b8ff" points="650.54,-81.36 658.97,-74.94 648.37,-74.7 650.54,-81.36"/>
</g>
<!-- Node8&#45;&gt;Node5 -->
<g id="edge10" class="edge">
<title>Node8&#45;&gt;Node5</title>
<path fill="none" stroke="#63b8ff" d="M665.78,-54.51C644.86,-46.04 613.27,-33.27 589.52,-23.66"/>
<polygon fill="#63b8ff" stroke="#63b8ff" points="590.88,-20.43 580.3,-19.93 588.25,-26.92 590.88,-20.43"/>
</g>
<!-- Node9 -->
<g id="node9" class="node">
<title>Node9</title>
<g id="a_node9"><a xlink:title=" ">
<polygon fill="#e0e0e0" stroke="#999999" points="874,-19 808,-19 808,0 874,0 874,-19"/>
<text text-anchor="middle" x="841" y="-7" font-family="Helvetica,sans-Serif" font-size="10.00">QByteArray</text>
</a>
</g>
</g>
<!-- Node8&#45;&gt;Node9 -->
<g id="edge9" class="edge">
<title>Node8&#45;&gt;Node9</title>
<path fill="none" stroke="#63b8ff" d="M713.95,-54.51C738.87,-45.88 776.73,-32.76 804.64,-23.1"/>
<polygon fill="#63b8ff" stroke="#63b8ff" points="805.44,-26.52 813.74,-19.94 803.15,-19.91 805.44,-26.52"/>
</g>
<!-- Node10 -->
<g id="node10" class="node">
<title>Node10</title>
<g id="a_node10"><a xlink:title=" ">
<polygon fill="#e0e0e0" stroke="#999999" points="725,-19 651,-19 651,0 725,0 725,-19"/>
<text text-anchor="middle" x="688" y="-7" font-family="Helvetica,sans-Serif" font-size="10.00">QTextStream</text>
</a>
</g>
</g>
<!-- Node8&#45;&gt;Node10 -->
<g id="edge11" class="edge">
<title>Node8&#45;&gt;Node10</title>
<path fill="none" stroke="#63b8ff" d="M688,-54.75C688,-48.27 688,-39.16 688,-30.9"/>
<polygon fill="#63b8ff" stroke="#63b8ff" points="691.5,-30.96 688,-20.96 684.5,-30.96 691.5,-30.96"/>
</g>
<!-- Node11&#45;&gt;Node5 -->
<g id="edge13" class="edge">
<title>Node11&#45;&gt;Node5</title>
<path fill="none" stroke="#63b8ff" d="M679.79,-241.52C664.81,-234.11 645.45,-222.19 634,-206 594.04,-149.5 628.15,-116.28 596,-55 590.66,-44.82 582.54,-35.04 575.09,-27.25"/>
<polygon fill="#63b8ff" stroke="#63b8ff" points="577.79,-25 568.22,-20.46 572.86,-29.98 577.79,-25"/>
</g>
<!-- Node12 -->
<g id="node12" class="node">
<title>Node12</title>
<g id="a_node12"><a xlink:title=" ">
<polygon fill="#e0e0e0" stroke="#999999" points="693,-200.5 643,-200.5 643,-181.5 693,-181.5 693,-200.5"/>
<text text-anchor="middle" x="668" y="-188.5" font-family="Helvetica,sans-Serif" font-size="10.00">QString</text>
</a>
</g>
</g>
<!-- Node11&#45;&gt;Node12 -->
<g id="edge14" class="edge">
<title>Node11&#45;&gt;Node12</title>
<path fill="none" stroke="#63b8ff" d="M696.13,-241.87C691.5,-233.66 684.38,-221.04 678.47,-210.55"/>
<polygon fill="#63b8ff" stroke="#63b8ff" points="681.59,-208.98 673.63,-201.99 675.5,-212.41 681.59,-208.98"/>
</g>
<!-- Node13 -->
<g id="node13" class="node">
<title>Node13</title>
<g id="a_node13"><a xlink:title=" ">
<polygon fill="#e0e0e0" stroke="#999999" points="790.5,-200.5 711.5,-200.5 711.5,-181.5 790.5,-181.5 790.5,-200.5"/>
<text text-anchor="middle" x="751" y="-188.5" font-family="Helvetica,sans-Serif" font-size="10.00">QTextBrowser</text>
</a>
</g>
</g>
<!-- Node11&#45;&gt;Node13 -->
<g id="edge15" class="edge">
<title>Node11&#45;&gt;Node13</title>
<path fill="none" stroke="#63b8ff" d="M708.38,-241.87C715.69,-233.31 727.09,-219.97 736.26,-209.24"/>
<polygon fill="#63b8ff" stroke="#63b8ff" points="738.77,-211.69 742.61,-201.82 733.45,-207.15 738.77,-211.69"/>
</g>
<!-- Node15 -->
<g id="node15" class="node">
<title>Node15</title>
<g id="a_node15"><a xlink:title=" ">
<polygon fill="#e0e0e0" stroke="#999999" points="117.5,-261 66.5,-261 66.5,-242 117.5,-242 117.5,-261"/>
<text text-anchor="middle" x="92" y="-249" font-family="Helvetica,sans-Serif" font-size="10.00">QDialog</text>
</a>
</g>
</g>
<!-- Node14&#45;&gt;Node15 -->
<g id="edge18" class="edge">
<title>Node14&#45;&gt;Node15</title>
<path fill="none" stroke="#63b8ff" d="M124.56,-296.75C119.34,-289.66 111.81,-279.42 105.31,-270.59"/>
<polygon fill="#63b8ff" stroke="#63b8ff" points="108.22,-268.64 99.48,-262.66 102.58,-272.79 108.22,-268.64"/>
</g>
<!-- Node16&#45;&gt;Node4 -->
<g id="edge21" class="edge">
<title>Node16&#45;&gt;Node4</title>
<path fill="none" stroke="#63b8ff" d="M206.23,-296.62C191.66,-289.39 173.62,-277.65 165,-261 155.41,-242.48 171.35,-225.16 189.59,-212.5"/>
<polygon fill="#63b8ff" stroke="#63b8ff" points="191.41,-215.49 197.94,-207.14 187.63,-209.59 191.41,-215.49"/>
</g>
<!-- Node16&#45;&gt;Node15 -->
<g id="edge20" class="edge">
<title>Node16&#45;&gt;Node15</title>
<path fill="none" stroke="#63b8ff" d="M204.93,-296.51C183.11,-288.01 150.12,-275.15 125.42,-265.53"/>
<polygon fill="#63b8ff" stroke="#63b8ff" points="126.73,-262.28 116.14,-261.91 124.19,-268.8 126.73,-262.28"/>
</g>
<!-- Node17 -->
<g id="node17" class="node">
<title>Node17</title>
<g id="a_node17"><a xlink:href="connection_widget_8h.html" target="_top" xlink:title="ConnectionWidget declaration">
<polygon fill="white" stroke="#666666" points="275.5,-261 174.5,-261 174.5,-242 275.5,-242 275.5,-261"/>
<text text-anchor="middle" x="225" y="-249" font-family="Helvetica,sans-Serif" font-size="10.00">connectionWidget.h</text>
</a>
</g>
</g>
<!-- Node16&#45;&gt;Node17 -->
<g id="edge22" class="edge">
<title>Node16&#45;&gt;Node17</title>
<path fill="none" stroke="#63b8ff" d="M227.5,-296.75C227.14,-290.27 226.62,-281.16 226.15,-272.9"/>
<polygon fill="#63b8ff" stroke="#63b8ff" points="229.65,-272.74 225.59,-262.95 222.66,-273.13 229.65,-272.74"/>
</g>
<!-- Node17&#45;&gt;Node4 -->
<g id="edge24" class="edge">
<title>Node17&#45;&gt;Node4</title>
<path fill="none" stroke="#63b8ff" d="M225.44,-241.87C225.77,-235.4 226.25,-226.2 226.69,-217.45"/>
<polygon fill="#63b8ff" stroke="#63b8ff" points="230.18,-217.79 227.2,-207.63 223.19,-217.43 230.18,-217.79"/>
</g>
<!-- Node18 -->
<g id="node18" class="node">
<title>Node18</title>
<g id="a_node18"><a xlink:title=" ">
<polygon fill="#e0e0e0" stroke="#999999" points="363,-200.5 309,-200.5 309,-181.5 363,-181.5 363,-200.5"/>
<text text-anchor="middle" x="336" y="-188.5" font-family="Helvetica,sans-Serif" font-size="10.00">QWidget</text>
</a>
</g>
</g>
<!-- Node17&#45;&gt;Node18 -->
<g id="edge23" class="edge">
<title>Node17&#45;&gt;Node18</title>
<path fill="none" stroke="#63b8ff" d="M241.86,-241.62C259.62,-232.25 287.88,-217.36 308.8,-206.33"/>
<polygon fill="#63b8ff" stroke="#63b8ff" points="310.43,-209.43 317.64,-201.67 307.17,-203.24 310.43,-209.43"/>
</g>
<!-- Node19&#45;&gt;Node4 -->
<g id="edge27" class="edge">
<title>Node19&#45;&gt;Node4</title>
<path fill="none" stroke="#63b8ff" d="M38.1,-296.8C38.74,-283.2 41.98,-256.92 57,-242 83.22,-215.95 122.21,-203.32 156.35,-197.27"/>
<polygon fill="#63b8ff" stroke="#63b8ff" points="156.9,-200.72 166.22,-195.69 155.79,-193.81 156.9,-200.72"/>
</g>
<!-- Node19&#45;&gt;Node15 -->
<g id="edge26" class="edge">
<title>Node19&#45;&gt;Node15</title>
<path fill="none" stroke="#63b8ff" d="M46.92,-296.75C54.45,-289.35 65.47,-278.54 74.73,-269.45"/>
<polygon fill="#63b8ff" stroke="#63b8ff" points="77.12,-272 81.81,-262.5 72.22,-267.01 77.12,-272"/>
</g>
<!-- Node20&#45;&gt;Node8 -->
<g id="edge33" class="edge">
<title>Node20&#45;&gt;Node8</title>
<path fill="none" stroke="#63b8ff" d="M534.19,-296.58C551.09,-289.14 573.63,-277.15 589,-261 595.75,-253.9 655.75,-131.62 678.92,-84.14"/>
<polygon fill="#63b8ff" stroke="#63b8ff" points="681.95,-85.91 683.19,-75.39 675.66,-82.84 681.95,-85.91"/>
</g>
<!-- Node20&#45;&gt;Node11 -->
<g id="edge32" class="edge">
<title>Node20&#45;&gt;Node11</title>
<path fill="none" stroke="#63b8ff" d="M543.23,-296.51C574.85,-287.69 623.27,-274.18 658.13,-264.46"/>
<polygon fill="#63b8ff" stroke="#63b8ff" points="658.78,-267.91 667.47,-261.85 656.9,-261.17 658.78,-267.91"/>
</g>
<!-- Node20&#45;&gt;Node18 -->
<g id="edge31" class="edge">
<title>Node20&#45;&gt;Node18</title>
<path fill="none" stroke="#63b8ff" d="M475.55,-298.82C436.66,-290.84 377.56,-276.6 361,-261 347.38,-248.16 341.16,-227.35 338.33,-211.93"/>
<polygon fill="#63b8ff" stroke="#63b8ff" points="341.8,-211.43 336.88,-202.04 334.87,-212.44 341.8,-211.43"/>
</g>
<!-- Node20&#45;&gt;Node21 -->
<g id="edge29" class="edge">
<title>Node20&#45;&gt;Node21</title>
<path fill="none" stroke="#63b8ff" d="M546.22,-299.93C610.27,-289.8 745.16,-268.45 809.87,-258.22"/>
<polygon fill="#63b8ff" stroke="#63b8ff" points="810.28,-261.69 819.61,-256.67 809.19,-254.78 810.28,-261.69"/>
</g>
<!-- Node22 -->
<g id="node22" class="node">
<title>Node22</title>
<g id="a_node22"><a xlink:title=" ">
<polygon fill="#e0e0e0" stroke="#999999" points="423.5,-261 370.5,-261 370.5,-242 423.5,-242 423.5,-261"/>
<text text-anchor="middle" x="397" y="-249" font-family="Helvetica,sans-Serif" font-size="10.00">QVector</text>
</a>
</g>
</g>
<!-- Node20&#45;&gt;Node22 -->
<g id="edge30" class="edge">
<title>Node20&#45;&gt;Node22</title>
<path fill="none" stroke="#63b8ff" d="M491.66,-296.51C473.78,-288.2 446.96,-275.73 426.43,-266.18"/>
<polygon fill="#63b8ff" stroke="#63b8ff" points="427.97,-263.04 417.43,-262 425.02,-269.39 427.97,-263.04"/>
</g>
<!-- Node23 -->
<g id="node23" class="node">
<title>Node23</title>
<g id="a_node23"><a xlink:title=" ">
<polygon fill="#e0e0e0" stroke="#999999" points="580.5,-261 441.5,-261 441.5,-242 580.5,-242 580.5,-261"/>
<text text-anchor="middle" x="511" y="-249" font-family="Helvetica,sans-Serif" font-size="10.00">QCustomPlot/qcustomplot.h</text>
</a>
</g>
</g>
<!-- Node20&#45;&gt;Node23 -->
<g id="edge34" class="edge">
<title>Node20&#45;&gt;Node23</title>
<path fill="none" stroke="#63b8ff" d="M511,-296.75C511,-290.27 511,-281.16 511,-272.9"/>
<polygon fill="#63b8ff" stroke="#63b8ff" points="514.5,-272.96 511,-262.96 507.5,-272.96 514.5,-272.96"/>
</g>
<!-- Node25&#45;&gt;Node9 -->
<g id="edge38" class="edge">
<title>Node25&#45;&gt;Node9</title>
<path fill="none" stroke="#63b8ff" d="M944.06,-109.63C922.16,-88.56 881.44,-49.4 858.28,-27.13"/>
<polygon fill="#63b8ff" stroke="#63b8ff" points="860.8,-24.69 851.17,-20.28 855.95,-29.73 860.8,-24.69"/>
</g>
</g>
</svg>
        <g id="navigator" transform="translate(0 0)" fill="#404254">
                <rect fill="#f2f5e9" fill-opacity="0.5" stroke="#606060" stroke-width=".5" x="0" y="0" width="60" height="60"/>
                <use id="zoomplus" xlink:href="#zoomPlus" x="17" y="9" onmousedown="handleZoom(evt,'in')"/>
                <use id="zoomminus" xlink:href="#zoomMin" x="42" y="9" onmousedown="handleZoom(evt,'out')"/>
                <use id="reset" xlink:href="#resetDef" x="30" y="36" onmousedown="handleReset()"/>
                <g id="arrowUp" xlink:href="#dirArrow" transform="translate(30 24)" onmousedown="handlePan(0,-1)">
                  <use xlink:href="#rim" fill="#404040">
                        <set attributeName="fill" to="#808080" begin="arrowUp.mouseover" end="arrowUp.mouseout"/>
                  </use>
                  <path fill="none" stroke="white" stroke-width="1.5" d="M0,-3.0v7 M-2.5,-0.5L0,-3.0L2.5,-0.5"/>
                </g>
                <g id="arrowRight" xlink:href="#dirArrow" transform="rotate(90) translate(36 -43)" onmousedown="handlePan(1,0)">
                  <use xlink:href="#rim" fill="#404040">
                        <set attributeName="fill" to="#808080" begin="arrowRight.mouseover" end="arrowRight.mouseout"/>
                  </use>
                  <path fill="none" stroke="white" stroke-width="1.5" d="M0,-3.0v7 M-2.5,-0.5L0,-3.0L2.5,-0.5"/>
                </g>
                <g id="arrowDown" xlink:href="#dirArrow" transform="rotate(180) translate(-30 -48)" onmousedown="handlePan(0,1)">
                  <use xlink:href="#rim" fill="#404040">
                        <set attributeName="fill" to="#808080" begin="arrowDown.mouseover" end="arrowDown.mouseout"/>
                  </use>
                  <path fill="none" stroke="white" stroke-width="1.5" d="M0,-3.0v7 M-2.5,-0.5L0,-3.0L2.5,-0.5"/>
                </g>
                <g id="arrowLeft" xlink:href="#dirArrow" transform="rotate(270) translate(-36 17)" onmousedown="handlePan(-1,0)">
                  <use xlink:href="#rim" fill="#404040">
                        <set attributeName="fill" to="#808080" begin="arrowLeft.mouseover" end="arrowLeft.mouseout"/>
                  </use>
                  <path fill="none" stroke="white" stroke-width="1.5" d="M0,-3.0v7 M-2.5,-0.5L0,-3.0L2.5,-0.5"/>
                </g>
        </g>
        <svg viewBox="0 0 15 15" width="100%" height="30px" preserveAspectRatio="xMaxYMin meet">
         <g id="arrow_out" transform="scale(0.3 0.3)">
          <a xlink:href="mainwindow_8cpp__incl_org.svg" target="_base">
           <rect id="button" ry="5" rx="5" y="6" x="6" height="38" width="38"
                fill="#f2f5e9" fill-opacity="0.5" stroke="#606060" stroke-width="1.0"/>
           <path id="arrow"
             d="M 11.500037,31.436501 C 11.940474,20.09759 22.043105,11.32322 32.158766,21.979434 L 37.068811,17.246167 C 37.068811,17.246167 37.088388,32 37.088388,32 L 22.160133,31.978069 C 22.160133,31.978069 26.997745,27.140456 26.997745,27.140456 C 18.528582,18.264221 13.291696,25.230495 11.500037,31.436501 z"
             style="fill:#404040;"/>
          </a>
         </g>
        </svg>
</svg>
