<?xml version="1.0" encoding="UTF-8" standalone="no"?>
<!DOCTYPE svg PUBLIC "-//W3C//DTD SVG 1.1//EN"
 "http://www.w3.org/Graphics/SVG/1.1/DTD/svg11.dtd">
<!-- Generated by graphviz version 7.0.5 (20221223.1930)
 -->
<!-- Title: src/notification/notification.h Pages: 1 -->
<svg width="424pt" height="192pt"
 viewBox="0.00 0.00 424.00 192.00" xmlns="http://www.w3.org/2000/svg" xmlns:xlink="http://www.w3.org/1999/xlink">
<g id="graph0" class="graph" transform="scale(1 1) rotate(0) translate(4 188)">
<title>src/notification/notification.h</title>
<!-- Node1 -->
<g id="node1" class="node">
<title>Node1</title>
<g id="a_node1"><a xlink:title="Notification declaration">
<polygon fill="#999999" stroke="#666666" points="228,-184 91,-184 91,-165 228,-165 228,-184"/>
<text text-anchor="middle" x="159.5" y="-172" font-family="Helvetica,sans-Serif" font-size="10.00">src/notification/notification.h</text>
</a>
</g>
</g>
<!-- Node2 -->
<g id="node2" class="node">
<title>Node2</title>
<g id="a_node2"><a xlink:href="mainwindow_8cpp.html" target="_top" xlink:title="MainWindow implementation">
<polygon fill="white" stroke="#666666" points="121,-19 0,-19 0,0 121,0 121,-19"/>
<text text-anchor="middle" x="60.5" y="-7" font-family="Helvetica,sans-Serif" font-size="10.00">src/gui/mainwindow.cpp</text>
</a>
</g>
</g>
<!-- Node1&#45;&gt;Node2 -->
<g id="edge1" class="edge">
<title>Node1&#45;&gt;Node2</title>
<path fill="none" stroke="#63b8ff" d="M142.25,-156.41C124.24,-137.68 96.34,-106.04 79.5,-74 69.86,-55.67 64.38,-31.72 61.98,-19.12"/>
<polygon fill="#63b8ff" stroke="#63b8ff" points="139.63,-158.74 149.14,-163.42 144.63,-153.84 139.63,-158.74"/>
</g>
<!-- Node3 -->
<g id="node3" class="node">
<title>Node3</title>
<g id="a_node3"><a xlink:href="mainwindow_8h.html" target="_top" xlink:title="MainWindow declaration">
<polygon fill="white" stroke="#666666" points="198.5,-74 88.5,-74 88.5,-55 198.5,-55 198.5,-74"/>
<text text-anchor="middle" x="143.5" y="-62" font-family="Helvetica,sans-Serif" font-size="10.00">src/gui/mainwindow.h</text>
</a>
</g>
</g>
<!-- Node1&#45;&gt;Node3 -->
<g id="edge2" class="edge">
<title>Node1&#45;&gt;Node3</title>
<path fill="none" stroke="#63b8ff" d="M148.9,-154.65C145.15,-146.94 141.38,-137.79 139.5,-129 135.38,-109.77 138.92,-86.58 141.46,-74.24"/>
<polygon fill="#63b8ff" stroke="#63b8ff" points="145.72,-156.12 153.48,-163.34 151.92,-152.86 145.72,-156.12"/>
</g>
<!-- Node5 -->
<g id="node5" class="node">
<title>Node5</title>
<g id="a_node5"><a xlink:href="plot_widget_8h.html" target="_top" xlink:title="Plot declaration">
<polygon fill="white" stroke="#666666" points="250.5,-129 148.5,-129 148.5,-110 250.5,-110 250.5,-129"/>
<text text-anchor="middle" x="199.5" y="-117" font-family="Helvetica,sans-Serif" font-size="10.00">src/gui/plotWidget.h</text>
</a>
</g>
</g>
<!-- Node1&#45;&gt;Node5 -->
<g id="edge5" class="edge">
<title>Node1&#45;&gt;Node5</title>
<path fill="none" stroke="#63b8ff" d="M172.97,-155.65C179.62,-146.84 187.36,-136.59 192.75,-129.44"/>
<polygon fill="#63b8ff" stroke="#63b8ff" points="170.25,-153.45 167.02,-163.54 175.83,-157.67 170.25,-153.45"/>
</g>
<!-- Node7 -->
<g id="node7" class="node">
<title>Node7</title>
<g id="a_node7"><a xlink:href="notification_8cpp.html" target="_top" xlink:title="Notification implementation">
<polygon fill="white" stroke="#666666" points="416,-129 269,-129 269,-110 416,-110 416,-129"/>
<text text-anchor="middle" x="342.5" y="-117" font-family="Helvetica,sans-Serif" font-size="10.00">src/notification/notification.cpp</text>
</a>
</g>
</g>
<!-- Node1&#45;&gt;Node7 -->
<g id="edge8" class="edge">
<title>Node1&#45;&gt;Node7</title>
<path fill="none" stroke="#63b8ff" d="M201.4,-161.36C234.98,-151.64 281.34,-138.21 311.61,-129.45"/>
<polygon fill="#63b8ff" stroke="#63b8ff" points="200.63,-157.94 192,-164.09 202.58,-164.67 200.63,-157.94"/>
</g>
<!-- Node3&#45;&gt;Node2 -->
<g id="edge3" class="edge">
<title>Node3&#45;&gt;Node2</title>
<path fill="none" stroke="#63b8ff" d="M119.95,-48.46C105.23,-39.06 86.78,-27.28 74.37,-19.36"/>
<polygon fill="#63b8ff" stroke="#63b8ff" points="117.83,-51.26 128.14,-53.69 121.6,-45.36 117.83,-51.26"/>
</g>
<!-- Node4 -->
<g id="node4" class="node">
<title>Node4</title>
<g id="a_node4"><a xlink:href="main_8cpp.html" target="_top" xlink:title="Main file of project linescaleGUI.">
<polygon fill="white" stroke="#666666" points="211.5,-19 139.5,-19 139.5,0 211.5,0 211.5,-19"/>
<text text-anchor="middle" x="175.5" y="-7" font-family="Helvetica,sans-Serif" font-size="10.00">src/main.cpp</text>
</a>
</g>
</g>
<!-- Node3&#45;&gt;Node4 -->
<g id="edge4" class="edge">
<title>Node3&#45;&gt;Node4</title>
<path fill="none" stroke="#63b8ff" d="M154.62,-45.08C159.86,-36.4 165.88,-26.44 170.1,-19.44"/>
<polygon fill="#63b8ff" stroke="#63b8ff" points="151.74,-43.08 149.57,-53.45 157.73,-46.7 151.74,-43.08"/>
</g>
<!-- Node5&#45;&gt;Node3 -->
<g id="edge6" class="edge">
<title>Node5&#45;&gt;Node3</title>
<path fill="none" stroke="#63b8ff" d="M181.87,-101.81C172.26,-92.72 160.75,-81.82 152.86,-74.36"/>
<polygon fill="#63b8ff" stroke="#63b8ff" points="179.23,-104.14 188.9,-108.47 184.04,-99.05 179.23,-104.14"/>
</g>
<!-- Node6 -->
<g id="node6" class="node">
<title>Node6</title>
<g id="a_node6"><a xlink:href="plot_widget_8cpp.html" target="_top" xlink:title="Plot implementation">
<polygon fill="white" stroke="#666666" points="330,-74 217,-74 217,-55 330,-55 330,-74"/>
<text text-anchor="middle" x="273.5" y="-62" font-family="Helvetica,sans-Serif" font-size="10.00">src/gui/plotWidget.cpp</text>
</a>
</g>
</g>
<!-- Node5&#45;&gt;Node6 -->
<g id="edge7" class="edge">
<title>Node5&#45;&gt;Node6</title>
<path fill="none" stroke="#63b8ff" d="M221.26,-102.92C234.25,-93.61 250.28,-82.13 261.13,-74.36"/>
<polygon fill="#63b8ff" stroke="#63b8ff" points="219.38,-99.96 213.28,-108.63 223.45,-105.65 219.38,-99.96"/>
</g>
</g>
</svg>
