<?xml version="1.0" encoding="UTF-8" standalone="no"?>
<!DOCTYPE svg PUBLIC "-//W3C//DTD SVG 1.1//EN"
 "http://www.w3.org/Graphics/SVG/1.1/DTD/svg11.dtd">
<!-- Generated by graphviz version 7.0.5 (20221223.1930)
 -->
<!-- Title: src/notification/notification.cpp Pages: 1 -->
<svg width="606pt" height="137pt"
 viewBox="0.00 0.00 605.50 137.00" xmlns="http://www.w3.org/2000/svg" xmlns:xlink="http://www.w3.org/1999/xlink">
<g id="graph0" class="graph" transform="scale(1 1) rotate(0) translate(4 133)">
<title>src/notification/notification.cpp</title>
<!-- Node1 -->
<g id="node1" class="node">
<title>Node1</title>
<g id="a_node1"><a xlink:title="Notification implementation">
<polygon fill="#999999" stroke="#666666" points="430,-129 283,-129 283,-110 430,-110 430,-129"/>
<text text-anchor="middle" x="356.5" y="-117" font-family="Helvetica,sans-Serif" font-size="10.00">src/notification/notification.cpp</text>
</a>
</g>
</g>
<!-- Node2 -->
<g id="node2" class="node">
<title>Node2</title>
<g id="a_node2"><a xlink:href="notification_8h.html" target="_top" xlink:title="Notification declaration">
<polygon fill="white" stroke="#666666" points="132,-74 61,-74 61,-55 132,-55 132,-74"/>
<text text-anchor="middle" x="96.5" y="-62" font-family="Helvetica,sans-Serif" font-size="10.00">notification.h</text>
</a>
</g>
</g>
<!-- Node1&#45;&gt;Node2 -->
<g id="edge1" class="edge">
<title>Node1&#45;&gt;Node2</title>
<path fill="none" stroke="#63b8ff" d="M312.39,-109.51C265.45,-99.94 191.46,-84.86 143.45,-75.07"/>
<polygon fill="#63b8ff" stroke="#63b8ff" points="144.41,-71.7 133.92,-73.13 143.02,-78.55 144.41,-71.7"/>
</g>
<!-- Node6 -->
<g id="node6" class="node">
<title>Node6</title>
<g id="a_node6"><a xlink:title=" ">
<polygon fill="#e0e0e0" stroke="#999999" points="217,-74 150,-74 150,-55 217,-55 217,-74"/>
<text text-anchor="middle" x="183.5" y="-62" font-family="Helvetica,sans-Serif" font-size="10.00">QFileDialog</text>
</a>
</g>
</g>
<!-- Node1&#45;&gt;Node6 -->
<g id="edge5" class="edge">
<title>Node1&#45;&gt;Node6</title>
<path fill="none" stroke="#63b8ff" d="M327.15,-109.51C298.61,-100.76 255.04,-87.42 223.36,-77.71"/>
<polygon fill="#63b8ff" stroke="#63b8ff" points="224.74,-74.47 214.15,-74.89 222.69,-81.17 224.74,-74.47"/>
</g>
<!-- Node7 -->
<g id="node7" class="node">
<title>Node7</title>
<g id="a_node7"><a xlink:title=" ">
<polygon fill="#e0e0e0" stroke="#999999" points="315.5,-74 235.5,-74 235.5,-55 315.5,-55 315.5,-74"/>
<text text-anchor="middle" x="275.5" y="-62" font-family="Helvetica,sans-Serif" font-size="10.00">QMessageBox</text>
</a>
</g>
</g>
<!-- Node1&#45;&gt;Node7 -->
<g id="edge6" class="edge">
<title>Node1&#45;&gt;Node7</title>
<path fill="none" stroke="#63b8ff" d="M342.76,-109.51C330.7,-101.62 312.91,-89.98 298.66,-80.65"/>
<polygon fill="#63b8ff" stroke="#63b8ff" points="300.59,-77.73 290.3,-75.19 296.76,-83.59 300.59,-77.73"/>
</g>
<!-- Node8 -->
<g id="node8" class="node">
<title>Node8</title>
<g id="a_node8"><a xlink:title=" ">
<polygon fill="#e0e0e0" stroke="#999999" points="379.5,-74 333.5,-74 333.5,-55 379.5,-55 379.5,-74"/>
<text text-anchor="middle" x="356.5" y="-62" font-family="Helvetica,sans-Serif" font-size="10.00">QTime</text>
</a>
</g>
</g>
<!-- Node1&#45;&gt;Node8 -->
<g id="edge7" class="edge">
<title>Node1&#45;&gt;Node8</title>
<path fill="none" stroke="#63b8ff" d="M356.5,-109.75C356.5,-103.27 356.5,-94.16 356.5,-85.9"/>
<polygon fill="#63b8ff" stroke="#63b8ff" points="360,-85.96 356.5,-75.96 353,-85.96 360,-85.96"/>
</g>
<!-- Node9 -->
<g id="node9" class="node">
<title>Node9</title>
<g id="a_node9"><a xlink:title=" ">
<polygon fill="#e0e0e0" stroke="#999999" points="457.5,-74 397.5,-74 397.5,-55 457.5,-55 457.5,-74"/>
<text text-anchor="middle" x="427.5" y="-62" font-family="Helvetica,sans-Serif" font-size="10.00">filesystem</text>
</a>
</g>
</g>
<!-- Node1&#45;&gt;Node9 -->
<g id="edge8" class="edge">
<title>Node1&#45;&gt;Node9</title>
<path fill="none" stroke="#63b8ff" d="M368.54,-109.51C378.91,-101.77 394.1,-90.43 406.47,-81.2"/>
<polygon fill="#63b8ff" stroke="#63b8ff" points="408.5,-84.05 414.42,-75.26 404.31,-78.44 408.5,-84.05"/>
</g>
<!-- Node10 -->
<g id="node10" class="node">
<title>Node10</title>
<g id="a_node10"><a xlink:title=" ">
<polygon fill="#e0e0e0" stroke="#999999" points="525.5,-74 475.5,-74 475.5,-55 525.5,-55 525.5,-74"/>
<text text-anchor="middle" x="500.5" y="-62" font-family="Helvetica,sans-Serif" font-size="10.00">fstream</text>
</a>
</g>
</g>
<!-- Node1&#45;&gt;Node10 -->
<g id="edge9" class="edge">
<title>Node1&#45;&gt;Node10</title>
<path fill="none" stroke="#63b8ff" d="M380.93,-109.51C404.24,-100.93 439.59,-87.92 465.81,-78.27"/>
<polygon fill="#63b8ff" stroke="#63b8ff" points="466.84,-81.62 475.01,-74.88 464.42,-75.05 466.84,-81.62"/>
</g>
<!-- Node11 -->
<g id="node11" class="node">
<title>Node11</title>
<g id="a_node11"><a xlink:title=" ">
<polygon fill="#e0e0e0" stroke="#999999" points="597.5,-74 543.5,-74 543.5,-55 597.5,-55 597.5,-74"/>
<text text-anchor="middle" x="570.5" y="-62" font-family="Helvetica,sans-Serif" font-size="10.00">iostream</text>
</a>
</g>
</g>
<!-- Node1&#45;&gt;Node11 -->
<g id="edge10" class="edge">
<title>Node1&#45;&gt;Node11</title>
<path fill="none" stroke="#63b8ff" d="M392.8,-109.51C431.55,-99.91 492.68,-84.77 532.19,-74.99"/>
<polygon fill="#63b8ff" stroke="#63b8ff" points="532.87,-78.42 541.74,-72.62 531.19,-71.63 532.87,-78.42"/>
</g>
<!-- Node3 -->
<g id="node3" class="node">
<title>Node3</title>
<g id="a_node3"><a xlink:title=" ">
<polygon fill="#e0e0e0" stroke="#999999" points="53,-19 0,-19 0,0 53,0 53,-19"/>
<text text-anchor="middle" x="26.5" y="-7" font-family="Helvetica,sans-Serif" font-size="10.00">QObject</text>
</a>
</g>
</g>
<!-- Node2&#45;&gt;Node3 -->
<g id="edge2" class="edge">
<title>Node2&#45;&gt;Node3</title>
<path fill="none" stroke="#63b8ff" d="M84.63,-54.51C74.41,-46.77 59.43,-35.43 47.24,-26.2"/>
<polygon fill="#63b8ff" stroke="#63b8ff" points="49.49,-23.52 39.41,-20.27 45.27,-29.1 49.49,-23.52"/>
</g>
<!-- Node4 -->
<g id="node4" class="node">
<title>Node4</title>
<g id="a_node4"><a xlink:title=" ">
<polygon fill="#e0e0e0" stroke="#999999" points="121.5,-19 71.5,-19 71.5,0 121.5,0 121.5,-19"/>
<text text-anchor="middle" x="96.5" y="-7" font-family="Helvetica,sans-Serif" font-size="10.00">QString</text>
</a>
</g>
</g>
<!-- Node2&#45;&gt;Node4 -->
<g id="edge3" class="edge">
<title>Node2&#45;&gt;Node4</title>
<path fill="none" stroke="#63b8ff" d="M96.5,-54.75C96.5,-48.27 96.5,-39.16 96.5,-30.9"/>
<polygon fill="#63b8ff" stroke="#63b8ff" points="100,-30.96 96.5,-20.96 93,-30.96 100,-30.96"/>
</g>
<!-- Node5 -->
<g id="node5" class="node">
<title>Node5</title>
<g id="a_node5"><a xlink:title=" ">
<polygon fill="#e0e0e0" stroke="#999999" points="219,-19 140,-19 140,0 219,0 219,-19"/>
<text text-anchor="middle" x="179.5" y="-7" font-family="Helvetica,sans-Serif" font-size="10.00">QTextBrowser</text>
</a>
</g>
</g>
<!-- Node2&#45;&gt;Node5 -->
<g id="edge4" class="edge">
<title>Node2&#45;&gt;Node5</title>
<path fill="none" stroke="#63b8ff" d="M110.58,-54.51C123.06,-46.54 141.52,-34.75 156.19,-25.38"/>
<polygon fill="#63b8ff" stroke="#63b8ff" points="157.81,-28.5 164.35,-20.17 154.04,-22.6 157.81,-28.5"/>
</g>
</g>
</svg>
