<?xml version="1.0" encoding="UTF-8" standalone="no"?>
<!DOCTYPE svg PUBLIC "-//W3C//DTD SVG 1.1//EN"
 "http://www.w3.org/Graphics/SVG/1.1/DTD/svg11.dtd">
<!-- Generated by graphviz version 7.0.5 (20221223.1930)
 -->
<!-- Title: src/notification/notification.h Pages: 1 -->
<svg width="372pt" height="137pt"
 viewBox="0.00 0.00 372.00 137.00" xmlns="http://www.w3.org/2000/svg" xmlns:xlink="http://www.w3.org/1999/xlink">
<g id="graph0" class="graph" transform="scale(1 1) rotate(0) translate(4 133)">
<title>src/notification/notification.h</title>
<!-- Node1 -->
<g id="node1" class="node">
<title>Node1</title>
<g id="a_node1"><a xlink:title="Notification declaration">
<polygon fill="#999999" stroke="#666666" points="212,-129 75,-129 75,-110 212,-110 212,-129"/>
<text text-anchor="middle" x="143.5" y="-117" font-family="Helvetica,sans-Serif" font-size="10.00">src/notification/notification.h</text>
</a>
</g>
</g>
<!-- Node2 -->
<g id="node2" class="node">
<title>Node2</title>
<g id="a_node2"><a xlink:href="mainwindow_8cpp.html" target="_top" xlink:title="MainWindow implementation">
<polygon fill="white" stroke="#666666" points="121,-19 0,-19 0,0 121,0 121,-19"/>
<text text-anchor="middle" x="60.5" y="-7" font-family="Helvetica,sans-Serif" font-size="10.00">src/gui/mainwindow.cpp</text>
</a>
</g>
</g>
<!-- Node1&#45;&gt;Node2 -->
<g id="edge1" class="edge">
<title>Node1&#45;&gt;Node2</title>
<path fill="none" stroke="#63b8ff" d="M114.39,-104C102.06,-96.56 88.49,-86.41 79.5,-74 67.21,-57.04 62.79,-32.1 61.26,-19.1"/>
<polygon fill="#63b8ff" stroke="#63b8ff" points="112.58,-107 123.01,-108.87 116.03,-100.91 112.58,-107"/>
</g>
<!-- Node3 -->
<g id="node3" class="node">
<title>Node3</title>
<g id="a_node3"><a xlink:href="mainwindow_8h.html" target="_top" xlink:title="MainWindow declaration">
<polygon fill="white" stroke="#666666" points="198.5,-74 88.5,-74 88.5,-55 198.5,-55 198.5,-74"/>
<text text-anchor="middle" x="143.5" y="-62" font-family="Helvetica,sans-Serif" font-size="10.00">src/gui/mainwindow.h</text>
</a>
</g>
</g>
<!-- Node1&#45;&gt;Node3 -->
<g id="edge2" class="edge">
<title>Node1&#45;&gt;Node3</title>
<path fill="none" stroke="#63b8ff" d="M143.5,-98.35C143.5,-90.1 143.5,-80.97 143.5,-74.44"/>
<polygon fill="#63b8ff" stroke="#63b8ff" points="140,-98.23 143.5,-108.23 147,-98.23 140,-98.23"/>
</g>
<!-- Node5 -->
<g id="node5" class="node">
<title>Node5</title>
<g id="a_node5"><a xlink:href="notification_8cpp.html" target="_top" xlink:title="Notification implementation">
<polygon fill="white" stroke="#666666" points="364,-74 217,-74 217,-55 364,-55 364,-74"/>
<text text-anchor="middle" x="290.5" y="-62" font-family="Helvetica,sans-Serif" font-size="10.00">src/notification/notification.cpp</text>
</a>
</g>
</g>
<!-- Node1&#45;&gt;Node5 -->
<g id="edge5" class="edge">
<title>Node1&#45;&gt;Node5</title>
<path fill="none" stroke="#63b8ff" d="M178.97,-105.71C205.87,-96.01 242.16,-82.93 265.93,-74.36"/>
<polygon fill="#63b8ff" stroke="#63b8ff" points="178.08,-102.31 169.86,-109 180.45,-108.9 178.08,-102.31"/>
</g>
<!-- Node3&#45;&gt;Node2 -->
<g id="edge3" class="edge">
<title>Node3&#45;&gt;Node2</title>
<path fill="none" stroke="#63b8ff" d="M119.95,-48.46C105.23,-39.06 86.78,-27.28 74.37,-19.36"/>
<polygon fill="#63b8ff" stroke="#63b8ff" points="117.83,-51.26 128.14,-53.69 121.6,-45.36 117.83,-51.26"/>
</g>
<!-- Node4 -->
<g id="node4" class="node">
<title>Node4</title>
<g id="a_node4"><a xlink:href="main_8cpp.html" target="_top" xlink:title="Main file of project linescaleGUI.">
<polygon fill="white" stroke="#666666" points="211.5,-19 139.5,-19 139.5,0 211.5,0 211.5,-19"/>
<text text-anchor="middle" x="175.5" y="-7" font-family="Helvetica,sans-Serif" font-size="10.00">src/main.cpp</text>
</a>
</g>
</g>
<!-- Node3&#45;&gt;Node4 -->
<g id="edge4" class="edge">
<title>Node3&#45;&gt;Node4</title>
<path fill="none" stroke="#63b8ff" d="M154.62,-45.08C159.86,-36.4 165.88,-26.44 170.1,-19.44"/>
<polygon fill="#63b8ff" stroke="#63b8ff" points="151.74,-43.08 149.57,-53.45 157.73,-46.7 151.74,-43.08"/>
</g>
</g>
</svg>
