<?xml version="1.0" encoding="UTF-8" standalone="no"?>
<!DOCTYPE svg PUBLIC "-//W3C//DTD SVG 1.1//EN"
 "http://www.w3.org/Graphics/SVG/1.1/DTD/svg11.dtd">
<!-- Generated by graphviz version 7.0.5 (20221223.1930)
 -->
<!-- Title: src/parser/parser.h Pages: 1 -->
<svg width="1141pt" height="390pt"
 viewBox="0.00 0.00 1141.00 390.00" xmlns="http://www.w3.org/2000/svg" xmlns:xlink="http://www.w3.org/1999/xlink">
<g id="graph0" class="graph" transform="scale(1 1) rotate(0) translate(4 386)">
<title>src/parser/parser.h</title>
<!-- Node1 -->
<g id="node1" class="node">
<title>Node1</title>
<g id="a_node1"><a xlink:title="Parser declaration">
<polygon fill="#999999" stroke="#666666" points="853,-382 755,-382 755,-363 853,-363 853,-382"/>
<text text-anchor="middle" x="804" y="-370" font-family="Helvetica,sans-Serif" font-size="10.00">src/parser/parser.h</text>
</a>
</g>
</g>
<!-- Node2 -->
<g id="node2" class="node">
<title>Node2</title>
<g id="a_node2"><a xlink:href="comm_device_8h.html" target="_top" xlink:title="comm::CommDevice declaration">
<polygon fill="white" stroke="#666666" points="698.5,-327 569.5,-327 569.5,-297 698.5,-297 698.5,-327"/>
<text text-anchor="start" x="577.5" y="-315" font-family="Helvetica,sans-Serif" font-size="10.00">src/deviceCommunication</text>
<text text-anchor="middle" x="634" y="-304" font-family="Helvetica,sans-Serif" font-size="10.00">/commDevice.h</text>
</a>
</g>
</g>
<!-- Node1&#45;&gt;Node2 -->
<g id="edge1" class="edge">
<title>Node1&#45;&gt;Node2</title>
<path fill="none" stroke="#63b8ff" d="M767.31,-358.88C740.46,-349.64 703.97,-337.08 675.96,-327.44"/>
<polygon fill="#63b8ff" stroke="#63b8ff" points="766.15,-362.18 776.75,-362.12 768.43,-355.56 766.15,-362.18"/>
</g>
<!-- Node9 -->
<g id="node9" class="node">
<title>Node9</title>
<g id="a_node9"><a xlink:href="mainwindow_8h.html" target="_top" xlink:title="MainWindow declaration">
<polygon fill="white" stroke="#666666" points="428,-74 318,-74 318,-55 428,-55 428,-74"/>
<text text-anchor="middle" x="373" y="-62" font-family="Helvetica,sans-Serif" font-size="10.00">src/gui/mainwindow.h</text>
</a>
</g>
</g>
<!-- Node1&#45;&gt;Node9 -->
<g id="edge20" class="edge">
<title>Node1&#45;&gt;Node9</title>
<path fill="none" stroke="#63b8ff" d="M794.13,-352.61C782.58,-328.71 765,-285.93 765,-247 765,-247 765,-247 765,-179 765,-109.74 536.39,-80.07 428.33,-69.92"/>
<polygon fill="#63b8ff" stroke="#63b8ff" points="790.92,-354.02 798.54,-361.38 797.18,-350.88 790.92,-354.02"/>
</g>
<!-- Node14 -->
<g id="node14" class="node">
<title>Node14</title>
<g id="a_node14"><a xlink:href="comm_u_s_b_8h.html" target="_top" xlink:title="comm::CommUSB declaration">
<polygon fill="white" stroke="#666666" points="717.5,-261 588.5,-261 588.5,-231 717.5,-231 717.5,-261"/>
<text text-anchor="start" x="596.5" y="-249" font-family="Helvetica,sans-Serif" font-size="10.00">src/deviceCommunication</text>
<text text-anchor="middle" x="653" y="-238" font-family="Helvetica,sans-Serif" font-size="10.00">/commUSB.h</text>
</a>
</g>
</g>
<!-- Node1&#45;&gt;Node14 -->
<g id="edge19" class="edge">
<title>Node1&#45;&gt;Node14</title>
<path fill="none" stroke="#63b8ff" d="M784.51,-355.43C754.88,-331 698.94,-284.88 670.52,-261.45"/>
<polygon fill="#63b8ff" stroke="#63b8ff" points="782.03,-357.92 791.97,-361.58 786.48,-352.52 782.03,-357.92"/>
</g>
<!-- Node16 -->
<g id="node16" class="node">
<title>Node16</title>
<g id="a_node16"><a xlink:href="plot_widget_8h.html" target="_top" xlink:title="Plot declaration">
<polygon fill="white" stroke="#666666" points="895,-321.5 793,-321.5 793,-302.5 895,-302.5 895,-321.5"/>
<text text-anchor="middle" x="844" y="-309.5" font-family="Helvetica,sans-Serif" font-size="10.00">src/gui/plotWidget.h</text>
</a>
</g>
</g>
<!-- Node1&#45;&gt;Node16 -->
<g id="edge21" class="edge">
<title>Node1&#45;&gt;Node16</title>
<path fill="none" stroke="#63b8ff" d="M816.2,-353.65C823.46,-343.04 832.33,-330.06 838.07,-321.67"/>
<polygon fill="#63b8ff" stroke="#63b8ff" points="813.51,-351.39 810.76,-361.62 819.29,-355.34 813.51,-351.39"/>
</g>
<!-- Node18 -->
<g id="node18" class="node">
<title>Node18</title>
<g id="a_node18"><a xlink:href="logfile_8h.html" target="_top" xlink:title="Logfile declaration">
<polygon fill="white" stroke="#666666" points="1006.5,-321.5 913.5,-321.5 913.5,-302.5 1006.5,-302.5 1006.5,-321.5"/>
<text text-anchor="middle" x="960" y="-309.5" font-family="Helvetica,sans-Serif" font-size="10.00">src/logfile/logfile.h</text>
</a>
</g>
</g>
<!-- Node1&#45;&gt;Node18 -->
<g id="edge24" class="edge">
<title>Node1&#45;&gt;Node18</title>
<path fill="none" stroke="#63b8ff" d="M838.38,-358.61C868,-347.5 909.99,-331.75 936.08,-321.97"/>
<polygon fill="#63b8ff" stroke="#63b8ff" points="837.24,-355.3 829.11,-362.08 839.7,-361.85 837.24,-355.3"/>
</g>
<!-- Node20 -->
<g id="node20" class="node">
<title>Node20</title>
<g id="a_node20"><a xlink:href="parser_8cpp.html" target="_top" xlink:title="Parser implementation">
<polygon fill="white" stroke="#666666" points="1133,-321.5 1025,-321.5 1025,-302.5 1133,-302.5 1133,-321.5"/>
<text text-anchor="middle" x="1079" y="-309.5" font-family="Helvetica,sans-Serif" font-size="10.00">src/parser/parser.cpp</text>
</a>
</g>
</g>
<!-- Node1&#45;&gt;Node20 -->
<g id="edge26" class="edge">
<title>Node1&#45;&gt;Node20</title>
<path fill="none" stroke="#63b8ff" d="M858.5,-360.24C901.35,-351.35 962.52,-338.56 1016,-327 1023.45,-325.39 1031.38,-323.65 1039.02,-321.96"/>
<polygon fill="#63b8ff" stroke="#63b8ff" points="858.04,-356.77 848.96,-362.22 859.46,-363.62 858.04,-356.77"/>
</g>
<!-- Node3 -->
<g id="node3" class="node">
<title>Node3</title>
<g id="a_node3"><a xlink:href="comm_master_8h.html" target="_top" xlink:title="comm::CommMaster declaration">
<polygon fill="white" stroke="#666666" points="411.5,-261 282.5,-261 282.5,-231 411.5,-231 411.5,-261"/>
<text text-anchor="start" x="290.5" y="-249" font-family="Helvetica,sans-Serif" font-size="10.00">src/deviceCommunication</text>
<text text-anchor="middle" x="347" y="-238" font-family="Helvetica,sans-Serif" font-size="10.00">/commMaster.h</text>
</a>
</g>
</g>
<!-- Node2&#45;&gt;Node3 -->
<g id="edge2" class="edge">
<title>Node2&#45;&gt;Node3</title>
<path fill="none" stroke="#63b8ff" d="M558.2,-294.1C512.53,-283.91 455.01,-271.09 411.53,-261.39"/>
<polygon fill="#63b8ff" stroke="#63b8ff" points="557.23,-297.47 567.76,-296.23 558.76,-290.64 557.23,-297.47"/>
</g>
<!-- Node2&#45;&gt;Node14 -->
<g id="edge16" class="edge">
<title>Node2&#45;&gt;Node14</title>
<path fill="none" stroke="#63b8ff" d="M641.43,-285.97C643.93,-277.55 646.63,-268.45 648.8,-261.16"/>
<polygon fill="#63b8ff" stroke="#63b8ff" points="638.14,-284.76 638.65,-295.35 644.85,-286.76 638.14,-284.76"/>
</g>
<!-- Node4 -->
<g id="node4" class="node">
<title>Node4</title>
<g id="a_node4"><a xlink:href="comm_master_8cpp.html" target="_top" xlink:title="comm::CommMaster implementation">
<polygon fill="white" stroke="#666666" points="589.5,-195 460.5,-195 460.5,-165 589.5,-165 589.5,-195"/>
<text text-anchor="start" x="468.5" y="-183" font-family="Helvetica,sans-Serif" font-size="10.00">src/deviceCommunication</text>
<text text-anchor="middle" x="525" y="-172" font-family="Helvetica,sans-Serif" font-size="10.00">/commMaster.cpp</text>
</a>
</g>
</g>
<!-- Node3&#45;&gt;Node4 -->
<g id="edge3" class="edge">
<title>Node3&#45;&gt;Node4</title>
<path fill="none" stroke="#63b8ff" d="M397.61,-226.8C425.27,-216.86 459.05,-204.71 484.88,-195.43"/>
<polygon fill="#63b8ff" stroke="#63b8ff" points="396.6,-223.45 388.37,-230.13 398.97,-230.04 396.6,-223.45"/>
</g>
<!-- Node5 -->
<g id="node5" class="node">
<title>Node5</title>
<g id="a_node5"><a xlink:href="connection_widget_8h.html" target="_top" xlink:title="ConnectionWidget declaration">
<polygon fill="white" stroke="#666666" points="240,-189.5 106,-189.5 106,-170.5 240,-170.5 240,-189.5"/>
<text text-anchor="middle" x="173" y="-177.5" font-family="Helvetica,sans-Serif" font-size="10.00">src/gui/connectionWidget.h</text>
</a>
</g>
</g>
<!-- Node3&#45;&gt;Node5 -->
<g id="edge4" class="edge">
<title>Node3&#45;&gt;Node5</title>
<path fill="none" stroke="#63b8ff" d="M297.23,-226.69C264.54,-214.67 223.21,-199.47 197.43,-189.99"/>
<polygon fill="#63b8ff" stroke="#63b8ff" points="295.94,-229.95 306.53,-230.11 298.35,-223.38 295.94,-229.95"/>
</g>
<!-- Node7 -->
<g id="node7" class="node">
<title>Node7</title>
<g id="a_node7"><a xlink:href="dialogconnect_8h.html" target="_top" xlink:title="DialogConnect declaration">
<polygon fill="white" stroke="#666666" points="278,-129 162,-129 162,-110 278,-110 278,-129"/>
<text text-anchor="middle" x="220" y="-117" font-family="Helvetica,sans-Serif" font-size="10.00">src/gui/dialogconnect.h</text>
</a>
</g>
</g>
<!-- Node3&#45;&gt;Node7 -->
<g id="edge11" class="edge">
<title>Node3&#45;&gt;Node7</title>
<path fill="none" stroke="#63b8ff" d="M322.5,-223.34C312.86,-214.67 301.79,-204.49 292,-195 268.24,-171.96 241.44,-143.55 228.24,-129.4"/>
<polygon fill="#63b8ff" stroke="#63b8ff" points="319.95,-225.76 329.74,-229.82 324.62,-220.54 319.95,-225.76"/>
</g>
<!-- Node3&#45;&gt;Node9 -->
<g id="edge15" class="edge">
<title>Node3&#45;&gt;Node9</title>
<path fill="none" stroke="#63b8ff" d="M333.74,-220.36C330.17,-212.48 326.8,-203.58 325,-195 322.26,-181.95 322.03,-178 325,-165 333.21,-129.1 356.1,-91.08 367.04,-74.32"/>
<polygon fill="#63b8ff" stroke="#63b8ff" points="330.58,-221.85 338.11,-229.3 336.87,-218.78 330.58,-221.85"/>
</g>
<!-- Node12 -->
<g id="node12" class="node">
<title>Node12</title>
<g id="a_node12"><a xlink:href="dialogdebug_8h.html" target="_top" xlink:title="DialogDebug declaration">
<polygon fill="white" stroke="#666666" points="442,-189.5 334,-189.5 334,-170.5 442,-170.5 442,-189.5"/>
<text text-anchor="middle" x="388" y="-177.5" font-family="Helvetica,sans-Serif" font-size="10.00">src/gui/dialogdebug.h</text>
</a>
</g>
</g>
<!-- Node3&#45;&gt;Node12 -->
<g id="edge12" class="edge">
<title>Node3&#45;&gt;Node12</title>
<path fill="none" stroke="#63b8ff" d="M362.2,-221.28C369.22,-210.31 377.14,-197.94 382.33,-189.84"/>
<polygon fill="#63b8ff" stroke="#63b8ff" points="359.36,-219.21 356.92,-229.52 365.26,-222.99 359.36,-219.21"/>
</g>
<!-- Node6 -->
<g id="node6" class="node">
<title>Node6</title>
<g id="a_node6"><a xlink:href="connection_widget_8cpp.html" target="_top" xlink:title="ConnectionWidget implementation">
<polygon fill="white" stroke="#666666" points="144,-129 0,-129 0,-110 144,-110 144,-129"/>
<text text-anchor="middle" x="72" y="-117" font-family="Helvetica,sans-Serif" font-size="10.00">src/gui/connectionWidget.cpp</text>
</a>
</g>
</g>
<!-- Node5&#45;&gt;Node6 -->
<g id="edge5" class="edge">
<title>Node5&#45;&gt;Node6</title>
<path fill="none" stroke="#63b8ff" d="M147.9,-164.46C128.95,-153.49 103.56,-138.78 87.48,-129.47"/>
<polygon fill="#63b8ff" stroke="#63b8ff" points="145.94,-167.37 156.35,-169.36 149.45,-161.32 145.94,-167.37"/>
</g>
<!-- Node5&#45;&gt;Node7 -->
<g id="edge6" class="edge">
<title>Node5&#45;&gt;Node7</title>
<path fill="none" stroke="#63b8ff" d="M187.08,-161.48C195.65,-150.81 206.22,-137.65 213.04,-129.17"/>
<polygon fill="#63b8ff" stroke="#63b8ff" points="184.42,-159.2 180.88,-169.19 189.87,-163.58 184.42,-159.2"/>
</g>
<!-- Node8 -->
<g id="node8" class="node">
<title>Node8</title>
<g id="a_node8"><a xlink:href="dialogconnect_8cpp.html" target="_top" xlink:title="DialogConnect implementation">
<polygon fill="white" stroke="#666666" points="283.5,-74 156.5,-74 156.5,-55 283.5,-55 283.5,-74"/>
<text text-anchor="middle" x="220" y="-62" font-family="Helvetica,sans-Serif" font-size="10.00">src/gui/dialogconnect.cpp</text>
</a>
</g>
</g>
<!-- Node7&#45;&gt;Node8 -->
<g id="edge7" class="edge">
<title>Node7&#45;&gt;Node8</title>
<path fill="none" stroke="#63b8ff" d="M220,-98.35C220,-90.1 220,-80.97 220,-74.44"/>
<polygon fill="#63b8ff" stroke="#63b8ff" points="216.5,-98.23 220,-108.23 223.5,-98.23 216.5,-98.23"/>
</g>
<!-- Node7&#45;&gt;Node9 -->
<g id="edge8" class="edge">
<title>Node7&#45;&gt;Node9</title>
<path fill="none" stroke="#63b8ff" d="M256.51,-105.85C284.45,-96.17 322.31,-83.06 347.17,-74.45"/>
<polygon fill="#63b8ff" stroke="#63b8ff" points="255.69,-102.43 247.38,-109.01 257.98,-109.05 255.69,-102.43"/>
</g>
<!-- Node10 -->
<g id="node10" class="node">
<title>Node10</title>
<g id="a_node10"><a xlink:href="mainwindow_8cpp.html" target="_top" xlink:title="MainWindow implementation">
<polygon fill="white" stroke="#666666" points="375.5,-19 254.5,-19 254.5,0 375.5,0 375.5,-19"/>
<text text-anchor="middle" x="315" y="-7" font-family="Helvetica,sans-Serif" font-size="10.00">src/gui/mainwindow.cpp</text>
</a>
</g>
</g>
<!-- Node9&#45;&gt;Node10 -->
<g id="edge9" class="edge">
<title>Node9&#45;&gt;Node10</title>
<path fill="none" stroke="#63b8ff" d="M354.74,-46.81C344.78,-37.72 332.86,-26.82 324.69,-19.36"/>
<polygon fill="#63b8ff" stroke="#63b8ff" points="352.3,-49.33 362.04,-53.49 357.02,-44.16 352.3,-49.33"/>
</g>
<!-- Node11 -->
<g id="node11" class="node">
<title>Node11</title>
<g id="a_node11"><a xlink:href="main_8cpp.html" target="_top" xlink:title="Main file of project linescaleGUI.">
<polygon fill="white" stroke="#666666" points="466,-19 394,-19 394,0 466,0 466,-19"/>
<text text-anchor="middle" x="430" y="-7" font-family="Helvetica,sans-Serif" font-size="10.00">src/main.cpp</text>
</a>
</g>
</g>
<!-- Node9&#45;&gt;Node11 -->
<g id="edge10" class="edge">
<title>Node9&#45;&gt;Node11</title>
<path fill="none" stroke="#63b8ff" d="M390.95,-46.81C400.73,-37.72 412.44,-26.82 420.47,-19.36"/>
<polygon fill="#63b8ff" stroke="#63b8ff" points="388.72,-44.11 383.78,-53.48 393.48,-49.23 388.72,-44.11"/>
</g>
<!-- Node12&#45;&gt;Node9 -->
<g id="edge14" class="edge">
<title>Node12&#45;&gt;Node9</title>
<path fill="none" stroke="#63b8ff" d="M385.32,-158.73C382.02,-133.75 376.55,-92.4 374.17,-74.36"/>
<polygon fill="#63b8ff" stroke="#63b8ff" points="381.84,-159.14 386.62,-168.59 388.78,-158.22 381.84,-159.14"/>
</g>
<!-- Node13 -->
<g id="node13" class="node">
<title>Node13</title>
<g id="a_node13"><a xlink:href="dialogdebug_8cpp.html" target="_top" xlink:title="DialogDebug implementation">
<polygon fill="white" stroke="#666666" points="520.5,-129 401.5,-129 401.5,-110 520.5,-110 520.5,-129"/>
<text text-anchor="middle" x="461" y="-117" font-family="Helvetica,sans-Serif" font-size="10.00">src/gui/dialogdebug.cpp</text>
</a>
</g>
</g>
<!-- Node12&#45;&gt;Node13 -->
<g id="edge13" class="edge">
<title>Node12&#45;&gt;Node13</title>
<path fill="none" stroke="#63b8ff" d="M407.68,-163.23C421.19,-152.4 438.62,-138.43 449.81,-129.47"/>
<polygon fill="#63b8ff" stroke="#63b8ff" points="405.88,-160.18 400.27,-169.17 410.26,-165.65 405.88,-160.18"/>
</g>
<!-- Node14&#45;&gt;Node4 -->
<g id="edge17" class="edge">
<title>Node14&#45;&gt;Node4</title>
<path fill="none" stroke="#63b8ff" d="M614.18,-225.59C594.68,-215.84 571.48,-204.24 553.63,-195.31"/>
<polygon fill="#63b8ff" stroke="#63b8ff" points="612.41,-228.62 622.92,-229.96 615.54,-222.36 612.41,-228.62"/>
</g>
<!-- Node15 -->
<g id="node15" class="node">
<title>Node15</title>
<g id="a_node15"><a xlink:href="comm_u_s_b_8cpp.html" target="_top" xlink:title="comm::CommUSB implementation">
<polygon fill="white" stroke="#666666" points="736.5,-195 607.5,-195 607.5,-165 736.5,-165 736.5,-195"/>
<text text-anchor="start" x="615.5" y="-183" font-family="Helvetica,sans-Serif" font-size="10.00">src/deviceCommunication</text>
<text text-anchor="middle" x="672" y="-172" font-family="Helvetica,sans-Serif" font-size="10.00">/commUSB.cpp</text>
</a>
</g>
</g>
<!-- Node14&#45;&gt;Node15 -->
<g id="edge18" class="edge">
<title>Node14&#45;&gt;Node15</title>
<path fill="none" stroke="#63b8ff" d="M660.43,-219.97C662.93,-211.55 665.63,-202.45 667.8,-195.16"/>
<polygon fill="#63b8ff" stroke="#63b8ff" points="657.14,-218.76 657.65,-229.35 663.85,-220.76 657.14,-218.76"/>
</g>
<!-- Node16&#45;&gt;Node9 -->
<g id="edge22" class="edge">
<title>Node16&#45;&gt;Node9</title>
<path fill="none" stroke="#63b8ff" d="M835.38,-291.9C831.36,-282.66 826.67,-271.36 823,-261 799.65,-195.11 832.54,-154.94 779,-110 752.66,-87.89 533.08,-73.74 428.27,-68.18"/>
<polygon fill="#63b8ff" stroke="#63b8ff" points="832.11,-293.16 839.36,-300.88 838.5,-290.32 832.11,-293.16"/>
</g>
<!-- Node17 -->
<g id="node17" class="node">
<title>Node17</title>
<g id="a_node17"><a xlink:href="plot_widget_8cpp.html" target="_top" xlink:title="Plot implementation">
<polygon fill="white" stroke="#666666" points="944.5,-255.5 831.5,-255.5 831.5,-236.5 944.5,-236.5 944.5,-255.5"/>
<text text-anchor="middle" x="888" y="-243.5" font-family="Helvetica,sans-Serif" font-size="10.00">src/gui/plotWidget.cpp</text>
</a>
</g>
</g>
<!-- Node16&#45;&gt;Node17 -->
<g id="edge23" class="edge">
<title>Node16&#45;&gt;Node17</title>
<path fill="none" stroke="#63b8ff" d="M856.45,-292.9C864.78,-280.77 875.39,-265.34 881.93,-255.82"/>
<polygon fill="#63b8ff" stroke="#63b8ff" points="853.76,-290.63 850.98,-300.85 859.52,-294.6 853.76,-290.63"/>
</g>
<!-- Node19 -->
<g id="node19" class="node">
<title>Node19</title>
<g id="a_node19"><a xlink:href="logfile_8cpp.html" target="_top" xlink:title="Logfile implementation">
<polygon fill="white" stroke="#666666" points="1067,-255.5 963,-255.5 963,-236.5 1067,-236.5 1067,-255.5"/>
<text text-anchor="middle" x="1015" y="-243.5" font-family="Helvetica,sans-Serif" font-size="10.00">src/logfile/logfile.cpp</text>
</a>
</g>
</g>
<!-- Node18&#45;&gt;Node19 -->
<g id="edge25" class="edge">
<title>Node18&#45;&gt;Node19</title>
<path fill="none" stroke="#63b8ff" d="M974.94,-293.62C985.45,-281.39 999.07,-265.54 1007.42,-255.82"/>
<polygon fill="#63b8ff" stroke="#63b8ff" points="972.5,-291.09 968.63,-300.95 977.81,-295.65 972.5,-291.09"/>
</g>
</g>
</svg>
