<?xml version="1.0" encoding="UTF-8" standalone="no"?>
<!DOCTYPE svg PUBLIC "-//W3C//DTD SVG 1.1//EN"
 "http://www.w3.org/Graphics/SVG/1.1/DTD/svg11.dtd">
<!-- Generated by graphviz version 7.0.5 (20221223.1930)
 -->
<!-- Title: src/gui/plotWidget.h Pages: 1 -->
<svg width="611pt" height="137pt"
 viewBox="0.00 0.00 611.00 137.00" xmlns="http://www.w3.org/2000/svg" xmlns:xlink="http://www.w3.org/1999/xlink">
<g id="graph0" class="graph" transform="scale(1 1) rotate(0) translate(4 133)">
<title>src/gui/plotWidget.h</title>
<!-- Node1 -->
<g id="node1" class="node">
<title>Node1</title>
<g id="a_node1"><a xlink:title="Plot declaration">
<polygon fill="#999999" stroke="#666666" points="270.5,-129 168.5,-129 168.5,-110 270.5,-110 270.5,-129"/>
<text text-anchor="middle" x="219.5" y="-117" font-family="Helvetica,sans-Serif" font-size="10.00">src/gui/plotWidget.h</text>
</a>
</g>
</g>
<!-- Node2 -->
<g id="node2" class="node">
<title>Node2</title>
<g id="a_node2"><a xlink:title=" ">
<polygon fill="#e0e0e0" stroke="#999999" points="49,-74 0,-74 0,-55 49,-55 49,-74"/>
<text text-anchor="middle" x="24.5" y="-62" font-family="Helvetica,sans-Serif" font-size="10.00">QTimer</text>
</a>
</g>
</g>
<!-- Node1&#45;&gt;Node2 -->
<g id="edge1" class="edge">
<title>Node1&#45;&gt;Node2</title>
<path fill="none" stroke="#63b8ff" d="M186.42,-109.51C151.42,-100 96.36,-85.03 60.34,-75.24"/>
<polygon fill="#63b8ff" stroke="#63b8ff" points="61.4,-71.9 50.83,-72.66 59.56,-78.66 61.4,-71.9"/>
</g>
<!-- Node3 -->
<g id="node3" class="node">
<title>Node3</title>
<g id="a_node3"><a xlink:title=" ">
<polygon fill="#e0e0e0" stroke="#999999" points="120,-74 67,-74 67,-55 120,-55 120,-74"/>
<text text-anchor="middle" x="93.5" y="-62" font-family="Helvetica,sans-Serif" font-size="10.00">QVector</text>
</a>
</g>
</g>
<!-- Node1&#45;&gt;Node3 -->
<g id="edge2" class="edge">
<title>Node1&#45;&gt;Node3</title>
<path fill="none" stroke="#63b8ff" d="M198.13,-109.51C178.09,-101.08 147.9,-88.38 125.09,-78.79"/>
<polygon fill="#63b8ff" stroke="#63b8ff" points="126.53,-75.6 115.95,-74.94 123.81,-82.05 126.53,-75.6"/>
</g>
<!-- Node4 -->
<g id="node4" class="node">
<title>Node4</title>
<g id="a_node4"><a xlink:title=" ">
<polygon fill="#e0e0e0" stroke="#999999" points="192.5,-74 138.5,-74 138.5,-55 192.5,-55 192.5,-74"/>
<text text-anchor="middle" x="165.5" y="-62" font-family="Helvetica,sans-Serif" font-size="10.00">QWidget</text>
</a>
</g>
</g>
<!-- Node1&#45;&gt;Node4 -->
<g id="edge3" class="edge">
<title>Node1&#45;&gt;Node4</title>
<path fill="none" stroke="#63b8ff" d="M210.58,-109.75C203.05,-102.35 192.03,-91.54 182.77,-82.45"/>
<polygon fill="#63b8ff" stroke="#63b8ff" points="185.28,-80.01 175.69,-75.5 180.38,-85 185.28,-80.01"/>
</g>
<!-- Node5 -->
<g id="node5" class="node">
<title>Node5</title>
<g id="a_node5"><a xlink:href="notification_8h.html" target="_top" xlink:title="Notification declaration">
<polygon fill="white" stroke="#666666" points="338.5,-74 210.5,-74 210.5,-55 338.5,-55 338.5,-74"/>
<text text-anchor="middle" x="274.5" y="-62" font-family="Helvetica,sans-Serif" font-size="10.00">../notification/notification.h</text>
</a>
</g>
</g>
<!-- Node1&#45;&gt;Node5 -->
<g id="edge4" class="edge">
<title>Node1&#45;&gt;Node5</title>
<path fill="none" stroke="#63b8ff" d="M228.58,-109.75C236.34,-102.27 247.71,-91.32 257.2,-82.17"/>
<polygon fill="#63b8ff" stroke="#63b8ff" points="259.36,-84.95 264.13,-75.49 254.5,-79.91 259.36,-84.95"/>
</g>
<!-- Node9 -->
<g id="node9" class="node">
<title>Node9</title>
<g id="a_node9"><a xlink:href="parser_8h.html" target="_top" xlink:title="Parser declaration">
<polygon fill="white" stroke="#666666" points="446,-74 357,-74 357,-55 446,-55 446,-74"/>
<text text-anchor="middle" x="401.5" y="-62" font-family="Helvetica,sans-Serif" font-size="10.00">../parser/parser.h</text>
</a>
</g>
</g>
<!-- Node1&#45;&gt;Node9 -->
<g id="edge8" class="edge">
<title>Node1&#45;&gt;Node9</title>
<path fill="none" stroke="#63b8ff" d="M250.37,-109.51C280.53,-100.73 326.64,-87.3 360,-77.59"/>
<polygon fill="#63b8ff" stroke="#63b8ff" points="360.7,-81.03 369.33,-74.87 358.75,-74.31 360.7,-81.03"/>
</g>
<!-- Node11 -->
<g id="node11" class="node">
<title>Node11</title>
<g id="a_node11"><a xlink:title=" ">
<polygon fill="#e0e0e0" stroke="#999999" points="603,-74 464,-74 464,-55 603,-55 603,-74"/>
<text text-anchor="middle" x="533.5" y="-62" font-family="Helvetica,sans-Serif" font-size="10.00">QCustomPlot/qcustomplot.h</text>
</a>
</g>
</g>
<!-- Node1&#45;&gt;Node11 -->
<g id="edge11" class="edge">
<title>Node1&#45;&gt;Node11</title>
<path fill="none" stroke="#63b8ff" d="M271,-109.81C325.15,-100.67 410.47,-86.27 469.06,-76.38"/>
<polygon fill="#63b8ff" stroke="#63b8ff" points="469.63,-79.83 478.91,-74.72 468.46,-72.93 469.63,-79.83"/>
</g>
<!-- Node6 -->
<g id="node6" class="node">
<title>Node6</title>
<g id="a_node6"><a xlink:title=" ">
<polygon fill="#e0e0e0" stroke="#999999" points="385,-19 332,-19 332,0 385,0 385,-19"/>
<text text-anchor="middle" x="358.5" y="-7" font-family="Helvetica,sans-Serif" font-size="10.00">QObject</text>
</a>
</g>
</g>
<!-- Node5&#45;&gt;Node6 -->
<g id="edge5" class="edge">
<title>Node5&#45;&gt;Node6</title>
<path fill="none" stroke="#63b8ff" d="M288.75,-54.51C301.38,-46.54 320.06,-34.75 334.91,-25.38"/>
<polygon fill="#63b8ff" stroke="#63b8ff" points="336.59,-28.46 343.18,-20.17 332.86,-22.54 336.59,-28.46"/>
</g>
<!-- Node7 -->
<g id="node7" class="node">
<title>Node7</title>
<g id="a_node7"><a xlink:title=" ">
<polygon fill="#e0e0e0" stroke="#999999" points="216.5,-19 166.5,-19 166.5,0 216.5,0 216.5,-19"/>
<text text-anchor="middle" x="191.5" y="-7" font-family="Helvetica,sans-Serif" font-size="10.00">QString</text>
</a>
</g>
</g>
<!-- Node5&#45;&gt;Node7 -->
<g id="edge6" class="edge">
<title>Node5&#45;&gt;Node7</title>
<path fill="none" stroke="#63b8ff" d="M260.42,-54.51C247.94,-46.54 229.48,-34.75 214.81,-25.38"/>
<polygon fill="#63b8ff" stroke="#63b8ff" points="216.96,-22.6 206.65,-20.17 213.19,-28.5 216.96,-22.6"/>
</g>
<!-- Node8 -->
<g id="node8" class="node">
<title>Node8</title>
<g id="a_node8"><a xlink:title=" ">
<polygon fill="#e0e0e0" stroke="#999999" points="314,-19 235,-19 235,0 314,0 314,-19"/>
<text text-anchor="middle" x="274.5" y="-7" font-family="Helvetica,sans-Serif" font-size="10.00">QTextBrowser</text>
</a>
</g>
</g>
<!-- Node5&#45;&gt;Node8 -->
<g id="edge7" class="edge">
<title>Node5&#45;&gt;Node8</title>
<path fill="none" stroke="#63b8ff" d="M274.5,-54.75C274.5,-48.27 274.5,-39.16 274.5,-30.9"/>
<polygon fill="#63b8ff" stroke="#63b8ff" points="278,-30.96 274.5,-20.96 271,-30.96 278,-30.96"/>
</g>
<!-- Node9&#45;&gt;Node6 -->
<g id="edge10" class="edge">
<title>Node9&#45;&gt;Node6</title>
<path fill="none" stroke="#63b8ff" d="M394.4,-54.75C388.58,-47.58 380.17,-37.2 372.94,-28.3"/>
<polygon fill="#63b8ff" stroke="#63b8ff" points="375.73,-26.18 366.71,-20.62 370.29,-30.59 375.73,-26.18"/>
</g>
<!-- Node10 -->
<g id="node10" class="node">
<title>Node10</title>
<g id="a_node10"><a xlink:title=" ">
<polygon fill="#e0e0e0" stroke="#999999" points="469.5,-19 403.5,-19 403.5,0 469.5,0 469.5,-19"/>
<text text-anchor="middle" x="436.5" y="-7" font-family="Helvetica,sans-Serif" font-size="10.00">QByteArray</text>
</a>
</g>
</g>
<!-- Node9&#45;&gt;Node10 -->
<g id="edge9" class="edge">
<title>Node9&#45;&gt;Node10</title>
<path fill="none" stroke="#63b8ff" d="M407.28,-54.75C411.91,-47.73 418.57,-37.64 424.37,-28.87"/>
<polygon fill="#63b8ff" stroke="#63b8ff" points="427.17,-30.98 429.76,-20.71 421.33,-27.12 427.17,-30.98"/>
</g>
</g>
</svg>
