<?xml version="1.0" encoding="UTF-8" standalone="no"?>
<!DOCTYPE svg PUBLIC "-//W3C//DTD SVG 1.1//EN"
 "http://www.w3.org/Graphics/SVG/1.1/DTD/svg11.dtd">
<!-- Generated by graphviz version 7.0.4 (20221203.1631)
 -->
<!-- Title: src/gui/plotWidget.cpp Pages: 1 -->
<svg width="486pt" height="192pt"
 viewBox="0.00 0.00 486.00 192.00" xmlns="http://www.w3.org/2000/svg" xmlns:xlink="http://www.w3.org/1999/xlink">
<g id="graph0" class="graph" transform="scale(1 1) rotate(0) translate(4 188)">
<title>src/gui/plotWidget.cpp</title>
<!-- Node1 -->
<g id="node1" class="node">
<title>Node1</title>
<g id="a_node1"><a xlink:title="Plot implementation">
<polygon fill="#999999" stroke="#666666" points="346,-184 233,-184 233,-165 346,-165 346,-184"/>
<text text-anchor="middle" x="289.5" y="-172" font-family="Helvetica,sans-Serif" font-size="10.00">src/gui/plotWidget.cpp</text>
</a>
</g>
</g>
<!-- Node2 -->
<g id="node2" class="node">
<title>Node2</title>
<g id="a_node2"><a xlink:href="plot_widget_8h.html" target="_top" xlink:title="Plot declaration">
<polygon fill="white" stroke="#666666" points="285.5,-129 215.5,-129 215.5,-110 285.5,-110 285.5,-129"/>
<text text-anchor="middle" x="250.5" y="-117" font-family="Helvetica,sans-Serif" font-size="10.00">plotWidget.h</text>
</a>
</g>
</g>
<!-- Node1&#45;&gt;Node2 -->
<g id="edge1" class="edge">
<title>Node1&#45;&gt;Node2</title>
<path fill="none" stroke="#63b8ff" d="M283.06,-164.75C277.84,-157.66 270.31,-147.42 263.81,-138.59"/>
<polygon fill="#63b8ff" stroke="#63b8ff" points="266.72,-136.64 257.98,-130.66 261.08,-140.79 266.72,-136.64"/>
</g>
<!-- Node10 -->
<g id="node10" class="node">
<title>Node10</title>
<g id="a_node10"><a xlink:title=" ">
<polygon fill="#e0e0e0" stroke="#999999" points="355.5,-129 303.5,-129 303.5,-110 355.5,-110 355.5,-129"/>
<text text-anchor="middle" x="329.5" y="-117" font-family="Helvetica,sans-Serif" font-size="10.00">QDebug</text>
</a>
</g>
</g>
<!-- Node1&#45;&gt;Node10 -->
<g id="edge9" class="edge">
<title>Node1&#45;&gt;Node10</title>
<path fill="none" stroke="#63b8ff" d="M296.11,-164.75C301.46,-157.66 309.18,-147.42 315.85,-138.59"/>
<polygon fill="#63b8ff" stroke="#63b8ff" points="318.61,-140.74 321.84,-130.65 313.02,-136.52 318.61,-140.74"/>
</g>
<!-- Node3 -->
<g id="node3" class="node">
<title>Node3</title>
<g id="a_node3"><a xlink:title=" ">
<polygon fill="#e0e0e0" stroke="#999999" points="139,-74 0,-74 0,-55 139,-55 139,-74"/>
<text text-anchor="middle" x="69.5" y="-62" font-family="Helvetica,sans-Serif" font-size="10.00">QCustomPlot/qcustomplot.h</text>
</a>
</g>
</g>
<!-- Node2&#45;&gt;Node3 -->
<g id="edge2" class="edge">
<title>Node2&#45;&gt;Node3</title>
<path fill="none" stroke="#63b8ff" d="M219.8,-109.51C189.8,-100.73 143.95,-87.3 110.77,-77.59"/>
<polygon fill="#63b8ff" stroke="#63b8ff" points="112.09,-74.32 101.5,-74.87 110.12,-81.04 112.09,-74.32"/>
</g>
<!-- Node4 -->
<g id="node4" class="node">
<title>Node4</title>
<g id="a_node4"><a xlink:title=" ">
<polygon fill="#e0e0e0" stroke="#999999" points="206,-74 157,-74 157,-55 206,-55 206,-74"/>
<text text-anchor="middle" x="181.5" y="-62" font-family="Helvetica,sans-Serif" font-size="10.00">QTimer</text>
</a>
</g>
</g>
<!-- Node2&#45;&gt;Node4 -->
<g id="edge3" class="edge">
<title>Node2&#45;&gt;Node4</title>
<path fill="none" stroke="#63b8ff" d="M238.8,-109.51C228.72,-101.77 213.96,-90.43 201.94,-81.2"/>
<polygon fill="#63b8ff" stroke="#63b8ff" points="204.29,-78.6 194.23,-75.28 200.03,-84.15 204.29,-78.6"/>
</g>
<!-- Node5 -->
<g id="node5" class="node">
<title>Node5</title>
<g id="a_node5"><a xlink:title=" ">
<polygon fill="#e0e0e0" stroke="#999999" points="277,-74 224,-74 224,-55 277,-55 277,-74"/>
<text text-anchor="middle" x="250.5" y="-62" font-family="Helvetica,sans-Serif" font-size="10.00">QVector</text>
</a>
</g>
</g>
<!-- Node2&#45;&gt;Node5 -->
<g id="edge4" class="edge">
<title>Node2&#45;&gt;Node5</title>
<path fill="none" stroke="#63b8ff" d="M250.5,-109.75C250.5,-103.27 250.5,-94.16 250.5,-85.9"/>
<polygon fill="#63b8ff" stroke="#63b8ff" points="254,-85.96 250.5,-75.96 247,-85.96 254,-85.96"/>
</g>
<!-- Node6 -->
<g id="node6" class="node">
<title>Node6</title>
<g id="a_node6"><a xlink:title=" ">
<polygon fill="#e0e0e0" stroke="#999999" points="349.5,-74 295.5,-74 295.5,-55 349.5,-55 349.5,-74"/>
<text text-anchor="middle" x="322.5" y="-62" font-family="Helvetica,sans-Serif" font-size="10.00">QWidget</text>
</a>
</g>
</g>
<!-- Node2&#45;&gt;Node6 -->
<g id="edge5" class="edge">
<title>Node2&#45;&gt;Node6</title>
<path fill="none" stroke="#63b8ff" d="M262.71,-109.51C273.33,-101.7 288.94,-90.21 301.54,-80.93"/>
<polygon fill="#63b8ff" stroke="#63b8ff" points="303.27,-84 309.25,-75.26 299.12,-78.36 303.27,-84"/>
</g>
<!-- Node7 -->
<g id="node7" class="node">
<title>Node7</title>
<g id="a_node7"><a xlink:href="parser_8h.html" target="_top" xlink:title="Parser declaration">
<polygon fill="white" stroke="#666666" points="457,-74 368,-74 368,-55 457,-55 457,-74"/>
<text text-anchor="middle" x="412.5" y="-62" font-family="Helvetica,sans-Serif" font-size="10.00">../parser/parser.h</text>
</a>
</g>
</g>
<!-- Node2&#45;&gt;Node7 -->
<g id="edge6" class="edge">
<title>Node2&#45;&gt;Node7</title>
<path fill="none" stroke="#63b8ff" d="M277.98,-109.51C304.48,-100.84 344.8,-87.65 374.39,-77.97"/>
<polygon fill="#63b8ff" stroke="#63b8ff" points="375.3,-81.35 383.72,-74.92 373.12,-74.7 375.3,-81.35"/>
</g>
<!-- Node8 -->
<g id="node8" class="node">
<title>Node8</title>
<g id="a_node8"><a xlink:title=" ">
<polygon fill="#e0e0e0" stroke="#999999" points="406.5,-19 340.5,-19 340.5,0 406.5,0 406.5,-19"/>
<text text-anchor="middle" x="373.5" y="-7" font-family="Helvetica,sans-Serif" font-size="10.00">QByteArray</text>
</a>
</g>
</g>
<!-- Node7&#45;&gt;Node8 -->
<g id="edge7" class="edge">
<title>Node7&#45;&gt;Node8</title>
<path fill="none" stroke="#63b8ff" d="M406.06,-54.75C400.84,-47.66 393.31,-37.42 386.81,-28.59"/>
<polygon fill="#63b8ff" stroke="#63b8ff" points="389.72,-26.64 380.98,-20.66 384.08,-30.79 389.72,-26.64"/>
</g>
<!-- Node9 -->
<g id="node9" class="node">
<title>Node9</title>
<g id="a_node9"><a xlink:title=" ">
<polygon fill="#e0e0e0" stroke="#999999" points="478,-19 425,-19 425,0 478,0 478,-19"/>
<text text-anchor="middle" x="451.5" y="-7" font-family="Helvetica,sans-Serif" font-size="10.00">QObject</text>
</a>
</g>
</g>
<!-- Node7&#45;&gt;Node9 -->
<g id="edge8" class="edge">
<title>Node7&#45;&gt;Node9</title>
<path fill="none" stroke="#63b8ff" d="M418.94,-54.75C424.16,-47.66 431.69,-37.42 438.19,-28.59"/>
<polygon fill="#63b8ff" stroke="#63b8ff" points="440.92,-30.79 444.02,-20.66 435.28,-26.64 440.92,-30.79"/>
</g>
</g>
</svg>
